<svg xmlns="http://www.w3.org/2000/svg" width="700" height="800" viewBox="-23.7 -24.737 47.4 49.474">
<rect x="-23.7" y="-24.737" width="47.4" height="49.474" fill="#141a22"/>
<path d="M-23.7 -17.5H23.7" stroke="#617380" stroke-width=".2"/>
<path d="M-23.7 -12.5H23.7" stroke="#617380" stroke-width=".2"/>
<path d="M-23.7 12.5H23.7" stroke="#617380" stroke-width=".2"/>
<path d="M-23.7 17.5H23.7" stroke="#617380" stroke-width=".2"/>
<path d="M-13.0,13.222 L-12.0,13.181 L-11.0,13.222 L-11.0,-4.737 L-10.9,-4.737 L-10.9,0.266 L-10.129,4.12 L-9.887,4.192 L-9.638,4.151 L-9.49,5.263 L9.49,5.263 L9.638,4.151 L9.887,4.192 L10.129,4.12 L10.9,0.266 L10.9,-4.737 L11.0,-4.737 L11.0,13.222 L12.0,13.181 L13.0,13.222 L13.0,-4.737 L18.7,-4.737 L18.7,-19.737 L-18.7,-19.737 L-18.7,-4.737 L-13.0,-4.737Z" fill="#353b40"/>
<path d="M-13.127,15.251 L-12.833,14.993 L-12.482,14.82 L-12.098,14.744 L-11.707,14.77 L-11.337,14.895 L-11.011,15.113 L-10.701,15.49 L-10.513,16.044 L-10.5,19.737 L-9.0,19.737 L-9.007,16.003 L-9.079,15.518 L-9.268,14.961 L-9.453,14.615 L-9.745,14.222 L-10.097,13.881 L-10.416,13.653 L-11.129,13.33 L-11.512,13.241 L-12.0,13.201 L-12.488,13.241 L-12.871,13.33 L-13.584,13.653 L-13.903,13.881 L-14.255,14.222 L-14.547,14.615 L-14.732,14.961 L-14.921,15.518 L-14.993,16.003 L-15.0,19.737 L-13.5,19.737 L-13.5,16.24 L-13.449,15.852 L-13.299,15.49Z" fill="#353b40"/>
<path d="M10.551,15.852 L10.753,15.407 L11.087,15.05 L11.518,14.82 L12.0,14.741 L12.482,14.82 L12.913,15.05 L13.247,15.407 L13.449,15.852 L13.5,16.24 L13.5,19.737 L15.0,19.737 L14.998,16.101 L14.871,15.328 L14.598,14.7 L14.189,14.149 L13.747,13.762 L13.148,13.429 L12.585,13.259 L12.0,13.201 L11.415,13.259 L10.852,13.429 L10.334,13.706 L9.879,14.079 L9.506,14.533 L9.229,15.051 L9.058,15.614 L9.002,16.101 L9.0,19.737 L10.5,19.737 L10.5,16.24Z" fill="#353b40"/>
<path d="M-13.0,13.222 L-12.0,13.181" fill="none" stroke="#f0e2b8" stroke-width=".25"/>
<path d="M-12.0,13.181 L-11.0,13.222" fill="none" stroke="#f0e2b8" stroke-width=".25"/>
<path d="M-11.0,13.222 L-11.0,-4.737" fill="none" stroke="#f0e2b8" stroke-width=".25"/>
<path d="M-11.0,-4.737 L-10.9,-4.737" fill="none" stroke="#f0e2b8" stroke-width=".25"/>
<path d="M-10.9,-4.737 L-10.9,0.266" fill="none" stroke="#f0e2b8" stroke-width=".25"/>
<path d="M-10.9,0.266 L-10.129,4.12" fill="none" stroke="#f0e2b8" stroke-width=".25"/>
<path d="M-10.129,4.12 L-9.887,4.192" fill="none" stroke="#f0e2b8" stroke-width=".25"/>
<path d="M-9.887,4.192 L-9.638,4.151" fill="none" stroke="#f0e2b8" stroke-width=".25"/>
<path d="M-9.638,4.151 L-9.49,5.263" fill="none" stroke="#f0e2b8" stroke-width=".25"/>
<path d="M-9.49,5.263 L9.49,5.263" fill="none" stroke="#f0e2b8" stroke-width=".25"/>
<path d="M9.49,5.263 L9.638,4.151" fill="none" stroke="#f0e2b8" stroke-width=".25"/>
<path d="M9.638,4.151 L9.887,4.192" fill="none" stroke="#f0e2b8" stroke-width=".25"/>
<path d="M9.887,4.192 L10.129,4.12" fill="none" stroke="#f0e2b8" stroke-width=".25"/>
<path d="M10.129,4.12 L10.9,0.266" fill="none" stroke="#f0e2b8" stroke-width=".25"/>
<path d="M10.9,0.266 L10.9,-4.737" fill="none" stroke="#f0e2b8" stroke-width=".25"/>
<path d="M10.9,-4.737 L11.0,-4.737" fill="none" stroke="#f0e2b8" stroke-width=".25"/>
<path d="M11.0,-4.737 L11.0,13.222" fill="none" stroke="#f0e2b8" stroke-width=".25"/>
<path d="M11.0,13.222 L12.0,13.181" fill="none" stroke="#f0e2b8" stroke-width=".25"/>
<path d="M12.0,13.181 L13.0,13.222" fill="none" stroke="#f0e2b8" stroke-width=".25"/>
<path d="M13.0,13.222 L13.0,-4.737" fill="none" stroke="#f0e2b8" stroke-width=".25"/>
<path d="M13.0,-4.737 L18.7,-4.737" fill="none" stroke="#f0e2b8" stroke-width=".25"/>
<path d="M18.7,-4.737 L18.7,-19.737" fill="none" stroke="#f0e2b8" stroke-width=".25"/>
<path d="M18.7,-19.737 L-18.7,-19.737" fill="none" stroke="#f0e2b8" stroke-width=".25"/>
<path d="M-18.7,-19.737 L-18.7,-4.737" fill="none" stroke="#f0e2b8" stroke-width=".25"/>
<path d="M-18.7,-4.737 L-13.0,-4.737" fill="none" stroke="#f0e2b8" stroke-width=".25"/>
<path d="M-13.0,-4.737 L-13.0,13.222" fill="none" stroke="#f0e2b8" stroke-width=".25"/>
<path d="M-13.127,15.251 L-13.059882492023391,15.179476999034518 L-12.988234567762788,15.112492862903302 L-12.912362516025665,15.050333943114602 L-12.832590683406666,14.993265963785518 L-12.749260087733383,14.941532885693892 L-12.66272696024403,14.895355863366659 L-12.573361222729073,14.85493229966297 L-12.481544906146908,14.820435001893692 L-12.387670517473877,14.792011443084789 L-12.292139361770184,14.76978313154263 L-12.195359826634759,14.75384509141627 L-12.09774563638286,14.74426545647726 L-11.999714083409675,14.741085178853549 L-11.901684244300666,14.744317853962603 L-11.804075188314682,14.753949662392142 L-11.707304185898352,14.769939428976967 L-11.611784924890285,14.792218798819299 L-11.517925742040596,14.820692529500171 L-11.42612787740588,14.855238898232717 L-11.336783759081968,14.895710222216755 L-11.250275325607042,14.94193348997027 L-11.166972393206752,14.993711100938826 L-11.087231074861164,15.050821710221216 L-11.011392257951933,15.113021174800156 L-10.939780146997629,15.180043597233002 L-10.872700877706874,15.251602462340806 L-10.81044120827412,15.327391862036428 L-10.753267293512662,15.407087803055704 L-10.701423547065342,15.490349592001202 L-10.655131596556942,15.576821291777637 L-10.61458933615485,15.666133243192819 L-10.579970080588268,15.757903645219365 L-10.55142182424241,15.851740187161777 L-10.529066608495057,15.947241725751413 L-10.513,16.044" fill="none" stroke="#f0e2b8" stroke-width=".25"/>
<path d="M-10.513,16.044 L-10.5,19.737" fill="none" stroke="#f0e2b8" stroke-width=".25"/>
<path d="M-10.5,19.737 L-9.0,19.737" fill="none" stroke="#f0e2b8" stroke-width=".25"/>
<path d="M-9.0,19.737 L-9.007,16.003" fill="none" stroke="#f0e2b8" stroke-width=".25"/>
<path d="M-9.007,16.003 L-9.01516832841361,15.90413333241213 L-9.026601583906473,15.80559085315654 L-9.041287260330984,15.707480351899244 L-9.059209293912726,15.609909145791612 L-9.080348080821675,15.512983962082624 L-9.104680498615627,15.416810821376375 L-9.132179931532457,15.32149492166255 L-9.162816299603486,15.227140523246685 L-9.196556091556142,15.133850834706125 L-9.23336240146992,15.04172789999639 L-9.273194969145536,14.950872486831457 L-9.316010224143131,14.861383976460047 L-9.361761333441338,14.773360254958472 L-9.410398252665102,14.68689760615898 L-9.461867780826193,14.602090606330677 L-9.51611361851656,14.519032020728261 L-9.573076429490843,14.437812702121718 L-9.63269390557072,14.358521491417957 L-9.694900834800054,14.28124512048311 L-9.759629172776307,14.206068117271787 L-9.826808117080216,14.133072713367051 L-9.896364184722266,14.062338754032247 L-9.96822129252131,13.993943610873103 L-10.042300840327353,13.927962097205599 L-10.118521796997522,13.864466386222196 L-10.196800789031116,13.803525932045947 L-10.27705219176687,13.74520739375882 L-10.35918822304258,13.68957456248736 L-10.44311903921472,13.636688291625427 L-10.528752833432968,13.586606430270344 L-10.61599593606218,13.539383759945256 L-10.704752917141949,13.49507193467695 L-10.794926690771662,13.453719424494611 L-10.886418621306918,13.415371462411404 L-10.979128631251093,13.380069994946805 L-11.072955310724069,13.347853636243832 L-11.16779602838838,13.318757625831378 L-11.263547043711432,13.292813790077808 L-11.360103620441,13.270050507378027 L-11.457360141169898,13.250492677112057 L-11.555210222864476,13.234161692409117 L-11.653546833230592,13.221075416746968 L-11.752262407789782,13.211248164412137 L-11.851248967537535,13.20469068484238 L-11.950398237055012,13.201410150868515 L-12.04960176294499,13.201410150868515 L-12.148751032462467,13.204690684842378 L-12.24773759221022,13.211248164412137 L-12.34645316676941,13.221075416746968 L-12.444789777135526,13.234161692409117 L-12.542639858830103,13.250492677112057 L-12.639896379559001,13.270050507378027 L-12.736452956288572,13.292813790077808 L-12.832203971611621,13.318757625831376 L-12.927044689275933,13.34785363624383 L-13.020871368748908,13.380069994946803 L-13.113581378693082,13.415371462411404 L-13.20507330922834,13.453719424494611 L-13.295247082858053,13.495071934676949 L-13.384004063937821,13.539383759945256 L-13.471247166567034,13.586606430270342 L-13.556880960785282,13.636688291625427 L-13.640811776957422,13.68957456248736 L-13.722947808233133,13.745207393758818 L-13.803199210968888,13.803525932045947 L-13.881478203002482,13.864466386222194 L-13.95769915967265,13.927962097205597 L-14.031778707478693,13.993943610873103 L-14.103635815277737,14.062338754032247 L-14.173191882919788,14.13307271336705 L-14.240370827223696,14.206068117271787 L-14.305099165199948,14.28124512048311 L-14.367306094429281,14.358521491417957 L-14.42692357050916,14.437812702121718 L-14.483886381483444,14.519032020728261 L-14.53813221917381,14.602090606330677 L-14.5896017473349,14.686897606158979 L-14.638238666558665,14.773360254958472 L-14.683989775856872,14.861383976460045 L-14.726805030854468,14.950872486831457 L-14.766637598530084,15.04172789999639 L-14.80344390844386,15.133850834706125 L-14.837183700396517,15.227140523246685 L-14.867820068467546,15.32149492166255 L-14.895319501384376,15.416810821376375 L-14.919651919178328,15.512983962082622 L-14.940790706087276,15.609909145791612 L-14.95871273966902,15.707480351899244 L-14.97339841609353,15.80559085315654 L-14.984831671586393,15.904133332412128 L-14.993,16.003" fill="none" stroke="#f0e2b8" stroke-width=".25"/>
<path d="M-14.993,16.003 L-15.0,19.737" fill="none" stroke="#f0e2b8" stroke-width=".25"/>
<path d="M-15.0,19.737 L-13.5,19.737" fill="none" stroke="#f0e2b8" stroke-width=".25"/>
<path d="M-13.5,19.737 L-13.5,16.24" fill="none" stroke="#f0e2b8" stroke-width=".25"/>
<path d="M-13.5,16.24 L-13.496897040259016,16.141845109399217 L-13.487345871972465,16.044106754121632 L-13.471387846081521,15.947208083760945 L-13.44909205145261,15.851568612569022 L-13.420555015763235,15.75760240320593 L-13.385900287593923,15.665716274092135 L-13.345277901535528,15.576308038124033 L-13.298863728627692,15.489764780378055 L-13.246858714940686,15.406461182259969 L-13.189488011597113,15.326757899354751 L-13.127,15.251" fill="none" stroke="#f0e2b8" stroke-width=".25"/>
<path d="M10.551,15.852 L10.579506596243753,15.758085706525776 L10.614093349972162,15.666236498501442 L10.654612209394736,15.576845544936438 L10.700889729795236,15.49029549205518 L10.752727815977776,15.406956825344592 L10.809904570231598,15.327186283656792 L10.872175242184689,15.251325332155526 L10.939273276480336,15.179698700643025 L11.010911453791913,15.112612993524131 L11.086783120291726,15.050355377357848 L11.166563500311,14.99319235161439 L11.249911086572105,14.941368607899616 L11.336469102041962,14.895105982530026 L11.425867027149055,14.854602506941951 L11.517722185826637,14.820031559999709 L11.611641383592946,14.791541125831383 L11.707222590656468,14.76925316036911 L11.804056662841537,14.753263069305458 L11.901729092967743,14.743639299700552 L11.99982178518616,14.740423046988127 L12.097914844677195,14.743628078634666 L12.195588375049114,14.753240675206493 L12.292424275743286,14.769219689097074 L12.3880080317522,14.791496720663144 L12.481930487989196,14.819976411015684 L12.573789600714571,14.854536850212456 L12.6631921585209,14.895030099104751 L12.749755465510738,14.941282822604563 L12.83310897946173,14.993097031661431 L12.912895897966774,15.050250930772835 L12.988774685759648,15.11249986740031 L13.060420536688223,15.179577379227203 L13.127526764077182,15.251196334775218 L13.189806113528606,15.327050162497187 L13.246991992540952,15.406814163084874 L13.298839611682833,15.490146899374315 L13.34512703243678,15.576691657899104 L13.385656117227533,15.666077975835302 L13.42025337756822,15.75792322680173 L13.448770716693822,15.851834258727497 L13.471086063503057,15.947409076775717 L13.487103895094975,16.0442385641195 L13.496755645663555,16.141908233204273 L13.5,16.24" fill="none" stroke="#f0e2b8" stroke-width=".25"/>
<path d="M13.5,16.24 L13.5,19.737" fill="none" stroke="#f0e2b8" stroke-width=".25"/>
<path d="M13.5,19.737 L15.0,19.737" fill="none" stroke="#f0e2b8" stroke-width=".25"/>
<path d="M15.0,19.737 L14.998,16.101" fill="none" stroke="#f0e2b8" stroke-width=".25"/>
<path d="M14.998,16.101 L14.993053391309457,16.00194992316058 L14.984835191541011,15.903117500079903 L14.97335438369146,15.80461076066298 L14.958623516988505,15.706537378822585 L14.94065869317367,15.609004554785065 L14.919479548902112,15.512118897913902 L14.89510923427855,15.415986310179145 L14.867574387552777,15.32071187040005 L14.836905106002424,15.226399719387484 L14.803134913034786,15.133152946111618 L14.766300721543672,15.041073475019372 L14.726442793561361,14.950261954624716 L14.68360469624972,14.860817647493684 L14.637833254278616,14.77283832174429 L14.589178498643696,14.68642014417997 L14.53769361197942,14.60165757517337 L14.483434870427182,14.518643265415356 L14.426461582122041,14.43746795464212 L14.366836022365277,14.358220372451086 L14.304623365553674,14.280987141314005 L14.239891613939896,14.205852681893283 L14.172711523301858,14.132899120765007 L14.103156525602309,14.062206200649568 L14.0313026487232,13.993851193247961 L13.957228433362529,13.92790881477908 L13.881014847184552,13.864451144310301 L13.802745196317142,13.803547544970641 L13.722505034293087,13.745264588132596 L13.640382068534826,13.689665980645543 L13.556466064484846,13.63681249520025 L13.470848747486551,13.586761903900587 L13.38362370252283,13.539568915115082 L13.294886271921921,13.4952851136773 L13.2047334511424,13.453958904500464 L13.113263782751186,13.415635459667913 L13.020577248710474,13.380356669057237 L12.926775161091303,13.348161094552077 L12.83196005133325,13.319083927891613 L12.736235558171272,13.293156952203836 L12.639706314352209,13.270408507264634 L12.542477832264764,13.250863458520683 L12.444656388607989,13.234543169909987 L12.346348908224329,13.221465480509774 L12.247662847224206,13.211644685037305 L12.148706075529892,13.205091518224854 L12.04958675896707,13.201813143085998 L11.950413241032937,13.201813143085998 L11.851293924470115,13.205091518224854 L11.752337152775802,13.211644685037305 L11.653651091775679,13.221465480509774 L11.55534361139202,13.234543169909987 L11.457522167735245,13.250863458520683 L11.360293685647799,13.270408507264634 L11.263764441828735,13.293156952203836 L11.168039948666758,13.319083927891613 L11.073224838908706,13.348161094552077 L10.979422751289533,13.380356669057237 L10.88673621724882,13.41563545966791 L10.795266548857608,13.453958904500464 L10.705113728078086,13.4952851136773 L10.616376297477178,13.539568915115083 L10.529151252513456,13.586761903900587 L10.443533935515163,13.636812495200248 L10.35961793146518,13.689665980645543 L10.277494965706921,13.745264588132596 L10.197254803682865,13.803547544970641 L10.118985152815455,13.864451144310301 L10.042771566637478,13.92790881477908 L9.968697351276807,13.993851193247961 L9.896843474397697,14.062206200649568 L9.82728847669815,14.132899120765007 L9.76010838606011,14.205852681893283 L9.695376634446333,14.280987141314005 L9.63316397763473,14.358220372451086 L9.573538417877966,14.43746795464212 L9.516565129572825,14.518643265415355 L9.462306388020588,14.60165757517337 L9.41082150135631,14.68642014417997 L9.36216674572139,14.772838321744288 L9.316395303750287,14.860817647493684 L9.273557206438646,14.950261954624715 L9.233699278456335,15.04107347501937 L9.196865086965223,15.133152946111618 L9.163094893997583,15.226399719387484 L9.13242561244723,15.32071187040005 L9.104890765721457,15.415986310179145 L9.080520451097895,15.512118897913902 L9.059341306826337,15.609004554785063 L9.041376483011502,15.706537378822585 L9.026645616308548,15.80461076066298 L9.015164808458996,15.903117500079903 L9.00694660869055,16.00194992316058 L9.002,16.101" fill="none" stroke="#f0e2b8" stroke-width=".25"/>
<path d="M9.002,16.101 L9.0,19.737" fill="none" stroke="#f0e2b8" stroke-width=".25"/>
<path d="M9.0,19.737 L10.5,19.737" fill="none" stroke="#f0e2b8" stroke-width=".25"/>
<path d="M10.5,19.737 L10.5,16.24" fill="none" stroke="#f0e2b8" stroke-width=".25"/>
<path d="M10.5,16.24 L10.551,15.852" fill="none" stroke="#f0e2b8" stroke-width=".25"/>
<path d="M-13,-18.236742 L-13,13.221747" fill="none" stroke="#f0e2b8" stroke-width=".25"/>
<path d="M-13,-18.236742 L-13.0338635956977,-18.329777431149864 L-13.059092067919314,-18.425515922636734 L-13.075474701272938,-18.523157839287418 L-13.082874663334586,-18.621887647979143 L-13.081230147511597,-18.720880729204683 L-13.070554889268934,-18.81931026452956 L-13.050938051406646,-18.9163541424153 L-13.022543479346757,-19.01120182472939 L-12.985608332649589,-19.103061116590784 L-12.940441104189505,-19.191164783007416 L-12.887419043534482,-19.274776957041546 L-12.82698500605018,-19.35319928598021 L-12.759643754045674,-19.425776764176163 L-12.685957740854764,-19.49190320384176 L-12.606542413065386,-19.551026298102155 L-12.522061070134264,-19.6026522340198 L-12.433219324320765,-19.646349817060834 L-12.340759207212153,-19.681754072554774 L-12.245452972064244,-19.708569294066997 L-12.148096643722061,-19.726571513223185 L-12.049503369993412,-19.73561037035703 L-11.950496630006588,-19.73561037035703 L-11.851903356277939,-19.726571513223185 L-11.754547027935756,-19.708569294066997 L-11.659240792787847,-19.681754072554774 L-11.566780675679235,-19.646349817060834 L-11.477938929865736,-19.6026522340198 L-11.393457586934614,-19.551026298102155 L-11.314042259145236,-19.49190320384176 L-11.240356245954326,-19.425776764176163 L-11.17301499394982,-19.35319928598021 L-11.112580956465518,-19.274776957041546 L-11.059558895810497,-19.191164783007416 L-11.014391667350411,-19.103061116590784 L-10.977456520653243,-19.01120182472939 L-10.949061948593354,-18.9163541424153 L-10.929445110731066,-18.81931026452956 L-10.918769852488403,-18.720880729204683 L-10.917125336665414,-18.621887647979143 L-10.924525298727062,-18.523157839287418 L-10.940907932080686,-18.425515922636734 L-10.9661364043023,-18.329777431149864 L-11,-18.236742" fill="none" stroke="#f0e2b8" stroke-width=".25"/>
<path d="M-11,-18.236742 L-11,13.221747" fill="none" stroke="#f0e2b8" stroke-width=".25"/>
<path d="M11,-18.236742 L11,13.221747" fill="none" stroke="#f0e2b8" stroke-width=".25"/>
<path d="M11,-18.236742 L10.9661364043023,-18.329777431149864 L10.940907932080686,-18.425515922636734 L10.924525298727062,-18.523157839287418 L10.917125336665414,-18.621887647979143 L10.918769852488403,-18.720880729204683 L10.929445110731066,-18.81931026452956 L10.949061948593354,-18.9163541424153 L10.977456520653243,-19.01120182472939 L11.014391667350411,-19.103061116590784 L11.059558895810495,-19.191164783007416 L11.112580956465518,-19.274776957041546 L11.17301499394982,-19.35319928598021 L11.240356245954326,-19.425776764176163 L11.314042259145236,-19.49190320384176 L11.393457586934614,-19.551026298102155 L11.477938929865736,-19.6026522340198 L11.566780675679235,-19.646349817060834 L11.659240792787847,-19.681754072554774 L11.754547027935756,-19.708569294066997 L11.851903356277939,-19.726571513223185 L11.950496630006588,-19.73561037035703 L12.049503369993412,-19.73561037035703 L12.148096643722061,-19.726571513223185 L12.245452972064244,-19.708569294066997 L12.340759207212153,-19.681754072554774 L12.433219324320765,-19.646349817060834 L12.522061070134264,-19.6026522340198 L12.606542413065386,-19.551026298102155 L12.685957740854764,-19.49190320384176 L12.759643754045674,-19.425776764176163 L12.82698500605018,-19.35319928598021 L12.887419043534482,-19.274776957041546 L12.940441104189503,-19.191164783007416 L12.985608332649589,-19.103061116590784 L13.022543479346757,-19.01120182472939 L13.050938051406646,-18.9163541424153 L13.070554889268934,-18.81931026452956 L13.081230147511597,-18.720880729204683 L13.082874663334586,-18.621887647979143 L13.075474701272938,-18.523157839287418 L13.059092067919314,-18.425515922636734 L13.0338635956977,-18.329777431149864 L13,-18.236742" fill="none" stroke="#f0e2b8" stroke-width=".25"/>
<path d="M13,-18.236742 L13,13.221747" fill="none" stroke="#f0e2b8" stroke-width=".25"/>
<path d="M-18.7,-8.236742 L-13,-8.236742" fill="none" stroke="#f0e2b8" stroke-width=".25"/>
<path d="M-11,-8.236742 L11,-8.236742" fill="none" stroke="#f0e2b8" stroke-width=".25"/>
<path d="M13,-8.236742 L18.7,-8.236742" fill="none" stroke="#f0e2b8" stroke-width=".25"/>
<path d="M-10.9,-4.736742 L10.9,-4.736742" fill="none" stroke="#f0e2b8" stroke-width=".25"/>
<circle cx="-5.8" cy="1.763258" r="1.5" fill="none" stroke="#ec7979" stroke-width=".13"/>
<circle cx="5.8" cy="1.763258" r="1.5" fill="none" stroke="#ec7979" stroke-width=".13"/>
</svg>