<svg xmlns="http://www.w3.org/2000/svg" width="700" height="800" viewBox="-31.87454710074949 -28.761 63.74854710074949 56.2">
<rect x="-31.87454710074949" y="-28.761" width="63.74854710074949" height="56.2" fill="#141a22"/>
<path d="M-31.87454710074949 -17.5H31.874" stroke="#617380" stroke-width=".2"/>
<path d="M-31.87454710074949 -12.5H31.874" stroke="#617380" stroke-width=".2"/>
<path d="M-31.87454710074949 12.5H31.874" stroke="#617380" stroke-width=".2"/>
<path d="M-31.87454710074949 17.5H31.874" stroke="#617380" stroke-width=".2"/>
<path d="M-16.626,-12.8 L-16.82571,-12.8 L-16.82571,-14.25 L-23.469734,-14.25 L-24.405895,-13.601574 L-25.12033232880067,-11.521355114335622 L-25.690967407120993,-9.500856663535009 L-26.07208120292355,-7.844441495274522 L-26.363990587062197,-6.271573499020962 L-26.602614581099743,-4.588713574825242 L-26.759475524143724,-2.996696154463817 L-26.85038685301592,-1.3995549733312505 L-26.87454710074949,0.2999670831467275 L-26.824035906310243,1.9989101528906121 L-26.708369192124223,3.594449570584924 L-26.471200940165062,5.579912547210367 L-26.15115253631741,7.452377220347044 L-25.73957694472132,9.306874582262807 L-25.208553666011994,11.23465213394156 L-24.405895,13.601574 L-23.469734,14.25 L-16.82571,14.25 L-16.82571,12.8 L-16.626,12.8 L-16.626,10.5 L-10.826,10.5 L-10.826,9.5 L-9.737,9.5 L-9.737,13.49 L-9.772,13.483 L-10.927,14.789 L-10.372,16.442 L-9.737,16.57 L-9.737,18.939 L-9.337,18.939 L-9.337,21.723 L-5.937,22.439 L-3.437,22.439 L-3.437,19.939 L-3.737,19.939 L-3.737,18.288 L-0.026,19.04 L-0.026,19.65 L1.776,20.361 L3.774,20.45 L3.779761551386169,19.509203724446934 L9.2,20.5 L9.640428380698074,19.031905397673086 L9.108,21.658 L10.804,21.85 L10.815,21.792 L11.621,21.846 L12.589,17.073 L11.826,16.809 L11.838,16.751 L10.201,16.267 L9.750010099766428,18.49141587571747 L4.974311064134474,17.671346344346325 L6.274,15.42 L6.274,12.0 L6.491821782178216,12.0 L16.887,16.2 L22.021,16.2 L22.253,16.382 L26.874,14.7 L26.874,-14.3 L22.253,-15.982 L22.021,-15.8 L16.887,-15.8 L16.274,-15.552339051094892 L16.268,-16.058 L16.14,-16.25 L15.974,-16.3 L14.999,-16.312 L14.858,-16.4 L14.721,-16.692 L14.593,-16.782 L12.453,-16.8 L12.245,-16.717 L11.68,-15.977 L11.156,-15.494 L10.436,-15.031 L9.778,-14.756 L9.085,-14.588 L8.374,-14.531 L7.594,-14.599 L6.837,-14.802 L3.274,-13.847 L3.274,-18.5 L-1.626,-18.5 L-1.626,-23.0 L-3.126,-23.0 L-3.126,-18.5 L-3.526,-18.5 L-3.526,0.0 L-0.8493587786259541,8.0 L-3.737,8.0 L-3.741,-18.533 L-3.797,-18.788 L-3.918,-19.02 L-6.939,-23.335 L-7.135,-23.544 L-7.383,-23.689 L-7.758,-23.761 L-9.335,-23.752 L-9.591,-23.615 L-9.728,-23.359 L-9.737,-9.65 L-10.826,-9.65 L-10.826,-11.0 L-11.979,-11.0 L-11.979,-10.5 L-16.626,-10.5Z" fill="#353b40"/>
<path d="M-16.626,-12.8 L-16.82571,-12.8" fill="none" stroke="#f0e2b8" stroke-width=".25"/>
<path d="M-16.82571,-12.8 L-16.82571,-14.25" fill="none" stroke="#f0e2b8" stroke-width=".25"/>
<path d="M-16.82571,-14.25 L-23.469734,-14.25" fill="none" stroke="#f0e2b8" stroke-width=".25"/>
<path d="M-23.469734,-14.25 L-24.405895,-13.601574" fill="none" stroke="#f0e2b8" stroke-width=".25"/>
<path d="M-24.405895,-13.601574 L-24.44092787297825,-13.507921994324372 L-24.47571858141403,-13.414179757511317 L-24.510266892910003,-13.320347915746616 L-24.544572576687997,-13.226427095814614 L-24.578635403590575,-13.132417925093968 L-24.612455146082546,-13.038321031553556 L-24.646031578252483,-12.94413704374822 L-24.67936447581426,-12.849866590814573 L-24.712453616108505,-12.755510302466812 L-24.74529877810413,-12.661068808992493 L-24.77789974239979,-12.566542741248341 L-24.810256291225322,-12.471932730656038 L-24.842368208443276,-12.377239409197946 L-24.874235279550263,-12.282463409412976 L-24.90585729167846,-12.187605364392308 L-24.937234033596987,-12.092665907775173 L-24.968365295713348,-11.997645673744621 L-24.999250870074825,-11.902545297023282 L-25.029890550369835,-11.807365412869151 L-25.060284131929386,-11.712106657071264 L-25.09043141172834,-11.61676966594556 L-25.120332188386847,-11.521355076330572 L-25.149986262171666,-11.425863525583173 L-25.179393434997493,-11.330295651574328 L-25.208553510428295,-11.234652092684831 L-25.2374662936786,-11.13893348780106 L-25.26613159161485,-11.043140476310635 L-25.29454921275662,-10.947273698098256 L-25.322718967277957,-10.851333793541361 L-25.35064066700862,-10.75532140350586 L-25.378314125435324,-10.659237169341852 L-25.405739157703024,-10.56308173287935 L-25.43291558061611,-10.466855736424005 L-25.459843212639676,-10.37055982275275 L-25.486521873900692,-10.274194635109604 L-25.512951386189215,-10.177760817201316 L-25.53913157295959,-10.081259013193062 L-25.56506225933161,-9.984689867704173 L-25.59074327209173,-9.888054025803804 L-25.616174439694156,-9.791352133006631 L-25.641355592262038,-9.694584835268563 L-25.66628656158862,-9.597752778982352 L-25.690967181138305,-9.500856610973385 L-25.715397286047796,-9.403896978495277 L-25.739576713127235,-9.306874529225592 L-25.763505300861226,-9.209789911261492 L-25.787182889409955,-9.11264377311542 L-25.81060932061026,-9.015436763710786 L-25.833784437976682,-8.918169532377561 L-25.85670808670247,-8.820842728848033 L-25.879380113660687,-8.723457003252419 L-25.90180036740518,-8.626013006114519 L-25.923968698171606,-8.528511388347383 L-25.945884957878455,-8.43095280124896 L-25.96754900012799,-8.333337896497744 L-25.988960680207256,-8.235667326148441 L-26.01011985508908,-8.137941742627548 L-26.031026383432945,-8.040161798729091 L-26.05168012558601,-7.942328147610198 L-26.07208094358399,-7.844441442786755 L-26.092228701152123,-7.7465023381290425 L-26.11212326370603,-7.648511487857362 L-26.13176449835268,-7.550469546537686 L-26.151152273891192,-7.45237716907722 L-26.1702864608138,-7.354235010720124 L-26.18916693130665,-7.256043727043073 L-26.20779355925069,-7.157803973950891 L-26.226166220222503,-7.059516407672174 L-26.24428479149514,-6.9611816847549 L-26.262149152038923,-6.862800462062067 L-26.27975918252229,-6.764373396767234 L-26.297114765312564,-6.665901146350233 L-26.314215784476737,-6.567384368592709 L-26.331062125782253,-6.468823721573746 L-26.347653676697767,-6.370219863665466 L-26.363990326393917,-6.271573453528636 L-26.380071965744037,-6.172885150108282 L-26.3958984873249,-6.074155612629221 L-26.411469785417417,-5.975385500591762 L-26.426785756007384,-5.8765754737672244 L-26.44184629678613,-5.7777261921935565 L-26.456651307151233,-5.678838316170923 L-26.471200688207176,-5.579912506257293 L-26.485494342766003,-5.480949423264032 L-26.499532175347994,-5.381949728251495 L-26.513314092182284,-5.282914082524559 L-26.526840001207475,-5.18384314762829 L-26.540109812072295,-5.084737585343469 L-26.553123436136133,-4.98559805768218 L-26.56588078646972,-4.886425226883394 L-26.578381777855626,-4.7872197554085405 L-26.59062632678888,-4.687982305937102 L-26.602614351477513,-4.588713541362119 L-26.61434577184309,-4.489414124785864 L-26.625820509521283,-4.390084719515345 L-26.637038487862355,-4.290725989057886 L-26.647999631931683,-4.191338597116705 L-26.65870386851028,-4.091923207586473 L-26.66915112609525,-3.9924804845488775 L-26.679341334900293,-3.893011092268213 L-26.689274426856166,-3.7935156951868665 L-26.69895033561111,-3.693994957920986 L-26.708368996531334,-3.5944495452559697 L-26.71753034670143,-3.4948801221420474 L-26.72643432492479,-3.395287353689832 L-26.73508087172401,-3.295671905165901 L-26.743469929341295,-3.1960344419882767 L-26.75160144173885,-3.09637562972209 L-26.75947535459924,-2.9966961340750644 L-26.767091615325768,-2.8969966208930833 L-26.774450173042823,-2.7972777561557463 L-26.7815509785962,-2.6975402059719182 L-26.788393984553466,-2.5977846365752804 L-26.79497914520423,-2.4980117143198974 L-26.801306416560493,-2.3982221056756967 L-26.80737575635692,-2.2984164772241207 L-26.813187124051126,-2.1985954956536045 L-26.818740480823926,-2.0987598277551403 L-26.82403578957964,-1.9989101404178222 L-26.829073014946303,-1.8990471006243932 L-26.833852123275918,-1.7991713754468057 L-26.838373082644658,-1.699283632041698 L-26.84263586285313,-1.5993845376460385 L-26.8466404354265,-1.4994747595726032 L-26.850386773614773,-1.399554965205533 L-26.85387485239289,-1.2996258219958758 L-26.857104648460954,-1.1996879974571295 L-26.860076140244352,-1.0997421591607817 L-26.862789307893905,-0.9997889747318676 L-26.86524413328602,-0.8998291118444427 L-26.867440600022782,-0.7998632382172252 L-26.869378693432076,-0.6998920216090665 L-26.871058400567705,-0.599916129814509 L-26.872479710209433,-0.49993623065932463 L-26.873642612863115,-0.39995299199607093 L-26.874547100760708,-0.29996708169956143 L-26.87519316786036,-0.19997916766250753 L-26.875580809846404,-0.09998991779098795 L-26.875710024129468,-4.737873725693042e-15 L-26.875580809846404,0.09998991779097847 L-26.87519316786036,0.19997916766249807 L-26.874547100760708,0.299967081699552 L-26.873642612863115,0.39995299199606144 L-26.872479710209433,0.4999362306593152 L-26.871058400567705,0.5999161298144996 L-26.869378693432076,0.699892021609057 L-26.867440600022782,0.7998632382172156 L-26.86524413328602,0.8998291118444331 L-26.862789307893905,0.9997889747318581 L-26.860076140244352,1.0997421591607721 L-26.857104648460954,1.19968799745712 L-26.8538748523929,1.2996258219958665 L-26.850386773614773,1.3995549652055235 L-26.8466404354265,1.4994747595725937 L-26.84263586285313,1.5993845376460292 L-26.838373082644658,1.6992836320416884 L-26.833852123275918,1.7991713754467964 L-26.829073014946303,1.8990471006243836 L-26.824035789579646,1.9989101404178127 L-26.818740480823926,2.0987598277551305 L-26.813187124051126,2.198595495653595 L-26.80737575635692,2.2984164772241114 L-26.801306416560493,2.3982221056756874 L-26.79497914520423,2.4980117143198703 L-26.788393984553466,2.5977846365752706 L-26.7815509785962,2.6975402059719085 L-26.774450173042823,2.7972777561557365 L-26.767091615325768,2.8969966208930735 L-26.75947535459924,2.996696134075055 L-26.75160144173885,3.096375629722081 L-26.743469929341295,3.196034441988267 L-26.73508087172401,3.295671905165891 L-26.726434324924796,3.395287353689823 L-26.71753034670143,3.4948801221420376 L-26.708368996531334,3.5944495452559604 L-26.69895033561111,3.6939949579209763 L-26.689274426856166,3.7935156951868576 L-26.6793413349003,3.893011092268204 L-26.66915112609525,3.9924804845488855 L-26.65870386851028,4.091923207586463 L-26.64799963193169,4.1913385971166965 L-26.637038487862355,4.290725989057877 L-26.625820509521283,4.390084719515335 L-26.61434577184309,4.489414124785855 L-26.602614351477513,4.588713541362109 L-26.59062632678888,4.687982305937092 L-26.578381777855626,4.787219755408548 L-26.565880786469727,4.886425226883385 L-26.553123436136133,4.985598057682171 L-26.540109812072295,5.0847375853434595 L-26.526840001207475,5.183843147628282 L-26.513314092182284,5.28291408252455 L-26.499532175348,5.381949728251486 L-26.485494342766003,5.480949423264022 L-26.471200688207176,5.579912506257284 L-26.456651307151233,5.678838316170914 L-26.44184629678613,5.7777261921935485 L-26.426785756007384,5.876575473767216 L-26.411469785417417,5.975385500591752 L-26.3958984873249,6.074155612629213 L-26.380071965744044,6.172885150108272 L-26.363990326393917,6.271573453528626 L-26.347653676697767,6.370219863665456 L-26.331062125782253,6.468823721573737 L-26.314215784476737,6.5673843685927 L-26.29711476531257,6.665901146350223 L-26.279759182522298,6.7643733967672075 L-26.26214915203893,6.862800462062041 L-26.24428479149514,6.96118168475489 L-26.22616622022251,7.059516407672164 L-26.20779355925069,7.157803973950881 L-26.18916693130665,7.256043727043063 L-26.1702864608138,7.354235010720115 L-26.151152273891192,7.45237716907721 L-26.13176449835268,7.550469546537676 L-26.11212326370603,7.64851148785737 L-26.092228701152123,7.74650233812905 L-26.072080943583998,7.844441442786747 L-26.05168012558601,7.942328147610188 L-26.031026383432952,8.04016179872908 L-26.010119855089087,8.13794174262754 L-25.988960680207263,8.235667326148432 L-25.96754900012799,8.333337896497735 L-25.945884957878455,8.430952801248951 L-25.923968698171606,8.528511388347374 L-25.90180036740518,8.62601300611451 L-25.879380113660687,8.72345700325241 L-25.85670808670247,8.820842728848024 L-25.833784437976682,8.91816953237755 L-25.81060932061027,9.015436763710778 L-25.787182889409962,9.112643773115412 L-25.763505300861226,9.209789911261481 L-25.739576713127242,9.306874529225581 L-25.715397286047804,9.403896978495268 L-25.690967181138305,9.500856610973374 L-25.66628656158862,9.597752778982345 L-25.64135559226205,9.694584835268538 L-25.616174439694156,9.79135213300662 L-25.59074327209173,9.888054025803793 L-25.56506225933162,9.984689867704164 L-25.53913157295959,10.081259013193053 L-25.512951386189215,10.177760817201305 L-25.4865218739007,10.274194635109595 L-25.459843212639683,10.370559822752742 L-25.43291558061612,10.466855736423996 L-25.405739157703017,10.563081732879356 L-25.378314125435324,10.659237169341843 L-25.35064066700862,10.75532140350585 L-25.322718967277964,10.851333793541354 L-25.29454921275663,10.947273698098249 L-25.26613159161485,11.043140476310624 L-25.237466293678608,11.138933487801033 L-25.208553510428295,11.234652092684824 L-25.179393434997493,11.33029565157432 L-25.149986262171666,11.425863525583166 L-25.120332188386847,11.521355076330563 L-25.09043141172834,11.61676966594555 L-25.060284131929386,11.712106657071253 L-25.029890550369842,11.807365412869142 L-24.999250870074817,11.902545297023291 L-24.968365295713348,11.997645673744612 L-24.937234033596987,12.092665907775164 L-24.90585729167846,12.187605364392299 L-24.87423527955027,12.282463409412964 L-24.842368208443283,12.377239409197935 L-24.81025629122533,12.471932730656013 L-24.77789974239979,12.566542741248332 L-24.745298778104136,12.661068808992484 L-24.71245361610851,12.755510302466801 L-24.67936447581426,12.849866590814566 L-24.64603157825249,12.944137043748212 L-24.612455146082546,13.038321031553549 L-24.578635403590575,13.132417925093959 L-24.544572576687997,13.226427095814605 L-24.510266892910003,13.320347915746623 L-24.475718581414036,13.414179757511308 L-24.440927872978257,13.507921994324365 L-24.405895,13.601574" fill="none" stroke="#f0e2b8" stroke-width=".25"/>
<path d="M-24.405895,13.601574 L-23.469734,14.25" fill="none" stroke="#f0e2b8" stroke-width=".25"/>
<path d="M-23.469734,14.25 L-16.82571,14.25" fill="none" stroke="#f0e2b8" stroke-width=".25"/>
<path d="M-16.82571,14.25 L-16.82571,12.8" fill="none" stroke="#f0e2b8" stroke-width=".25"/>
<path d="M-16.82571,12.8 L-16.626,12.8" fill="none" stroke="#f0e2b8" stroke-width=".25"/>
<path d="M-16.626,12.8 L-16.626,10.5" fill="none" stroke="#f0e2b8" stroke-width=".25"/>
<path d="M-16.626,10.5 L-10.826,10.5" fill="none" stroke="#f0e2b8" stroke-width=".25"/>
<path d="M-10.826,10.5 L-10.826,9.5" fill="none" stroke="#f0e2b8" stroke-width=".25"/>
<path d="M-10.826,9.5 L-9.737,9.5" fill="none" stroke="#f0e2b8" stroke-width=".25"/>
<path d="M-9.737,9.5 L-9.737,13.49" fill="none" stroke="#f0e2b8" stroke-width=".25"/>
<path d="M-9.737,13.49 L-9.772,13.483" fill="none" stroke="#f0e2b8" stroke-width=".25"/>
<path d="M-9.772,13.483 L-10.927,14.789" fill="none" stroke="#f0e2b8" stroke-width=".25"/>
<path d="M-10.927,14.789 L-10.372,16.442" fill="none" stroke="#f0e2b8" stroke-width=".25"/>
<path d="M-10.372,16.442 L-9.737,16.57" fill="none" stroke="#f0e2b8" stroke-width=".25"/>
<path d="M-9.737,16.57 L-9.737,18.939" fill="none" stroke="#f0e2b8" stroke-width=".25"/>
<path d="M-9.737,18.939 L-9.337,18.939" fill="none" stroke="#f0e2b8" stroke-width=".25"/>
<path d="M-9.337,18.939 L-9.337,21.723" fill="none" stroke="#f0e2b8" stroke-width=".25"/>
<path d="M-9.337,21.723 L-5.937,22.439" fill="none" stroke="#f0e2b8" stroke-width=".25"/>
<path d="M-5.937,22.439 L-3.437,22.439" fill="none" stroke="#f0e2b8" stroke-width=".25"/>
<path d="M-3.437,22.439 L-3.437,19.939" fill="none" stroke="#f0e2b8" stroke-width=".25"/>
<path d="M-3.437,19.939 L-3.737,19.939" fill="none" stroke="#f0e2b8" stroke-width=".25"/>
<path d="M-3.737,19.939 L-3.737,18.288" fill="none" stroke="#f0e2b8" stroke-width=".25"/>
<path d="M-3.737,18.288 L-0.026,19.04" fill="none" stroke="#f0e2b8" stroke-width=".25"/>
<path d="M-0.026,19.04 L-0.026,19.65" fill="none" stroke="#f0e2b8" stroke-width=".25"/>
<path d="M-0.026,19.65 L1.776,20.361" fill="none" stroke="#f0e2b8" stroke-width=".25"/>
<path d="M1.776,20.361 L3.774,20.45" fill="none" stroke="#f0e2b8" stroke-width=".25"/>
<path d="M3.774,20.45 L3.779761551386169,19.509203724446934" fill="none" stroke="#f0e2b8" stroke-width=".25"/>
<path d="M3.779761551386169,19.509203724446934 L9.2,20.5" fill="none" stroke="#f0e2b8" stroke-width=".25"/>
<path d="M9.2,20.5 L9.640428380698074,19.031905397673086" fill="none" stroke="#f0e2b8" stroke-width=".25"/>
<path d="M9.640428380698074,19.031905397673086 L9.108,21.658" fill="none" stroke="#f0e2b8" stroke-width=".25"/>
<path d="M9.108,21.658 L10.804,21.85" fill="none" stroke="#f0e2b8" stroke-width=".25"/>
<path d="M10.804,21.85 L10.815,21.792" fill="none" stroke="#f0e2b8" stroke-width=".25"/>
<path d="M10.815,21.792 L11.621,21.846" fill="none" stroke="#f0e2b8" stroke-width=".25"/>
<path d="M11.621,21.846 L12.589,17.073" fill="none" stroke="#f0e2b8" stroke-width=".25"/>
<path d="M12.589,17.073 L11.826,16.809" fill="none" stroke="#f0e2b8" stroke-width=".25"/>
<path d="M11.826,16.809 L11.838,16.751" fill="none" stroke="#f0e2b8" stroke-width=".25"/>
<path d="M11.838,16.751 L10.201,16.267" fill="none" stroke="#f0e2b8" stroke-width=".25"/>
<path d="M10.201,16.267 L9.750010099766428,18.49141587571747" fill="none" stroke="#f0e2b8" stroke-width=".25"/>
<path d="M9.750010099766428,18.49141587571747 L4.974311064134474,17.671346344346325" fill="none" stroke="#f0e2b8" stroke-width=".25"/>
<path d="M4.974311064134474,17.671346344346325 L6.274,15.42" fill="none" stroke="#f0e2b8" stroke-width=".25"/>
<path d="M6.274,15.42 L6.274,12.0" fill="none" stroke="#f0e2b8" stroke-width=".25"/>
<path d="M6.274,12.0 L6.491821782178216,12.0" fill="none" stroke="#f0e2b8" stroke-width=".25"/>
<path d="M6.491821782178216,12.0 L16.887,16.2" fill="none" stroke="#f0e2b8" stroke-width=".25"/>
<path d="M16.887,16.2 L22.021,16.2" fill="none" stroke="#f0e2b8" stroke-width=".25"/>
<path d="M22.021,16.2 L22.253,16.382" fill="none" stroke="#f0e2b8" stroke-width=".25"/>
<path d="M22.253,16.382 L26.874,14.7" fill="none" stroke="#f0e2b8" stroke-width=".25"/>
<path d="M26.874,14.7 L26.874,-14.3" fill="none" stroke="#f0e2b8" stroke-width=".25"/>
<path d="M26.874,-14.3 L22.253,-15.982" fill="none" stroke="#f0e2b8" stroke-width=".25"/>
<path d="M22.253,-15.982 L22.021,-15.8" fill="none" stroke="#f0e2b8" stroke-width=".25"/>
<path d="M22.021,-15.8 L16.887,-15.8" fill="none" stroke="#f0e2b8" stroke-width=".25"/>
<path d="M16.887,-15.8 L16.274,-15.552339051094892" fill="none" stroke="#f0e2b8" stroke-width=".25"/>
<path d="M16.274,-15.552339051094892 L16.268,-16.058" fill="none" stroke="#f0e2b8" stroke-width=".25"/>
<path d="M16.268,-16.058 L16.14,-16.25" fill="none" stroke="#f0e2b8" stroke-width=".25"/>
<path d="M16.14,-16.25 L15.974,-16.3" fill="none" stroke="#f0e2b8" stroke-width=".25"/>
<path d="M15.974,-16.3 L14.999,-16.312" fill="none" stroke="#f0e2b8" stroke-width=".25"/>
<path d="M14.999,-16.312 L14.858,-16.4" fill="none" stroke="#f0e2b8" stroke-width=".25"/>
<path d="M14.858,-16.4 L14.721,-16.692" fill="none" stroke="#f0e2b8" stroke-width=".25"/>
<path d="M14.721,-16.692 L14.593,-16.782" fill="none" stroke="#f0e2b8" stroke-width=".25"/>
<path d="M14.593,-16.782 L12.453,-16.8" fill="none" stroke="#f0e2b8" stroke-width=".25"/>
<path d="M12.453,-16.8 L12.245,-16.717" fill="none" stroke="#f0e2b8" stroke-width=".25"/>
<path d="M12.245,-16.717 L12.193092682959076,-16.63311447874688 L12.139367673092668,-16.550381332105715 L12.08385054321253,-16.4688399406032 L12.02656771916978,-16.388529117497086 L11.967546467276325,-16.30948709030127 L11.906814881326252,-16.23175148258973 L11.844401869223333,-16.155359296087866 L11.780337139221022,-16.080346893059932 L11.71465118578148,-16.006749979000762 L11.647375275060398,-15.934603585640158 L11.578541430024451,-15.863942054267978 L11.508182415208557,-15.794799019387874 L11.436331721120137,-15.727207392707445 L11.363023548297809,-15.661199347472444 L11.28829279103212,-15.596806303152492 L11.21217502075606,-15.534058910485584 L11.134706469113244,-15.472987036888496 L11.055924010711857,-15.413619752240065 L10.975865145572532,-15.35598531504408 L10.894567981278556,-15.300111158978396 L10.812071214836855,-15.246023879836644 L10.728414114258442,-15.193749222868782 L10.64363649986705,-15.143312070526498 L10.557778725344876,-15.0947364306193 L10.470881658524451,-15.048045424886922 L10.382986661935774,-15.00326127799351 L10.294135573117972,-14.960405306948795 L10.204370684704859,-14.919497910961326 L10.113734724293874,-14.88055856172854 L10.02227083410798,-14.843605794168358 L9.930022550460192,-14.80865719759665 L9.837033783030547,-14.775729407354829 L9.743348793965314,-14.74483809689151 L9.649012176808467,-14.715997970302034 L9.554068835275404,-14.689222755329409 L9.45856396187901,-14.66452519682997 L9.362543016418282,-14.641917050706898 L9.2660517043397,-14.621409078314475 L9.169135954981696,-14.603011041335742 L9.071841899712528,-14.586731697135985 L8.974215849972003,-14.572578794594278 L8.876304275227493,-14.560559070415062 L8.778153780854709,-14.550678245921507 L8.679811085953805,-14.542941024332201 L8.58132300111134,-14.53735108852243 L8.482736406118685,-14.533911099271158 L8.384098227657516,-14.532622693994519 L8.285455416962952,-14.533486485966392 L8.18685492747503,-14.536502064026513 L8.088343692489127,-14.541667992776166 L7.989968602815961,-14.548981813261433 L7.891776484461823,-14.558440044143644 L7.793814076339654,-14.570038183356468 L7.696128008021581,-14.58377071024888 L7.598764777543484,-14.599631088212956 L7.501770729272197,-14.617611767795264 L7.405192031845835,-14.637704190290364 L7.309074656197775,-14.659898791814701 L7.213464353674744,-14.684185007858966 L7.118406634259426,-14.710551278316744 L7.0239467449079545,-14.738985052987061 L6.930129648012619,-14.769472797548207 L6.837,-14.802" fill="none" stroke="#f0e2b8" stroke-width=".25"/>
<path d="M6.837,-14.802 L3.274,-13.847" fill="none" stroke="#f0e2b8" stroke-width=".25"/>
<path d="M3.274,-13.847 L3.274,-18.5" fill="none" stroke="#f0e2b8" stroke-width=".25"/>
<path d="M3.274,-18.5 L-1.626,-18.5" fill="none" stroke="#f0e2b8" stroke-width=".25"/>
<path d="M-1.626,-18.5 L-1.626,-23.0" fill="none" stroke="#f0e2b8" stroke-width=".25"/>
<path d="M-1.626,-23.0 L-3.126,-23.0" fill="none" stroke="#f0e2b8" stroke-width=".25"/>
<path d="M-3.126,-23.0 L-3.126,-18.5" fill="none" stroke="#f0e2b8" stroke-width=".25"/>
<path d="M-3.126,-18.5 L-3.526,-18.5" fill="none" stroke="#f0e2b8" stroke-width=".25"/>
<path d="M-3.526,-18.5 L-3.526,0.0" fill="none" stroke="#f0e2b8" stroke-width=".25"/>
<path d="M-3.526,0.0 L-0.8493587786259541,8.0" fill="none" stroke="#f0e2b8" stroke-width=".25"/>
<path d="M-0.8493587786259541,8.0 L-3.737,8.0" fill="none" stroke="#f0e2b8" stroke-width=".25"/>
<path d="M-3.737,8.0 L-3.741,-18.533" fill="none" stroke="#f0e2b8" stroke-width=".25"/>
<path d="M-3.741,-18.533 L-3.797,-18.788" fill="none" stroke="#f0e2b8" stroke-width=".25"/>
<path d="M-3.797,-18.788 L-3.841399100785331,-18.876313786846378 L-3.886242638338352,-18.964402731881634 L-3.931529474071464,-19.052264598507463 L-3.977258458141641,-19.139897155891134 L-4.023428429479598,-19.227298179022135 L-4.070038215819281,-19.314465448768654 L-4.1170866337276415,-19.40139675193393 L-4.164572488634679,-19.488089881312455 L-4.212494574863754,-19.574542635746 L-4.260851675662224,-19.660752820179507 L-4.30964256323233,-19.746718245716835 L-4.358865998762369,-19.83243672967633 L-4.408520732458136,-19.917906095646224 L-4.458605503574674,-20.003124173539923 L-4.509119040448287,-20.0880887996511 L-4.560060060528809,-20.17279781670861 L-4.611427270412175,-20.25724907393129 L-4.663219365873282,-20.341440427082553 L-4.715435031899062,-20.425369738524843 L-4.768072942721911,-20.509034877273905 L-4.821131761853334,-20.592433719052867 L-4.874610142117863,-20.67556414634622 L-4.928506725687299,-20.75842404845355 L-4.9828201441151485,-20.84101132154314 L-5.037549018371394,-20.923323868705385 L-5.092691958877502,-21.005359600006038 L-5.148247565541698,-21.08711643253927 L-5.204214427794529,-21.168592290480543 L-5.26059112462465,-21.24978510513934 L-5.3173762246149465,-21.330692815011666 L-5.374568285978841,-21.41131336583242 L-5.432165856596919,-21.49164471062752 L-5.49016747405379,-21.57168480976589 L-5.548571665675231,-21.65143163101125 L-5.607376948565557,-21.730883149573714 L-5.666581829645297,-21.810037348161202 L-5.726184805689083,-21.888892217030644 L-5.78618436336383,-21.96744575403903 L-5.846578979267157,-22.045695964694232 L-5.907367119966057,-22.12364086220564 L-5.968547242035845,-22.20127846753462 L-6.030117792099341,-22.278606809444764 L-6.092077206866307,-22.355623924551914 L-6.154423913173142,-22.432327857374048 L-6.217156328022826,-22.508716660380905 L-6.280272858625112,-22.584788394043443 L-6.343771902436966,-22.660541126883082 L-6.407651847203255,-22.73597293552075 L-6.471911070997686,-22.811081904725697 L-6.53654794226399,-22.885866127464162 L-6.601560819857335,-22.960323704947765 L-6.66694805308601,-23.034452746681705 L-6.732707981753318,-23.1082513705128 L-6.798838936199758,-23.181717702677243 L-6.865339237345385,-23.254849877848187 L-6.932207196732463,-23.32764603918312 L-6.999441116568336,-23.400104338370976 L-7.067039289768514,-23.472222935679103 L-7.135,-23.544" fill="none" stroke="#f0e2b8" stroke-width=".25"/>
<path d="M-7.135,-23.544 L-7.383,-23.689" fill="none" stroke="#f0e2b8" stroke-width=".25"/>
<path d="M-7.383,-23.689 L-7.758,-23.761" fill="none" stroke="#f0e2b8" stroke-width=".25"/>
<path d="M-7.758,-23.761 L-9.335,-23.752" fill="none" stroke="#f0e2b8" stroke-width=".25"/>
<path d="M-9.335,-23.752 L-9.591,-23.615" fill="none" stroke="#f0e2b8" stroke-width=".25"/>
<path d="M-9.591,-23.615 L-9.728,-23.359" fill="none" stroke="#f0e2b8" stroke-width=".25"/>
<path d="M-9.728,-23.359 L-9.737,-9.65" fill="none" stroke="#f0e2b8" stroke-width=".25"/>
<path d="M-9.737,-9.65 L-10.826,-9.65" fill="none" stroke="#f0e2b8" stroke-width=".25"/>
<path d="M-10.826,-9.65 L-10.826,-11.0" fill="none" stroke="#f0e2b8" stroke-width=".25"/>
<path d="M-10.826,-11.0 L-11.979,-11.0" fill="none" stroke="#f0e2b8" stroke-width=".25"/>
<path d="M-11.979,-11.0 L-11.979,-10.5" fill="none" stroke="#f0e2b8" stroke-width=".25"/>
<path d="M-11.979,-10.5 L-16.626,-10.5" fill="none" stroke="#f0e2b8" stroke-width=".25"/>
<path d="M-16.626,-10.5 L-16.626,-12.8" fill="none" stroke="#f0e2b8" stroke-width=".25"/>
<path d="M-16.82571,-14.25 L-16.82571,14.25" fill="none" stroke="#f0e2b8" stroke-width=".25"/>
<path d="M-9.8,-23.1 L-9.8,21.7" fill="none" stroke="#f0e2b8" stroke-width=".25"/>
<path d="M-3.7,-18.3 L-3.7,0" fill="none" stroke="#f0e2b8" stroke-width=".25"/>
<path d="M-3.7,0 L-0.8,8" fill="none" stroke="#f0e2b8" stroke-width=".25"/>
<path d="M-0.8,8 L0.1,12.9" fill="none" stroke="#f0e2b8" stroke-width=".25"/>
<path d="M0.1,12.9 L0.1,19.7" fill="none" stroke="#f0e2b8" stroke-width=".25"/>
<path d="M0.1,19.7 L3.4,20.4" fill="none" stroke="#f0e2b8" stroke-width=".25"/>
<path d="M3.35,-18.3 L3.35,-3.6" fill="none" stroke="#f0e2b8" stroke-width=".25"/>
<path d="M3.35,-3.6 L1.9,-2.5" fill="none" stroke="#f0e2b8" stroke-width=".25"/>
<path d="M1.9,-2.5 L1.9,3.1" fill="none" stroke="#f0e2b8" stroke-width=".25"/>
<path d="M1.9,3.1 L6.3,6.8" fill="none" stroke="#f0e2b8" stroke-width=".25"/>
<path d="M6.3,6.8 L6.3,15.5" fill="none" stroke="#f0e2b8" stroke-width=".25"/>
<path d="M6.3,15.5 L4.7,17.2" fill="none" stroke="#f0e2b8" stroke-width=".25"/>
<path d="M4.7,17.2 L0.1,17.2" fill="none" stroke="#f0e2b8" stroke-width=".25"/>
<path d="M3.35,-10.5 L16.9,-15.8" fill="none" stroke="#f0e2b8" stroke-width=".25"/>
<path d="M16.9,-15.8 L22.3,-15.8" fill="none" stroke="#f0e2b8" stroke-width=".25"/>
<path d="M22.3,-15.8 L22.3,-10.8" fill="none" stroke="#f0e2b8" stroke-width=".25"/>
<path d="M22.3,-10.8 L25.6,-10.8" fill="none" stroke="#f0e2b8" stroke-width=".25"/>
<path d="M6.3,12 L16.9,16.2" fill="none" stroke="#f0e2b8" stroke-width=".25"/>
<path d="M16.9,16.2 L22.3,16.2" fill="none" stroke="#f0e2b8" stroke-width=".25"/>
<path d="M22.3,16.2 L22.3,13.8" fill="none" stroke="#f0e2b8" stroke-width=".25"/>
<path d="M-5.7,15.65 L-5.701565906933276,15.713787976625644 L-5.706259855326144,15.777422282428429 L-5.714070537045785,15.840749616791971 L-5.724979135475801,15.903617418620968 L-5.738959370847093,15.965874233874244 L-5.755977563548129,16.027370080430803 L-5.775992715262073,16.087956809409885 L-5.798956607735327,16.147488462074616 L-5.824813918939524,16.205821621459368 L-5.853502356347139,16.262815757873796 L-5.884952806999646,16.318333567451187 L-5.919089504006691,16.372241302925485 L-5.955830209075161,16.424409095840165 L-5.995086410628442,16.47471126941274 L-6.036763537038553,16.523026641301126 L-6.080761184457488,16.569238815542512 L-6.126973358698876,16.613236462961446 L-6.175288730587261,16.65491358937156 L-6.225590904159836,16.69416979092484 L-6.277758697074518,16.73091049599331 L-6.331666432548812,16.765047193000353 L-6.387184242126203,16.796497643652863 L-6.4441783785406335,16.825186081060476 L-6.5025115379253835,16.85104339226467 L-6.5620431905901135,16.874007284737928 L-6.622629919569199,16.89402243645187 L-6.6841257661257565,16.911040629152907 L-6.7463825813790335,16.9250208645242 L-6.809250383208029,16.935929462954217 L-6.872577717571571,16.943740144673857 L-6.936212023374356,16.948434093066723 L-7.0,16.95 L-7.063787976625643,16.948434093066723 L-7.127422282428429,16.943740144673857 L-7.19074961679197,16.935929462954217 L-7.2536174186209665,16.9250208645242 L-7.315874233874243,16.911040629152907 L-7.377370080430801,16.894022436451873 L-7.437956809409886,16.874007284737928 L-7.4974884620746165,16.85104339226467 L-7.5558216214593665,16.825186081060476 L-7.612815757873797,16.796497643652863 L-7.668333567451188,16.765047193000353 L-7.722241302925482,16.73091049599331 L-7.774409095840163,16.69416979092484 L-7.824711269412739,16.65491358937156 L-7.873026641301124,16.613236462961446 L-7.919238815542512,16.569238815542512 L-7.963236462961446,16.523026641301126 L-8.004913589371558,16.47471126941274 L-8.044169790924839,16.424409095840165 L-8.080910495993308,16.372241302925485 L-8.115047193000354,16.318333567451187 L-8.14649764365286,16.2628157578738 L-8.175186081060476,16.205821621459368 L-8.201043392264673,16.147488462074616 L-8.224007284737926,16.087956809409885 L-8.244022436451871,16.027370080430803 L-8.261040629152907,15.965874233874244 L-8.2750208645242,15.903617418620968 L-8.285929462954215,15.840749616791971 L-8.293740144673855,15.777422282428429 L-8.298434093066724,15.713787976625644 L-8.3,15.65 L-8.298434093066724,15.586212023374358 L-8.293740144673857,15.522577717571572 L-8.285929462954215,15.45925038320803 L-8.2750208645242,15.396382581379033 L-8.261040629152907,15.334125766125757 L-8.244022436451871,15.2726299195692 L-8.224007284737926,15.212043190590114 L-8.201043392264673,15.152511537925385 L-8.175186081060476,15.094178378540635 L-8.14649764365286,15.037184242126203 L-8.115047193000354,14.981666432548813 L-8.080910495993308,14.927758697074518 L-8.044169790924839,14.875590904159838 L-8.004913589371558,14.825288730587262 L-7.963236462961447,14.776973358698877 L-7.919238815542512,14.730761184457489 L-7.8730266413011245,14.686763537038553 L-7.82471126941274,14.645086410628442 L-7.774409095840163,14.605830209075162 L-7.722241302925482,14.569089504006692 L-7.668333567451188,14.534952806999646 L-7.612815757873797,14.50350235634714 L-7.555821621459367,14.474813918939525 L-7.497488462074617,14.448956607735328 L-7.437956809409886,14.425992715262073 L-7.377370080430801,14.405977563548129 L-7.3158742338742435,14.388959370847093 L-7.253617418620967,14.374979135475801 L-7.190749616791971,14.364070537045786 L-7.127422282428428,14.356259855326144 L-7.063787976625643,14.351565906933276 L-7.0,14.350000000000001 L-6.936212023374357,14.351565906933276 L-6.872577717571572,14.356259855326144 L-6.809250383208029,14.364070537045786 L-6.7463825813790335,14.374979135475801 L-6.684125766125757,14.388959370847093 L-6.622629919569199,14.405977563548129 L-6.562043190590114,14.425992715262073 L-6.502511537925383,14.448956607735328 L-6.4441783785406335,14.474813918939525 L-6.387184242126203,14.50350235634714 L-6.331666432548812,14.534952806999646 L-6.277758697074518,14.56908950400669 L-6.225590904159837,14.605830209075162 L-6.175288730587261,14.645086410628442 L-6.126973358698876,14.686763537038553 L-6.080761184457488,14.730761184457489 L-6.036763537038554,14.776973358698877 L-5.995086410628442,14.82528873058726 L-5.955830209075161,14.875590904159838 L-5.919089504006691,14.927758697074518 L-5.884952806999647,14.981666432548812 L-5.853502356347139,15.037184242126203 L-5.824813918939524,15.094178378540633 L-5.798956607735327,15.152511537925383 L-5.775992715262073,15.212043190590114 L-5.755977563548129,15.2726299195692 L-5.738959370847093,15.334125766125757 L-5.724979135475801,15.396382581379033 L-5.714070537045785,15.45925038320803 L-5.706259855326144,15.522577717571572 L-5.701565906933276,15.586212023374356 L-5.7,15.65" fill="none" stroke="#f0e2b8" stroke-width=".25"/>
<circle cx="23.34364" cy="-8.806627" r="1.5" fill="none" stroke="#ec7979" stroke-width=".13"/>
<circle cx="23.34364" cy="9.206623" r="1.5" fill="none" stroke="#ec7979" stroke-width=".13"/>
</svg>