999
LibreDWG 0.14
  0
SECTION
  2
HEADER
  9
$ACADVER
  1
AC1015
  9
$ACADMAINTVER
 70
    55
  9
$DWGCODEPAGE
  3
ANSI_1252
  9
$INSBASE
 10
0.0
 20
0.0
 30
0.0
  9
$EXTMIN
 10
0.0
 20
0.0
 30
0.0
  9
$EXTMAX
 10
558.8
 20
431.8
 30
0.0
  9
$LIMMIN
 10
0.0
 20
0.0
  9
$LIMMAX
 10
558.8
 20
431.8
  9
$ORTHOMODE
 70
     0
  9
$REGENMODE
 70
     1
  9
$FILLMODE
 70
     1
  9
$QTEXTMODE
 70
     0
  9
$MIRRTEXT
 70
     1
  9
$LTSCALE
 40
2.0
  9
$ATTMODE
 70
     1
  9
$TEXTSIZE
 40
5.644444444444444
  9
$TRACEWID
 40
1.0
  9
$TEXTSTYLE
  7
Standard
  9
$CLAYER
  8
0
  9
$CELTYPE
  6
ByLayer
  9
$CECOLOR
 62
   256
  9
$CELTSCALE
 40
1.0
  9
$DISPSILH
 70
     0
  9
$DIMSCALE
 40
1.0
  9
$DIMASZ
 40
6.603999999999999
  9
$DIMEXO
 40
2.54
  9
$DIMDLI
 40
3.75
  9
$DIMRND
 40
0.0
  9
$DIMDLE
 40
0.0
  9
$DIMEXE
 40
6.35
  9
$DIMTP
 40
0.0
  9
$DIMTM
 40
0.0
  9
$DIMTXT
 40
5.644444444444444
  9
$DIMCEN
 40
2.5
  9
$DIMTSZ
 40
0.0
  9
$DIMTOL
 70
     0
  9
$DIMLIM
 70
     0
  9
$DIMTIH
 70
     1
  9
$DIMTOH
 70
     1
  9
$DIMSE1
 70
     0
  9
$DIMSE2
 70
     0
  9
$DIMTAD
 70
     0
  9
$DIMZIN
 70
     1
  9
$DIMBLK
  1

  9
$DIMASO
 70
     1
  9
$DIMSHO
 70
     1
  9
$DIMPOST
  1

  9
$DIMAPOST
  1

  9
$DIMALT
 70
     0
  9
$DIMALTD
 70
     3
  9
$DIMALTF
 40
0.03937007874015748
  9
$DIMLFAC
 40
1.0
  9
$DIMTOFL
 70
     1
  9
$DIMTVP
 40
0.0
  9
$DIMTIX
 70
     0
  9
$DIMSOXD
 70
     0
  9
$DIMSAH
 70
     0
  9
$DIMBLK1
  1

  9
$DIMBLK2
  1

  9
$DIMSTYLE
  2
ISO-25
  9
$DIMCLRD
 70
     0
  9
$DIMCLRE
 70
     0
  9
$DIMCLRT
 70
     0
  9
$DIMTFAC
 40
1.0
  9
$DIMGAP
 40
3.048
  9
$DIMJUST
 70
     0
  9
$DIMSD1
 70
     0
  9
$DIMSD2
 70
     0
  9
$DIMTOLJ
 70
     0
  9
$DIMTZIN
 70
     1
  9
$DIMALTZ
 70
     0
  9
$DIMALTTZ
 70
     0
  9
$DIMUPT
 70
     0
  9
$DIMDEC
 70
     2
  9
$DIMTDEC
 70
     2
  9
$DIMALTU
 70
     2
  9
$DIMALTTD
 70
     3
  9
$DIMTXSTY
  7
Standard
  9
$DIMAUNIT
 70
     0
  9
$DIMADEC
 70
     0
  9
$DIMALTRND
 40
0.0
  9
$DIMAZIN
 70
     0
  9
$DIMDSEP
 70
    44
  9
$DIMATFIT
 70
     3
  9
$DIMFRAC
 70
     0
  9
$DIMLDRBLK
  1

  9
$DIMLUNIT
 70
     2
  9
$DIMLWD
 70
    -2
  9
$DIMLWE
 70
    -2
  9
$DIMTMOVE
 70
     0
  9
$LUNITS
 70
     2
  9
$LUPREC
 70
     1
  9
$AXISMODE
 70
     0
  9
$AXISUNIT
 10
0.0
 20
0.0
  9
$SKETCHINC
 40
1.0
  9
$FILLETRAD
 40
0.0
  9
$AUNITS
 70
     0
  9
$AUPREC
 70
     0
  9
$MENU
  1
.
  9
$ELEVATION
 40
0.0
  9
$PELEVATION
 40
0.0
  9
$THICKNESS
 40
0.0
  9
$LIMCHECK
 70
     0
  9
$CHAMFERA
 40
0.0
  9
$CHAMFERB
 40
0.0
  9
$CHAMFERC
 40
0.0
  9
$CHAMFERD
 40
0.0
  9
$SKPOLY
 70
     0
  9
$TDCREATE
 40
2460691.403423120
  9
$TDUCREATE
 40
2460691.655423120
  9
$TDUPDATE
 40
2460691.403423840
  9
$TDUUPDATE
 40
2460691.655423840
  9
$TDINDWG
 40
0.000000010
  9
$TDUSRTIMER
 40
0.000000010
  9
$USRTIMER
 70
     1
  9
$ANGBASE
 50
0.0
  9
$ANGDIR
 70
     0
  9
$PDMODE
 70
     0
  9
$PDSIZE
 40
-1.0
  9
$PLINEWID
 40
0.0
  9
$SPLFRAME
 70
     0
  9
$SPLINETYPE
 70
     6
  9
$SPLINESEGS
 70
     8
  9
$HANDSEED
  5
312
  9
$SURFTAB1
 70
     6
  9
$SURFTAB2
 70
     6
  9
$SURFTYPE
 70
     6
  9
$SURFU
 70
     6
  9
$SURFV
 70
     6
  9
$UCSBASE
  2

  9
$UCSORG
 10
0.0
 20
0.0
 30
0.0
  9
$UCSXDIR
 10
1.0
 20
0.0
 30
0.0
  9
$UCSYDIR
 10
0.0
 20
1.0
 30
0.0
  9
$UCSORTHOREF
  2

  9
$UCSORTHOVIEW
 70
     0
  9
$UCSORGTOP
 10
0.0
 20
0.0
 30
0.0
  9
$UCSORGBOTTOM
 10
0.0
 20
0.0
 30
0.0
  9
$UCSORGLEFT
 10
0.0
 20
0.0
 30
0.0
  9
$UCSORGRIGHT
 10
0.0
 20
0.0
 30
0.0
  9
$UCSORGFRONT
 10
0.0
 20
0.0
 30
0.0
  9
$UCSORGBACK
 10
0.0
 20
0.0
 30
0.0
  9
$PUCSBASE
  2

  9
$PUCSORG
 10
0.0
 20
0.0
 30
0.0
  9
$PUCSXDIR
 10
1.0
 20
0.0
 30
0.0
  9
$PUCSYDIR
 10
0.0
 20
1.0
 30
0.0
  9
$PUCSORTHOREF
  2

  9
$PUCSORTHOVIEW
 70
     0
  9
$PUCSORGTOP
 10
0.0
 20
0.0
 30
0.0
  9
$PUCSORGBOTTOM
 10
0.0
 20
0.0
 30
0.0
  9
$PUCSORGLEFT
 10
0.0
 20
0.0
 30
0.0
  9
$PUCSORGRIGHT
 10
0.0
 20
0.0
 30
0.0
  9
$PUCSORGFRONT
 10
0.0
 20
0.0
 30
0.0
  9
$PUCSORGBACK
 10
0.0
 20
0.0
 30
0.0
  9
$USERI1
 70
     0
  9
$USERI2
 70
     0
  9
$USERI3
 70
     0
  9
$USERI4
 70
     0
  9
$USERI5
 70
     0
  9
$USERR1
 40
0.0
  9
$USERR2
 40
0.0
  9
$USERR3
 40
0.0
  9
$USERR4
 40
0.0
  9
$USERR5
 40
0.0
  9
$WORLDVIEW
 70
     1
  9
$SHADEDGE
 70
     3
  9
$SHADEDIF
 70
    70
  9
$TILEMODE
 70
     1
  9
$MAXACTVP
 70
    64
  9
$PINSBASE
 10
0.0
 20
0.0
 30
0.0
  9
$PLIMCHECK
 70
     0
  9
$PEXTMIN
 10
1E+20
 20
1E+20
 30
1E+20
  9
$PEXTMAX
 10
-1E+20
 20
-1E+20
 30
-1E+20
  9
$PLIMMIN
 10
0.0
 20
0.0
  9
$PLIMMAX
 10
420.0
 20
297.0
  9
$UNITMODE
 70
     0
  9
$VISRETAIN
 70
     1
  9
$PLINEGEN
 70
     0
  9
$PSLTSCALE
 70
     1
  9
$TREEDEPTH
 70
  3020
  9
$CMLSTYLE
  2
Standard
  9
$CMLJUST
 70
     0
  9
$CMLSCALE
 40
20.0
  9
$PROXYGRAPHICS
 70
     1
  9
$MEASUREMENT
 70
     1
  9
$CELWEIGHT
370
    -1
  9
$ENDCAPS
280
     0
  9
$JOINSTYLE
280
     0
  9
$LWDISPLAY
290
     1
  9
$INSUNITS
 70
     4
  9
$HYPERLINKBASE
  1

  9
$STYLESHEET
  1

  9
$XEDIT
290
     1
  9
$CEPSNTYPE
380
     0
  9
$PSTYLEMODE
290
     1
  9
$FINGERPRINTGUID
  2
{ffcfbdc2-b035-470b-9657-da6044940ac1}
  9
$VERSIONGUID
  2
{FAEB1C32-E019-11D5-929B-00C0DF256EC4}
  9
$EXTNAMES
290
     1
  9
$PSVPSCALE
 40
0.0
  9
$OLESTARTUP
290
     0
  0
ENDSEC
  0
SECTION
  2
CLASSES
  0
CLASS
  1
ACDBDICTIONARYWDFLT
  2
AcDbDictionaryWithDefault
  3
ObjectDBX Classes
 90
        0
280
     0
281
     0
  0
CLASS
  1
VISUALSTYLE
  2
AcDbVisualStyle
  3
ObjectDBX Classes
 90
     4095
280
     0
281
     0
  0
CLASS
  1
MATERIAL
  2
AcDbMaterial
  3
ObjectDBX Classes
 90
     1153
280
     0
281
     0
  0
CLASS
  1
SCALE
  2
AcDbScale
  3
ObjectDBX Classes
 90
     1153
280
     0
281
     0
  0
CLASS
  1
TABLESTYLE
  2
AcDbTableStyle
  3
ObjectDBX Classes
 90
     4095
280
     0
281
     0
  0
CLASS
  1
MLEADERSTYLE
  2
AcDbMLeaderStyle
  3
ACDB_MLEADERSTYLE_CLASS
 90
     4095
280
     0
281
     0
  0
CLASS
  1
SUN
  2
AcDbSun
  3
SCENEOE
 90
     1153
280
     0
281
     0
  0
CLASS
  1
ACDBPLACEHOLDER
  2
AcDbPlaceHolder
  3
ObjectDBX Classes
 90
        0
280
     0
281
     0
  0
CLASS
  1
LAYOUT
  2
AcDbLayout
  3
ObjectDBX Classes
 90
        0
280
     0
281
     0
  0
ENDSEC
  0
SECTION
  2
TABLES
  0
TABLE
  2
VPORT
  5
8
330
0
100
AcDbSymbolTable
 70
     1
  0
VPORT
  5
29
330
8
100
AcDbSymbolTableRecord
100
AcDbViewportTableRecord
  2
*Active
 70
     0
 10
0.0
 20
0.0
 11
1.0
 21
1.0
 12
279.4
 22
215.9
 13
0.0
 23
0.0
 14
10.0
 24
10.0
 15
10.0
 25
10.0
 16
0.0
 26
0.0
 36
1.0
 17
0.0
 27
0.0
 37
0.0
 40
431.8
 41
1.294117647058824
 42
50.0
 43
0.0
 44
0.0
 50
0.0
 51
0.0
 71
     0
 72
  2000
 73
     1
 74
     3
 75
     0
 76
     0
 77
     0
 78
     0
281
     0
 65
     1
110
0.0
120
0.0
130
0.0
111
1.0
121
0.0
131
0.0
112
0.0
122
1.0
132
0.0
 79
     0
146
0.0
  0
ENDTAB
  0
TABLE
  2
LTYPE
  5
5
330
0
100
AcDbSymbolTable
 70
     8
  0
LTYPE
  5
14
330
5
100
AcDbSymbolTableRecord
100
AcDbLinetypeTableRecord
  2
ByBlock
 70
     0
  3

 72
    65
 73
     0
 40
0.0
  0
LTYPE
  5
15
330
5
100
AcDbSymbolTableRecord
100
AcDbLinetypeTableRecord
  2
ByLayer
 70
     0
  3

 72
    65
 73
     0
 40
0.0
  0
LTYPE
  5
16
330
5
100
AcDbSymbolTableRecord
100
AcDbLinetypeTableRecord
  2
Continuous
 70
     0
  3
Solid line
 72
    65
 73
     0
 40
0.0
  0
LTYPE
  5
5E
330
5
100
AcDbSymbolTableRecord
100
AcDbLinetypeTableRecord
  2
SLD-Solid
 70
     0
  3
SolidWorks Line Style
 72
    65
 73
     0
 40
0.0
  0
LTYPE
  5
5F
330
5
100
AcDbSymbolTableRecord
100
AcDbLinetypeTableRecord
  2
SLD-Dashed
 70
     0
  3
SolidWorks Line Style
 72
    65
 73
     2
 40
1.905
 49
1.27
 74
     0
 49
-0.635
 74
     0
  0
LTYPE
  5
60
330
5
100
AcDbSymbolTableRecord
100
AcDbLinetypeTableRecord
  2
SLD-Phantom
 70
     0
  3
SolidWorks Line Style
 72
    65
 73
     6
 40
12.7
 49
6.35
 74
     0
 49
-1.27
 74
     0
 49
1.27
 74
     0
 49
-1.27
 74
     0
 49
1.27
 74
     0
 49
-1.27
 74
     0
  0
LTYPE
  5
61
330
5
100
AcDbSymbolTableRecord
100
AcDbLinetypeTableRecord
  2
SLD-Chain
 70
     0
  3
SolidWorks Line Style
 72
    65
 73
     4
 40
10.16
 49
6.35
 74
     0
 49
-1.27
 74
     0
 49
1.27
 74
     0
 49
-1.27
 74
     0
  0
LTYPE
  5
62
330
5
100
AcDbSymbolTableRecord
100
AcDbLinetypeTableRecord
  2
SLD-Center
 70
     0
  3
SolidWorks Line Style
 72
    65
 73
     4
 40
19.05
 49
15.24
 74
     0
 49
-1.27
 74
     0
 49
1.27
 74
     0
 49
-1.27
 74
     0
  0
LTYPE
  5
63
330
5
100
AcDbSymbolTableRecord
100
AcDbLinetypeTableRecord
  2
SLD-Stitch
 70
     0
  3
SolidWorks Line Style
 72
    65
 73
     2
 40
0.635
 49
0.0
 74
     0
 49
-0.635
 74
     0
  0
LTYPE
  5
64
330
5
100
AcDbSymbolTableRecord
100
AcDbLinetypeTableRecord
  2
SLD-Thin-Thick-Chain
 70
     0
  3
SolidWorks Line Style
 72
    65
 73
     4
 40
10.16
 49
6.35
 74
     0
 49
-1.27
 74
     0
 49
1.27
 74
     0
 49
-1.27
 74
     0
  0
ENDTAB
  0
TABLE
  2
LAYER
  5
2
330
0
100
AcDbSymbolTable
 70
     7
  0
LAYER
  5
10
330
2
100
AcDbSymbolTableRecord
100
AcDbLayerTableRecord
  2
0
 70
     0
 62
     7
  6
Continuous
370
    -3
390
F
  0
LAYER
  5
65
330
2
100
AcDbSymbolTableRecord
100
AcDbLayerTableRecord
  2
TEXT
 70
     0
 62
   140
  6
SLD-Solid
370
    25
390
F
  0
LAYER
  5
66
330
2
100
AcDbSymbolTableRecord
100
AcDbLayerTableRecord
  2
DIMENSIONS
 70
     0
 62
   140
  6
SLD-Solid
370
    25
390
F
  0
LAYER
  5
67
330
2
100
AcDbSymbolTableRecord
100
AcDbLayerTableRecord
  2
HATCH
 70
     0
 62
     6
  6
SLD-Solid
370
    -3
390
F
  0
LAYER
  5
68
330
2
100
AcDbSymbolTableRecord
100
AcDbLayerTableRecord
  2
HIDDEN
 70
     0
 62
   102
  6
SLD-Dashed
370
    -3
390
F
  0
LAYER
  5
69
330
2
100
AcDbSymbolTableRecord
100
AcDbLayerTableRecord
  2
CENTER
 70
     0
 62
    40
  6
SLD-Center
370
    -3
390
F
  0
LAYER
  5
6A
330
2
100
AcDbSymbolTableRecord
100
AcDbLayerTableRecord
  2
SLD-DEFPOINTS
 70
     0
 62
     7
  6
Continuous
370
    -1
390
F
  0
ENDTAB
  0
TABLE
  2
STYLE
  5
3
330
0
100
AcDbSymbolTable
 70
     3
  0
STYLE
  5
11
330
3
100
AcDbSymbolTableRecord
100
AcDbTextStyleTableRecord
  2
Standard
 70
     0
 40
0.0
 41
1.0
 50
0.0
 71
     0
 42
5.644444444444444
  3
txt
  4

  0
STYLE
  5
94
330
3
100
AcDbSymbolTableRecord
100
AcDbTextStyleTableRecord
  2
SLDTEXTSTYLE0
 70
     0
 40
0.0
 41
0.7
 50
0.0
 71
     0
 42
5.644444444444444
  3
TXT
  4

  0
STYLE
  5
9F
330
3
100
AcDbSymbolTableRecord
100
AcDbTextStyleTableRecord
  2
SLDTEXTSTYLE1
 70
     0
 40
0.0
 41
0.65
 50
0.0
 71
     0
 42
5.644444444444444
  3
TXT
  4

  0
ENDTAB
  0
TABLE
  2
VIEW
  5
6
330
0
100
AcDbSymbolTable
 70
     0
  0
ENDTAB
  0
TABLE
  2
UCS
  5
7
330
0
100
AcDbSymbolTable
 70
     0
  0
ENDTAB
  0
TABLE
  2
APPID
  5
9
330
0
100
AcDbSymbolTable
 70
     1
  0
APPID
  5
12
330
9
100
AcDbSymbolTableRecord
100
AcDbRegAppTableRecord
  2
ACAD
 70
     0
  0
ENDTAB
  0
TABLE
  2
DIMSTYLE
  5
A
330
0
100
AcDbSymbolTable
 70
     4
100
AcDbDimStyleTable
 71
     0
  0
DIMSTYLE
105
27
330
A
100
AcDbSymbolTableRecord
100
AcDbDimStyleTableRecord
  2
ISO-25
 70
     0
 41
2.5
 42
0.625
 43
3.75
 44
1.25
 73
     0
 74
     0
 77
     1
 78
     8
140
2.5
141
2.5
143
0.03937007874016
144
1.0
146
1.0
147
0.625
171
     3
172
     1
176
     0
177
     0
178
     0
271
     2
272
     2
273
     2
274
     3
277
     2
278
    44
283
     0
284
     8
289
     3
340
11
371
    -2
372
    -2
341
0
342
0
343
0
344
0
  0
DIMSTYLE
105
116
102
{ACAD_REACTORS
330
115
330
2FD
102
}
330
A
100
AcDbSymbolTableRecord
100
AcDbDimStyleTableRecord
  2
SLDDIMSTYLE0
 70
     0
 41
6.603999999999999
 42
0.0625
 43
0.38
 45
1E-09
 73
     1
 74
     1
 78
    12
 79
     3
140
4.316015625
141
0.09
143
0.03937007874015748
144
1.0
146
1.0
147
1.07900390625
148
1E-09
170
     1
171
     2
173
     1
176
     0
177
     0
178
     0
271
     2
272
     2
273
     2
274
     2
276
     2
277
     2
278
    46
283
     1
284
    12
289
     3
340
94
371
    -2
372
    -2
341
0
342
0
343
0
344
0
  0
DIMSTYLE
105
12B
102
{ACAD_REACTORS
330
12A
330
13F
102
}
330
A
100
AcDbSymbolTableRecord
100
AcDbDimStyleTableRecord
  2
SLDDIMSTYLE1
 70
     0
 41
6.603999999999999
 42
0.0625
 43
0.38
 45
1E-09
 73
     1
 74
     1
 78
     4
 79
     1
140
4.316015625
141
0.09
143
0.03937007874015748
144
1.0
146
1.0
147
1.07900390625
148
1E-09
170
     1
171
     2
173
     1
176
     0
177
     0
178
     0
271
     2
272
     2
273
     2
274
     2
276
     2
277
     2
278
    46
283
     1
284
    12
289
     3
340
94
371
    -2
372
    -2
341
0
342
0
343
0
344
0
  0
DIMSTYLE
105
2E9
102
{ACAD_REACTORS
330
2E8
102
}
330
A
100
AcDbSymbolTableRecord
100
AcDbDimStyleTableRecord
  2
SLDDIMSTYLE2
 70
     0
 41
6.603999999999999
 42
0.0625
 43
0.38
 45
1E-09
 73
     1
 74
     1
 78
     4
 79
     1
140
4.316015625
141
0.09
143
0.03937007874015748
144
1.0
146
1.0
147
1.07900390625
148
1E-09
170
     1
171
     2
172
     1
173
     1
176
     0
177
     0
178
     0
271
     2
272
     2
273
     2
274
     2
276
     2
277
     2
278
    46
283
     1
284
    12
340
94
371
    -2
372
    -2
341
0
342
0
343
0
344
0
  0
ENDTAB
  0
TABLE
  2
BLOCK_RECORD
  5
1
330
0
100
AcDbSymbolTable
 70
     8
  0
BLOCK_RECORD
  5
1F
330
1
100
AcDbSymbolTableRecord
100
AcDbBlockTableRecord
  2
*Model_Space
340
22
310

  0
BLOCK_RECORD
  5
1B
330
1
100
AcDbSymbolTableRecord
100
AcDbBlockTableRecord
  2
*Paper_Space
340
1E
310

  0
BLOCK_RECORD
  5
23
330
1
100
AcDbSymbolTableRecord
100
AcDbBlockTableRecord
  2
*Paper_Space0
340
26
310

  0
BLOCK_RECORD
  5
6B
330
1
100
AcDbSymbolTableRecord
100
AcDbBlockTableRecord
  2
Block11
340
0
310

102
{BLKREFS
331
79
102
}
  0
BLOCK_RECORD
  5
76
330
1
100
AcDbSymbolTableRecord
100
AcDbBlockTableRecord
  2
Block12
340
0
310

102
{BLKREFS
331
93
102
}
  0
BLOCK_RECORD
  5
117
330
1
100
AcDbSymbolTableRecord
100
AcDbBlockTableRecord
  2
_D
340
0
310

  0
BLOCK_RECORD
  5
12C
330
1
100
AcDbSymbolTableRecord
100
AcDbBlockTableRecord
  2
_D_1
340
0
310

  0
BLOCK_RECORD
  5
140
330
1
100
AcDbSymbolTableRecord
100
AcDbBlockTableRecord
  2
_D_2
340
0
310

  0
BLOCK_RECORD
  5
2EA
330
1
100
AcDbSymbolTableRecord
100
AcDbBlockTableRecord
  2
_D_3
340
0
310

  0
BLOCK_RECORD
  5
2FE
330
1
100
AcDbSymbolTableRecord
100
AcDbBlockTableRecord
  2
_D_4
340
0
310

  0
ENDTAB
  0
ENDSEC
  0
SECTION
  2
BLOCKS
  0
BLOCK
  5
1C
330
1B
100
AcDbEntity
 67
     1
  8
0
100
AcDbBlockBegin
  2
*Paper_Space
 70
     0
 10
0.0
 20
0.0
 30
0.0
  3
*Paper_Space
  1

  0
ENDBLK
  5
1D
330
1B
100
AcDbEntity
 67
     1
  8
0
100
AcDbBlockEnd
  0
BLOCK
  5
20
330
1F
100
AcDbEntity
  8
0
100
AcDbBlockBegin
  2
*Model_Space
 70
     0
 10
0.0
 20
0.0
 30
0.0
  3
*Model_Space
  1

  0
ENDBLK
  5
21
330
1F
100
AcDbEntity
  8
0
100
AcDbBlockEnd
  0
BLOCK
  5
24
330
23
100
AcDbEntity
  8
0
100
AcDbBlockBegin
  2
*Paper_Space0
 70
     0
 10
0.0
 20
0.0
 30
0.0
  3
*Paper_Space0
  1

  0
ENDBLK
  5
25
330
23
100
AcDbEntity
  8
0
100
AcDbBlockEnd
  0
BLOCK
  5
6C
330
6B
100
AcDbEntity
  8
0
100
AcDbBlockBegin
  2
Block11
 70
     0
 10
0.0
 20
0.0
 30
0.0
  3
Block11
  1

  0
CIRCLE
  5
6E
330
6B
100
AcDbEntity
  8
0
  6
SLD-Solid
370
    18
 62
     7
100
AcDbCircle
 10
5.176794221541707
 20
5.763442552820131
 30
0.0
 40
2.571306509119218
  0
CIRCLE
  5
6F
330
6B
100
AcDbEntity
  8
0
  6
SLD-Solid
370
    18
 62
     7
100
AcDbCircle
 10
5.176794221541707
 20
5.763442552820131
 30
0.0
 40
4.30020573875978
  0
LINE
  5
70
330
6B
100
AcDbEntity
  8
0
  6
SLD-Solid
370
    18
 62
     7
100
AcDbLine
 10
5.176794221541707
 20
10.621336205973
 30
0.0
 11
5.176794221541707
 21
0.0
 31
0.0
  0
LINE
  5
71
330
6B
100
AcDbEntity
  8
0
  6
SLD-Solid
370
    18
 62
     7
100
AcDbLine
 10
3.469446951953614E-15
 20
5.763442552820131
 30
0.0
 11
21.74748005972424
 21
5.763442552820131
 31
0.0
  0
LINE
  5
72
330
6B
100
AcDbEntity
  8
0
  6
SLD-Solid
370
    18
 62
     7
100
AcDbLine
 10
10.95917231494143
 20
3.192136043700916
 30
0.0
 11
10.95917231494143
 21
8.334749061939359
 31
0.0
  0
LINE
  5
73
330
6B
100
AcDbEntity
  8
0
  6
SLD-Solid
370
    18
 62
     7
100
AcDbLine
 10
10.95917231494143
 20
8.334749061939359
 30
0.0
 11
20.35003086998553
 21
10.06364829157991
 31
0.0
  0
LINE
  5
74
330
6B
100
AcDbEntity
  8
0
  6
SLD-Solid
370
    18
 62
     7
100
AcDbLine
 10
20.35003086998553
 20
10.06364829157991
 30
0.0
 11
20.35003086998553
 21
1.463236814060354
 31
0.0
  0
LINE
  5
75
330
6B
100
AcDbEntity
  8
0
  6
SLD-Solid
370
    18
 62
     7
100
AcDbLine
 10
10.95917231494143
 20
3.192136043700916
 30
0.0
 11
20.35003086998553
 21
1.463236814060354
 31
0.0
  0
ENDBLK
  5
6D
330
6B
100
AcDbEntity
  8
0
100
AcDbBlockEnd
  0
BLOCK
  5
77
330
76
100
AcDbEntity
  8
0
100
AcDbBlockBegin
  2
Block12
 70
     0
 10
0.0
 20
0.0
 30
0.0
  3
Block12
  1

  0
INSERT
  5
79
330
76
100
AcDbEntity
  8
SLD-DEFPOINTS
100
AcDbBlockReference
  2
Block11
 10
0.0
 20
0.0
 30
0.0
  0
ENDBLK
  5
78
330
76
100
AcDbEntity
  8
0
100
AcDbBlockEnd
  0
BLOCK
  5
118
330
117
100
AcDbEntity
  8
0
100
AcDbBlockBegin
  2
_D
 70
     0
 10
0.0
 20
0.0
 30
0.0
  3
_D
  1

  0
SOLID
  5
11A
330
117
100
AcDbEntity
  8
DIMENSIONS
100
AcDbTrace
 38
0.0
 10
207.5570240147783
 20
258.3793947270995
 11
206.5410240147783
 21
251.7753947270995
 12
208.5730240147783
 22
251.7753947270995
 13
208.5730240147783
 23
251.7753947270995
  0
SOLID
  5
11B
330
117
100
AcDbEntity
  8
DIMENSIONS
100
AcDbTrace
 38
0.0
 10
207.5570240147783
 20
177.8793947270995
 11
208.5730240147783
 21
184.4833947270995
 12
206.5410240147783
 22
184.4833947270995
 13
206.5410240147783
 23
184.4833947270995
  0
LINE
  5
11C
330
117
100
AcDbEntity
  8
DIMENSIONS
100
AcDbLine
 10
201.1443071995302
 20
212.5777452239938
 30
0.0
 11
199.6949785851313
 21
212.5777452239938
 31
0.0
  0
LINE
  5
11D
330
117
100
AcDbEntity
  8
DIMENSIONS
100
AcDbLine
 10
199.6949785851313
 20
212.5777452239938
 30
0.0
 11
199.6949785851313
 21
205.7181772763081
 31
0.0
  0
LINE
  5
11E
330
117
100
AcDbEntity
  8
DIMENSIONS
100
AcDbLine
 10
199.6949785851313
 20
205.7181772763081
 30
0.0
 11
201.1443071995302
 21
205.7181772763081
 31
0.0
  0
LINE
  5
11F
330
117
100
AcDbEntity
  8
DIMENSIONS
100
AcDbLine
 10
213.9697403643652
 20
212.5777452239938
 30
0.0
 11
215.419068978764
 21
212.5777452239938
 31
0.0
  0
LINE
  5
120
330
117
100
AcDbEntity
  8
DIMENSIONS
100
AcDbLine
 10
215.419068978764
 20
212.5777452239938
 30
0.0
 11
215.419068978764
 21
205.7181772763081
 31
0.0
  0
LINE
  5
121
330
117
100
AcDbEntity
  8
DIMENSIONS
100
AcDbLine
 10
215.419068978764
 20
205.7181772763081
 30
0.0
 11
213.9697403643652
 21
205.7181772763081
 31
0.0
  0
LINE
  5
122
330
117
100
AcDbEntity
  8
DIMENSIONS
100
AcDbLine
 10
151.5970240147783
 20
258.3793947270995
 30
0.0
 11
213.9070240147783
 21
258.3793947270995
 31
0.0
  0
LINE
  5
123
330
117
100
AcDbEntity
  8
DIMENSIONS
100
AcDbLine
 10
177.5970240147782
 20
177.8793947270995
 30
0.0
 11
213.9070240147783
 21
177.8793947270995
 31
0.0
  0
LINE
  5
124
330
117
100
AcDbEntity
  8
DIMENSIONS
100
AcDbLine
 10
207.5570240147783
 20
258.3793947270995
 30
0.0
 11
207.5570240147783
 21
220.4035328688271
 31
0.0
  0
LINE
  5
125
330
117
100
AcDbEntity
  8
DIMENSIONS
100
AcDbLine
 10
207.5570240147783
 20
177.8793947270995
 30
0.0
 11
207.5570240147783
 21
204.751958510483
 31
0.0
  0
MTEXT
  5
126
330
117
100
AcDbEntity
  8
DIMENSIONS
100
AcDbMText
 10
198.114338224915
 20
219.0010183528427
 30
0.0
210
0.0
220
0.0
230
1.0
 11
1.0
 21
0.0
 31
0.0
 40
4.233333333333333
 41
0.0
 71
     1
 72
     1
  1

  7
SLDTEXTSTYLE0
 73
     1
 44
1.0
  0
MTEXT
  5
127
330
117
100
AcDbEntity
  8
DIMENSIONS
100
AcDbMText
 10
201.1443076651915
 20
219.0010178871814
 30
0.0
210
0.0
220
0.0
230
1.0
 11
1.0
 21
0.0
 31
0.0
 40
4.233333333333333
 41
0.0
 71
     1
 72
     1
  1
80.5
  7
SLDTEXTSTYLE0
 73
     1
 44
1.0
  0
MTEXT
  5
128
330
117
100
AcDbEntity
  8
DIMENSIONS
100
AcDbMText
 10
201.1443071995302
 20
211.1752307080094
 30
0.0
210
0.0
220
0.0
230
1.0
 11
1.0
 21
0.0
 31
0.0
 40
4.233333333333333
 41
0.0
 71
     1
 72
     1
  1
3.17
  7
SLDTEXTSTYLE0
 73
     1
 44
1.0
  0
MTEXT
  5
129
330
117
100
AcDbEntity
  8
DIMENSIONS
100
AcDbMText
 10
218.7204816249881
 20
219.0010183528427
 30
0.0
210
0.0
220
0.0
230
1.0
 11
1.0
 21
0.0
 31
0.0
 40
4.233333333333333
 41
0.0
 71
     1
 72
     1
  1

  7
SLDTEXTSTYLE0
 73
     1
 44
1.0
  0
ENDBLK
  5
119
330
117
100
AcDbEntity
  8
0
100
AcDbBlockEnd
  0
BLOCK
  5
12D
330
12C
100
AcDbEntity
  8
0
100
AcDbBlockBegin
  2
_D_1
 70
     0
 10
0.0
 20
0.0
 30
0.0
  3
_D_1
  1

  0
SOLID
  5
12F
330
12C
100
AcDbEntity
  8
DIMENSIONS
100
AcDbTrace
 38
0.0
 10
175.5570240147783
 20
149.9295215517241
 11
168.9530240147783
 21
150.9455215517241
 12
168.9530240147783
 22
148.9135215517241
 13
168.9530240147783
 23
148.9135215517241
  0
SOLID
  5
130
330
12C
100
AcDbEntity
  8
DIMENSIONS
100
AcDbTrace
 38
0.0
 10
92.55702401477825
 20
149.9295215517241
 11
99.16102401477825
 21
148.9135215517241
 12
99.16102401477825
 22
150.9455215517241
 13
99.16102401477825
 23
150.9455215517241
  0
LINE
  5
131
330
12C
100
AcDbEntity
  8
DIMENSIONS
100
AcDbLine
 10
130.604955598545
 20
149.9295210860628
 30
0.0
 11
129.1556269841461
 21
149.9295210860628
 31
0.0
  0
LINE
  5
132
330
12C
100
AcDbEntity
  8
DIMENSIONS
100
AcDbLine
 10
129.1556269841461
 20
149.9295210860628
 30
0.0
 11
129.1556269841461
 21
143.0699531383771
 31
0.0
  0
LINE
  5
133
330
12C
100
AcDbEntity
  8
DIMENSIONS
100
AcDbLine
 10
129.1556269841461
 20
143.0699531383771
 30
0.0
 11
130.604955598545
 21
143.0699531383771
 31
0.0
  0
LINE
  5
134
330
12C
100
AcDbEntity
  8
DIMENSIONS
100
AcDbLine
 10
143.4303887633799
 20
149.9295210860628
 30
0.0
 11
144.8797173777788
 21
149.9295210860628
 31
0.0
  0
LINE
  5
135
330
12C
100
AcDbEntity
  8
DIMENSIONS
100
AcDbLine
 10
144.8797173777788
 20
149.9295210860628
 30
0.0
 11
144.8797173777788
 21
143.0699531383771
 31
0.0
  0
LINE
  5
136
330
12C
100
AcDbEntity
  8
DIMENSIONS
100
AcDbLine
 10
144.8797173777788
 20
143.0699531383771
 30
0.0
 11
143.4303887633799
 21
143.0699531383771
 31
0.0
  0
LINE
  5
137
330
12C
100
AcDbEntity
  8
DIMENSIONS
100
AcDbLine
 10
175.5570240147783
 20
175.8393947270995
 30
0.0
 11
175.5570240147783
 21
143.5795215517241
 31
0.0
  0
LINE
  5
138
330
12C
100
AcDbEntity
  8
DIMENSIONS
100
AcDbLine
 10
92.55702401477825
 20
175.8393947270995
 30
0.0
 11
92.55702401477825
 21
143.5795215517241
 31
0.0
  0
LINE
  5
139
330
12C
100
AcDbEntity
  8
DIMENSIONS
100
AcDbLine
 10
175.5570240147783
 20
149.9295215517241
 30
0.0
 11
149.2781946992809
 21
149.9295215517241
 31
0.0
  0
LINE
  5
13A
330
12C
100
AcDbEntity
  8
DIMENSIONS
100
AcDbLine
 10
92.55702401477825
 20
149.9295215517241
 30
0.0
 11
124.7571501283053
 21
149.9295215517241
 31
0.0
  0
MTEXT
  5
13B
330
12C
100
AcDbEntity
  8
DIMENSIONS
100
AcDbMText
 10
127.5749866239298
 20
156.3527942149118
 30
0.0
210
0.0
220
0.0
230
1.0
 11
1.0
 21
0.0
 31
0.0
 40
4.233333333333333
 41
0.0
 71
     1
 72
     1
  1

  7
SLDTEXTSTYLE0
 73
     1
 44
1.0
  0
MTEXT
  5
13C
330
12C
100
AcDbEntity
  8
DIMENSIONS
100
AcDbMText
 10
130.6049560642062
 20
156.3527937492505
 30
0.0
210
0.0
220
0.0
230
1.0
 11
1.0
 21
0.0
 31
0.0
 40
4.233333333333333
 41
0.0
 71
     1
 72
     1
  1
83.0
  7
SLDTEXTSTYLE0
 73
     1
 44
1.0
  0
MTEXT
  5
13D
330
12C
100
AcDbEntity
  8
DIMENSIONS
100
AcDbMText
 10
130.604955598545
 20
148.5270065700784
 30
0.0
210
0.0
220
0.0
230
1.0
 11
1.0
 21
0.0
 31
0.0
 40
4.233333333333333
 41
0.0
 71
     1
 72
     1
  1
3.27
  7
SLDTEXTSTYLE0
 73
     1
 44
1.0
  0
MTEXT
  5
13E
330
12C
100
AcDbEntity
  8
DIMENSIONS
100
AcDbMText
 10
148.1811300240029
 20
156.3527942149118
 30
0.0
210
0.0
220
0.0
230
1.0
 11
1.0
 21
0.0
 31
0.0
 40
4.233333333333333
 41
0.0
 71
     1
 72
     1
  1

  7
SLDTEXTSTYLE0
 73
     1
 44
1.0
  0
ENDBLK
  5
12E
330
12C
100
AcDbEntity
  8
0
100
AcDbBlockEnd
  0
BLOCK
  5
141
330
140
100
AcDbEntity
  8
0
100
AcDbBlockBegin
  2
_D_2
 70
     0
 10
0.0
 20
0.0
 30
0.0
  3
_D_2
  1

  0
SOLID
  5
143
330
140
100
AcDbEntity
  8
DIMENSIONS
100
AcDbTrace
 38
0.0
 10
164.5570240147782
 20
283.7689094827585
 11
157.9530240147782
 21
284.7849094827586
 12
157.9530240147782
 22
282.7529094827585
 13
157.9530240147782
 23
282.7529094827585
  0
SOLID
  5
144
330
140
100
AcDbEntity
  8
DIMENSIONS
100
AcDbTrace
 38
0.0
 10
103.5570240147783
 20
283.7689094827585
 11
110.1610240147783
 21
282.7529094827585
 12
110.1610240147783
 22
284.7849094827586
 13
110.1610240147783
 23
284.7849094827586
  0
LINE
  5
145
330
140
100
AcDbEntity
  8
DIMENSIONS
100
AcDbLine
 10
125.3842702537173
 20
283.7689090170973
 30
0.0
 11
123.9349416393185
 21
283.7689090170973
 31
0.0
  0
LINE
  5
146
330
140
100
AcDbEntity
  8
DIMENSIONS
100
AcDbLine
 10
123.9349416393185
 20
283.7689090170973
 30
0.0
 11
123.9349416393185
 21
276.9093410694115
 31
0.0
  0
LINE
  5
147
330
140
100
AcDbEntity
  8
DIMENSIONS
100
AcDbLine
 10
123.9349416393185
 20
276.9093410694115
 30
0.0
 11
125.3842702537173
 21
276.9093410694115
 31
0.0
  0
LINE
  5
148
330
140
100
AcDbEntity
  8
DIMENSIONS
100
AcDbLine
 10
138.2097034185523
 20
283.7689090170973
 30
0.0
 11
139.6590320329512
 21
283.7689090170973
 31
0.0
  0
LINE
  5
149
330
140
100
AcDbEntity
  8
DIMENSIONS
100
AcDbLine
 10
139.6590320329512
 20
283.7689090170973
 30
0.0
 11
139.6590320329512
 21
276.9093410694115
 31
0.0
  0
LINE
  5
14A
330
140
100
AcDbEntity
  8
DIMENSIONS
100
AcDbLine
 10
139.6590320329512
 20
276.9093410694115
 30
0.0
 11
138.2097034185523
 21
276.9093410694115
 31
0.0
  0
LINE
  5
14B
330
140
100
AcDbEntity
  8
DIMENSIONS
100
AcDbLine
 10
164.5570240147782
 20
254.8614328428495
 30
0.0
 11
164.5570240147782
 21
256.8553947270995
 31
0.0
  0
LINE
  5
14C
330
140
100
AcDbEntity
  8
DIMENSIONS
100
AcDbLine
 10
164.5570240147782
 20
259.9033947270996
 30
0.0
 11
164.5570240147782
 21
290.1189094827586
 31
0.0
  0
LINE
  5
14D
330
140
100
AcDbEntity
  8
DIMENSIONS
100
AcDbLine
 10
103.5570240147783
 20
254.8614328428495
 30
0.0
 11
103.5570240147783
 21
290.1189094827586
 31
0.0
  0
LINE
  5
14E
330
140
100
AcDbEntity
  8
DIMENSIONS
100
AcDbLine
 10
164.5570240147782
 20
283.7689094827585
 30
0.0
 11
144.0575093544533
 21
283.7689094827585
 31
0.0
  0
LINE
  5
14F
330
140
100
AcDbEntity
  8
DIMENSIONS
100
AcDbLine
 10
103.5570240147783
 20
283.7689094827585
 30
0.0
 11
119.5364647834777
 21
283.7689094827585
 31
0.0
  0
MTEXT
  5
150
330
140
100
AcDbEntity
  8
DIMENSIONS
100
AcDbMText
 10
122.3543012791022
 20
290.1921821459462
 30
0.0
210
0.0
220
0.0
230
1.0
 11
1.0
 21
0.0
 31
0.0
 40
4.233333333333333
 41
0.0
 71
     1
 72
     1
  1

  7
SLDTEXTSTYLE0
 73
     1
 44
1.0
  0
MTEXT
  5
151
330
140
100
AcDbEntity
  8
DIMENSIONS
100
AcDbMText
 10
125.3842707193786
 20
290.1921816802849
 30
0.0
210
0.0
220
0.0
230
1.0
 11
1.0
 21
0.0
 31
0.0
 40
4.233333333333333
 41
0.0
 71
     1
 72
     1
  1
61.0
  7
SLDTEXTSTYLE0
 73
     1
 44
1.0
  0
MTEXT
  5
152
330
140
100
AcDbEntity
  8
DIMENSIONS
100
AcDbMText
 10
125.3842702537173
 20
282.3663945011129
 30
0.0
210
0.0
220
0.0
230
1.0
 11
1.0
 21
0.0
 31
0.0
 40
4.233333333333333
 41
0.0
 71
     1
 72
     1
  1
2.40
  7
SLDTEXTSTYLE0
 73
     1
 44
1.0
  0
MTEXT
  5
153
330
140
100
AcDbEntity
  8
DIMENSIONS
100
AcDbMText
 10
142.9604446791753
 20
290.1921821459462
 30
0.0
210
0.0
220
0.0
230
1.0
 11
1.0
 21
0.0
 31
0.0
 40
4.233333333333333
 41
0.0
 71
     1
 72
     1
  1

  7
SLDTEXTSTYLE0
 73
     1
 44
1.0
  0
ENDBLK
  5
142
330
140
100
AcDbEntity
  8
0
100
AcDbBlockEnd
  0
BLOCK
  5
2EB
330
2EA
100
AcDbEntity
  8
0
100
AcDbBlockBegin
  2
_D_3
 70
     0
 10
0.0
 20
0.0
 30
0.0
  3
_D_3
  1

  0
SOLID
  5
2ED
330
2EA
100
AcDbEntity
  8
DIMENSIONS
100
AcDbTrace
 38
0.0
 10
327.8706012239679
 20
279.7837349364175
 11
321.2666012239679
 21
280.7997349364175
 12
321.2666012239679
 22
278.7677349364175
 13
321.2666012239679
 23
278.7677349364175
  0
SOLID
  5
2EE
330
2EA
100
AcDbEntity
  8
DIMENSIONS
100
AcDbTrace
 38
0.0
 10
339.8706012239679
 20
279.7837349364175
 11
346.4746012239679
 21
278.7677349364175
 12
346.4746012239679
 22
280.7997349364175
 13
346.4746012239679
 23
280.7997349364175
  0
LINE
  5
2EF
330
2EA
100
AcDbEntity
  8
DIMENSIONS
100
AcDbLine
 10
357.0315385097479
 20
279.7837344707562
 30
0.0
 11
355.582209895349
 21
279.7837344707562
 31
0.0
  0
LINE
  5
2F0
330
2EA
100
AcDbEntity
  8
DIMENSIONS
100
AcDbLine
 10
355.582209895349
 20
279.7837344707562
 30
0.0
 11
355.582209895349
 21
272.9241665230705
 31
0.0
  0
LINE
  5
2F1
330
2EA
100
AcDbEntity
  8
DIMENSIONS
100
AcDbLine
 10
355.582209895349
 20
272.9241665230705
 30
0.0
 11
357.0315385097479
 21
272.9241665230705
 31
0.0
  0
LINE
  5
2F2
330
2EA
100
AcDbEntity
  8
DIMENSIONS
100
AcDbLine
 10
369.8569716745828
 20
279.7837344707562
 30
0.0
 11
371.3063002889817
 21
279.7837344707562
 31
0.0
  0
LINE
  5
2F3
330
2EA
100
AcDbEntity
  8
DIMENSIONS
100
AcDbLine
 10
371.3063002889817
 20
279.7837344707562
 30
0.0
 11
371.3063002889817
 21
272.9241665230705
 31
0.0
  0
LINE
  5
2F4
330
2EA
100
AcDbEntity
  8
DIMENSIONS
100
AcDbLine
 10
371.3063002889817
 20
272.9241665230705
 30
0.0
 11
369.8569716745828
 21
272.9241665230705
 31
0.0
  0
LINE
  5
2F5
330
2EA
100
AcDbEntity
  8
DIMENSIONS
100
AcDbLine
 10
327.8706012239679
 20
258.3614328428494
 30
0.0
 11
327.8706012239679
 21
286.1337349364175
 31
0.0
  0
LINE
  5
2F6
330
2EA
100
AcDbEntity
  8
DIMENSIONS
100
AcDbLine
 10
339.8706012239679
 20
258.3614328428494
 30
0.0
 11
339.8706012239679
 21
286.1337349364175
 31
0.0
  0
LINE
  5
2F7
330
2EA
100
AcDbEntity
  8
DIMENSIONS
100
AcDbLine
 10
327.8706012239679
 20
279.7837349364175
 30
0.0
 11
315.1706012239679
 21
279.7837349364175
 31
0.0
  0
LINE
  5
2F8
330
2EA
100
AcDbEntity
  8
DIMENSIONS
100
AcDbLine
 10
339.8706012239679
 20
279.7837349364175
 30
0.0
 11
351.1837330395082
 21
279.7837349364175
 31
0.0
  0
MTEXT
  5
2F9
330
2EA
100
AcDbEntity
  8
DIMENSIONS
100
AcDbMText
 10
354.0015695351327
 20
286.2070075996052
 30
0.0
210
0.0
220
0.0
230
1.0
 11
1.0
 21
0.0
 31
0.0
 40
4.233333333333333
 41
0.0
 71
     1
 72
     1
  1

  7
SLDTEXTSTYLE0
 73
     1
 44
1.0
  0
MTEXT
  5
2FA
330
2EA
100
AcDbEntity
  8
DIMENSIONS
100
AcDbMText
 10
357.0315389754091
 20
286.2070071339439
 30
0.0
210
0.0
220
0.0
230
1.0
 11
1.0
 21
0.0
 31
0.0
 40
4.233333333333333
 41
0.0
 71
     1
 72
     1
  1
12.0
  7
SLDTEXTSTYLE0
 73
     1
 44
1.0
  0
MTEXT
  5
2FB
330
2EA
100
AcDbEntity
  8
DIMENSIONS
100
AcDbMText
 10
357.0315385097479
 20
278.3812199547718
 30
0.0
210
0.0
220
0.0
230
1.0
 11
1.0
 21
0.0
 31
0.0
 40
4.233333333333333
 41
0.0
 71
     1
 72
     1
  1
0.47
  7
SLDTEXTSTYLE0
 73
     1
 44
1.0
  0
MTEXT
  5
2FC
330
2EA
100
AcDbEntity
  8
DIMENSIONS
100
AcDbMText
 10
374.6077129352057
 20
286.2070075996052
 30
0.0
210
0.0
220
0.0
230
1.0
 11
1.0
 21
0.0
 31
0.0
 40
4.233333333333333
 41
0.0
 71
     1
 72
     1
  1

  7
SLDTEXTSTYLE0
 73
     1
 44
1.0
  0
ENDBLK
  5
2EC
330
2EA
100
AcDbEntity
  8
0
100
AcDbBlockEnd
  0
BLOCK
  5
2FF
330
2FE
100
AcDbEntity
  8
0
100
AcDbBlockBegin
  2
_D_4
 70
     0
 10
0.0
 20
0.0
 30
0.0
  3
_D_4
  1

  0
SOLID
  5
301
330
2FE
100
AcDbEntity
  8
DIMENSIONS
100
AcDbTrace
 38
0.0
 10
323.8692154936145
 20
157.8802291518205
 11
330.4731979029264
 21
156.8641148189329
 12
330.4732330823232
 22
158.8961148186284
 13
330.4732330823232
 23
158.8961148186284
  0
SOLID
  5
302
330
2FE
100
AcDbEntity
  8
DIMENSIONS
100
AcDbTrace
 38
0.0
 10
345.0692289934711
 20
157.8798621224461
 11
338.4652465841593
 21
158.8959764553337
 12
338.4652114047624
 22
156.8639764556382
 13
338.4652114047624
 23
156.8639764556382
  0
LINE
  5
303
330
2FE
100
AcDbEntity
  8
DIMENSIONS
100
AcDbLine
 10
365.6537727404749
 20
157.8793942614382
 30
0.0
 11
364.2044441260761
 21
157.8793942614382
 31
0.0
  0
LINE
  5
304
330
2FE
100
AcDbEntity
  8
DIMENSIONS
100
AcDbLine
 10
364.2044441260761
 20
157.8793942614382
 30
0.0
 11
364.2044441260761
 21
151.0198263137525
 31
0.0
  0
LINE
  5
305
330
2FE
100
AcDbEntity
  8
DIMENSIONS
100
AcDbLine
 10
364.2044441260761
 20
151.0198263137525
 30
0.0
 11
365.6537727404749
 21
151.0198263137525
 31
0.0
  0
LINE
  5
306
330
2FE
100
AcDbEntity
  8
DIMENSIONS
100
AcDbLine
 10
378.4792059053099
 20
157.8793942614382
 30
0.0
 11
379.9285345197088
 21
157.8793942614382
 31
0.0
  0
LINE
  5
307
330
2FE
100
AcDbEntity
  8
DIMENSIONS
100
AcDbLine
 10
379.9285345197088
 20
157.8793942614382
 30
0.0
 11
379.9285345197088
 21
151.0198263137525
 31
0.0
  0
LINE
  5
308
330
2FE
100
AcDbEntity
  8
DIMENSIONS
100
AcDbLine
 10
379.9285345197088
 20
151.0198263137525
 30
0.0
 11
378.4792059053099
 21
151.0198263137525
 31
0.0
  0
LINE
  5
309
330
2FE
100
AcDbEntity
  8
DIMENSIONS
100
AcDbLine
 10
323.8705221988062
 20
233.3569338234708
 30
0.0
 11
323.8691055579992
 21
151.5302291527721
 31
0.0
  0
LINE
  5
30A
330
2FE
100
AcDbEntity
  8
DIMENSIONS
100
AcDbLine
 10
345.070557249722
 20
234.6013792720302
 30
0.0
 11
345.0691190578559
 21
151.5298621233977
 31
0.0
  0
LINE
  5
30B
330
2FE
100
AcDbEntity
  8
DIMENSIONS
100
AcDbLine
 10
323.8692154936145
 20
157.8802291518205
 30
0.0
 11
345.0692289934711
 21
157.8798621224461
 31
0.0
  0
LINE
  5
30C
330
2FE
100
AcDbEntity
  8
DIMENSIONS
100
AcDbLine
 10
345.0692289934711
 20
157.8798621224461
 30
0.0
 11
359.8059672702353
 21
157.8796069897863
 31
0.0
  0
MTEXT
  5
30D
330
2FE
100
AcDbEntity
  8
DIMENSIONS
100
AcDbMText
 10
362.6238037658598
 20
164.3026673902872
 30
0.0
210
0.0
220
0.0
230
1.0
 11
1.0
 21
0.0
 31
0.0
 40
4.233333333333333
 41
0.0
 71
     1
 72
     1
  1

  7
SLDTEXTSTYLE0
 73
     1
 44
1.0
  0
MTEXT
  5
30E
330
2FE
100
AcDbEntity
  8
DIMENSIONS
100
AcDbMText
 10
365.6537732061362
 20
164.3026669246259
 30
0.0
210
0.0
220
0.0
230
1.0
 11
1.0
 21
0.0
 31
0.0
 40
4.233333333333333
 41
0.0
 71
     1
 72
     1
  1
21.2
  7
SLDTEXTSTYLE0
 73
     1
 44
1.0
  0
MTEXT
  5
30F
330
2FE
100
AcDbEntity
  8
DIMENSIONS
100
AcDbMText
 10
365.6537727404749
 20
156.4768797454538
 30
0.0
210
0.0
220
0.0
230
1.0
 11
1.0
 21
0.0
 31
0.0
 40
4.233333333333333
 41
0.0
 71
     1
 72
     1
  1
0.83
  7
SLDTEXTSTYLE0
 73
     1
 44
1.0
  0
MTEXT
  5
310
330
2FE
100
AcDbEntity
  8
DIMENSIONS
100
AcDbMText
 10
383.2299471659329
 20
164.3026673902872
 30
0.0
210
0.0
220
0.0
230
1.0
 11
1.0
 21
0.0
 31
0.0
 40
4.233333333333333
 41
0.0
 71
     1
 72
     1
  1

  7
SLDTEXTSTYLE0
 73
     1
 44
1.0
  0
ENDBLK
  5
300
330
2FE
100
AcDbEntity
  8
0
100
AcDbBlockEnd
  0
ENDSEC
  0
SECTION
  2
ENTITIES
  0
LINE
  5
7A
330
1F
100
AcDbEntity
  8
TEXT
100
AcDbLine
 10
311.5177908492558
 20
44.25221539270293
 30
0.0
 11
311.5177908492558
 21
27.93999999999992
 31
0.0
  0
LINE
  5
7B
330
1F
100
AcDbEntity
  8
TEXT
100
AcDbLine
 10
12.69999999999995
 20
419.1
 30
0.0
 11
546.0999999999999
 21
419.1
 31
0.0
  0
LINE
  5
7C
330
1F
100
AcDbEntity
  8
TEXT
100
AcDbLine
 10
12.69999999999995
 20
419.1
 30
0.0
 11
12.7
 21
12.7
 31
0.0
  0
LINE
  5
7D
330
1F
100
AcDbEntity
  8
TEXT
100
AcDbLine
 10
271.7799999999999
 20
403.86
 30
0.0
 11
287.0199999999999
 21
403.86
 31
0.0
  0
LINE
  5
7E
330
1F
100
AcDbEntity
  8
TEXT
100
AcDbLine
 10
546.0999999999999
 20
419.1
 30
0.0
 11
546.0999999999999
 21
12.7
 31
0.0
  0
LINE
  5
7F
330
1F
100
AcDbEntity
  8
TEXT
100
AcDbLine
 10
271.7799999999999
 20
403.86
 30
0.0
 11
271.7799999999999
 21
419.1
 31
0.0
  0
LINE
  5
80
330
1F
100
AcDbEntity
  8
TEXT
100
AcDbLine
 10
479.1507547932975
 20
44.25221539270295
 30
0.0
 11
479.1507547932975
 21
27.93999999999992
 31
0.0
  0
LINE
  5
81
330
1F
100
AcDbEntity
  8
TEXT
100
AcDbLine
 10
287.0199999999999
 20
403.86
 30
0.0
 11
287.0199999999999
 21
419.1
 31
0.0
  0
LINE
  5
82
330
1F
100
AcDbEntity
  8
TEXT
100
AcDbLine
 10
546.0999999999999
 20
12.7
 30
0.0
 11
546.1
 21
33.02
 31
0.0
  0
LINE
  5
83
330
1F
100
AcDbEntity
  8
TEXT
100
AcDbLine
 10
55.87999999999996
 20
403.86
 30
0.0
 11
71.11999999999993
 21
403.86
 31
0.0
  0
LINE
  5
84
330
1F
100
AcDbEntity
  8
TEXT
100
AcDbLine
 10
55.87999999999996
 20
403.86
 30
0.0
 11
55.87999999999996
 21
419.1
 31
0.0
  0
LINE
  5
85
330
1F
100
AcDbEntity
  8
TEXT
100
AcDbLine
 10
71.11999999999993
 20
403.86
 30
0.0
 11
71.11999999999993
 21
419.1
 31
0.0
  0
LINE
  5
86
330
1F
100
AcDbEntity
  8
TEXT
100
AcDbLine
 10
546.0999999999997
 20
27.93999999999992
 30
0.0
 11
12.7
 21
27.93999999999992
 31
0.0
  0
LINE
  5
87
330
1F
100
AcDbEntity
  8
TEXT
100
AcDbLine
 10
12.70000000000005
 20
12.69999999999993
 30
0.0
 11
546.0999999999999
 21
12.7
 31
0.0
  0
LINE
  5
88
330
1F
100
AcDbEntity
  8
TEXT
100
AcDbLine
 10
327.5603545565831
 20
27.93999999999992
 30
0.0
 11
327.5603545565831
 21
12.70000000000001
 31
0.0
  0
LINE
  5
89
330
1F
100
AcDbEntity
  8
TEXT
100
AcDbLine
 10
63.49999999999978
 20
27.93999999999992
 30
0.0
 11
63.49999999999977
 21
12.7
 31
0.0
  0
LINE
  5
8A
330
1F
100
AcDbEntity
  8
TEXT
100
AcDbLine
 10
546.0999999999999
 20
44.25221539270296
 30
0.0
 11
12.7
 21
44.25221539270289
 31
0.0
  0
LINE
  5
8B
330
1F
100
AcDbEntity
  8
TEXT
100
AcDbLine
 10
241.2929554150143
 20
27.93999999999992
 30
0.0
 11
241.2929554150143
 21
12.69999999999993
 31
0.0
  0
LINE
  5
8C
330
1F
100
AcDbEntity
  8
TEXT
100
AcDbLine
 10
487.6799999999999
 20
403.86
 30
0.0
 11
502.9199999999998
 21
403.8600000000001
 31
0.0
  0
LINE
  5
8D
330
1F
100
AcDbEntity
  8
TEXT
100
AcDbLine
 10
487.6799999999999
 20
403.86
 30
0.0
 11
487.6799999999999
 21
419.0999999999999
 31
0.0
  0
LINE
  5
8E
330
1F
100
AcDbEntity
  8
TEXT
100
AcDbLine
 10
406.0486090828576
 20
27.93999999999992
 30
0.0
 11
406.0486090828576
 21
12.69999999999993
 31
0.0
  0
LINE
  5
8F
330
1F
100
AcDbEntity
  8
TEXT
100
AcDbLine
 10
433.6241950168863
 20
27.93999999999992
 30
0.0
 11
433.6241950168863
 21
12.69999999999993
 31
0.0
  0
LINE
  5
90
330
1F
100
AcDbEntity
  8
TEXT
100
AcDbLine
 10
502.6974980949345
 20
27.93999999999992
 30
0.0
 11
502.6974980949345
 21
12.7
 31
0.0
  0
LINE
  5
91
330
1F
100
AcDbEntity
  8
TEXT
100
AcDbLine
 10
100.4232557870438
 20
27.93999999999992
 30
0.0
 11
100.4232557870438
 21
12.69999999999993
 31
0.0
  0
LINE
  5
92
330
1F
100
AcDbEntity
  8
TEXT
100
AcDbLine
 10
502.9199999999998
 20
403.8600000000001
 30
0.0
 11
502.9199999999998
 21
419.0999999999999
 31
0.0
  0
INSERT
  5
93
330
1F
100
AcDbEntity
  8
SLD-DEFPOINTS
100
AcDbBlockReference
  2
Block12
 10
13.67587705809444
 20
15.1077106151954
 30
0.0
  0
MTEXT
  5
95
330
1F
100
AcDbEntity
  8
TEXT
100
AcDbMText
 10
395.6789008620691
 20
58.14283319340212
 30
0.0
210
0.0
220
0.0
230
1.0
 11
1.0
 21
0.0
 31
0.0
 40
4.233333333333333
 41
0.0
 71
     1
 72
     1
  1
FOR USE WITH HMC-9 TO HMC-150 CONTACTORS.
  7
SLDTEXTSTYLE0
 73
     1
 44
1.0
  0
MTEXT
  5
96
330
1F
100
AcDbEntity
  8
TEXT
100
AcDbMText
 10
445.2256171376118
 20
19.00595045808283
 30
0.0
210
0.0
220
0.0
230
1.0
 11
1.0
 21
0.0
 31
0.0
 40
4.233333333333333
 41
0.0
 71
     1
 72
     1
  1
1/15/2025
  7
SLDTEXTSTYLE0
 73
     1
 44
1.0
  0
MTEXT
  5
97
330
1F
100
AcDbEntity
  8
TEXT
100
AcDbMText
 10
15.93146849452659
 20
40.02152002164097
 30
0.0
210
0.0
220
0.0
230
1.0
 11
1.0
 21
0.0
 31
0.0
 40
7.408333333333332
 41
0.0
 71
     1
 72
     1
  1
IRONHORSE MECHANICAL INTERLOCK: SIDE MOUNT
  7
SLDTEXTSTYLE0
 73
     1
 44
1.0
  0
MTEXT
  5
98
330
1F
100
AcDbEntity
  8
TEXT
100
AcDbMText
 10
410.5984612034642
 20
26.72077454384019
 30
0.0
210
0.0
220
0.0
230
1.0
 11
1.0
 21
0.0
 31
0.0
 40
4.233333333333333
 41
0.0
 71
     1
 72
     1
  1
mm^J[inch]
  7
SLDTEXTSTYLE0
 73
     1
 44
1.0
  0
MTEXT
  5
99
330
1F
100
AcDbEntity
  8
TEXT
100
AcDbMText
 10
335.2158260920769
 20
26.66216716726197
 30
0.0
210
0.0
220
0.0
230
1.0
 11
1.0
 21
0.0
 31
0.0
 40
4.233333333333333
 41
0.0
 71
     1
 72
     1
  1
UNLESS OTHERWISE ^JSPECIFIED UNITS ARE:
  7
SLDTEXTSTYLE0
 73
     1
 44
1.0
  0
MTEXT
  5
9A
330
1F
100
AcDbEntity
  8
TEXT
100
AcDbMText
 10
469.1042629709452
 20
26.72798774431594
 30
0.0
210
0.0
220
0.0
230
1.0
 11
1.0
 21
0.0
 31
0.0
 40
4.233333333333333
 41
0.0
 71
     2
 72
     1
  1
LATEST VERSION
  7
SLDTEXTSTYLE0
 73
     1
 44
1.0
  0
MTEXT
  5
9B
330
1F
100
AcDbEntity
  8
TEXT
100
AcDbMText
 10
110.2385689801725
 20
26.66094388490536
 30
0.0
210
0.0
220
0.0
230
1.0
 11
1.0
 21
0.0
 31
0.0
 40
4.233333333333333
 41
0.0
 71
     1
 72
     1
  1
PART DIMENSIONS MAY DIFFER SLIGHTLY ^JDUE TO MANUFACTURER'S VARIANCES
  7
SLDTEXTSTYLE0
 73
     1
 44
1.0
  0
MTEXT
  5
9C
330
1F
100
AcDbEntity
  8
TEXT
100
AcDbMText
 10
71.23083759682186
 20
26.73493033250609
 30
0.0
210
0.0
220
0.0
230
1.0
 11
1.0
 21
0.0
 31
0.0
 40
4.233333333333333
 41
0.0
 71
     1
 72
     1
  1
NOT TO^JSCALE
  7
SLDTEXTSTYLE0
 73
     1
 44
1.0
  0
MTEXT
  5
9D
330
1F
100
AcDbEntity
  8
TEXT
100
AcDbMText
 10
38.99144740200799
 20
26.73492986684474
 30
0.0
210
0.0
220
0.0
230
1.0
 11
1.0
 21
0.0
 31
0.0
 40
4.233333333333333
 41
0.0
 71
     1
 72
     1
  1
3rd^JANGLE
  7
SLDTEXTSTYLE0
 73
     1
 44
1.0
  0
MTEXT
  5
9E
330
1F
100
AcDbEntity
  8
TEXT
100
AcDbMText
 10
318.415444140757
 20
40.02152002164091
 30
0.0
210
0.0
220
0.0
230
1.0
 11
1.0
 21
0.0
 31
0.0
 40
7.408333333333332
 41
0.0
 71
     1
 72
     1
  1
HMX1-MI
  7
SLDTEXTSTYLE0
 73
     1
 44
1.0
  0
MTEXT
  5
A0
330
1F
100
AcDbEntity
  8
TEXT
100
AcDbMText
 10
504.8825714823939
 20
24.96694275193958
 30
0.0
210
0.0
220
0.0
230
1.0
 11
1.0
 21
0.0
 31
0.0
 40
4.233333333333333
 41
0.0
 71
     1
 72
     1
  1
SHEET 1 OF 1
  7
SLDTEXTSTYLE1
 73
     1
 44
1.0
  0
MTEXT
  5
A1
330
1F
100
AcDbEntity
  8
TEXT
100
AcDbMText
 10
255.2086690451062
 20
27.09116048609238
 30
0.0
210
0.0
220
0.0
230
1.0
 11
1.0
 21
0.0
 31
0.0
 40
4.233333333333333
 41
0.0
 71
     1
 72
     1
  1
METRIC UNITS USED ^JFOR PART DESIGN
  7
SLDTEXTSTYLE0
 73
     1
 44
1.0
  0
MTEXT
  5
A2
330
1F
100
AcDbEntity
  8
TEXT
100
AcDbMText
 10
489.2877964323466
 20
33.84893540198345
 30
0.0
210
0.0
220
0.0
230
1.0
 11
1.0
 21
0.0
 31
0.0
 40
4.233333333333333
 41
0.0
 71
     1
 72
     1
  1
1-800-633-0405
  7
SLDTEXTSTYLE0
 73
     1
 44
1.0
  0
MTEXT
  5
A3
330
1F
100
AcDbEntity
  8
TEXT
100
AcDbMText
 10
481.1543086564247
 20
41.80499064022619
 30
0.0
210
0.0
220
0.0
230
1.0
 11
1.0
 21
0.0
 31
0.0
 40
4.233333333333333
 41
0.0
 71
     1
 72
     1
  1
AutomationDirect.com
  7
SLDTEXTSTYLE0
 73
     1
 44
1.0
  0
LINE
  5
A4
330
1F
100
AcDbEntity
  8
0
100
AcDbLine
 10
136.0570240147782
 20
240.0970907456704
 30
0.0
 11
132.0570240147782
 21
240.0970907456704
 31
0.0
  0
LINE
  5
A5
330
1F
100
AcDbEntity
  8
0
100
AcDbLine
 10
136.0570240147782
 20
235.8969338230901
 30
0.0
 11
136.0570240147782
 21
240.0970907456704
 31
0.0
  0
LINE
  5
A6
330
1F
100
AcDbEntity
  8
0
100
AcDbLine
 10
136.0570240147782
 20
235.8969338230901
 30
0.0
 11
132.0570240147782
 21
235.8969338230901
 31
0.0
  0
LINE
  5
A7
330
1F
100
AcDbEntity
  8
0
100
AcDbLine
 10
132.0570240147782
 20
235.8969338230901
 30
0.0
 11
132.0570240147782
 21
240.0970907456704
 31
0.0
  0
LINE
  5
A8
330
1F
100
AcDbEntity
  8
0
100
AcDbLine
 10
136.0570240147782
 20
235.5969294179304
 30
0.0
 11
132.0570240147782
 21
235.5969294179304
 31
0.0
  0
LINE
  5
A9
330
1F
100
AcDbEntity
  8
0
100
AcDbLine
 10
136.0570240147782
 20
235.5969294179304
 30
0.0
 11
136.0570240147782
 21
235.8969338230901
 31
0.0
  0
LINE
  5
AA
330
1F
100
AcDbEntity
  8
0
100
AcDbLine
 10
132.0570240147782
 20
235.5969294179304
 30
0.0
 11
132.0570240147782
 21
235.8969338230901
 31
0.0
  0
LINE
  5
AB
330
1F
100
AcDbEntity
  8
0
100
AcDbLine
 10
136.0570240147782
 20
240.3969239544947
 30
0.0
 11
132.0570240147782
 21
240.3969239544947
 31
0.0
  0
LINE
  5
AC
330
1F
100
AcDbEntity
  8
0
100
AcDbLine
 10
136.0570240147782
 20
240.0970907456704
 30
0.0
 11
136.0570240147782
 21
240.3969239544947
 31
0.0
  0
LINE
  5
AD
330
1F
100
AcDbEntity
  8
0
100
AcDbLine
 10
132.0570240147782
 20
240.0970907456704
 30
0.0
 11
132.0570240147782
 21
240.3969239544947
 31
0.0
  0
LINE
  5
AE
330
1F
100
AcDbEntity
  8
0
100
AcDbLine
 10
136.0570240147782
 20
240.3969777502695
 30
0.0
 11
132.0570240147782
 21
240.3969777502695
 31
0.0
  0
LINE
  5
AF
330
1F
100
AcDbEntity
  8
0
100
AcDbLine
 10
136.0570240147782
 20
240.3969239544947
 30
0.0
 11
136.0570240147782
 21
240.3969777502695
 31
0.0
  0
LINE
  5
B0
330
1F
100
AcDbEntity
  8
0
100
AcDbLine
 10
132.0570240147782
 20
240.3969239544947
 30
0.0
 11
132.0570240147782
 21
240.3969777502695
 31
0.0
  0
LINE
  5
B1
330
1F
100
AcDbEntity
  8
0
100
AcDbLine
 10
144.4570240147783
 20
181.8793947270995
 30
0.0
 11
147.6570240147783
 21
181.8793947270995
 31
0.0
  0
LINE
  5
B2
330
1F
100
AcDbEntity
  8
0
100
AcDbLine
 10
144.4570240147783
 20
182.3793947270995
 30
0.0
 11
147.6570240147783
 21
182.3793947270995
 31
0.0
  0
LINE
  5
B3
330
1F
100
AcDbEntity
  8
0
100
AcDbLine
 10
147.6570240147783
 20
181.8793947270995
 30
0.0
 11
147.6570240147783
 21
182.3793947270995
 31
0.0
  0
LINE
  5
B4
330
1F
100
AcDbEntity
  8
0
100
AcDbLine
 10
144.4570240147783
 20
181.8793947270995
 30
0.0
 11
144.4570240147783
 21
182.3793947270995
 31
0.0
  0
LINE
  5
B5
330
1F
100
AcDbEntity
  8
0
100
AcDbLine
 10
123.6570240147783
 20
182.3793947270995
 30
0.0
 11
120.4570240147783
 21
182.3793947270995
 31
0.0
  0
LINE
  5
B6
330
1F
100
AcDbEntity
  8
0
100
AcDbLine
 10
123.6570240147783
 20
181.8793947270995
 30
0.0
 11
123.6570240147783
 21
182.3793947270995
 31
0.0
  0
LINE
  5
B7
330
1F
100
AcDbEntity
  8
0
100
AcDbLine
 10
123.6570240147783
 20
181.8793947270995
 30
0.0
 11
120.4570240147783
 21
181.8793947270995
 31
0.0
  0
LINE
  5
B8
330
1F
100
AcDbEntity
  8
0
100
AcDbLine
 10
120.4570240147783
 20
181.8793947270995
 30
0.0
 11
120.4570240147783
 21
182.3793947270995
 31
0.0
  0
LINE
  5
B9
330
1F
100
AcDbEntity
  8
0
100
AcDbLine
 10
123.6570240147783
 20
185.8793947270995
 30
0.0
 11
120.4570240147783
 21
185.8793947270995
 31
0.0
  0
LINE
  5
BA
330
1F
100
AcDbEntity
  8
0
100
AcDbLine
 10
123.6570240147783
 20
183.3793947270995
 30
0.0
 11
123.6570240147783
 21
185.8793947270995
 31
0.0
  0
LINE
  5
BB
330
1F
100
AcDbEntity
  8
0
100
AcDbLine
 10
123.6570240147783
 20
183.3793947270995
 30
0.0
 11
120.4570240147783
 21
183.3793947270995
 31
0.0
  0
LINE
  5
BC
330
1F
100
AcDbEntity
  8
0
100
AcDbLine
 10
120.4570240147783
 20
183.3793947270995
 30
0.0
 11
120.4570240147783
 21
185.8793947270995
 31
0.0
  0
LINE
  5
BD
330
1F
100
AcDbEntity
  8
0
100
AcDbLine
 10
123.6570240147783
 20
182.3793947270995
 30
0.0
 11
123.6570240147783
 21
183.3793947270995
 31
0.0
  0
LINE
  5
BE
330
1F
100
AcDbEntity
  8
0
100
AcDbLine
 10
120.4570240147783
 20
182.3793947270995
 30
0.0
 11
120.4570240147783
 21
183.3793947270995
 31
0.0
  0
LINE
  5
BF
330
1F
100
AcDbEntity
  8
0
100
AcDbLine
 10
144.4570240147783
 20
183.3793947270995
 30
0.0
 11
147.6570240147783
 21
183.3793947270995
 31
0.0
  0
LINE
  5
C0
330
1F
100
AcDbEntity
  8
0
100
AcDbLine
 10
147.6570240147783
 20
182.3793947270995
 30
0.0
 11
147.6570240147783
 21
183.3793947270995
 31
0.0
  0
LINE
  5
C1
330
1F
100
AcDbEntity
  8
0
100
AcDbLine
 10
144.4570240147783
 20
182.3793947270995
 30
0.0
 11
144.4570240147783
 21
183.3793947270995
 31
0.0
  0
LINE
  5
C2
330
1F
100
AcDbEntity
  8
0
100
AcDbLine
 10
144.4570240147783
 20
185.8793947270995
 30
0.0
 11
147.6570240147783
 21
185.8793947270995
 31
0.0
  0
LINE
  5
C3
330
1F
100
AcDbEntity
  8
0
100
AcDbLine
 10
147.6570240147783
 20
183.3793947270995
 30
0.0
 11
147.6570240147783
 21
185.8793947270995
 31
0.0
  0
LINE
  5
C4
330
1F
100
AcDbEntity
  8
0
100
AcDbLine
 10
144.4570240147783
 20
183.3793947270995
 30
0.0
 11
144.4570240147783
 21
185.8793947270995
 31
0.0
  0
LINE
  5
C5
330
1F
100
AcDbEntity
  8
0
100
AcDbLine
 10
155.5570240147782
 20
227.8793947270995
 30
0.0
 11
159.8570240147783
 21
227.8793947270995
 31
0.0
  0
LINE
  5
C6
330
1F
100
AcDbEntity
  8
0
100
AcDbLine
 10
155.5570240147782
 20
228.8793947270995
 30
0.0
 11
155.5570240147782
 21
227.8793947270995
 31
0.0
  0
LINE
  5
C7
330
1F
100
AcDbEntity
  8
0
100
AcDbLine
 10
155.5570240147782
 20
228.8793947270995
 30
0.0
 11
159.8570240147783
 21
228.8793947270995
 31
0.0
  0
LINE
  5
C8
330
1F
100
AcDbEntity
  8
0
100
AcDbLine
 10
159.8570240147783
 20
228.8793947270995
 30
0.0
 11
159.8570240147783
 21
227.8793947270995
 31
0.0
  0
LINE
  5
C9
330
1F
100
AcDbEntity
  8
0
100
AcDbLine
 10
112.5570240147783
 20
227.8793947270995
 30
0.0
 11
108.2570240147783
 21
227.8793947270995
 31
0.0
  0
LINE
  5
CA
330
1F
100
AcDbEntity
  8
0
100
AcDbLine
 10
112.5570240147783
 20
227.8793947270995
 30
0.0
 11
112.5570240147783
 21
226.3793947270995
 31
0.0
  0
LINE
  5
CB
330
1F
100
AcDbEntity
  8
0
100
AcDbLine
 10
112.5570240147783
 20
226.3793947270995
 30
0.0
 11
108.2570240147783
 21
226.3793947270995
 31
0.0
  0
LINE
  5
CC
330
1F
100
AcDbEntity
  8
0
100
AcDbLine
 10
108.2570240147783
 20
227.8793947270995
 30
0.0
 11
108.2570240147783
 21
226.3793947270995
 31
0.0
  0
LINE
  5
CD
330
1F
100
AcDbEntity
  8
0
100
AcDbLine
 10
155.5570240147782
 20
230.3793947270995
 30
0.0
 11
159.8570240147783
 21
230.3793947270995
 31
0.0
  0
LINE
  5
CE
330
1F
100
AcDbEntity
  8
0
100
AcDbLine
 10
159.8570240147783
 20
230.3793947270995
 30
0.0
 11
159.8570240147783
 21
228.8793947270995
 31
0.0
  0
LINE
  5
CF
330
1F
100
AcDbEntity
  8
0
100
AcDbLine
 10
155.5570240147782
 20
230.3793947270995
 30
0.0
 11
155.5570240147782
 21
228.8793947270995
 31
0.0
  0
LINE
  5
D0
330
1F
100
AcDbEntity
  8
0
100
AcDbLine
 10
112.5570240147783
 20
228.8793947270995
 30
0.0
 11
108.2570240147783
 21
228.8793947270995
 31
0.0
  0
LINE
  5
D1
330
1F
100
AcDbEntity
  8
0
100
AcDbLine
 10
112.5570240147783
 20
228.8793947270995
 30
0.0
 11
112.5570240147783
 21
227.8793947270995
 31
0.0
  0
LINE
  5
D2
330
1F
100
AcDbEntity
  8
0
100
AcDbLine
 10
108.2570240147783
 20
228.8793947270995
 30
0.0
 11
108.2570240147783
 21
227.8793947270995
 31
0.0
  0
LINE
  5
D3
330
1F
100
AcDbEntity
  8
0
100
AcDbLine
 10
112.5570240147783
 20
230.3793947270995
 30
0.0
 11
108.2570240147783
 21
230.3793947270995
 31
0.0
  0
LINE
  5
D4
330
1F
100
AcDbEntity
  8
0
100
AcDbLine
 10
112.5570240147783
 20
230.3793947270995
 30
0.0
 11
112.5570240147783
 21
228.8793947270995
 31
0.0
  0
LINE
  5
D5
330
1F
100
AcDbEntity
  8
0
100
AcDbLine
 10
108.2570240147783
 20
230.3793947270995
 30
0.0
 11
108.2570240147783
 21
228.8793947270995
 31
0.0
  0
LINE
  5
D6
330
1F
100
AcDbEntity
  8
0
100
AcDbLine
 10
155.5570240147782
 20
226.3793947270995
 30
0.0
 11
159.8570240147783
 21
226.3793947270995
 31
0.0
  0
LINE
  5
D7
330
1F
100
AcDbEntity
  8
0
100
AcDbLine
 10
159.8570240147783
 20
227.8793947270995
 30
0.0
 11
159.8570240147783
 21
226.3793947270995
 31
0.0
  0
LINE
  5
D8
330
1F
100
AcDbEntity
  8
0
100
AcDbLine
 10
155.5570240147782
 20
227.8793947270995
 30
0.0
 11
155.5570240147782
 21
226.3793947270995
 31
0.0
  0
LINE
  5
D9
330
1F
100
AcDbEntity
  8
0
100
AcDbLine
 10
123.5570240147783
 20
188.0793947270995
 30
0.0
 11
123.5570240147783
 21
193.6793947270995
 31
0.0
  0
ARC
  5
DA
330
1F
100
AcDbEntity
  8
0
100
AcDbCircle
 10
122.8570240147783
 20
188.0793947270995
 30
0.0
 40
0.7000000000000028
100
AcDbArc
 50
270.0000000000008
 51
0.0
  0
LINE
  5
DB
330
1F
100
AcDbEntity
  8
0
100
AcDbLine
 10
121.2570240147783
 20
187.3793947270995
 30
0.0
 11
122.8570240147783
 21
187.3793947270995
 31
0.0
  0
ARC
  5
DC
330
1F
100
AcDbEntity
  8
0
100
AcDbCircle
 10
121.2570240147783
 20
188.0793947270995
 30
0.0
 40
0.6999999999999886
100
AcDbArc
 50
180.0
 51
270.0000000000008
  0
LINE
  5
DD
330
1F
100
AcDbEntity
  8
0
100
AcDbLine
 10
120.5570240147783
 20
193.6793947270995
 30
0.0
 11
120.5570240147783
 21
188.0793947270995
 31
0.0
  0
ARC
  5
DE
330
1F
100
AcDbEntity
  8
0
100
AcDbCircle
 10
122.8570240147783
 20
193.6793947270995
 30
0.0
 40
0.7000000000000171
100
AcDbArc
 50
0.0
 51
90.0
  0
LINE
  5
DF
330
1F
100
AcDbEntity
  8
0
100
AcDbLine
 10
122.8570240147783
 20
194.3793947270995
 30
0.0
 11
121.2570240147783
 21
194.3793947270995
 31
0.0
  0
ARC
  5
E0
330
1F
100
AcDbEntity
  8
0
100
AcDbCircle
 10
121.2570240147783
 20
193.6793947270995
 30
0.0
 40
0.7000000000000171
100
AcDbArc
 50
90.0
 51
180.0
  0
LINE
  5
E1
330
1F
100
AcDbEntity
  8
0
100
AcDbLine
 10
147.5570240147783
 20
188.0793947270995
 30
0.0
 11
147.5570240147783
 21
193.6793947270995
 31
0.0
  0
LINE
  5
E2
330
1F
100
AcDbEntity
  8
0
100
AcDbLine
 10
145.2570240147782
 20
187.3793947270995
 30
0.0
 11
146.8570240147783
 21
187.3793947270995
 31
0.0
  0
ARC
  5
E3
330
1F
100
AcDbEntity
  8
0
100
AcDbCircle
 10
145.2570240147782
 20
188.0793947270995
 30
0.0
 40
0.6999999999999886
100
AcDbArc
 50
180.0
 51
270.0000000000008
  0
ARC
  5
E4
330
1F
100
AcDbEntity
  8
0
100
AcDbCircle
 10
146.8570240147783
 20
193.6793947270995
 30
0.0
 40
0.7000000000000171
100
AcDbArc
 50
0.0
 51
90.0
  0
LINE
  5
E5
330
1F
100
AcDbEntity
  8
0
100
AcDbLine
 10
146.8570240147783
 20
194.3793947270995
 30
0.0
 11
145.2570240147782
 21
194.3793947270995
 31
0.0
  0
ARC
  5
E6
330
1F
100
AcDbEntity
  8
0
100
AcDbCircle
 10
145.2570240147782
 20
193.6793947270995
 30
0.0
 40
0.7000000000000171
100
AcDbArc
 50
90.0
 51
180.0
  0
ARC
  5
E7
330
1F
100
AcDbEntity
  8
0
100
AcDbCircle
 10
146.8570240147783
 20
188.0793947270995
 30
0.0
 40
0.7000000000000171
100
AcDbArc
 50
270.0000000000008
 51
0.0
  0
LINE
  5
E8
330
1F
100
AcDbEntity
  8
0
100
AcDbLine
 10
144.5570240147783
 20
193.6793947270995
 30
0.0
 11
144.5570240147783
 21
188.0793947270995
 31
0.0
  0
LINE
  5
E9
330
1F
100
AcDbEntity
  8
0
100
AcDbLine
 10
136.0570240147782
 20
234.596977752043
 30
0.0
 11
132.0570240147782
 21
234.596977752043
 31
0.0
  0
LINE
  5
EA
330
1F
100
AcDbEntity
  8
0
100
AcDbLine
 10
136.0570240147782
 20
234.596977752043
 30
0.0
 11
136.0570240147782
 21
235.5969777502695
 31
0.0
  0
LINE
  5
EB
330
1F
100
AcDbEntity
  8
0
100
AcDbLine
 10
132.0570240147782
 20
234.596977752043
 30
0.0
 11
132.0570240147782
 21
235.5969777502695
 31
0.0
  0
LINE
  5
EC
330
1F
100
AcDbEntity
  8
0
100
AcDbLine
 10
136.0570240147782
 20
241.39697775027
 30
0.0
 11
132.0570240147782
 21
241.39697775027
 31
0.0
  0
LINE
  5
ED
330
1F
100
AcDbEntity
  8
0
100
AcDbLine
 10
136.0570240147782
 20
240.3969777502695
 30
0.0
 11
136.0570240147782
 21
241.39697775027
 31
0.0
  0
LINE
  5
EE
330
1F
100
AcDbEntity
  8
0
100
AcDbLine
 10
132.0570240147782
 20
240.3969777502695
 30
0.0
 11
132.0570240147782
 21
241.39697775027
 31
0.0
  0
ARC
  5
EF
330
1F
100
AcDbEntity
  8
0
100
AcDbCircle
 10
103.2570240147783
 20
225.6793947270995
 30
0.0
 40
0.2999999999999972
100
AcDbArc
 50
270.0000000000008
 51
0.0
  0
LINE
  5
F0
330
1F
100
AcDbEntity
  8
0
100
AcDbLine
 10
171.5570240147783
 20
224.3214328428485
 30
0.0
 11
165.5570240147782
 21
225.3793947270993
 31
0.0
  0
LINE
  5
F1
330
1F
100
AcDbEntity
  8
0
100
AcDbLine
 10
93.05702401477825
 20
177.8793947270995
 30
0.0
 11
175.0570240147783
 21
177.8793947270995
 31
0.0
  0
ARC
  5
F2
330
1F
100
AcDbEntity
  8
0
100
AcDbCircle
 10
93.05702401477825
 20
178.3793947270995
 30
0.0
 40
0.5
100
AcDbArc
 50
180.0
 51
270.0000000000008
  0
LINE
  5
F3
330
1F
100
AcDbEntity
  8
0
100
AcDbLine
 10
92.55702401477825
 20
220.3214328428485
 30
0.0
 11
92.55702401477825
 21
178.3793947270995
 31
0.0
  0
ARC
  5
F4
330
1F
100
AcDbEntity
  8
0
100
AcDbCircle
 10
111.6070240147783
 20
220.8793947270995
 30
0.0
 40
4.0
100
AcDbArc
 50
180.0
 51
0.0
  0
ARC
  5
F5
330
1F
100
AcDbEntity
  8
0
100
AcDbCircle
 10
111.6070240147783
 20
220.8793947270995
 30
0.0
 40
4.0
100
AcDbArc
 50
0.0
 51
180.0
  0
LINE
  5
F6
330
1F
100
AcDbEntity
  8
0
100
AcDbLine
 10
175.5570240147783
 20
178.3793947270995
 30
0.0
 11
175.5570240147783
 21
220.3214328428485
 31
0.0
  0
ARC
  5
F7
330
1F
100
AcDbEntity
  8
0
100
AcDbCircle
 10
175.0570240147783
 20
178.3793947270995
 30
0.0
 40
0.5
100
AcDbArc
 50
270.0000000000008
 51
0.0
  0
LINE
  5
F8
330
1F
100
AcDbEntity
  8
0
100
AcDbLine
 10
103.5570240147783
 20
252.3214328428495
 30
0.0
 11
103.5570240147783
 21
225.6793947270995
 31
0.0
  0
LINE
  5
F9
330
1F
100
AcDbEntity
  8
0
100
AcDbLine
 10
130.0570240147782
 20
222.3793947270995
 30
0.0
 11
130.0570240147784
 21
245.3793947270995
 31
0.0
  0
ARC
  5
FA
330
1F
100
AcDbEntity
  8
0
100
AcDbCircle
 10
156.5070240147783
 20
220.8793947270995
 30
0.0
 40
4.0
100
AcDbArc
 50
180.0
 51
0.0
  0
LINE
  5
FB
330
1F
100
AcDbEntity
  8
0
100
AcDbLine
 10
107.0570240147783
 20
255.8214328428495
 30
0.0
 11
103.5570240147783
 21
252.3214328428495
 31
0.0
  0
LINE
  5
FC
330
1F
100
AcDbEntity
  8
0
100
AcDbLine
 10
102.5570240147783
 20
225.3793947270995
 30
0.0
 11
96.55702401477825
 21
224.3214328428485
 31
0.0
  0
LINE
  5
FD
330
1F
100
AcDbEntity
  8
0
100
AcDbLine
 10
103.2570240147783
 20
225.3793947270995
 30
0.0
 11
102.5570240147783
 21
225.3793947270995
 31
0.0
  0
ARC
  5
FE
330
1F
100
AcDbEntity
  8
0
100
AcDbCircle
 10
156.5070240147783
 20
220.8793947270995
 30
0.0
 40
4.0
100
AcDbArc
 50
0.0
 51
180.0
  0
LINE
  5
FF
330
1F
100
AcDbEntity
  8
0
100
AcDbLine
 10
118.0570240147783
 20
256.8793947270995
 30
0.0
 11
113.0570240147782
 21
256.8793947270995
 31
0.0
  0
LINE
  5
100
330
1F
100
AcDbEntity
  8
0
100
AcDbLine
 10
118.0570240147783
 20
257.3793947270995
 30
0.0
 11
118.0570240147783
 21
256.8793947270995
 31
0.0
  0
LINE
  5
101
330
1F
100
AcDbEntity
  8
0
100
AcDbLine
 10
119.0570240147783
 20
258.3793947270995
 30
0.0
 11
118.0570240147783
 21
257.3793947270995
 31
0.0
  0
LINE
  5
102
330
1F
100
AcDbEntity
  8
0
100
AcDbLine
 10
149.0570240147783
 20
258.3793947270995
 30
0.0
 11
119.0570240147783
 21
258.3793947270995
 31
0.0
  0
LINE
  5
103
330
1F
100
AcDbEntity
  8
0
100
AcDbLine
 10
150.0570240147783
 20
257.3793947270995
 30
0.0
 11
149.0570240147783
 21
258.3793947270995
 31
0.0
  0
LINE
  5
104
330
1F
100
AcDbEntity
  8
0
100
AcDbLine
 10
150.0570240147783
 20
256.8793947270995
 30
0.0
 11
150.0570240147783
 21
257.3793947270995
 31
0.0
  0
LINE
  5
105
330
1F
100
AcDbEntity
  8
0
100
AcDbLine
 10
155.0570240147782
 20
256.8793947270995
 30
0.0
 11
150.0570240147783
 21
256.8793947270995
 31
0.0
  0
LINE
  5
106
330
1F
100
AcDbEntity
  8
0
100
AcDbLine
 10
161.0570240147782
 20
255.8214328428494
 30
0.0
 11
155.0570240147782
 21
256.8793947270995
 31
0.0
  0
LINE
  5
107
330
1F
100
AcDbEntity
  8
0
100
AcDbLine
 10
164.5570240147782
 20
252.3214328428495
 30
0.0
 11
161.0570240147782
 21
255.8214328428494
 31
0.0
  0
LINE
  5
108
330
1F
100
AcDbEntity
  8
0
100
AcDbLine
 10
164.5570240147782
 20
225.6793947270995
 30
0.0
 11
164.5570240147782
 21
252.3214328428495
 31
0.0
  0
ARC
  5
109
330
1F
100
AcDbEntity
  8
0
100
AcDbCircle
 10
164.8570240147783
 20
225.6793947270995
 30
0.0
 40
0.3000000000000114
100
AcDbArc
 50
180.0
 51
270.0000000000008
  0
LINE
  5
10A
330
1F
100
AcDbEntity
  8
0
100
AcDbLine
 10
165.5570240147782
 20
225.3793947270993
 30
0.0
 11
164.8570240147783
 21
225.3793947270995
 31
0.0
  0
LINE
  5
10B
330
1F
100
AcDbEntity
  8
0
100
AcDbLine
 10
113.0570240147782
 20
256.8793947270995
 30
0.0
 11
107.0570240147783
 21
255.8214328428495
 31
0.0
  0
LINE
  5
10C
330
1F
100
AcDbEntity
  8
0
100
AcDbLine
 10
139.0368199118913
 20
222.3793947270995
 30
0.0
 11
130.0570240147782
 21
222.3793947270995
 31
0.0
  0
LINE
  5
10D
330
1F
100
AcDbEntity
  8
0
100
AcDbLine
 10
175.5570240147783
 20
220.3214328428485
 30
0.0
 11
171.5570240147783
 21
224.3214328428485
 31
0.0
  0
LINE
  5
10E
330
1F
100
AcDbEntity
  8
0
100
AcDbLine
 10
130.0570240147784
 20
245.3793947270995
 30
0.0
 11
139.0368199118913
 21
245.3793947270995
 31
0.0
  0
LINE
  5
10F
330
1F
100
AcDbEntity
  8
0
100
AcDbLine
 10
96.55702401477825
 20
224.3214328428485
 30
0.0
 11
92.55702401477825
 21
220.3214328428485
 31
0.0
  0
LINE
  5
110
330
1F
100
AcDbEntity
  8
0
100
AcDbLine
 10
139.0368199118913
 20
245.3793947270995
 30
0.0
 11
139.0368199118913
 21
222.3793947270995
 31
0.0
  0
ARC
  5
111
330
1F
100
AcDbEntity
  8
0
100
AcDbCircle
 10
111.6070240147783
 20
220.8793947270995
 30
0.0
 40
1.450000000000003
100
AcDbArc
 50
180.0
 51
0.0
  0
ARC
  5
112
330
1F
100
AcDbEntity
  8
0
100
AcDbCircle
 10
111.6070240147783
 20
220.8793947270995
 30
0.0
 40
1.450000000000003
100
AcDbArc
 50
0.0
 51
180.0
  0
ARC
  5
113
330
1F
100
AcDbEntity
  8
0
100
AcDbCircle
 10
156.5070240147783
 20
220.8793947270995
 30
0.0
 40
1.450000000000017
100
AcDbArc
 50
0.0
 51
180.0
  0
ARC
  5
114
330
1F
100
AcDbEntity
  8
0
100
AcDbCircle
 10
156.5070240147783
 20
220.8793947270995
 30
0.0
 40
1.450000000000017
100
AcDbArc
 50
180.0
 51
0.0
  0
DIMENSION
  5
115
330
1F
100
AcDbEntity
  8
DIMENSIONS
100
AcDbDimension
  2
_D
 10
207.5570240147783
 20
177.8793947270995
 30
0.0
 11
207.5570240147783
 21
212.5777456896551
 31
0.0
 70
   160
  1
<>
 71
     2
 42
-1.0
  3
SLDDIMSTYLE0
100
AcDbAlignedDimension
 13
149.0570240147783
 23
258.3793947270995
 33
0.0
 14
175.0570240147783
 24
177.8793947270995
 34
0.0
 52
0.0
 50
90.0000000000002
100
AcDbRotatedDimension
  0
DIMENSION
  5
12A
330
1F
100
AcDbEntity
  8
DIMENSIONS
100
AcDbDimension
  2
_D_1
 10
92.55702401477825
 20
149.9295215517241
 30
0.0
 11
137.0176724137932
 21
149.9295215517241
 31
0.0
 70
   160
  1
<>
 71
     2
 42
-1.0
  3
SLDDIMSTYLE1
100
AcDbAlignedDimension
 13
175.5570240147783
 23
178.3793947270995
 33
0.0
 14
92.55702401477825
 24
178.3793947270995
 34
0.0
 52
0.0
100
AcDbRotatedDimension
  0
DIMENSION
  5
13F
330
1F
100
AcDbEntity
  8
DIMENSIONS
100
AcDbDimension
  2
_D_2
 10
103.5570240147783
 20
283.7689094827585
 30
0.0
 11
131.7969870689655
 21
283.7689094827585
 31
0.0
 70
   160
  1
<>
 71
     2
 42
-1.0
  3
SLDDIMSTYLE1
100
AcDbAlignedDimension
 13
164.5570240147782
 23
252.3214328428495
 33
0.0
 14
103.5570240147783
 24
252.3214328428495
 34
0.0
 52
0.0
100
AcDbRotatedDimension
  0
LINE
  5
154
330
1F
100
AcDbEntity
  8
0
100
AcDbLine
 10
527.3513617291206
 20
296.2818251761136
 30
0.0
 11
528.4120219009005
 21
296.8941312599807
 31
0.0
  0
LINE
  5
155
330
1F
100
AcDbEntity
  8
0
100
AcDbLine
 10
534.7759829315795
 20
300.5679677631828
 30
0.0
 11
535.8366431033593
 21
301.1802738470499
 31
0.0
  0
LINE
  5
156
330
1F
100
AcDbEntity
  8
0
100
AcDbLine
 10
505.67962841018
 20
321.9786390989808
 30
0.0
 11
504.2654148478068
 21
321.1622309871581
 31
0.0
  0
LINE
  5
157
330
1F
100
AcDbEntity
  8
0
100
AcDbLine
 10
506.0967288105506
 20
314.7240075438067
 30
0.0
 11
507.5109423729237
 21
315.5404156556294
 31
0.0
  0
LINE
  5
158
330
1F
100
AcDbEntity
  8
0
100
AcDbLine
 10
503.1633251930534
 20
310.8552407724012
 30
0.0
 11
505.4260668928503
 21
309.5489877934849
 31
0.0
  0
LINE
  5
159
330
1F
100
AcDbEntity
  8
0
100
AcDbLine
 10
488.7090656617029
 20
331.7755364408533
 30
0.0
 11
487.2948520993298
 21
330.9591283290306
 31
0.0
  0
LINE
  5
15A
330
1F
100
AcDbEntity
  8
0
100
AcDbLine
 10
489.1261660620735
 20
324.5209048856793
 30
0.0
 11
490.5403796244466
 21
325.337312997502
 31
0.0
  0
LINE
  5
15B
330
1F
100
AcDbEntity
  8
0
100
AcDbLine
 10
486.1927624445763
 20
320.6521381142737
 30
0.0
 11
488.4555041443732
 21
319.3458851353573
 31
0.0
  0
LINE
  5
15C
330
1F
100
AcDbEntity
  8
0
100
AcDbLine
 10
475.8361404099371
 20
364.6870618195074
 30
0.0
 11
471.5934997228179
 21
366.2724170990651
 31
0.0
  0
LINE
  5
15D
330
1F
100
AcDbEntity
  8
0
100
AcDbLine
 10
476.3311151567677
 20
364.4013189803695
 30
0.0
 11
475.8361404099371
 21
364.6870618195074
 31
0.0
  0
ARC
  5
15E
330
1F
100
AcDbEntity
  8
0
100
AcDbCircle
 10
476.4139248808956
 20
364.5028418480916
 30
0.0
 40
0.1310127592285334
100
AcDbArc
 50
230.7967147642927
 51
9.214036990478348
  0
LINE
  5
15F
330
1F
100
AcDbEntity
  8
0
100
AcDbLine
 10
476.5432471911236
 20
386.2781314404874
 30
0.0
 11
476.5432471911236
 21
364.5238200071618
 31
0.0
  0
LINE
  5
160
330
1F
100
AcDbEntity
  8
0
100
AcDbLine
 10
479.0181209252765
 20
387.7073100863978
 30
0.0
 11
476.5432471911236
 21
386.2781314404874
 31
0.0
  0
LINE
  5
161
330
1F
100
AcDbEntity
  8
0
100
AcDbLine
 10
483.2607616123959
 20
386.1219548068393
 30
0.0
 11
479.0181209252765
 21
387.7073100863978
 31
0.0
  0
LINE
  5
162
330
1F
100
AcDbEntity
  8
0
100
AcDbLine
 10
486.7962955183285
 20
384.0809345272825
 30
0.0
 11
483.2607616123959
 21
386.1219548068393
 31
0.0
  0
LINE
  5
163
330
1F
100
AcDbEntity
  8
0
100
AcDbLine
 10
486.7962955183285
 20
384.4892049332255
 30
0.0
 11
486.7962955183285
 21
384.0809345272825
 31
0.0
  0
LINE
  5
164
330
1F
100
AcDbEntity
  8
0
100
AcDbLine
 10
487.5034022995151
 20
384.8975416891998
 30
0.0
 11
486.7962955183285
 21
384.4892049332255
 31
0.0
  0
LINE
  5
165
330
1F
100
AcDbEntity
  8
0
100
AcDbLine
 10
508.7166057351114
 20
372.6514200118592
 30
0.0
 11
487.5034022995151
 21
384.8975416891998
 31
0.0
  0
LINE
  5
166
330
1F
100
AcDbEntity
  8
0
100
AcDbLine
 10
509.4237125162981
 20
371.4266751440621
 30
0.0
 11
508.7166057351114
 21
372.6514200118592
 31
0.0
  0
LINE
  5
167
330
1F
100
AcDbEntity
  8
0
100
AcDbLine
 10
509.4237125162981
 20
371.0184047381192
 30
0.0
 11
509.4237125162981
 21
371.4266751440621
 31
0.0
  0
LINE
  5
168
330
1F
100
AcDbEntity
  8
0
100
AcDbLine
 10
512.9592464222308
 20
368.9773844585624
 30
0.0
 11
509.4237125162981
 21
371.0184047381192
 31
0.0
  0
LINE
  5
169
330
1F
100
AcDbEntity
  8
0
100
AcDbLine
 10
517.20188710935
 20
365.6642910671845
 30
0.0
 11
512.9592464222308
 21
368.9773844585624
 31
0.0
  0
LINE
  5
16A
330
1F
100
AcDbEntity
  8
0
100
AcDbLine
 10
519.676760843503
 20
361.3776840298947
 30
0.0
 11
517.20188710935
 21
365.6642910671845
 31
0.0
  0
LINE
  5
16B
330
1F
100
AcDbEntity
  8
0
100
AcDbLine
 10
519.676760843503
 20
339.6233725965691
 30
0.0
 11
519.676760843503
 21
361.3776840298947
 31
0.0
  0
ARC
  5
16C
330
1F
100
AcDbEntity
  8
0
100
AcDbCircle
 10
520.1373256739126
 20
339.644330852247
 30
0.0
 40
0.4610414422710939
100
AcDbArc
 50
182.6054784856238
 51
237.3945216600126
  0
LINE
  5
16D
330
1F
100
AcDbEntity
  8
0
100
AcDbLine
 10
520.3838676246895
 20
338.9702062970919
 30
0.0
 11
519.8888928778589
 21
339.25594913623
 31
0.0
  0
LINE
  5
16E
330
1F
100
AcDbEntity
  8
0
100
AcDbLine
 10
524.6265083118088
 20
335.6571129057134
 30
0.0
 11
520.3838676246895
 21
338.9702062970919
 31
0.0
  0
LINE
  5
16F
330
1F
100
AcDbEntity
  8
0
100
AcDbLine
 10
527.4549354365549
 20
330.7581334345251
 30
0.0
 11
524.6265083118088
 21
335.6571129057134
 31
0.0
  0
LINE
  5
170
330
1F
100
AcDbEntity
  8
0
100
AcDbLine
 10
527.4549354365549
 20
296.5107475793483
 30
0.0
 11
527.4549354365549
 21
330.7581334345251
 31
0.0
  0
ARC
  5
171
330
1F
100
AcDbEntity
  8
0
100
AcDbCircle
 10
527.2393982528416
 20
296.4757839808979
 30
0.0
 40
0.2183545987142536
100
AcDbArc
 50
230.7967147643035
 51
9.214036990466941
  0
LINE
  5
172
330
1F
100
AcDbEntity
  8
0
100
AcDbLine
 10
469.1186259886649
 20
329.7793117860922
 30
0.0
 11
527.1013820459617
 21
296.306579201361
 31
0.0
  0
ARC
  5
173
330
1F
100
AcDbEntity
  8
0
100
AcDbCircle
 10
469.5326806487556
 20
330.4266146461211
 30
0.0
 40
0.7684024037862059
100
AcDbArc
 50
182.605478485651
 51
237.3945216599636
  0
LINE
  5
174
330
1F
100
AcDbEntity
  8
0
100
AcDbLine
 10
468.7650725980716
 20
364.6390700751675
 30
0.0
 11
468.7650725980716
 21
330.3916842199908
 31
0.0
  0
LINE
  5
175
330
1F
100
AcDbEntity
  8
0
100
AcDbLine
 10
471.5934997228179
 20
366.2724170990651
 30
0.0
 11
468.7650725980716
 21
364.6390700751675
 31
0.0
  0
LINE
  5
176
330
1F
100
AcDbEntity
  8
0
100
AcDbLine
 10
482.9072082218025
 20
362.2381028841654
 30
0.0
 11
482.9072082218025
 21
364.6877253198226
 31
0.0
  0
LINE
  5
177
330
1F
100
AcDbEntity
  8
0
100
AcDbLine
 10
482.9072082218025
 20
364.6877253198226
 30
0.0
 11
479.8666490627004
 21
366.4430027602414
 31
0.0
  0
LINE
  5
178
330
1F
100
AcDbEntity
  8
0
100
AcDbLine
 10
507.7266562414503
 20
313.2071560165325
 30
0.0
 11
507.7266562414503
 21
310.7575335808752
 31
0.0
  0
LINE
  5
179
330
1F
100
AcDbEntity
  8
0
100
AcDbLine
 10
505.4639145416534
 20
314.5134089954488
 30
0.0
 11
507.7266562414503
 21
313.2071560165325
 31
0.0
  0
LINE
  5
17A
330
1F
100
AcDbEntity
  8
0
100
AcDbLine
 10
516.3533589719262
 20
342.9300510395583
 30
0.0
 11
516.3533589719262
 21
345.3796734752156
 31
0.0
  0
LINE
  5
17B
330
1F
100
AcDbEntity
  8
0
100
AcDbLine
 10
513.3127998128241
 20
347.1349509156344
 30
0.0
 11
516.3533589719262
 21
345.3796734752156
 31
0.0
  0
LWPOLYLINE
  5
17C
330
1F
100
AcDbEntity
  8
0
100
AcDbPolyline
 90
       23
 70
   128
 43
0.0
 10
485.0638839044215
 20
355.6855652363784
 10
485.0350945945468
 20
355.2373614568603
 10
484.94931273225
 20
354.8315212434405
 10
484.8082845888731
 20
354.4763063325177
 10
484.6148810907236
 20
354.1789478753229
 10
484.3730393752943
 20
353.945499232534
 10
484.0876826424973
 20
353.7807127453074
 10
483.7646199325117
 20
353.6879429913184
 10
483.4104278704767
 20
353.6690784952323
 10
483.0323167853697
 20
353.7245032837886
 10
482.6379839285013
 20
353.8530890681242
 10
482.2354567796753
 20
354.0522182124808
 10
481.8329296308493
 20
354.3178370217204
 10
481.4385967739809
 20
354.6445382628682
 10
481.060485688874
 20
355.025671240783
 10
480.706293626839
 20
355.4534771871313
 10
480.3832309168533
 20
355.9192472065359
 10
480.0978741840564
 20
356.4134995645715
 10
479.8560324686271
 20
356.9261727085345
 10
479.6626289704776
 20
357.4468300916413
 10
479.5216008271007
 20
357.9648726310236
 10
479.4358189648039
 20
358.4697544744909
 10
479.4070296549291
 20
358.9511976836692
  0
ARC
  5
17D
330
1F
100
AcDbEntity
  8
0
100
AcDbCircle
 10
481.1341952041104
 20
359.2462053231346
 30
0.0
 40
1.752178741345085
100
AcDbArc
 50
102.8041191905797
 51
189.6928388183453
  0
ARC
  5
17E
330
1F
100
AcDbEntity
  8
0
100
AcDbCircle
 10
479.1496829019699
 20
355.5084327502432
 30
0.0
 40
5.916852999276244
100
AcDbArc
 50
1.71551675050255
 51
63.22738054583476
  0
LWPOLYLINE
  5
17F
330
1F
100
AcDbEntity
  8
0
100
AcDbPolyline
 90
       23
 70
   128
 43
0.0
 10
516.8129783796974
 20
337.3572031259585
 10
516.7841890698227
 20
336.9089993464404
 10
516.6984072075259
 20
336.5031591330206
 10
516.557379064149
 20
336.1479442220977
 10
516.3639755659996
 20
335.8505857649031
 10
516.1221338505702
 20
335.6171371221141
 10
515.8367771177733
 20
335.4523506348876
 10
515.5137144077876
 20
335.3595808808986
 10
515.1595223457525
 20
335.3407163848125
 10
514.7814112606457
 20
335.3961411733687
 10
514.3870784037773
 20
335.5247269577043
 10
513.9845512549513
 20
335.7238561020609
 10
513.5820241061252
 20
335.9894749113005
 10
513.1876912492569
 20
336.3161761524483
 10
512.8095801641499
 20
336.6973091303632
 10
512.4553881021149
 20
337.1251150767115
 10
512.1323253921291
 20
337.590885096116
 10
511.8469686593323
 20
338.0851374541516
 10
511.605126943903
 20
338.5978105981147
 10
511.4117234457536
 20
339.1184679812214
 10
511.2706953023767
 20
339.6365105206037
 10
511.1849134400799
 20
340.1413923640711
 10
511.1561241302051
 20
340.6228355732494
  0
ARC
  5
180
330
1F
100
AcDbEntity
  8
0
100
AcDbCircle
 10
512.8832896793867
 20
340.9178432127146
 30
0.0
 40
1.752178741345437
100
AcDbArc
 50
102.8041191905893
 51
189.6928388183395
  0
ARC
  5
181
330
1F
100
AcDbEntity
  8
0
100
AcDbCircle
 10
510.590921418468
 20
337.0496707846893
 30
0.0
 40
6.2296523955763
100
AcDbArc
 50
2.829607290068182
 51
43.97322202722955
  0
LINE
  5
182
330
1F
100
AcDbEntity
  8
0
100
AcDbLine
 10
490.7560934929732
 20
323.004053358405
 30
0.0
 11
490.7560934929732
 21
320.5544309227477
 31
0.0
  0
LINE
  5
183
330
1F
100
AcDbEntity
  8
0
100
AcDbLine
 10
490.7560934929732
 20
323.004053358405
 30
0.0
 11
488.4933517931763
 21
324.3103063373213
 31
0.0
  0
LINE
  5
184
330
1F
100
AcDbEntity
  8
0
100
AcDbLine
 10
501.6312514650868
 20
366.1266774132025
 30
0.0
 11
501.6312514650868
 21
347.3462387398303
 31
0.0
  0
LINE
  5
185
330
1F
100
AcDbEntity
  8
0
100
AcDbLine
 10
495.2815768925672
 20
369.7922665196601
 30
0.0
 11
501.6312514650868
 21
366.1266774132025
 31
0.0
  0
LINE
  5
186
330
1F
100
AcDbEntity
  8
0
100
AcDbLine
 10
495.2815768925672
 20
351.0118278462879
 30
0.0
 11
495.2815768925672
 21
358.7837211029307
 31
0.0
  0
LINE
  5
187
330
1F
100
AcDbEntity
  8
0
100
AcDbLine
 10
495.2815768925672
 20
364.0910862367773
 30
0.0
 11
495.2815768925672
 21
369.7922665196601
 31
0.0
  0
LINE
  5
188
330
1F
100
AcDbEntity
  8
0
100
AcDbLine
 10
501.6312514650868
 20
347.3462387398303
 30
0.0
 11
495.2815768925672
 21
351.0118278462879
 31
0.0
  0
ARC
  5
189
330
1F
100
AcDbEntity
  8
0
100
AcDbCircle
 10
488.8539931797301
 20
331.4546638751238
 30
0.0
 40
0.3520840651312935
100
AcDbArc
 50
54.38242252481145
 51
114.3071190460871
  0
ARC
  5
18A
330
1F
100
AcDbEntity
  8
0
100
AcDbCircle
 10
490.342381483252
 20
325.6199436458635
 30
0.0
 40
0.3450845509578467
100
AcDbArc
 50
305.0133328706589
 51
6.298847522717261
  0
LINE
  5
18B
330
1F
100
AcDbEntity
  8
0
100
AcDbLine
 10
490.6853828148546
 20
325.6578043620305
 30
0.0
 11
490.6853828148546
 21
330.2304329085907
 31
0.0
  0
ARC
  5
18C
330
1F
100
AcDbEntity
  8
0
100
AcDbCircle
 10
489.610731543897
 20
330.1815303120081
 30
0.0
 40
1.075763365300759
100
AcDbArc
 50
2.605478485663406
 51
57.39452165996598
  0
LINE
  5
18D
330
1F
100
AcDbEntity
  8
0
100
AcDbLine
 10
490.190408068024
 20
331.0877543160487
 30
0.0
 11
489.0590372181255
 21
331.7408808055068
 31
0.0
  0
ARC
  5
18E
330
1F
100
AcDbEntity
  8
0
100
AcDbCircle
 10
507.3129442314932
 20
315.8230463040978
 30
0.0
 40
0.3450845511807298
100
AcDbArc
 50
305.0133328925704
 51
6.298847500809885
  0
LINE
  5
18F
330
1F
100
AcDbEntity
  8
0
100
AcDbLine
 10
507.6559455633317
 20
315.860907020158
 30
0.0
 11
507.6559455633317
 21
320.4335355667181
 31
0.0
  0
ARC
  5
190
330
1F
100
AcDbEntity
  8
0
100
AcDbCircle
 10
506.5812942923744
 20
320.3846329701357
 30
0.0
 40
1.075763365300558
100
AcDbArc
 50
2.605478485654883
 51
57.3945216599771
  0
LINE
  5
191
330
1F
100
AcDbEntity
  8
0
100
AcDbLine
 10
507.1609708165011
 20
321.2908569741762
 30
0.0
 11
506.0295999666026
 21
321.9439834636344
 31
0.0
  0
ARC
  5
192
330
1F
100
AcDbEntity
  8
0
100
AcDbCircle
 10
505.8245559282073
 20
321.6577665332511
 30
0.0
 40
0.3520840651314957
100
AcDbArc
 50
54.38242252484591
 51
114.3071190460925
  0
LINE
  5
193
330
1F
100
AcDbEntity
  8
0
100
AcDbLine
 10
520.7374210152827
 20
361.9899901137617
 30
0.0
 11
519.676760843503
 21
361.3776840298947
 31
0.0
  0
LINE
  5
194
330
1F
100
AcDbEntity
  8
0
100
AcDbLine
 10
518.2625472811299
 20
366.2765971510514
 30
0.0
 11
517.20188710935
 21
365.6642910671845
 31
0.0
  0
LINE
  5
195
330
1F
100
AcDbEntity
  8
0
100
AcDbLine
 10
518.2625472811299
 20
366.2765971510514
 30
0.0
 11
520.7374210152827
 21
361.9899901137617
 31
0.0
  0
LINE
  5
196
330
1F
100
AcDbEntity
  8
0
100
AcDbLine
 10
525.6871684835886
 20
370.5627397381207
 30
0.0
 11
524.6265083118088
 21
369.9504336542536
 31
0.0
  0
LINE
  5
197
330
1F
100
AcDbEntity
  8
0
100
AcDbLine
 10
518.2625472811299
 20
366.2765971510514
 30
0.0
 11
524.6265083118088
 21
369.9504336542536
 31
0.0
  0
LINE
  5
198
330
1F
100
AcDbEntity
  8
0
100
AcDbLine
 10
514.9745007486379
 20
370.1407660179245
 30
0.0
 11
512.9592464222308
 21
368.9773844585624
 31
0.0
  0
SPLINE
  5
199
330
1F
100
AcDbEntity
  8
0
100
AcDbSpline
210
0.0
220
0.0
230
1.0
 70
     8
 71
     3
 72
    22
 73
    18
 74
     0
 42
1E-08
 43
1E-08
 40
0.0
 40
0.0
 40
0.0
 40
0.0
 40
0.1250000000000002
 40
0.1250000000000002
 40
0.2500000000000002
 40
0.2500000000000002
 40
0.3750000000000002
 40
0.3750000000000002
 40
0.5000000000000001
 40
0.5000000000000001
 40
0.6250000000000001
 40
0.6250000000000001
 40
0.7500000000000002
 40
0.7500000000000002
 40
0.8750000000000001
 40
0.8750000000000001
 40
1.0
 40
1.0
 40
1.0
 40
1.0
 10
519.4292734701131
 20
372.712451570166
 30
0.0
 10
519.6917734701157
 20
372.5074643748384
 30
0.0
 10
519.9271366874439
 20
372.2586905491842
 30
0.0
 10
520.2584113627184
 20
371.7051414222572
 30
0.0
 10
520.3518871093883
 20
371.4012689313069
 30
0.0
 10
520.3518871093911
 20
370.8105586059094
 30
0.0
 10
520.258411362724
 20
370.5257192622319
 30
0.0
 10
519.9271366874543
 20
370.0396229228664
 30
0.0
 10
519.6917734701282
 20
369.8387727879837
 30
0.0
 10
519.1667734701265
 20
369.5356967391378
 30
0.0
 10
518.8357273530418
 20
369.4095657252546
 30
0.0
 10
518.0702641549738
 20
369.2625287669634
 30
0.0
 10
517.6368113498734
 20
369.2431787325585
 30
0.0
 10
516.7669628688859
 20
369.3317362185073
 30
0.0
 10
516.3335100637861
 20
369.439344131235
 30
0.0
 10
515.5680468657204
 20
369.7422415592261
 30
0.0
 10
515.237000748637
 20
369.935778822595
 30
0.0
 10
514.9745007486379
 20
370.1407660179245
 30
0.0
  0
LINE
  5
19A
330
1F
100
AcDbEntity
  8
0
100
AcDbLine
 10
521.4445277964693
 20
373.8758331294987
 30
0.0
 11
519.4292734701131
 21
372.712451570166
 31
0.0
  0
LINE
  5
19B
330
1F
100
AcDbEntity
  8
0
100
AcDbLine
 10
525.6871684835886
 20
370.5627397381207
 30
0.0
 11
521.4445277964693
 21
373.8758331294987
 31
0.0
  0
LINE
  5
19C
330
1F
100
AcDbEntity
  8
0
100
AcDbLine
 10
520.7374210152827
 20
340.2356786804362
 30
0.0
 11
519.676760843503
 21
339.6233725965691
 31
0.0
  0
LINE
  5
19D
330
1F
100
AcDbEntity
  8
0
100
AcDbLine
 10
520.7374210152827
 20
361.9899901137617
 30
0.0
 11
520.7374210152827
 21
340.2356786804362
 31
0.0
  0
LINE
  5
19E
330
1F
100
AcDbEntity
  8
0
100
AcDbLine
 10
524.6265083118088
 20
345.0932671357624
 30
0.0
 11
520.7374210152827
 21
342.8481448282499
 31
0.0
  0
LINE
  5
19F
330
1F
100
AcDbEntity
  8
0
100
AcDbLine
 10
524.6265083118088
 20
369.9504336542536
 30
0.0
 11
524.6265083118088
 21
345.0932671357624
 31
0.0
  0
LINE
  5
1A0
330
1F
100
AcDbEntity
  8
0
100
AcDbLine
 10
524.1315335649782
 20
355.6675170947049
 30
0.0
 11
520.7374210152827
 21
353.7081376263304
 31
0.0
  0
LINE
  5
1A1
330
1F
100
AcDbEntity
  8
0
100
AcDbLine
 10
520.7374210152827
 20
350.0337039728445
 30
0.0
 11
524.1315335649782
 21
351.993083441219
 31
0.0
  0
LINE
  5
1A2
330
1F
100
AcDbEntity
  8
0
100
AcDbLine
 10
524.1315335649782
 20
351.993083441219
 30
0.0
 11
524.1315335649782
 21
355.6675170947049
 31
0.0
  0
LINE
  5
1A3
330
1F
100
AcDbEntity
  8
0
100
AcDbLine
 10
517.9089938905365
 20
375.9168534090555
 30
0.0
 11
509.4237125162981
 21
371.0184047381192
 31
0.0
  0
LWPOLYLINE
  5
1A4
330
1F
100
AcDbEntity
  8
0
100
AcDbPolyline
 90
       20
 70
   128
 43
0.0
 10
514.9745007486379
 20
370.1407660179245
 10
514.6382636499781
 20
370.3699460023211
 10
514.371955516423
 20
370.6279489931611
 10
514.1828405396423
 20
370.9077373414182
 10
514.0760772832166
 20
371.2016791503056
 10
514.0545779704702
 20
371.5017564535262
 10
514.1189290466101
 20
371.7997839244912
 10
514.2673751820302
 20
372.0876321506926
 10
514.4958671531263
 20
372.3574493828837
 10
514.798172294561
 20
372.6018757103317
 10
515.1660445101269
 20
372.8142438199956
 10
515.5894492047548
 20
372.9887608634463
 10
516.0568370021086
 20
373.1206664706702
 10
516.5554587814662
 20
373.2063626005548
 10
517.0717134404964
 20
373.2435116860698
 10
517.5915188978765
 20
373.231100397003
 10
518.1006962157612
 20
373.1694672809662
 10
518.5853563642446
 20
373.0602935286993
 10
519.0322790778912
 20
372.9065571155695
 10
519.4292734701131
 20
372.712451570166
  0
LINE
  5
1A5
330
1F
100
AcDbEntity
  8
0
100
AcDbLine
 10
521.4445277964693
 20
373.8758331294987
 30
0.0
 11
517.9089938905365
 21
375.9168534090555
 31
0.0
  0
LINE
  5
1A6
330
1F
100
AcDbEntity
  8
0
100
AcDbLine
 10
527.1013820459617
 20
343.9095151836384
 30
0.0
 11
527.1013820459617
 21
365.6638266169639
 31
0.0
  0
ARC
  5
1A7
330
1F
100
AcDbEntity
  8
0
100
AcDbCircle
 10
527.5619468763721
 20
343.9304734393166
 30
0.0
 40
0.4610414422717488
100
AcDbArc
 50
182.6054784856481
 51
237.394521659964
  0
LINE
  5
1A8
330
1F
100
AcDbEntity
  8
0
100
AcDbLine
 10
527.3135140803176
 20
343.5420917232992
 30
0.0
 11
524.6265083118088
 21
345.0932671357624
 31
0.0
  0
LINE
  5
1A9
330
1F
100
AcDbEntity
  8
0
100
AcDbLine
 10
527.1013820459617
 20
365.6638266169639
 30
0.0
 11
524.6265083118088
 21
369.9504336542536
 31
0.0
  0
LINE
  5
1AA
330
1F
100
AcDbEntity
  8
0
100
AcDbLine
 10
528.1620422177416
 20
366.276132700831
 30
0.0
 11
527.1013820459617
 21
365.6638266169639
 31
0.0
  0
LINE
  5
1AB
330
1F
100
AcDbEntity
  8
0
100
AcDbLine
 10
528.1620422177416
 20
366.276132700831
 30
0.0
 11
525.6871684835886
 21
370.5627397381207
 31
0.0
  0
LINE
  5
1AC
330
1F
100
AcDbEntity
  8
0
100
AcDbLine
 10
517.2018871093501
 20
377.5498686827954
 30
0.0
 11
508.7166057351114
 21
372.6514200118592
 31
0.0
  0
LINE
  5
1AD
330
1F
100
AcDbEntity
  8
0
100
AcDbLine
 10
517.9089938905365
 20
376.3251238149983
 30
0.0
 11
509.4237125162981
 21
371.4266751440621
 31
0.0
  0
LINE
  5
1AE
330
1F
100
AcDbEntity
  8
0
100
AcDbLine
 10
517.9089938905365
 20
376.3251238149983
 30
0.0
 11
517.2018871093501
 21
377.5498686827954
 31
0.0
  0
LINE
  5
1AF
330
1F
100
AcDbEntity
  8
0
100
AcDbLine
 10
517.9089938905365
 20
375.9168534090555
 30
0.0
 11
517.9089938905365
 21
376.3251238149983
 31
0.0
  0
LINE
  5
1B0
330
1F
100
AcDbEntity
  8
0
100
AcDbLine
 10
495.9886836737537
 20
389.795990360136
 30
0.0
 11
487.5034022995151
 21
384.8975416891998
 31
0.0
  0
LINE
  5
1B1
330
1F
100
AcDbEntity
  8
0
100
AcDbLine
 10
517.2018871093501
 20
377.5498686827954
 30
0.0
 11
495.9886836737537
 21
389.795990360136
 31
0.0
  0
LINE
  5
1B2
330
1F
100
AcDbEntity
  8
0
100
AcDbLine
 10
528.1620422177416
 20
344.5218212675054
 30
0.0
 11
527.1013820459617
 21
343.9095151836384
 31
0.0
  0
LINE
  5
1B3
330
1F
100
AcDbEntity
  8
0
100
AcDbLine
 10
528.1620422177416
 20
344.5218212675054
 30
0.0
 11
528.1620422177416
 21
366.276132700831
 31
0.0
  0
LINE
  5
1B4
330
1F
100
AcDbEntity
  8
0
100
AcDbLine
 10
528.5155956083348
 20
331.3704395183921
 30
0.0
 11
527.4549354365549
 21
330.7581334345251
 31
0.0
  0
LINE
  5
1B5
330
1F
100
AcDbEntity
  8
0
100
AcDbLine
 10
525.6871684835886
 20
336.2694189895806
 30
0.0
 11
524.6265083118088
 21
335.6571129057134
 31
0.0
  0
LINE
  5
1B6
330
1F
100
AcDbEntity
  8
0
100
AcDbLine
 10
525.6871684835886
 20
336.2694189895806
 30
0.0
 11
528.5155956083348
 21
331.3704395183921
 31
0.0
  0
LINE
  5
1B7
330
1F
100
AcDbEntity
  8
0
100
AcDbLine
 10
528.8691489989282
 20
343.8686549680282
 30
0.0
 11
520.3838676246895
 21
338.9702062970919
 31
0.0
  0
LINE
  5
1B8
330
1F
100
AcDbEntity
  8
0
100
AcDbLine
 10
533.1117896860474
 20
340.5555615766496
 30
0.0
 11
532.0511295142676
 21
339.9432554927828
 31
0.0
  0
LINE
  5
1B9
330
1F
100
AcDbEntity
  8
0
100
AcDbLine
 10
525.6871684835886
 20
336.2694189895806
 30
0.0
 11
532.0511295142676
 21
339.9432554927828
 31
0.0
  0
LINE
  5
1BA
330
1F
100
AcDbEntity
  8
0
100
AcDbLine
 10
533.1117896860474
 20
340.5555615766496
 30
0.0
 11
528.8691489989282
 21
343.8686549680282
 31
0.0
  0
LINE
  5
1BB
330
1F
100
AcDbEntity
  8
0
100
AcDbLine
 10
528.5155956083348
 20
297.1230536632153
 30
0.0
 11
527.4549354365549
 21
296.5107475793483
 31
0.0
  0
LINE
  5
1BC
330
1F
100
AcDbEntity
  8
0
100
AcDbLine
 10
528.5155956083348
 20
297.1230536632153
 30
0.0
 11
528.5155956083348
 21
331.3704395183921
 31
0.0
  0
LINE
  5
1BD
330
1F
100
AcDbEntity
  8
0
100
AcDbLine
 10
532.0511295142676
 20
302.02143598412
 30
0.0
 11
528.5155956083348
 21
299.9804157045633
 31
0.0
  0
LINE
  5
1BE
330
1F
100
AcDbEntity
  8
0
100
AcDbLine
 10
532.0511295142676
 20
339.9432554927828
 30
0.0
 11
532.0511295142676
 21
302.02143598412
 31
0.0
  0
LINE
  5
1BF
330
1F
100
AcDbEntity
  8
0
100
AcDbLine
 10
531.556154767437
 20
325.6603389332345
 30
0.0
 11
528.5155956083348
 21
323.9050614928157
 31
0.0
  0
LINE
  5
1C0
330
1F
100
AcDbEntity
  8
0
100
AcDbLine
 10
528.5155956083348
 20
320.2306278393299
 30
0.0
 11
531.556154767437
 21
321.9859052797487
 31
0.0
  0
LINE
  5
1C1
330
1F
100
AcDbEntity
  8
0
100
AcDbLine
 10
531.556154767437
 20
321.9859052797487
 30
0.0
 11
531.556154767437
 21
325.6603389332345
 31
0.0
  0
LINE
  5
1C2
330
1F
100
AcDbEntity
  8
0
100
AcDbLine
 10
511.3329008255018
 20
344.767168341254
 30
0.0
 11
514.3734599846039
 21
343.0118909008351
 31
0.0
  0
LINE
  5
1C3
330
1F
100
AcDbEntity
  8
0
100
AcDbLine
 10
513.3127998128241
 20
347.1349509156344
 30
0.0
 11
511.3329008255018
 21
344.767168341254
 31
0.0
  0
LINE
  5
1C4
330
1F
100
AcDbEntity
  8
0
100
AcDbLine
 10
516.3533589719262
 20
345.3796734752156
 30
0.0
 11
514.3734599846039
 21
343.0118909008351
 31
0.0
  0
LINE
  5
1C5
330
1F
100
AcDbEntity
  8
0
100
AcDbLine
 10
515.4341201563836
 20
342.3993857668735
 30
0.0
 11
516.3533589719262
 21
342.9300510395583
 31
0.0
  0
LINE
  5
1C6
330
1F
100
AcDbEntity
  8
0
100
AcDbLine
 10
515.4341201563836
 20
342.1544235233079
 30
0.0
 11
515.4341201563836
 21
342.3993857668735
 31
0.0
  0
LINE
  5
1C7
330
1F
100
AcDbEntity
  8
0
100
AcDbLine
 10
515.2926988001464
 20
341.5012041438055
 30
0.0
 11
515.4341201563836
 21
342.1544235233079
 31
0.0
  0
LINE
  5
1C8
330
1F
100
AcDbEntity
  8
0
100
AcDbLine
 10
514.8684347314344
 20
341.2562817102587
 30
0.0
 11
515.2926988001464
 21
341.5012041438055
 31
0.0
  0
LINE
  5
1C9
330
1F
100
AcDbEntity
  8
0
100
AcDbLine
 10
514.3734599846039
 20
342.1953500889493
 30
0.0
 11
514.8684347314344
 21
341.2562817102587
 31
0.0
  0
LINE
  5
1CA
330
1F
100
AcDbEntity
  8
0
100
AcDbLine
 10
514.3734599846039
 20
343.0118909008351
 30
0.0
 11
514.3734599846039
 21
342.1953500889493
 31
0.0
  0
LINE
  5
1CB
330
1F
100
AcDbEntity
  8
0
100
AcDbLine
 10
524.1315335649782
 20
351.993083441219
 30
0.0
 11
520.9490358462832
 21
353.8303002679619
 31
0.0
  0
LINE
  5
1CC
330
1F
100
AcDbEntity
  8
0
100
AcDbLine
 10
511.3329008255018
 20
343.9506275293682
 30
0.0
 11
514.3734599846039
 21
342.1953500889493
 31
0.0
  0
LINE
  5
1CD
330
1F
100
AcDbEntity
  8
0
100
AcDbLine
 10
511.3329008255018
 20
344.767168341254
 30
0.0
 11
511.3329008255018
 21
343.9506275293682
 31
0.0
  0
LINE
  5
1CE
330
1F
100
AcDbEntity
  8
0
100
AcDbLine
 10
520.9495530496388
 20
339.8682552200971
 30
0.0
 11
519.8888928778589
 21
339.25594913623
 31
0.0
  0
LINE
  5
1CF
330
1F
100
AcDbEntity
  8
0
100
AcDbLine
 10
528.3741742520975
 20
344.1543978071663
 30
0.0
 11
527.3135140803176
 21
343.5420917232992
 31
0.0
  0
LINE
  5
1D0
330
1F
100
AcDbEntity
  8
0
100
AcDbLine
 10
528.8691489989282
 20
343.8686549680282
 30
0.0
 11
528.3741742520975
 21
344.1543978071663
 31
0.0
  0
ARC
  5
1D1
330
1F
100
AcDbEntity
  8
0
100
AcDbCircle
 10
521.197985845693
 20
340.2566369361144
 30
0.0
 40
0.4610414422716263
100
AcDbArc
 50
182.6054784856629
 51
237.3945216599878
  0
LINE
  5
1D2
330
1F
100
AcDbEntity
  8
0
100
AcDbLine
 10
511.8278755723323
 20
343.0115591506776
 30
0.0
 11
514.8684347314344
 21
341.2562817102587
 31
0.0
  0
LINE
  5
1D3
330
1F
100
AcDbEntity
  8
0
100
AcDbLine
 10
511.3329008255018
 20
343.9506275293682
 30
0.0
 11
511.8278755723323
 21
343.0115591506776
 31
0.0
  0
LINE
  5
1D4
330
1F
100
AcDbEntity
  8
0
100
AcDbLine
 10
535.9402168107935
 20
335.6565821054613
 30
0.0
 11
534.8795566390138
 21
335.0442760215943
 31
0.0
  0
LINE
  5
1D5
330
1F
100
AcDbEntity
  8
0
100
AcDbLine
 10
534.8795566390138
 20
335.0442760215943
 30
0.0
 11
532.0511295142676
 21
339.9432554927828
 31
0.0
  0
LINE
  5
1D6
330
1F
100
AcDbEntity
  8
0
100
AcDbLine
 10
535.9402168107935
 20
335.6565821054613
 30
0.0
 11
533.1117896860474
 21
340.5555615766496
 31
0.0
  0
LINE
  5
1D7
330
1F
100
AcDbEntity
  8
0
100
AcDbLine
 10
534.8795566390138
 20
335.0442760215943
 30
0.0
 11
534.8795566390138
 21
300.7968901664175
 31
0.0
  0
ARC
  5
1D8
330
1F
100
AcDbEntity
  8
0
100
AcDbCircle
 10
534.6640194553005
 20
300.7619265679673
 30
0.0
 40
0.2183545987144032
100
AcDbArc
 50
230.7967147643087
 51
9.214036990422771
  0
LINE
  5
1D9
330
1F
100
AcDbEntity
  8
0
100
AcDbLine
 10
534.5260032484205
 20
300.5927217884303
 30
0.0
 11
532.0511295142676
 21
302.02143598412
 31
0.0
  0
ARC
  5
1DA
330
1F
100
AcDbEntity
  8
0
100
AcDbCircle
 10
515.3371837179889
 20
341.498549790682
 30
0.0
 40
2.767481552331233
100
AcDbArc
 50
159.2384113937029
 51
181.2279213487864
  0
LINE
  5
1DB
330
1F
100
AcDbEntity
  8
0
100
AcDbLine
 10
511.1561241302051
 20
340.6228355732494
 30
0.0
 11
512.5703376925782
 21
341.4392436850721
 31
0.0
  0
LINE
  5
1DC
330
1F
100
AcDbEntity
  8
0
100
AcDbLine
 10
535.9402168107935
 20
301.4091962502845
 30
0.0
 11
534.8795566390138
 21
300.7968901664175
 31
0.0
  0
LINE
  5
1DD
330
1F
100
AcDbEntity
  8
0
100
AcDbLine
 10
535.9402168107935
 20
301.4091962502845
 30
0.0
 11
535.9402168107935
 21
335.6565821054613
 31
0.0
  0
ARC
  5
1DE
330
1F
100
AcDbEntity
  8
0
100
AcDbCircle
 10
518.0128969057154
 20
341.4035504888072
 30
0.0
 40
5.442676252797352
100
AcDbArc
 50
179.6242502644752
 51
254.5431630598849
  0
LWPOLYLINE
  5
1DF
330
1F
100
AcDbEntity
  8
0
100
AcDbPolyline
 90
       14
 70
   128
 43
0.0
 10
516.4240696500449
 20
339.2145315803552
 10
516.3942761550218
 20
338.9483850390513
 10
516.3066271595881
 20
338.7321048044786
 10
516.1662165047675
 20
338.5782602977238
 10
515.981204347446
 20
338.4957924023174
 10
515.7623429217155
 20
338.4894938525817
 10
515.5223516581102
 20
338.5597306973333
 10
515.2751779765384
 20
338.7024210264556
 10
515.0351867129334
 20
338.9092721966783
 10
514.8163252872027
 20
339.1682627698615
 10
514.6313131298813
 20
339.4643411552842
 10
514.4909024750607
 20
339.7803003533867
 10
514.403253479627
 20
340.0977779640404
 10
514.3734599846039
 20
340.3983233424981
  0
LWPOLYLINE
  5
1E0
330
1F
100
AcDbEntity
  8
0
100
AcDbPolyline
 90
        8
 70
   128
 43
0.0
 10
514.3734599846039
 20
340.3983233424981
 10
514.403253479627
 20
340.664469883802
 10
514.4909024750607
 20
340.8807501183747
 10
514.6313131298813
 20
341.0345946251295
 10
514.8163252872027
 20
341.117062520536
 10
515.0351867129334
 20
341.1233610702716
 10
515.2751779765385
 20
341.05312422552
 10
515.3989314581949
 20
340.9903154232965
  0
LINE
  5
1E1
330
1F
100
AcDbEntity
  8
0
100
AcDbLine
 10
496.0593943518723
 20
351.4608523077904
 30
0.0
 11
501.6312514650868
 21
348.2442876628352
 31
0.0
  0
LINE
  5
1E2
330
1F
100
AcDbEntity
  8
0
100
AcDbLine
 10
496.0593943518724
 20
369.3432420581576
 30
0.0
 11
496.0593943518724
 21
364.5401279541032
 31
0.0
  0
LINE
  5
1E3
330
1F
100
AcDbEntity
  8
0
100
AcDbLine
 10
496.0593943518724
 20
358.3346966414281
 30
0.0
 11
496.0593943518723
 21
351.4608523077904
 31
0.0
  0
LINE
  5
1E4
330
1F
100
AcDbEntity
  8
0
100
AcDbLine
 10
500.3020350389916
 20
358.9877831347912
 30
0.0
 11
500.3020350389916
 21
364.5402606541666
 31
0.0
  0
LINE
  5
1E5
330
1F
100
AcDbEntity
  8
0
100
AcDbLine
 10
500.3020350389916
 20
364.5402606541666
 30
0.0
 11
497.4736079142454
 21
366.173076877812
 31
0.0
  0
LINE
  5
1E6
330
1F
100
AcDbEntity
  8
0
100
AcDbLine
 10
499.5949282578051
 20
358.5795790788798
 30
0.0
 11
500.3020350389916
 21
358.9877831347912
 31
0.0
  0
ARC
  5
1E7
330
1F
100
AcDbEntity
  8
0
100
AcDbCircle
 10
499.1638538903944
 20
358.6495062746081
 30
0.0
 40
0.4367091972250128
100
AcDbArc
 50
350.7859631610307
 51
129.2032852602009
  0
LINE
  5
1E8
330
1F
100
AcDbEntity
  8
0
100
AcDbLine
 10
498.8878214766185
 20
358.9879158334061
 30
0.0
 11
496.9078763795391
 21
357.8448783929307
 31
0.0
  0
LINE
  5
1E9
330
1F
100
AcDbEntity
  8
0
100
AcDbLine
 10
496.9078763795391
 20
357.8448783929307
 30
0.0
 11
496.6957656701999
 21
357.9673953273859
 31
0.0
  0
LINE
  5
1EA
330
1F
100
AcDbEntity
  8
0
100
AcDbLine
 10
496.6957656701999
 20
357.9673953273859
 30
0.0
 11
496.6958170882029
 21
361.3970245539785
 31
0.0
  0
LINE
  5
1EB
330
1F
100
AcDbEntity
  8
0
100
AcDbLine
 10
496.6958170882029
 20
361.3970245539785
 30
0.0
 11
496.9078083712362
 21
361.7642305685065
 31
0.0
  0
LINE
  5
1EC
330
1F
100
AcDbEntity
  8
0
100
AcDbLine
 10
496.9078083712362
 20
361.7642305685065
 30
0.0
 11
498.8878214766185
 21
362.9073117304577
 31
0.0
  0
ARC
  5
1ED
330
1F
100
AcDbEntity
  8
0
100
AcDbCircle
 10
498.0597121564376
 20
364.2019174505154
 30
0.0
 40
1.53680480757204
100
AcDbArc
 50
302.6054783400241
 51
357.3945215143606
  0
LINE
  5
1EE
330
1F
100
AcDbEntity
  8
0
100
AcDbLine
 10
499.5949282578051
 20
364.1320565982552
 30
0.0
 11
500.3020350389916
 21
364.5402606541666
 31
0.0
  0
LINE
  5
1EF
330
1F
100
AcDbEntity
  8
0
100
AcDbLine
 10
496.9078083712362
 20
361.7642305685065
 30
0.0
 11
494.07938124649
 21
363.397046792152
 31
0.0
  0
LINE
  5
1F0
330
1F
100
AcDbEntity
  8
0
100
AcDbLine
 10
496.6958170882029
 20
361.3970245539785
 30
0.0
 11
493.8673899634567
 21
363.0298407776239
 31
0.0
  0
LINE
  5
1F1
330
1F
100
AcDbEntity
  8
0
100
AcDbLine
 10
493.8673899634567
 20
363.0298407776239
 30
0.0
 11
494.07938124649
 21
363.397046792152
 31
0.0
  0
LINE
  5
1F2
330
1F
100
AcDbEntity
  8
0
100
AcDbLine
 10
496.6957656701999
 20
357.9673953273859
 30
0.0
 11
493.8673385454537
 21
359.6002115510314
 31
0.0
  0
LINE
  5
1F3
330
1F
100
AcDbEntity
  8
0
100
AcDbLine
 10
493.8673385454537
 20
359.6002115510314
 30
0.0
 11
493.8673899634567
 21
363.0298407776239
 31
0.0
  0
LINE
  5
1F4
330
1F
100
AcDbEntity
  8
0
100
AcDbLine
 10
498.8878214766185
 20
362.9073117304577
 30
0.0
 11
496.0593943518723
 21
364.5401279541031
 31
0.0
  0
LINE
  5
1F5
330
1F
100
AcDbEntity
  8
0
100
AcDbLine
 10
494.07938124649
 20
363.397046792152
 30
0.0
 11
496.0593943518723
 21
364.5401279541031
 31
0.0
  0
ARC
  5
1F6
330
1F
100
AcDbEntity
  8
0
100
AcDbCircle
 10
528.6226070481515
 20
344.5427795231834
 30
0.0
 40
0.4610414422712664
100
AcDbArc
 50
182.6054784856295
 51
237.3945216599926
  0
LINE
  5
1F7
330
1F
100
AcDbEntity
  8
0
100
AcDbLine
 10
499.5949282578051
 20
364.1320565982552
 30
0.0
 11
496.7665011330589
 21
365.7648728219006
 31
0.0
  0
ARC
  5
1F8
330
1F
100
AcDbEntity
  8
0
100
AcDbCircle
 10
495.2312850316912
 20
365.8347336741608
 30
0.0
 40
1.536804807572154
100
AcDbArc
 50
302.6054783400295
 51
357.3945215143608
  0
LINE
  5
1F9
330
1F
100
AcDbEntity
  8
0
100
AcDbLine
 10
496.7665011330589
 20
365.7648728219006
 30
0.0
 11
497.4736079142454
 21
366.173076877812
 31
0.0
  0
LINE
  5
1FA
330
1F
100
AcDbEntity
  8
0
100
AcDbLine
 10
496.9078763795391
 20
357.8448783929307
 30
0.0
 11
494.0794492547929
 21
359.4776946165761
 31
0.0
  0
LINE
  5
1FB
330
1F
100
AcDbEntity
  8
0
100
AcDbLine
 10
494.0794492547929
 20
359.4776946165761
 30
0.0
 11
493.8673385454537
 21
359.6002115510314
 31
0.0
  0
LINE
  5
1FC
330
1F
100
AcDbEntity
  8
0
100
AcDbLine
 10
495.2815768925672
 20
351.0118278462879
 30
0.0
 11
496.0593943518723
 21
351.4608523077904
 31
0.0
  0
LINE
  5
1FD
330
1F
100
AcDbEntity
  8
0
100
AcDbLine
 10
485.276015938752
 20
387.285336366172
 30
0.0
 11
483.2607616123959
 21
386.1219548068393
 31
0.0
  0
LWPOLYLINE
  5
1FE
330
1F
100
AcDbEntity
  8
0
100
AcDbPolyline
 90
       20
 70
   128
 43
0.0
 10
489.7307886602273
 20
389.8570219184135
 10
490.067025758887
 20
389.6278419340169
 10
490.3333338924422
 20
389.3698389431769
 10
490.5224488692228
 20
389.0900505949198
 10
490.6292121256486
 20
388.7961087860324
 10
490.650711438395
 20
388.4960314828118
 10
490.5863603622551
 20
388.1980040118467
 10
490.4379142268351
 20
387.9101557856454
 10
490.209422255739
 20
387.6403385534542
 10
489.9071171143042
 20
387.3959122260063
 10
489.5392448987382
 20
387.1835441163424
 10
489.1158402041104
 20
387.0090270728918
 10
488.6484524067565
 20
386.8771214656678
 10
488.149830627399
 20
386.7914253357832
 10
487.6335759683687
 20
386.7542762502682
 10
487.1137705109886
 20
386.766687539335
 10
486.6045931931039
 20
386.8283206553718
 10
486.1199330446205
 20
386.9374944076386
 10
485.673010330974
 20
387.0912308207685
 10
485.276015938752
 20
387.285336366172
  0
LINE
  5
1FF
330
1F
100
AcDbEntity
  8
0
100
AcDbLine
 10
491.7460429866344
 20
391.0204034777756
 30
0.0
 11
489.7307886602273
 21
389.8570219184135
 31
0.0
  0
LINE
  5
200
330
1F
100
AcDbEntity
  8
0
100
AcDbLine
 10
494.9278511008554
 20
389.1835847512218
 30
0.0
 11
491.7460429866344
 21
391.0204034777756
 31
0.0
  0
LINE
  5
201
330
1F
100
AcDbEntity
  8
0
100
AcDbLine
 10
499.5949282578051
 20
358.5795790788798
 30
0.0
 11
498.8877065457779
 21
358.9878494829533
 31
0.0
  0
LINE
  5
202
330
1F
100
AcDbEntity
  8
0
100
AcDbLine
 10
531.556154767437
 20
321.9859052797487
 30
0.0
 11
528.5155956083348
 21
323.7411827201675
 31
0.0
  0
LINE
  5
203
330
1F
100
AcDbEntity
  8
0
100
AcDbLine
 10
480.0787810970564
 20
388.3196161702649
 30
0.0
 11
479.0181209252765
 21
387.7073100863978
 31
0.0
  0
LINE
  5
204
330
1F
100
AcDbEntity
  8
0
100
AcDbLine
 10
480.0787810970564
 20
388.3196161702649
 30
0.0
 11
486.4427421277353
 21
391.9934526734667
 31
0.0
  0
LINE
  5
205
330
1F
100
AcDbEntity
  8
0
100
AcDbLine
 10
487.5034022995151
 20
392.6057587573341
 30
0.0
 11
486.4427421277353
 21
391.9934526734667
 31
0.0
  0
SPLINE
  5
206
330
1F
100
AcDbEntity
  8
0
100
AcDbSpline
210
0.0
220
0.0
230
1.0
 70
     8
 71
     3
 72
    22
 73
    18
 74
     0
 42
1E-08
 43
1E-08
 40
0.0
 40
0.0
 40
0.0
 40
0.0
 40
0.1249999999999999
 40
0.1249999999999999
 40
0.25
 40
0.25
 40
0.375
 40
0.375
 40
0.5
 40
0.5
 40
0.6249999999999999
 40
0.6249999999999999
 40
0.75
 40
0.75
 40
0.875
 40
0.875
 40
1.0
 40
1.0
 40
1.0
 40
1.0
 10
485.276015938752
 20
387.285336366172
 30
0.0
 10
485.0135159387495
 20
387.3834252196884
 30
0.0
 10
484.7781527214213
 20
387.5168691050857
 30
0.0
 10
484.4468780461467
 20
387.8471049747531
 30
0.0
 10
484.3534022994769
 20
388.0436864401091
 30
0.0
 10
484.3534022994741
 20
388.4572817936121
 30
0.0
 10
484.4468780461412
 20
388.6728964062415
 30
0.0
 10
484.7781527214109
 20
389.0705850634728
 30
0.0
 10
485.013515938737
 20
389.2519526396434
 30
0.0
 10
485.5385159387387
 20
389.5550286884892
 30
0.0
 10
485.8695620558235
 20
389.7006422610845
 30
0.0
 10
486.6350252538915
 20
389.93608690151
 30
0.0
 10
487.0684780589918
 20
390.024661666963
 30
0.0
 10
487.9383265399792
 20
390.1132191529086
 30
0.0
 10
488.3717793450789
 20
390.1129022657752
 30
0.0
 10
489.1372425431449
 20
390.0333180950439
 30
0.0
 10
489.4682886602281
 20
389.9551107719319
 30
0.0
 10
489.7307886602273
 20
389.8570219184135
 30
0.0
  0
LINE
  5
207
330
1F
100
AcDbEntity
  8
0
100
AcDbLine
 10
491.7460429866344
 20
391.0204034777756
 30
0.0
 11
487.5034022995151
 21
392.6057587573341
 31
0.0
  0
ARC
  5
208
330
1F
100
AcDbEntity
  8
0
100
AcDbCircle
 10
528.2777528304509
 20
297.0927716488849
 30
0.0
 40
0.2397627731392748
100
AcDbArc
 50
304.0563508215168
 51
7.255829571825823
  0
LINE
  5
209
330
1F
100
AcDbEntity
  8
0
100
AcDbLine
 10
481.98796940626
 20
361.7074376114806
 30
0.0
 11
482.9072082218025
 21
362.2381028841654
 31
0.0
  0
LINE
  5
20A
330
1F
100
AcDbEntity
  8
0
100
AcDbLine
 10
481.98796940626
 20
361.4624753679149
 30
0.0
 11
481.98796940626
 21
361.7074376114806
 31
0.0
  0
LINE
  5
20B
330
1F
100
AcDbEntity
  8
0
100
AcDbLine
 10
481.8465480500228
 20
360.8092559884126
 30
0.0
 11
481.98796940626
 21
361.4624753679149
 31
0.0
  0
LINE
  5
20C
330
1F
100
AcDbEntity
  8
0
100
AcDbLine
 10
481.4222839813108
 20
360.5643335548658
 30
0.0
 11
481.8465480500228
 21
360.8092559884126
 31
0.0
  0
LINE
  5
20D
330
1F
100
AcDbEntity
  8
0
100
AcDbLine
 10
480.9273092344802
 20
361.5034019335565
 30
0.0
 11
481.4222839813108
 21
360.5643335548658
 31
0.0
  0
LINE
  5
20E
330
1F
100
AcDbEntity
  8
0
100
AcDbLine
 10
480.9273092344802
 20
362.3199427454422
 30
0.0
 11
480.9273092344802
 21
361.5034019335565
 31
0.0
  0
LINE
  5
20F
330
1F
100
AcDbEntity
  8
0
100
AcDbLine
 10
482.9072082218025
 20
364.6877253198226
 30
0.0
 11
480.9273092344802
 21
362.3199427454422
 31
0.0
  0
LINE
  5
210
330
1F
100
AcDbEntity
  8
0
100
AcDbLine
 10
480.9273092344802
 20
362.3199427454422
 30
0.0
 11
477.8867500753781
 21
364.075220185861
 31
0.0
  0
LINE
  5
211
330
1F
100
AcDbEntity
  8
0
100
AcDbLine
 10
479.8666490627004
 20
366.4430027602414
 30
0.0
 11
477.8867500753781
 21
364.075220185861
 31
0.0
  0
LINE
  5
212
330
1F
100
AcDbEntity
  8
0
100
AcDbLine
 10
480.9273092344802
 20
361.5034019335565
 30
0.0
 11
477.8867500753781
 21
363.2586793739753
 31
0.0
  0
LINE
  5
213
330
1F
100
AcDbEntity
  8
0
100
AcDbLine
 10
477.8867500753781
 20
364.075220185861
 30
0.0
 11
477.8867500753781
 21
363.2586793739753
 31
0.0
  0
LINE
  5
214
330
1F
100
AcDbEntity
  8
0
100
AcDbLine
 10
506.2417320009586
 20
319.6171274548955
 30
0.0
 11
507.6559455633317
 21
320.4335355667181
 31
0.0
  0
ARC
  5
215
330
1F
100
AcDbEntity
  8
0
100
AcDbCircle
 10
505.1670807300011
 20
319.568224858313
 30
0.0
 40
1.075763365300614
100
AcDbArc
 50
2.605478485657632
 51
57.39452165996783
  0
LINE
  5
216
330
1F
100
AcDbEntity
  8
0
100
AcDbLine
 10
505.746757254128
 20
320.4744488623534
 30
0.0
 11
507.1609708165011
 21
321.2908569741762
 31
0.0
  0
LINE
  5
217
330
1F
100
AcDbEntity
  8
0
100
AcDbLine
 10
504.120411657399
 20
320.8417396226295
 30
0.0
 11
504.120411657399
 21
316.2691110760694
 31
0.0
  0
ARC
  5
218
330
1F
100
AcDbEntity
  8
0
100
AcDbCircle
 10
504.4221637145974
 20
320.8906886604601
 30
0.0
 40
0.3056964381999729
100
AcDbArc
 50
50.79671476426761
 51
189.2140369904785
  0
LINE
  5
219
330
1F
100
AcDbEntity
  8
0
100
AcDbLine
 10
505.746757254128
 20
320.4744488623534
 30
0.0
 11
504.6153864042295
 21
321.1275753518116
 31
0.0
  0
LINE
  5
21A
330
1F
100
AcDbEntity
  8
0
100
AcDbLine
 10
506.2417320009586
 20
315.0444989083353
 30
0.0
 11
506.2417320009586
 21
319.6171274548955
 31
0.0
  0
ARC
  5
21B
330
1F
100
AcDbEntity
  8
0
100
AcDbCircle
 10
505.93997994376
 20
314.9955498705049
 30
0.0
 40
0.3056964381999451
100
AcDbArc
 50
230.7967147642917
 51
9.214036990453241
  0
LINE
  5
21C
330
1F
100
AcDbEntity
  8
0
100
AcDbLine
 10
504.6153864042295
 20
315.4117896686114
 30
0.0
 11
505.746757254128
 21
314.7586631791532
 31
0.0
  0
ARC
  5
21D
330
1F
100
AcDbEntity
  8
0
100
AcDbCircle
 10
505.1950629283558
 20
316.3180136726515
 30
0.0
 40
1.07576336530003
100
AcDbArc
 50
182.6054784856417
 51
237.3945216599843
  0
ARC
  5
21E
330
1F
100
AcDbEntity
  8
0
100
AcDbCircle
 10
535.6952158597281
 20
301.3821528815578
 30
0.0
 40
0.2464889648949782
100
AcDbArc
 50
305.0133328603729
 51
6.298847533050245
  0
LINE
  5
21F
330
1F
100
AcDbEntity
  8
0
100
AcDbLine
 10
506.2417320009586
 20
315.0444989083353
 30
0.0
 11
507.6559455633317
 21
315.860907020158
 31
0.0
  0
LINE
  5
220
330
1F
100
AcDbEntity
  8
0
100
AcDbLine
 10
504.6153864042295
 20
321.1275753518116
 30
0.0
 11
506.0295999666026
 21
321.9439834636344
 31
0.0
  0
LINE
  5
221
330
1F
100
AcDbEntity
  8
0
100
AcDbLine
 10
481.4222839813108
 20
360.5643335548658
 30
0.0
 11
478.3817248222086
 21
362.3196109952846
 31
0.0
  0
LINE
  5
222
330
1F
100
AcDbEntity
  8
0
100
AcDbLine
 10
477.8867500753781
 20
363.2586793739753
 30
0.0
 11
478.3817248222086
 21
362.3196109952846
 31
0.0
  0
ARC
  5
223
330
1F
100
AcDbEntity
  8
0
100
AcDbCircle
 10
483.5880892427181
 20
359.8269119011011
 30
0.0
 40
2.767481552336315
100
AcDbArc
 50
159.2384113937277
 51
181.2279213487688
  0
LINE
  5
224
330
1F
100
AcDbEntity
  8
0
100
AcDbLine
 10
479.4070296549291
 20
358.9511976836692
 30
0.0
 11
480.8212432173023
 21
359.7676057954919
 31
0.0
  0
ARC
  5
225
330
1F
100
AcDbEntity
  8
0
100
AcDbCircle
 10
486.2638024304389
 20
359.7319125992267
 30
0.0
 40
5.442676252796844
100
AcDbArc
 50
179.624250264471
 51
254.5431630598882
  0
LWPOLYLINE
  5
226
330
1F
100
AcDbEntity
  8
0
100
AcDbPolyline
 90
       14
 70
   128
 43
0.0
 10
484.6749751747689
 20
357.5428936907751
 10
484.6451816797458
 20
357.2767471494712
 10
484.5575326843121
 20
357.0604669148985
 10
484.4171220294915
 20
356.9066224081436
 10
484.23210987217
 20
356.8241545127372
 10
484.0132484464394
 20
356.8178559630016
 10
483.7732571828343
 20
356.8880928077531
 10
483.5260835012626
 20
357.0307831368755
 10
483.2860922376574
 20
357.2376343070982
 10
483.0672308119268
 20
357.4966248802813
 10
482.8822186546054
 20
357.7927032657041
 10
482.7418079997847
 20
358.1086624638066
 10
482.6541590043511
 20
358.4261400744602
 10
482.6243655093279
 20
358.726685452918
  0
LWPOLYLINE
  5
227
330
1F
100
AcDbEntity
  8
0
100
AcDbPolyline
 90
        8
 70
   128
 43
0.0
 10
482.6243655093279
 20
358.726685452918
 10
482.6541590043511
 20
358.9928319942218
 10
482.7418079997847
 20
359.2091122287945
 10
482.8822186546054
 20
359.3629567355494
 10
483.0672308119268
 20
359.4454246309558
 10
483.2860922376574
 20
359.4517231806915
 10
483.5260835012626
 20
359.3814863359399
 10
483.6498369829189
 20
359.3186775337163
  0
LINE
  5
228
330
1F
100
AcDbEntity
  8
0
100
AcDbLine
 10
507.7266562414503
 20
310.7575335808752
 30
0.0
 11
505.6760465760093
 21
309.5737418187323
 31
0.0
  0
ARC
  5
229
330
1F
100
AcDbEntity
  8
0
100
AcDbCircle
 10
505.5380303691293
 20
309.742946598269
 30
0.0
 40
0.2183545987141389
100
AcDbArc
 50
170.7859630095112
 51
309.2032852357495
  0
LINE
  5
22A
330
1F
100
AcDbEntity
  8
0
100
AcDbLine
 10
505.3224931854161
 20
309.7779101967195
 30
0.0
 11
505.3224931854161
 21
310.5944510086052
 31
0.0
  0
LINE
  5
22B
330
1F
100
AcDbEntity
  8
0
100
AcDbLine
 10
505.3224931854161
 20
310.5944510086052
 30
0.0
 11
506.0295999666026
 21
313.0440070942309
 31
0.0
  0
LINE
  5
22C
330
1F
100
AcDbEntity
  8
0
100
AcDbLine
 10
506.0295999666026
 20
313.0440070942309
 30
0.0
 11
506.1710213228401
 21
313.1256479054134
 31
0.0
  0
LINE
  5
22D
330
1F
100
AcDbEntity
  8
0
100
AcDbLine
 10
506.1710213228401
 20
313.1256479054134
 30
0.0
 11
506.2783367752329
 21
312.5679801801331
 31
0.0
  0
LWPOLYLINE
  5
22E
330
1F
100
AcDbEntity
  8
0
100
AcDbPolyline
 90
        9
 70
   128
 43
0.0
 10
506.2783367752329
 20
312.5679801801331
 10
506.2885016475644
 20
312.5335194435941
 10
506.3044832471748
 20
312.5050147077469
 10
506.3258117146424
 20
312.4833040125259
 10
506.3518599924993
 20
312.4690256529048
 10
506.3818622607361
 20
312.4625994130073
 10
506.4149364519291
 20
312.4642142244444
 10
506.450110184044
 20
312.4738226117202
 10
506.4863493484917
 20
312.4911420880125
  0
LINE
  5
22F
330
1F
100
AcDbEntity
  8
0
100
AcDbLine
 10
506.4863493484917
 20
312.4911420880125
 30
0.0
 11
507.7266562414503
 21
313.2071560165325
 31
0.0
  0
LINE
  5
230
330
1F
100
AcDbEntity
  8
0
100
AcDbLine
 10
503.0597514856191
 20
311.9007039875216
 30
0.0
 11
505.3224931854161
 21
310.5944510086052
 31
0.0
  0
LINE
  5
231
330
1F
100
AcDbEntity
  8
0
100
AcDbLine
 10
503.0597514856191
 20
311.9007039875216
 30
0.0
 11
503.7668582668057
 21
314.3502600731473
 31
0.0
  0
LINE
  5
232
330
1F
100
AcDbEntity
  8
0
100
AcDbLine
 10
503.7668582668057
 20
314.3502600731473
 30
0.0
 11
506.0295999666026
 21
313.0440070942309
 31
0.0
  0
LINE
  5
233
330
1F
100
AcDbEntity
  8
0
100
AcDbLine
 10
503.7668582668057
 20
314.3502600731473
 30
0.0
 11
503.9082796230432
 21
314.4319008843297
 31
0.0
  0
LINE
  5
234
330
1F
100
AcDbEntity
  8
0
100
AcDbLine
 10
503.9082796230432
 20
314.4319008843297
 30
0.0
 11
506.1710213228401
 21
313.1256479054134
 31
0.0
  0
LINE
  5
235
330
1F
100
AcDbEntity
  8
0
100
AcDbLine
 10
503.0597514856191
 20
311.0841631756358
 30
0.0
 11
505.3224931854161
 21
309.7779101967195
 31
0.0
  0
LINE
  5
236
330
1F
100
AcDbEntity
  8
0
100
AcDbLine
 10
503.0597514856191
 20
311.0841631756358
 30
0.0
 11
503.0597514856191
 21
311.9007039875216
 31
0.0
  0
LINE
  5
237
330
1F
100
AcDbEntity
  8
0
100
AcDbLine
 10
504.6155013383088
 20
314.0236304783868
 30
0.0
 11
505.4639145416534
 21
314.5134089954488
 31
0.0
  0
ARC
  5
238
330
1F
100
AcDbEntity
  8
0
100
AcDbCircle
 10
503.3047524365851
 20
311.0571198068644
 30
0.0
 40
0.2464889648012369
100
AcDbArc
 50
173.7011524540827
 51
234.9866671525897
  0
LINE
  5
239
330
1F
100
AcDbEntity
  8
0
100
AcDbLine
 10
476.5432471911236
 20
365.0952658754188
 30
0.0
 11
475.8361404099371
 21
364.6870618195074
 31
0.0
  0
LINE
  5
23A
330
1F
100
AcDbEntity
  8
0
100
AcDbLine
 10
472.6541598945976
 20
366.8847231829322
 30
0.0
 11
471.5934997228179
 21
366.2724170990651
 31
0.0
  0
LINE
  5
23B
330
1F
100
AcDbEntity
  8
0
100
AcDbLine
 10
472.6541598945976
 20
366.8847231829322
 30
0.0
 11
476.5432471911236
 21
369.1298454904447
 31
0.0
  0
LINE
  5
23C
330
1F
100
AcDbEntity
  8
0
100
AcDbLine
 10
489.2711692524815
 20
329.414024796768
 30
0.0
 11
490.6853828148546
 21
330.2304329085907
 31
0.0
  0
ARC
  5
23D
330
1F
100
AcDbEntity
  8
0
100
AcDbCircle
 10
488.1965179815238
 20
329.3651222001853
 30
0.0
 40
1.075763365300905
100
AcDbArc
 50
2.605478485666017
 51
57.39452165996669
  0
LINE
  5
23E
330
1F
100
AcDbEntity
  8
0
100
AcDbLine
 10
488.7761945056508
 20
330.271346204226
 30
0.0
 11
490.190408068024
 21
331.0877543160487
 31
0.0
  0
LINE
  5
23F
330
1F
100
AcDbEntity
  8
0
100
AcDbLine
 10
489.2711692524815
 20
324.8413962502078
 30
0.0
 11
489.2711692524815
 21
329.414024796768
 31
0.0
  0
ARC
  5
240
330
1F
100
AcDbEntity
  8
0
100
AcDbCircle
 10
488.9694171952829
 20
324.7924472123774
 30
0.0
 40
0.3056964381999647
100
AcDbArc
 50
230.7967147642767
 51
9.214036990451534
  0
LINE
  5
241
330
1F
100
AcDbEntity
  8
0
100
AcDbLine
 10
487.6448236557524
 20
325.2086870104839
 30
0.0
 11
488.7761945056508
 21
324.5555605210258
 31
0.0
  0
ARC
  5
242
330
1F
100
AcDbEntity
  8
0
100
AcDbCircle
 10
488.2245001798789
 20
326.1149110145242
 30
0.0
 40
1.075763365300325
100
AcDbArc
 50
182.6054784856531
 51
237.394521659979
  0
LINE
  5
243
330
1F
100
AcDbEntity
  8
0
100
AcDbLine
 10
487.1498489089218
 20
330.6386369645021
 30
0.0
 11
487.1498489089218
 21
326.0660084179419
 31
0.0
  0
ARC
  5
244
330
1F
100
AcDbEntity
  8
0
100
AcDbCircle
 10
487.4516009661205
 20
330.6875860023325
 30
0.0
 40
0.3056964381999556
100
AcDbArc
 50
50.79671476429086
 51
189.2140369904418
  0
LINE
  5
245
330
1F
100
AcDbEntity
  8
0
100
AcDbLine
 10
488.7761945056508
 20
330.271346204226
 30
0.0
 11
487.6448236557524
 21
330.9244726936842
 31
0.0
  0
LINE
  5
246
330
1F
100
AcDbEntity
  8
0
100
AcDbLine
 10
489.2711692524815
 20
324.8413962502078
 30
0.0
 11
490.6853828148546
 21
325.6578043620305
 31
0.0
  0
LINE
  5
247
330
1F
100
AcDbEntity
  8
0
100
AcDbLine
 10
487.6448236557524
 20
330.9244726936842
 30
0.0
 11
489.0590372181255
 21
331.7408808055068
 31
0.0
  0
LINE
  5
248
330
1F
100
AcDbEntity
  8
0
100
AcDbLine
 10
490.7560934929732
 20
320.5544309227477
 30
0.0
 11
488.7054838275322
 21
319.3706391606048
 31
0.0
  0
ARC
  5
249
330
1F
100
AcDbEntity
  8
0
100
AcDbCircle
 10
488.5674676206522
 20
319.5398439401417
 30
0.0
 40
0.2183545987142791
100
AcDbArc
 50
170.7859630095478
 51
309.2032852357002
  0
LINE
  5
24A
330
1F
100
AcDbEntity
  8
0
100
AcDbLine
 10
488.3519304369389
 20
319.574807538592
 30
0.0
 11
488.3519304369389
 21
320.3913483504778
 31
0.0
  0
LINE
  5
24B
330
1F
100
AcDbEntity
  8
0
100
AcDbLine
 10
488.3519304369389
 20
320.3913483504778
 30
0.0
 11
489.0590372181255
 21
322.8409044361035
 31
0.0
  0
LINE
  5
24C
330
1F
100
AcDbEntity
  8
0
100
AcDbLine
 10
489.0590372181255
 20
322.8409044361035
 30
0.0
 11
489.200458574363
 21
322.9225452472859
 31
0.0
  0
LINE
  5
24D
330
1F
100
AcDbEntity
  8
0
100
AcDbLine
 10
489.200458574363
 20
322.9225452472859
 30
0.0
 11
489.3077740267559
 21
322.3648775220056
 31
0.0
  0
LWPOLYLINE
  5
24E
330
1F
100
AcDbEntity
  8
0
100
AcDbPolyline
 90
        9
 70
   128
 43
0.0
 10
489.3077740267559
 20
322.3648775220056
 10
489.3179388990874
 20
322.3304167854666
 10
489.3339204986977
 20
322.3019120496193
 10
489.3552489661653
 20
322.2802013543985
 10
489.3812972440222
 20
322.2659229947773
 10
489.411299512259
 20
322.2594967548798
 10
489.444373703452
 20
322.2611115663169
 10
489.4795474355668
 20
322.2707199535927
 10
489.5157866000146
 20
322.2880394298849
  0
LINE
  5
24F
330
1F
100
AcDbEntity
  8
0
100
AcDbLine
 10
489.5157866000146
 20
322.2880394298849
 30
0.0
 11
490.7560934929732
 21
323.004053358405
 31
0.0
  0
LINE
  5
250
330
1F
100
AcDbEntity
  8
0
100
AcDbLine
 10
489.0590372181255
 20
322.8409044361035
 30
0.0
 11
486.7962955183285
 21
324.1471574150198
 31
0.0
  0
LINE
  5
251
330
1F
100
AcDbEntity
  8
0
100
AcDbLine
 10
488.3519304369389
 20
320.3913483504778
 30
0.0
 11
486.089188737142
 21
321.697601329394
 31
0.0
  0
LINE
  5
252
330
1F
100
AcDbEntity
  8
0
100
AcDbLine
 10
486.089188737142
 20
321.697601329394
 30
0.0
 11
486.7962955183285
 21
324.1471574150198
 31
0.0
  0
LINE
  5
253
330
1F
100
AcDbEntity
  8
0
100
AcDbLine
 10
489.200458574363
 20
322.9225452472859
 30
0.0
 11
486.937716874566
 21
324.2287982262022
 31
0.0
  0
LINE
  5
254
330
1F
100
AcDbEntity
  8
0
100
AcDbLine
 10
486.7962955183285
 20
324.1471574150198
 30
0.0
 11
486.937716874566
 21
324.2287982262022
 31
0.0
  0
LINE
  5
255
330
1F
100
AcDbEntity
  8
0
100
AcDbLine
 10
488.3519304369389
 20
319.574807538592
 30
0.0
 11
486.089188737142
 21
320.8810605175084
 31
0.0
  0
LINE
  5
256
330
1F
100
AcDbEntity
  8
0
100
AcDbLine
 10
486.089188737142
 20
320.8810605175084
 30
0.0
 11
486.089188737142
 21
321.697601329394
 31
0.0
  0
LINE
  5
257
330
1F
100
AcDbEntity
  8
0
100
AcDbLine
 10
487.6449385898317
 20
323.8205278202593
 30
0.0
 11
488.4933517931763
 21
324.3103063373213
 31
0.0
  0
ARC
  5
258
330
1F
100
AcDbEntity
  8
0
100
AcDbCircle
 10
486.3341896884797
 20
320.854017148905
 30
0.0
 40
0.2464889651521651
100
AcDbArc
 50
173.7011525023551
 51
234.9866671042437
  0
LINE
  5
259
330
1F
100
AcDbEntity
  8
0
100
AcDbLine
 10
519.4292734701131
 20
372.712451570166
 30
0.0
 11
519.4292734701273
 21
369.6872347635494
 31
0.0
  0
LINE
  5
25A
330
1F
100
AcDbEntity
  8
0
100
AcDbLine
 10
514.3734599846039
 20
340.3983233424981
 30
0.0
 11
515.3989314581949
 21
340.9903154232965
 31
0.0
  0
LINE
  5
25B
330
1F
100
AcDbEntity
  8
0
100
AcDbLine
 10
489.7307886602273
 20
389.8570219184135
 30
0.0
 11
489.7307886602131
 21
387.2853363661802
 31
0.0
  0
LINE
  5
25C
330
1F
100
AcDbEntity
  8
0
100
AcDbLine
 10
506.2689748433739
 20
312.6166297187376
 30
0.0
 11
506.4863493484917
 21
312.4911420880125
 31
0.0
  0
LINE
  5
25D
330
1F
100
AcDbEntity
  8
0
100
AcDbLine
 10
482.6243655093279
 20
358.726685452918
 30
0.0
 11
483.6498369829189
 21
359.3186775337163
 31
0.0
  0
LINE
  5
25E
330
1F
100
AcDbEntity
  8
0
100
AcDbLine
 10
476.5432471883219
 20
364.5237801955254
 30
0.0
 11
476.3311151567677
 21
364.4013189803695
 31
0.0
  0
LINE
  5
25F
330
1F
100
AcDbEntity
  8
0
100
AcDbLine
 10
489.5157866000146
 20
322.2880394298849
 30
0.0
 11
489.2984120948968
 21
322.41352706061
 31
0.0
  0
LINE
  5
260
330
1F
100
AcDbEntity
  8
0
100
AcDbLine
 10
336.270601223968
 20
207.1793947270995
 30
0.0
 11
336.270601223968
 21
206.5347982657104
 31
0.0
  0
LINE
  5
261
330
1F
100
AcDbEntity
  8
0
100
AcDbLine
 10
331.4706012239681
 20
207.1793947270995
 30
0.0
 11
331.4706012239681
 21
206.5347982657104
 31
0.0
  0
LINE
  5
262
330
1F
100
AcDbEntity
  8
0
100
AcDbLine
 10
331.4706012239681
 20
206.5347982657104
 30
0.0
 11
336.270601223968
 21
206.5347982657104
 31
0.0
  0
LINE
  5
263
330
1F
100
AcDbEntity
  8
0
100
AcDbLine
 10
335.8245400682693
 20
206.5347982657104
 30
0.0
 11
335.8245400682693
 21
202.7462165990118
 31
0.0
  0
LINE
  5
264
330
1F
100
AcDbEntity
  8
0
100
AcDbLine
 10
331.9166623796668
 20
206.5347982657104
 30
0.0
 11
331.9166623796668
 21
202.7462165990118
 31
0.0
  0
LINE
  5
265
330
1F
100
AcDbEntity
  8
0
100
AcDbLine
 10
331.9166623796668
 20
202.7462165990118
 30
0.0
 11
335.8245400682693
 21
202.7462165990118
 31
0.0
  0
LINE
  5
266
330
1F
100
AcDbEntity
  8
0
100
AcDbLine
 10
335.020601223968
 20
202.7462165990118
 30
0.0
 11
335.020601223968
 21
202.6793947270995
 31
0.0
  0
LINE
  5
267
330
1F
100
AcDbEntity
  8
0
100
AcDbLine
 10
332.720601223968
 20
202.7462165990118
 30
0.0
 11
332.720601223968
 21
202.6793947270995
 31
0.0
  0
LINE
  5
268
330
1F
100
AcDbEntity
  8
0
100
AcDbLine
 10
339.870601223968
 20
178.3793947270995
 30
0.0
 11
338.370601223968
 21
178.3793947270995
 31
0.0
  0
LINE
  5
269
330
1F
100
AcDbEntity
  8
0
100
AcDbLine
 10
339.870601223968
 20
177.8793947270995
 30
0.0
 11
338.370601223968
 21
177.8793947270995
 31
0.0
  0
LINE
  5
26A
330
1F
100
AcDbEntity
  8
0
100
AcDbLine
 10
338.370601223968
 20
177.8793947270995
 30
0.0
 11
338.370601223968
 21
178.3793947270995
 31
0.0
  0
LINE
  5
26B
330
1F
100
AcDbEntity
  8
0
100
AcDbLine
 10
339.870601223968
 20
177.8793947270995
 30
0.0
 11
339.870601223968
 21
178.3793947270995
 31
0.0
  0
LINE
  5
26C
330
1F
100
AcDbEntity
  8
0
100
AcDbLine
 10
339.870601223968
 20
220.3214328428485
 30
0.0
 11
338.370601223968
 21
220.3214328428485
 31
0.0
  0
LINE
  5
26D
330
1F
100
AcDbEntity
  8
0
100
AcDbLine
 10
338.370601223968
 20
220.3214328428485
 30
0.0
 11
338.370601223968
 21
178.3793947270995
 31
0.0
  0
LINE
  5
26E
330
1F
100
AcDbEntity
  8
0
100
AcDbLine
 10
339.870601223968
 20
178.3793947270995
 30
0.0
 11
339.870601223968
 21
220.3214328428485
 31
0.0
  0
LINE
  5
26F
330
1F
100
AcDbEntity
  8
0
100
AcDbLine
 10
339.870601223968
 20
224.3214328428485
 30
0.0
 11
338.370601223968
 21
224.3214328428487
 31
0.0
  0
LINE
  5
270
330
1F
100
AcDbEntity
  8
0
100
AcDbLine
 10
338.370601223968
 20
220.3214328428485
 30
0.0
 11
338.370601223968
 21
224.3214328428487
 31
0.0
  0
LINE
  5
271
330
1F
100
AcDbEntity
  8
0
100
AcDbLine
 10
339.870601223968
 20
220.3214328428485
 30
0.0
 11
339.870601223968
 21
224.3214328428485
 31
0.0
  0
LINE
  5
272
330
1F
100
AcDbEntity
  8
0
100
AcDbLine
 10
329.370601223968
 20
220.3214328428485
 30
0.0
 11
327.870601223968
 21
220.3214328428485
 31
0.0
  0
LINE
  5
273
330
1F
100
AcDbEntity
  8
0
100
AcDbLine
 10
327.870601223968
 20
220.3214328428485
 30
0.0
 11
327.870601223968
 21
224.3214328428485
 31
0.0
  0
LINE
  5
274
330
1F
100
AcDbEntity
  8
0
100
AcDbLine
 10
329.370601223968
 20
224.3214328428487
 30
0.0
 11
327.870601223968
 21
224.3214328428485
 31
0.0
  0
LINE
  5
275
330
1F
100
AcDbEntity
  8
0
100
AcDbLine
 10
329.370601223968
 20
224.3214328428487
 30
0.0
 11
329.370601223968
 21
220.3214328428485
 31
0.0
  0
LINE
  5
276
330
1F
100
AcDbEntity
  8
0
100
AcDbLine
 10
329.370601223968
 20
178.3793947270995
 30
0.0
 11
327.870601223968
 21
178.3793947270995
 31
0.0
  0
LINE
  5
277
330
1F
100
AcDbEntity
  8
0
100
AcDbLine
 10
327.870601223968
 20
178.3793947270995
 30
0.0
 11
327.870601223968
 21
220.3214328428485
 31
0.0
  0
LINE
  5
278
330
1F
100
AcDbEntity
  8
0
100
AcDbLine
 10
329.370601223968
 20
178.3793947270995
 30
0.0
 11
329.370601223968
 21
220.3214328428485
 31
0.0
  0
LINE
  5
279
330
1F
100
AcDbEntity
  8
0
100
AcDbLine
 10
329.370601223968
 20
177.8793947270995
 30
0.0
 11
327.870601223968
 21
177.8793947270995
 31
0.0
  0
LINE
  5
27A
330
1F
100
AcDbEntity
  8
0
100
AcDbLine
 10
327.870601223968
 20
177.8793947270995
 30
0.0
 11
327.870601223968
 21
178.3793947270995
 31
0.0
  0
LINE
  5
27B
330
1F
100
AcDbEntity
  8
0
100
AcDbLine
 10
329.370601223968
 20
178.3793947270995
 30
0.0
 11
329.370601223968
 21
177.8793947270995
 31
0.0
  0
LINE
  5
27C
330
1F
100
AcDbEntity
  8
0
100
AcDbLine
 10
339.870601223968
 20
225.3793947270993
 30
0.0
 11
327.870601223968
 21
225.3793947270993
 31
0.0
  0
LINE
  5
27D
330
1F
100
AcDbEntity
  8
0
100
AcDbLine
 10
329.370601223968
 20
224.3214328428487
 30
0.0
 11
338.370601223968
 21
224.3214328428487
 31
0.0
  0
LINE
  5
27E
330
1F
100
AcDbEntity
  8
0
100
AcDbLine
 10
327.870601223968
 20
224.3214328428485
 30
0.0
 11
327.870601223968
 21
225.3793947270993
 31
0.0
  0
LINE
  5
27F
330
1F
100
AcDbEntity
  8
0
100
AcDbLine
 10
339.870601223968
 20
224.3214328428485
 30
0.0
 11
339.870601223968
 21
225.3793947270993
 31
0.0
  0
LINE
  5
280
330
1F
100
AcDbEntity
  8
0
100
AcDbLine
 10
337.670601223968
 20
207.1793947270995
 30
0.0
 11
330.070601223968
 21
207.1793947270995
 31
0.0
  0
LINE
  5
281
330
1F
100
AcDbEntity
  8
0
100
AcDbLine
 10
330.070601223968
 20
207.1793947270995
 30
0.0
 11
330.070601223968
 21
202.6793947270995
 31
0.0
  0
LINE
  5
282
330
1F
100
AcDbEntity
  8
0
100
AcDbLine
 10
330.070601223968
 20
202.6793947270995
 30
0.0
 11
337.670601223968
 21
202.6793947270995
 31
0.0
  0
LINE
  5
283
330
1F
100
AcDbEntity
  8
0
100
AcDbLine
 10
337.670601223968
 20
202.6793947270995
 30
0.0
 11
337.670601223968
 21
207.1793947270995
 31
0.0
  0
LINE
  5
284
330
1F
100
AcDbEntity
  8
0
100
AcDbLine
 10
338.370601223968
 20
177.8793947270995
 30
0.0
 11
329.370601223968
 21
177.8793947270995
 31
0.0
  0
LINE
  5
285
330
1F
100
AcDbEntity
  8
0
100
AcDbLine
 10
339.870601223968
 20
225.6793947270995
 30
0.0
 11
338.370601223968
 21
225.6793947270995
 31
0.0
  0
LINE
  5
286
330
1F
100
AcDbEntity
  8
0
100
AcDbLine
 10
338.370601223968
 20
225.3793947270995
 30
0.0
 11
338.370601223968
 21
225.6793947270995
 31
0.0
  0
LINE
  5
287
330
1F
100
AcDbEntity
  8
0
100
AcDbLine
 10
339.870601223968
 20
225.3793947270995
 30
0.0
 11
339.870601223968
 21
225.6793947270995
 31
0.0
  0
LINE
  5
288
330
1F
100
AcDbEntity
  8
0
100
AcDbLine
 10
329.370601223968
 20
225.6793947270995
 30
0.0
 11
327.870601223968
 21
225.6793947270995
 31
0.0
  0
LINE
  5
289
330
1F
100
AcDbEntity
  8
0
100
AcDbLine
 10
329.370601223968
 20
225.6793947270995
 30
0.0
 11
329.370601223968
 21
225.3793947270995
 31
0.0
  0
LINE
  5
28A
330
1F
100
AcDbEntity
  8
0
100
AcDbLine
 10
327.870601223968
 20
225.3793947270995
 30
0.0
 11
327.870601223968
 21
225.6793947270995
 31
0.0
  0
LINE
  5
28B
330
1F
100
AcDbEntity
  8
0
100
AcDbLine
 10
339.870601223968
 20
255.8214328428494
 30
0.0
 11
338.370601223968
 21
255.8214328428492
 31
0.0
  0
LINE
  5
28C
330
1F
100
AcDbEntity
  8
0
100
AcDbLine
 10
339.870601223968
 20
252.3214328428495
 30
0.0
 11
338.370601223968
 21
252.3214328428495
 31
0.0
  0
LINE
  5
28D
330
1F
100
AcDbEntity
  8
0
100
AcDbLine
 10
338.370601223968
 20
252.3214328428495
 30
0.0
 11
338.370601223968
 21
255.8214328428492
 31
0.0
  0
LINE
  5
28E
330
1F
100
AcDbEntity
  8
0
100
AcDbLine
 10
339.870601223968
 20
252.3214328428495
 30
0.0
 11
339.870601223968
 21
255.8214328428494
 31
0.0
  0
LINE
  5
28F
330
1F
100
AcDbEntity
  8
0
100
AcDbLine
 10
338.370601223968
 20
225.6793947270995
 30
0.0
 11
338.370601223968
 21
252.3214328428495
 31
0.0
  0
LINE
  5
290
330
1F
100
AcDbEntity
  8
0
100
AcDbLine
 10
339.870601223968
 20
225.6793947270995
 30
0.0
 11
339.870601223968
 21
252.3214328428495
 31
0.0
  0
LINE
  5
291
330
1F
100
AcDbEntity
  8
0
100
AcDbLine
 10
329.370601223968
 20
252.3214328428495
 30
0.0
 11
327.870601223968
 21
252.3214328428495
 31
0.0
  0
LINE
  5
292
330
1F
100
AcDbEntity
  8
0
100
AcDbLine
 10
329.370601223968
 20
252.3214328428495
 30
0.0
 11
329.370601223968
 21
225.6793947270995
 31
0.0
  0
LINE
  5
293
330
1F
100
AcDbEntity
  8
0
100
AcDbLine
 10
327.870601223968
 20
225.6793947270995
 30
0.0
 11
327.870601223968
 21
252.3214328428495
 31
0.0
  0
LINE
  5
294
330
1F
100
AcDbEntity
  8
0
100
AcDbLine
 10
329.370601223968
 20
255.8214328428492
 30
0.0
 11
327.870601223968
 21
255.8214328428494
 31
0.0
  0
LINE
  5
295
330
1F
100
AcDbEntity
  8
0
100
AcDbLine
 10
329.370601223968
 20
255.8214328428492
 30
0.0
 11
329.370601223968
 21
252.3214328428495
 31
0.0
  0
LINE
  5
296
330
1F
100
AcDbEntity
  8
0
100
AcDbLine
 10
327.870601223968
 20
252.3214328428495
 30
0.0
 11
327.870601223968
 21
255.8214328428494
 31
0.0
  0
LINE
  5
297
330
1F
100
AcDbEntity
  8
0
100
AcDbLine
 10
329.370601223968
 20
255.8214328428492
 30
0.0
 11
338.370601223968
 21
255.8214328428492
 31
0.0
  0
LINE
  5
298
330
1F
100
AcDbEntity
  8
0
100
AcDbLine
 10
330.720601224004
 20
256.8793947270995
 30
0.0
 11
327.870601223968
 21
256.8793947270995
 31
0.0
  0
SPLINE
  5
299
330
1F
100
AcDbEntity
  8
0
100
AcDbSpline
210
0.0
220
0.0
230
1.0
 70
     8
 71
     3
 72
    22
 73
    18
 74
     0
 42
1E-08
 43
1E-08
 40
0.0
 40
0.0
 40
0.0
 40
0.0
 40
0.1250000000000002
 40
0.1250000000000002
 40
0.2500000000000002
 40
0.2500000000000002
 40
0.3750000000000002
 40
0.3750000000000002
 40
0.5000000000000001
 40
0.5000000000000001
 40
0.6250000000000001
 40
0.6250000000000001
 40
0.7500000000000002
 40
0.7500000000000002
 40
0.8750000000000001
 40
0.8750000000000001
 40
1.0
 40
1.0
 40
1.0
 40
1.0
 10
337.020601224004
 20
256.8793947270995
 30
0.0
 10
337.0206012240064
 20
256.8139366751226
 30
0.0
 10
336.952943196746
 20
256.743315624357
 30
0.0
 10
336.6459255479669
 20
256.6065721487039
 30
0.0
 10
336.4055254645032
 20
256.5408736410283
 30
0.0
 10
335.7904497049942
 20
256.4324191894465
 30
0.0
 10
335.4178549528386
 20
256.3900301685669
 30
0.0
 10
334.6423441654174
 20
256.3358946735326
 30
0.0
 10
334.2418322841281
 20
256.3239647378647
 30
0.0
 10
333.4993701638799
 20
256.3239647378647
 30
0.0
 10
333.0988582825906
 20
256.3358946735326
 30
0.0
 10
332.3233474951694
 20
256.3900301685669
 30
0.0
 10
331.9507527430138
 20
256.4324191894465
 30
0.0
 10
331.3356769835048
 20
256.5408736410283
 30
0.0
 10
331.0952769000411
 20
256.6065721487039
 30
0.0
 10
330.788259251262
 20
256.743315624357
 30
0.0
 10
330.7206012240017
 20
256.8139366751226
 30
0.0
 10
330.720601224004
 20
256.8793947270995
 30
0.0
  0
LINE
  5
29A
330
1F
100
AcDbEntity
  8
0
100
AcDbLine
 10
339.870601223968
 20
256.8793947270995
 30
0.0
 11
337.020601224004
 21
256.8793947270995
 31
0.0
  0
LINE
  5
29B
330
1F
100
AcDbEntity
  8
0
100
AcDbLine
 10
327.870601223968
 20
255.8214328428494
 30
0.0
 11
327.870601223968
 21
256.8793947270995
 31
0.0
  0
LINE
  5
29C
330
1F
100
AcDbEntity
  8
0
100
AcDbLine
 10
339.870601223968
 20
255.8214328428494
 30
0.0
 11
339.870601223968
 21
256.8793947270995
 31
0.0
  0
LINE
  5
29D
330
1F
100
AcDbEntity
  8
0
100
AcDbLine
 10
337.670601223968
 20
238.6793947270995
 30
0.0
 11
330.070601223968
 21
238.6793947270995
 31
0.0
  0
LINE
  5
29E
330
1F
100
AcDbEntity
  8
0
100
AcDbLine
 10
330.070601223968
 20
238.6793947270995
 30
0.0
 11
330.070601223968
 21
234.1793947270995
 31
0.0
  0
LINE
  5
29F
330
1F
100
AcDbEntity
  8
0
100
AcDbLine
 10
330.070601223968
 20
234.1793947270995
 30
0.0
 11
337.670601223968
 21
234.1793947270995
 31
0.0
  0
LINE
  5
2A0
330
1F
100
AcDbEntity
  8
0
100
AcDbLine
 10
337.670601223968
 20
234.1793947270995
 30
0.0
 11
337.670601223968
 21
238.6793947270995
 31
0.0
  0
LINE
  5
2A1
330
1F
100
AcDbEntity
  8
0
100
AcDbLine
 10
342.670601223968
 20
228.8793947270995
 30
0.0
 11
339.870601223968
 21
230.3793947270995
 31
0.0
  0
LINE
  5
2A2
330
1F
100
AcDbEntity
  8
0
100
AcDbLine
 10
342.670601223968
 20
227.8793947270995
 30
0.0
 11
342.670601223968
 21
228.8793947270995
 31
0.0
  0
LINE
  5
2A3
330
1F
100
AcDbEntity
  8
0
100
AcDbLine
 10
341.370601223968
 20
226.3793947270995
 30
0.0
 11
341.9706012239681
 21
226.3793947270995
 31
0.0
  0
LINE
  5
2A4
330
1F
100
AcDbEntity
  8
0
100
AcDbLine
 10
341.170601223968
 20
227.0793947270995
 30
0.0
 11
341.370601223968
 21
226.3793947270995
 31
0.0
  0
LINE
  5
2A5
330
1F
100
AcDbEntity
  8
0
100
AcDbLine
 10
341.170601223968
 20
227.3793947270995
 30
0.0
 11
341.170601223968
 21
227.0793947270995
 31
0.0
  0
LINE
  5
2A6
330
1F
100
AcDbEntity
  8
0
100
AcDbLine
 10
339.870601223968
 20
227.3793947270995
 30
0.0
 11
341.170601223968
 21
227.3793947270995
 31
0.0
  0
LINE
  5
2A7
330
1F
100
AcDbEntity
  8
0
100
AcDbLine
 10
341.9706012239681
 20
226.3793947270995
 30
0.0
 11
342.670601223968
 21
227.8793947270995
 31
0.0
  0
LINE
  5
2A8
330
1F
100
AcDbEntity
  8
0
100
AcDbLine
 10
326.570601223968
 20
227.3793947270995
 30
0.0
 11
327.870601223968
 21
227.3793947270995
 31
0.0
  0
LINE
  5
2A9
330
1F
100
AcDbEntity
  8
0
100
AcDbLine
 10
326.570601223968
 20
227.0793947270995
 30
0.0
 11
326.570601223968
 21
227.3793947270995
 31
0.0
  0
LINE
  5
2AA
330
1F
100
AcDbEntity
  8
0
100
AcDbLine
 10
326.370601223968
 20
226.3793947270995
 30
0.0
 11
326.570601223968
 21
227.0793947270995
 31
0.0
  0
LINE
  5
2AB
330
1F
100
AcDbEntity
  8
0
100
AcDbLine
 10
325.7706012239681
 20
226.3793947270995
 30
0.0
 11
326.370601223968
 21
226.3793947270995
 31
0.0
  0
LINE
  5
2AC
330
1F
100
AcDbEntity
  8
0
100
AcDbLine
 10
325.070601223968
 20
227.8793947270995
 30
0.0
 11
325.7706012239681
 21
226.3793947270995
 31
0.0
  0
LINE
  5
2AD
330
1F
100
AcDbEntity
  8
0
100
AcDbLine
 10
325.070601223968
 20
228.8793947270995
 30
0.0
 11
325.070601223968
 21
227.8793947270995
 31
0.0
  0
LINE
  5
2AE
330
1F
100
AcDbEntity
  8
0
100
AcDbLine
 10
327.870601223968
 20
230.3793947270995
 30
0.0
 11
325.070601223968
 21
228.8793947270995
 31
0.0
  0
LINE
  5
2AF
330
1F
100
AcDbEntity
  8
0
100
AcDbLine
 10
330.720601224004
 20
256.8793947270995
 30
0.0
 11
337.020601224004
 21
256.8793947270995
 31
0.0
  0
LINE
  5
2B0
330
1F
100
AcDbEntity
  8
0
100
AcDbLine
 10
339.870601223968
 20
258.3793947270995
 30
0.0
 11
327.870601223968
 21
258.3793947270995
 31
0.0
  0
LINE
  5
2B1
330
1F
100
AcDbEntity
  8
0
100
AcDbLine
 10
339.870601223968
 20
257.3793947270995
 30
0.0
 11
327.870601223968
 21
257.3793947270995
 31
0.0
  0
LINE
  5
2B2
330
1F
100
AcDbEntity
  8
0
100
AcDbLine
 10
327.870601223968
 20
257.3793947270995
 30
0.0
 11
327.870601223968
 21
258.3793947270995
 31
0.0
  0
LINE
  5
2B3
330
1F
100
AcDbEntity
  8
0
100
AcDbLine
 10
339.870601223968
 20
257.3793947270995
 30
0.0
 11
339.870601223968
 21
258.3793947270995
 31
0.0
  0
LINE
  5
2B4
330
1F
100
AcDbEntity
  8
0
100
AcDbLine
 10
327.870601223968
 20
256.8793947270995
 30
0.0
 11
327.870601223968
 21
257.3793947270995
 31
0.0
  0
LINE
  5
2B5
330
1F
100
AcDbEntity
  8
0
100
AcDbLine
 10
339.870601223968
 20
256.8793947270995
 30
0.0
 11
339.870601223968
 21
257.3793947270995
 31
0.0
  0
LINE
  5
2B6
330
1F
100
AcDbEntity
  8
0
100
AcDbLine
 10
339.870601223968
 20
184.8793947270995
 30
0.0
 11
341.6246600531521
 21
184.8793947270995
 31
0.0
  0
ARC
  5
2B7
330
1F
100
AcDbEntity
  8
0
100
AcDbCircle
 10
341.6246600531521
 20
185.1793947270995
 30
0.0
 40
0.3000000000000114
100
AcDbArc
 50
270.0000000000008
 51
348.6900674113299
  0
LINE
  5
2B8
330
1F
100
AcDbEntity
  8
0
100
AcDbLine
 10
341.9188342557416
 20
185.1205598859694
 30
0.0
 11
342.0706012239683
 21
185.8793947270995
 31
0.0
  0
LINE
  5
2B9
330
1F
100
AcDbEntity
  8
0
100
AcDbLine
 10
342.0706012239683
 20
185.8793947270995
 30
0.0
 11
342.270601223968
 21
185.8793947270995
 31
0.0
  0
LINE
  5
2BA
330
1F
100
AcDbEntity
  8
0
100
AcDbLine
 10
342.270601223968
 20
185.8793947270995
 30
0.0
 11
343.270601223968
 21
183.3793947270995
 31
0.0
  0
LINE
  5
2BB
330
1F
100
AcDbEntity
  8
0
100
AcDbLine
 10
343.270601223968
 20
183.3793947270995
 30
0.0
 11
343.270601223968
 21
182.3793947270995
 31
0.0
  0
ARC
  5
2BC
330
1F
100
AcDbEntity
  8
0
100
AcDbCircle
 10
342.770601223968
 20
182.3793947270995
 30
0.0
 40
0.5
100
AcDbArc
 50
270.0000000000008
 51
0.0
  0
LINE
  5
2BD
330
1F
100
AcDbEntity
  8
0
100
AcDbLine
 10
342.770601223968
 20
181.8793947270995
 30
0.0
 11
339.870601223968
 21
181.8793947270995
 31
0.0
  0
ARC
  5
2BE
330
1F
100
AcDbEntity
  8
0
100
AcDbCircle
 10
324.9706012239681
 20
182.3793947270995
 30
0.0
 40
0.5
100
AcDbArc
 50
180.0
 51
270.0000000000008
  0
LINE
  5
2BF
330
1F
100
AcDbEntity
  8
0
100
AcDbLine
 10
324.4706012239681
 20
182.3793947270995
 30
0.0
 11
324.4706012239681
 21
183.3793947270995
 31
0.0
  0
LINE
  5
2C0
330
1F
100
AcDbEntity
  8
0
100
AcDbLine
 10
324.4706012239681
 20
183.3793947270995
 30
0.0
 11
325.4706012239681
 21
185.8793947270995
 31
0.0
  0
LINE
  5
2C1
330
1F
100
AcDbEntity
  8
0
100
AcDbLine
 10
325.4706012239681
 20
185.8793947270995
 30
0.0
 11
325.6706012239683
 21
185.8793947270995
 31
0.0
  0
LINE
  5
2C2
330
1F
100
AcDbEntity
  8
0
100
AcDbLine
 10
325.6706012239683
 20
185.8793947270995
 30
0.0
 11
325.8223681921945
 21
185.1205598859694
 31
0.0
  0
ARC
  5
2C3
330
1F
100
AcDbEntity
  8
0
100
AcDbCircle
 10
326.1165423947841
 20
185.1793947270995
 30
0.0
 40
0.3000000000000114
100
AcDbArc
 50
191.3099325886717
 51
269.9999999344939
  0
LINE
  5
2C4
330
1F
100
AcDbEntity
  8
0
100
AcDbLine
 10
326.1165423944411
 20
184.8793947270995
 30
0.0
 11
327.870601223968
 21
184.8793947270995
 31
0.0
  0
LINE
  5
2C5
330
1F
100
AcDbEntity
  8
0
100
AcDbLine
 10
327.870601223968
 20
181.8793947270995
 30
0.0
 11
324.9706012239681
 21
181.8793947270995
 31
0.0
  0
LINE
  5
2C6
330
1F
100
AcDbEntity
  8
0
100
AcDbLine
 10
341.870601223968
 20
196.3793947270995
 30
0.0
 11
339.870601223968
 21
196.3793947270995
 31
0.0
  0
LINE
  5
2C7
330
1F
100
AcDbEntity
  8
0
100
AcDbLine
 10
341.870601223968
 20
196.3793947270995
 30
0.0
 11
341.870601223968
 21
195.6793947270995
 31
0.0
  0
LINE
  5
2C8
330
1F
100
AcDbEntity
  8
0
100
AcDbLine
 10
341.870601223968
 20
195.6793947270995
 30
0.0
 11
339.870601223968
 21
195.6793947270995
 31
0.0
  0
LINE
  5
2C9
330
1F
100
AcDbEntity
  8
0
100
AcDbLine
 10
341.870601223968
 20
188.0793947270995
 30
0.0
 11
339.870601223968
 21
188.0793947270995
 31
0.0
  0
LINE
  5
2CA
330
1F
100
AcDbEntity
  8
0
100
AcDbLine
 10
341.870601223968
 20
188.0793947270995
 30
0.0
 11
341.870601223968
 21
187.3793947270995
 31
0.0
  0
LINE
  5
2CB
330
1F
100
AcDbEntity
  8
0
100
AcDbLine
 10
341.870601223968
 20
187.3793947270995
 30
0.0
 11
339.870601223968
 21
187.3793947270995
 31
0.0
  0
LINE
  5
2CC
330
1F
100
AcDbEntity
  8
0
100
AcDbLine
 10
341.870601223968
 20
195.6793947270995
 30
0.0
 11
341.870601223968
 21
188.0793947270995
 31
0.0
  0
LINE
  5
2CD
330
1F
100
AcDbEntity
  8
0
100
AcDbLine
 10
325.870601223968
 20
193.6793947270995
 30
0.0
 11
327.870601223968
 21
193.6793947270995
 31
0.0
  0
LINE
  5
2CE
330
1F
100
AcDbEntity
  8
0
100
AcDbLine
 10
325.870601223968
 20
193.6793947270995
 30
0.0
 11
325.870601223968
 21
194.3793947270995
 31
0.0
  0
LINE
  5
2CF
330
1F
100
AcDbEntity
  8
0
100
AcDbLine
 10
325.870601223968
 20
194.3793947270995
 30
0.0
 11
327.870601223968
 21
194.3793947270995
 31
0.0
  0
LINE
  5
2D0
330
1F
100
AcDbEntity
  8
0
100
AcDbLine
 10
325.870601223968
 20
188.0793947270995
 30
0.0
 11
327.870601223968
 21
188.0793947270995
 31
0.0
  0
LINE
  5
2D1
330
1F
100
AcDbEntity
  8
0
100
AcDbLine
 10
325.870601223968
 20
188.0793947270995
 30
0.0
 11
325.870601223968
 21
193.6793947270995
 31
0.0
  0
LINE
  5
2D2
330
1F
100
AcDbEntity
  8
0
100
AcDbLine
 10
325.870601223968
 20
187.3793947270995
 30
0.0
 11
327.870601223968
 21
187.3793947270995
 31
0.0
  0
LINE
  5
2D3
330
1F
100
AcDbEntity
  8
0
100
AcDbLine
 10
325.870601223968
 20
187.3793947270995
 30
0.0
 11
325.870601223968
 21
188.0793947270995
 31
0.0
  0
LINE
  5
2D4
330
1F
100
AcDbEntity
  8
0
100
AcDbLine
 10
345.070601223968
 20
237.1413792716495
 30
0.0
 11
345.070601223968
 21
239.9413792716495
 31
0.0
  0
LINE
  5
2D5
330
1F
100
AcDbEntity
  8
0
100
AcDbLine
 10
344.070601223968
 20
236.1413792716495
 30
0.0
 11
345.070601223968
 21
237.1413792716495
 31
0.0
  0
LINE
  5
2D6
330
1F
100
AcDbEntity
  8
0
100
AcDbLine
 10
339.8706012239679
 20
236.1413792716491
 30
0.0
 11
344.070601223968
 21
236.1413792716495
 31
0.0
  0
LINE
  5
2D7
330
1F
100
AcDbEntity
  8
0
100
AcDbLine
 10
344.070601223968
 20
240.9413792716495
 30
0.0
 11
339.8706012239679
 21
240.9413792716495
 31
0.0
  0
LINE
  5
2D8
330
1F
100
AcDbEntity
  8
0
100
AcDbLine
 10
345.070601223968
 20
239.9413792716495
 30
0.0
 11
344.070601223968
 21
240.9413792716495
 31
0.0
  0
ARC
  5
2D9
330
1F
100
AcDbEntity
  8
0
100
AcDbCircle
 10
326.9706012239681
 20
234.5969777502695
 30
0.0
 40
1.0
100
AcDbArc
 50
25.84193276318054
 51
90.0
  0
LINE
  5
2DA
330
1F
100
AcDbEntity
  8
0
100
AcDbLine
 10
326.9706012239681
 20
235.5969777502695
 30
0.0
 11
324.1705360149242
 21
235.5969294179304
 31
0.0
  0
LINE
  5
2DB
330
1F
100
AcDbEntity
  8
0
100
AcDbLine
 10
324.1705360149242
 20
235.5969294179304
 30
0.0
 11
323.8705661730522
 21
235.8969338230901
 31
0.0
  0
LINE
  5
2DC
330
1F
100
AcDbEntity
  8
0
100
AcDbLine
 10
323.8705661730522
 20
235.8969338230901
 30
0.0
 11
323.8706388890893
 21
240.0970907456704
 31
0.0
  0
LINE
  5
2DD
330
1F
100
AcDbEntity
  8
0
100
AcDbLine
 10
323.8706388890893
 20
240.0970907456704
 30
0.0
 11
324.17043983666
 21
240.3969239544947
 31
0.0
  0
LINE
  5
2DE
330
1F
100
AcDbEntity
  8
0
100
AcDbLine
 10
324.17043983666
 20
240.3969239544947
 30
0.0
 11
326.9706012239681
 21
240.3969777502695
 31
0.0
  0
ARC
  5
2DF
330
1F
100
AcDbEntity
  8
0
100
AcDbCircle
 10
326.9706012239681
 20
241.3969777502695
 30
0.0
 40
1.0
100
AcDbArc
 50
270.0000000000008
 51
334.1580672368203
  0
LINE
  5
2E0
330
1F
100
AcDbEntity
  8
0
100
AcDbLine
 10
336.270601223968
 20
238.6793947270995
 30
0.0
 11
336.270601223968
 21
238.0347982657104
 31
0.0
  0
LINE
  5
2E1
330
1F
100
AcDbEntity
  8
0
100
AcDbLine
 10
331.4706012239681
 20
238.6793947270995
 30
0.0
 11
331.4706012239681
 21
238.0347982657104
 31
0.0
  0
LINE
  5
2E2
330
1F
100
AcDbEntity
  8
0
100
AcDbLine
 10
331.4706012239681
 20
238.0347982657104
 30
0.0
 11
336.270601223968
 21
238.0347982657104
 31
0.0
  0
LINE
  5
2E3
330
1F
100
AcDbEntity
  8
0
100
AcDbLine
 10
335.8245400682693
 20
238.0347982657104
 30
0.0
 11
335.8245400682693
 21
234.2462165990118
 31
0.0
  0
LINE
  5
2E4
330
1F
100
AcDbEntity
  8
0
100
AcDbLine
 10
331.9166623796668
 20
234.2462165990118
 30
0.0
 11
335.8245400682693
 21
234.2462165990118
 31
0.0
  0
LINE
  5
2E5
330
1F
100
AcDbEntity
  8
0
100
AcDbLine
 10
331.9166623796668
 20
238.0347982657104
 30
0.0
 11
331.9166623796668
 21
234.2462165990118
 31
0.0
  0
LINE
  5
2E6
330
1F
100
AcDbEntity
  8
0
100
AcDbLine
 10
335.020601223968
 20
234.2462165990118
 30
0.0
 11
335.020601223968
 21
234.1793947270995
 31
0.0
  0
LINE
  5
2E7
330
1F
100
AcDbEntity
  8
0
100
AcDbLine
 10
332.720601223968
 20
234.2462165990118
 30
0.0
 11
332.720601223968
 21
234.1793947270995
 31
0.0
  0
DIMENSION
  5
2E8
330
1F
100
AcDbEntity
  8
DIMENSIONS
100
AcDbDimension
  2
_D_3
 10
339.8706012239679
 20
279.7837349364175
 30
0.0
 11
363.444255324996
 21
279.7837349364175
 31
0.0
 70
   160
  1
<>
 71
     2
 42
-1.0
  3
SLDDIMSTYLE2
100
AcDbAlignedDimension
 13
327.8706012239679
 23
255.8214328428494
 33
0.0
 14
339.8706012239679
 24
255.8214328428494
 34
0.0
 52
0.0
100
AcDbRotatedDimension
  0
DIMENSION
  5
2FD
330
1F
100
AcDbEntity
  8
DIMENSIONS
100
AcDbDimension
  2
_D_4
 10
345.0692289934711
 20
157.8798621224461
 30
0.0
 11
372.0664895557231
 21
157.8793947270995
 31
0.0
 70
   160
  1
<>
 71
     2
 42
-1.0
  3
SLDDIMSTYLE0
100
AcDbAlignedDimension
 13
323.8705661730522
 23
235.8969338230901
 33
0.0
 14
345.070601223968
 24
237.1413792716495
 34
0.0
 52
0.0
 50
-0.0009919443735759742
100
AcDbRotatedDimension
  0
ENDSEC
  0
SECTION
  2
OBJECTS
  0
DICTIONARY
  5
C
330
0
100
AcDbDictionary
281
     1
  3
ACAD_GROUP
350
D
  3
ACAD_PLOTSTYLENAME
350
E
  3
ACAD_MLINESTYLE
350
17
  3
ACAD_PLOTSETTINGS
350
19
  3
ACAD_LAYOUT
350
1A
  3
ACAD_SCALELIST
350
47
  3
DWGPROPS
350
311
  0
DICTIONARY
  5
D
102
{ACAD_REACTORS
330
C
102
}
330
C
100
AcDbDictionary
281
     1
  0
ACDBDICTIONARYWDFLT
  5
E
102
{ACAD_REACTORS
330
C
102
}
330
C
100
AcDbDictionary
281
     1
  3
Normal
350
F
100
AcDbDictionaryWithDefault
340
F
  0
ACDBPLACEHOLDER
  5
F
102
{ACAD_REACTORS
330
E
102
}
330
E
  0
DICTIONARY
  5
17
102
{ACAD_REACTORS
330
C
102
}
330
C
100
AcDbDictionary
281
     1
  3
Standard
350
18
  0
MLINESTYLE
  5
18
102
{ACAD_REACTORS
330
17
102
}
330
17
100
AcDbMlineStyle
  2
Standard
 70
     0
  3

 62
   256
 51
90.0
 52
90.0
 71
     2
 49
0.5
 62
   256
  6
BYLAYER
 49
-0.5
 62
   256
  6
BYLAYER
  0
DICTIONARY
  5
19
102
{ACAD_REACTORS
330
C
102
}
330
C
100
AcDbDictionary
281
     1
  0
DICTIONARY
  5
1A
102
{ACAD_REACTORS
330
C
102
}
330
C
100
AcDbDictionary
281
     1
  3
Layout1
350
1E
  3
Model
350
22
  3
Layout2
350
26
  0
LAYOUT
  5
1E
102
{ACAD_REACTORS
330
1A
102
}
330
1A
100
AcDbPlotSettings
  1

  2
none_device
  4

  6

 40
0.0
 41
0.0
 42
0.0
 43
0.0
 44
0.0
 45
0.0
 46
0.0
 47
0.0
 48
0.0
 49
0.0
140
0.0
141
0.0
  6

142
1.0
143
1.0
 70
   688
 72
     1
 73
     0
 74
     5
  7

 75
    16
147
1.0
148
0.0
149
0.0
100
AcDbLayout
  1
Layout1
 70
     1
 71
     1
 10
0.0
 20
0.0
 11
420.0
 21
297.0
 12
0.0
 22
0.0
 32
0.0
 14
1E+20
 24
1E+20
 34
1E+20
 15
-1E+20
 25
-1E+20
 35
-1E+20
146
0.0
 13
0.0
 23
0.0
 33
0.0
 16
1.0
 26
0.0
 36
0.0
 17
0.0
 27
1.0
 37
0.0
 76
     0
330
1B
  0
LAYOUT
  5
22
102
{ACAD_REACTORS
330
1A
102
}
330
1A
100
AcDbPlotSettings
  1

  2
none_device
  4
Letter_(8.50_x_11.00_Inches)
  6

 40
6.35
 41
6.35
 42
6.35000508
 43
6.35000508
 44
215.9
 45
279.4
 46
0.0
 47
0.0
 48
0.0
 49
0.0
140
0.0
141
0.0
  6

142
1.0
143
1.0
 70
  1712
 72
     1
 73
     0
 74
     0
  7

 75
     0
147
1.0
148
0.0
149
0.0
100
AcDbLayout
  1
Model
 70
     1
 71
     0
 10
0.0
 20
0.0
 11
558.8
 21
431.8
 12
0.0
 22
0.0
 32
0.0
 14
0.0
 24
0.0
 34
0.0
 15
558.8
 25
431.8
 35
0.0
146
0.0
 13
0.0
 23
0.0
 33
0.0
 16
1.0
 26
0.0
 36
0.0
 17
0.0
 27
1.0
 37
0.0
 76
     0
330
1F
  0
LAYOUT
  5
26
102
{ACAD_REACTORS
330
1A
102
}
330
1A
100
AcDbPlotSettings
  1

  2
none_device
  4

  6

 40
0.0
 41
0.0
 42
0.0
 43
0.0
 44
0.0
 45
0.0
 46
0.0
 47
0.0
 48
0.0
 49
0.0
140
0.0
141
0.0
  6

142
1.0
143
1.0
 70
   688
 72
     1
 73
     0
 74
     5
  7

 75
    16
147
1.0
148
0.0
149
0.0
100
AcDbLayout
  1
Layout2
 70
     1
 71
     2
 10
0.0
 20
0.0
 11
0.0
 21
0.0
 12
0.0
 22
0.0
 32
0.0
 14
0.0
 24
0.0
 34
0.0
 15
0.0
 25
0.0
 35
0.0
146
0.0
 13
0.0
 23
0.0
 33
0.0
 16
1.0
 26
0.0
 36
0.0
 17
0.0
 27
1.0
 37
0.0
 76
     0
330
23
  0
DICTIONARY
  5
47
102
{ACAD_REACTORS
330
C
102
}
330
C
100
AcDbDictionary
281
     1
  3
A0
350
48
  3
A1
350
49
  3
A2
350
4A
  3
A3
350
4B
  3
A4
350
4C
  3
A5
350
4D
  3
A6
350
4E
  3
A7
350
4F
  3
A8
350
50
  3
A9
350
51
  3
B0
350
52
  3
B1
350
53
  3
B2
350
54
  3
B3
350
55
  3
B4
350
56
  3
B5
350
57
  3
B6
350
58
  0
SCALE
  5
48
102
{ACAD_REACTORS
330
47
102
}
330
47
100
AcDbScale
 70
     0
300
1:1
140
1.0
141
1.0
290
     1
  0
SCALE
  5
49
102
{ACAD_REACTORS
330
47
102
}
330
47
100
AcDbScale
 70
     0
300
1:2
140
1.0
141
2.0
290
     0
  0
SCALE
  5
4A
102
{ACAD_REACTORS
330
47
102
}
330
47
100
AcDbScale
 70
     0
300
1:4
140
1.0
141
4.0
290
     0
  0
SCALE
  5
4B
102
{ACAD_REACTORS
330
47
102
}
330
47
100
AcDbScale
 70
     0
300
1:5
140
1.0
141
5.0
290
     0
  0
SCALE
  5
4C
102
{ACAD_REACTORS
330
47
102
}
330
47
100
AcDbScale
 70
     0
300
1:8
140
1.0
141
8.0
290
     0
  0
SCALE
  5
4D
102
{ACAD_REACTORS
330
47
102
}
330
47
100
AcDbScale
 70
     0
300
1:10
140
1.0
141
10.0
290
     0
  0
SCALE
  5
4E
102
{ACAD_REACTORS
330
47
102
}
330
47
100
AcDbScale
 70
     0
300
1:16
140
1.0
141
16.0
290
     0
  0
SCALE
  5
4F
102
{ACAD_REACTORS
330
47
102
}
330
47
100
AcDbScale
 70
     0
300
1:20
140
1.0
141
20.0
290
     0
  0
SCALE
  5
50
102
{ACAD_REACTORS
330
47
102
}
330
47
100
AcDbScale
 70
     0
300
1:30
140
1.0
141
30.0
290
     0
  0
SCALE
  5
51
102
{ACAD_REACTORS
330
47
102
}
330
47
100
AcDbScale
 70
     0
300
1:40
140
1.0
141
40.0
290
     0
  0
SCALE
  5
52
102
{ACAD_REACTORS
330
47
102
}
330
47
100
AcDbScale
 70
     0
300
1:50
140
1.0
141
50.0
290
     0
  0
SCALE
  5
53
102
{ACAD_REACTORS
330
47
102
}
330
47
100
AcDbScale
 70
     0
300
1:100
140
1.0
141
100.0
290
     0
  0
SCALE
  5
54
102
{ACAD_REACTORS
330
47
102
}
330
47
100
AcDbScale
 70
     0
300
2:1
140
2.0
141
1.0
290
     0
  0
SCALE
  5
55
102
{ACAD_REACTORS
330
47
102
}
330
47
100
AcDbScale
 70
     0
300
4:1
140
4.0
141
1.0
290
     0
  0
SCALE
  5
56
102
{ACAD_REACTORS
330
47
102
}
330
47
100
AcDbScale
 70
     0
300
8:1
140
8.0
141
1.0
290
     0
  0
SCALE
  5
57
102
{ACAD_REACTORS
330
47
102
}
330
47
100
AcDbScale
 70
     0
300
10:1
140
10.0
141
1.0
290
     0
  0
SCALE
  5
58
102
{ACAD_REACTORS
330
47
102
}
330
47
100
AcDbScale
 70
     0
300
100:1
140
100.0
141
1.0
290
     0
  0
SUN
  5
5D
330
29
100
AcDbSun
 90
        1
290
     0
 63
     7
 40
1.0
291
     1
 91
  2455826
 92
 54000000
292
     0
 70
     2
 71
   256
280
     1
1001
ACAD
1000
AcDbSavedByObjectVersion
1070
     0
  0
XRECORD
  5
311
102
{ACAD_REACTORS
330
C
102
}
330
C
100
AcDbXrecord
280
     1
  1
DWGPROPS COOKIE
  2

  3

  4

  6

  7

  8
wastin
  9

300
=
301
=
302
=
303
=
304
=
305
=
306
=
307
=
308
=
309
=
 40
0.0
 41
2460691.758591574
 42
2460691.758592407
  1

 90
        0
  0
ENDSEC
  0
SECTION
  2
THUMBNAILIMAGE
 90
     1943
310
93070000020103010000500000000253010000300700000000000000000000000000000000000000000000000000000000000000000000000000000000000000000000000000000000000000000000000000000000000000000000000000000000000000000000280000000700000061000000010008000000000008030000
310
080009000A000B00000100000000000000000000000080000080000000808000800000008000800080800000C0C0C000C0DCC000F0CAA6000020400000206000002080000020A0000020C0000020E00000400000004020000040400000406000004080000040A0000040C0000040E000006000000060200000604000006060
310
00006080000060A0000060C0000060E00000800000008020000080400000806000008080000080A0000080C0000080E00000A0000000A0200000A0400000A0600000A0800000A0A00000A0C00000A0E00000C0000000C0200000C0400000C0600000C0800000C0A00000C0C00000C0E00000E0000000E0200000E0400000E0
310
600000E0800000E0A00000E0C00000E0E00040000000400020004000400040006000400080004000A0004000C0004000E00040200000402020004020400040206000402080004020A0004020C0004020E00040400000404020004040400040406000404080004040A0004040C0004040E00040600000406020004060400040
310
606000406080004060A0004060C0004060E00040800000408020004080400040806000408080004080A0004080C0004080E00040A0000040A0200040A0400040A0600040A0800040A0A00040A0C00040A0E00040C0000040C0200040C0400040C0600040C0800040C0A00040C0C00040C0E00040E0000040E0200040E04000
310
40E0600040E0800040E0A00040E0C00040E0E00080000000800020008000400080006000800080008000A0008000C0008000E00080200000802020008020400080206000802080008020A0008020C0008020E00080400000804020008040400080406000804080008040A0008040C0008040E0008060000080602000806040
310
0080606000806080008060A0008060C0008060E00080800000808020008080400080806000808080008080A0008080C0008080E00080A0000080A0200080A0400080A0600080A0800080A0A00080A0C00080A0E00080C0000080C0200080C0400080C0600080C0800080C0A00080C0C00080C0E00080E0000080E0200080E0
310
400080E0600080E0800080E0A00080E0C00080E0E000C0000000C0002000C0004000C0006000C0008000C000A000C000C000C000E000C0200000C0202000C0204000C0206000C0208000C020A000C020C000C020E000C0400000C0402000C0404000C0406000C0408000C040A000C040C000C040E000C0600000C0602000C0
310
604000C0606000C0608000C060A000C060C000C060E000C0800000C0802000C0804000C0806000C0808000C080A000C080C000C080E000C0A00000C0A02000C0A04000C0A06000C0A08000C0A0A000C0A0C000C0A0E000C0C00000C0C02000C0C04000C0C06000C0C08000C0C0A000F0FBFF00A4A0A000808080000000FF00
310
00FF000000FFFF00FF000000FF00FF00FFFF0000FFFFFF00FFFFFFFFFFFFFF00FFFFFFFFFFFFFF00FFFFFFFFFFFFFF00FFFFFFFFFFFFFF00FFFFFFFFFFFFFF00FFFFFFFFFFFFFF00FFFFFFFFFFFFFF00FFFFFFFFFFFFFF00FFFFFFFFFFFFFF00FFFFFFFFFFFFFF00FFFFFFFFFFFFFF00FFFFFFFFFFFFFF00FFFFFFFFFFFFFF
310
00FFFFFFFFFFFFFF00FFFFFFFFFFFFFF00FFFFFFFFFFFFFF00FFFFFFFFFFFFFF00FFFFFFFFFFFFFF00FFFFFFFFFFFFFF00FFFFFFFFFFFFFF00FFFFFFFFFFFFFF00FFFFFFFFFFFFFF00FFFFFFFFFFFFFF00FFFFFFFFFFFFFF00FFFFFFFFFFFFFF00FFFFFFFFFFFFFF00FFFFFFFFFFFFFF00FFFFFFFFFFFFFF00FFFFFFFFFFFF
310
FF00FFFFFFFFFFFFFF00FFFFFFFFFFFFFF00FFFFFFFFFFFFFF00FFFFFFFFFFFFFF00FFFFFFFFFFFFFF00FFFFFFFFFFFFFF00FFFFFFFFFFFFFF00FFFFFFFFFFFFFF00FFFFFFFFFFFFFF00FFFFFFFFFFFFFF00FFFFFFFFFFFFFF00FFFFFFFFFFFFFF00FFFFFFFFFFFFFF00FFFFFFFFFFFFFF00FFFFFFFFFFFFFF00FFFFFFFFFF
310
FFFF00FFFFFFFFFFFFFF00FFFFFFFFFFFFFF00FFFFFFFFFFFFFF00FFFFFFFFFFFFFF00FFFFFFFFFFFFFF00FFFFFFFFFFFFFF00FFFFFFFFFFFFFF00FFFFFFFFFFFFFF00FFFFFFFFFFFFFF00FFFFFFFFFFFFFF00FFFFFFFFFFFFFF00FFFFFFFFFFFFFF00FFFFFFFFFFFFFF00FFFFFFFFFFFFFF00FFFFFFFFFFFFFF00FFFFFFFF
310
FFFFFF00FFFFFFFFFFFFFF00FFFFFFFFFFFFFF00FFFFFFFFFFFFFF00FFFFFFFFFFFFFF00FFFFFFFFFFFFFF00FFFFFFFFFFFFFF00FFFFFFFFFFFFFF00FFFFFFFFFFFFFF00FFFFFFFFFFFFFF00FFFFFFFFFFFFFF00FFFFFFFFFFFFFF00FFFFFFFFFFFFFF00FFFFFFFFFFFFFF00FFFFFFFFFFFFFF00FFFFFFFFFFFFFF00FFFFFF
310
FFFFFFFF00FFFFFFFFFFFFFF00FFFFFFFFFFFFFF00FFFFFFFFFFFFFF00FFFFFFFFFFFFFF00FFFFFFFFFFFFFF00FFFFFFFFFFFFFF00FFFFFFFFFFFFFF00FFFFFFFFFFFFFF00FFFFFFFFFFFFFF00FFFFFFFFFFFFFF00FFFFFFFFFFFFFF00FFFFFFFFFFFFFF00FFFFFFFFFFFFFF00FFFFFFFFFFFFFF00FFFFFFFFFFFFFF00FFFF
310
FFFFFFFFFF00FFFFFFFFFFFFFF00FFFFFFFFFFFFFF00FFFFFFFFFFFFFF00FFFFFFFFFFFFFF00
  0
ENDSEC
  0
EOF
