999
LibreDWG 0.14
  0
SECTION
  2
HEADER
  9
$ACADVER
  1
AC1015
  9
$ACADMAINTVER
 70
    55
  9
$DWGCODEPAGE
  3
ANSI_1252
  9
$INSBASE
 10
0.0
 20
0.0
 30
0.0
  9
$EXTMIN
 10
0.0
 20
0.0
 30
0.0
  9
$EXTMAX
 10
279.4
 20
215.9
 30
0.0
  9
$LIMMIN
 10
0.0
 20
0.0
  9
$LIMMAX
 10
279.4
 20
215.9
  9
$ORTHOMODE
 70
     0
  9
$REGENMODE
 70
     1
  9
$FILLMODE
 70
     1
  9
$QTEXTMODE
 70
     0
  9
$MIRRTEXT
 70
     1
  9
$LTSCALE
 40
1.0
  9
$ATTMODE
 70
     1
  9
$TEXTSIZE
 40
2.822222222222222
  9
$TRACEWID
 40
1.0
  9
$TEXTSTYLE
  7
Standard
  9
$CLAYER
  8
0
  9
$CELTYPE
  6
ByLayer
  9
$CECOLOR
 62
   256
  9
$CELTSCALE
 40
1.0
  9
$DISPSILH
 70
     0
  9
$DIMSCALE
 40
1.0
  9
$DIMASZ
 40
3.302
  9
$DIMEXO
 40
1.27
  9
$DIMDLI
 40
3.75
  9
$DIMRND
 40
0.0
  9
$DIMDLE
 40
0.0
  9
$DIMEXE
 40
3.175
  9
$DIMTP
 40
0.0
  9
$DIMTM
 40
0.0
  9
$DIMTXT
 40
2.822222222222222
  9
$DIMCEN
 40
2.5
  9
$DIMTSZ
 40
0.0
  9
$DIMTOL
 70
     0
  9
$DIMLIM
 70
     0
  9
$DIMTIH
 70
     1
  9
$DIMTOH
 70
     1
  9
$DIMSE1
 70
     0
  9
$DIMSE2
 70
     0
  9
$DIMTAD
 70
     0
  9
$DIMZIN
 70
     1
  9
$DIMBLK
  1

  9
$DIMASO
 70
     1
  9
$DIMSHO
 70
     1
  9
$DIMPOST
  1

  9
$DIMAPOST
  1

  9
$DIMALT
 70
     0
  9
$DIMALTD
 70
     3
  9
$DIMALTF
 40
0.03937007874015748
  9
$DIMLFAC
 40
1.0
  9
$DIMTOFL
 70
     1
  9
$DIMTVP
 40
0.0
  9
$DIMTIX
 70
     0
  9
$DIMSOXD
 70
     0
  9
$DIMSAH
 70
     0
  9
$DIMBLK1
  1

  9
$DIMBLK2
  1

  9
$DIMSTYLE
  2
ISO-25
  9
$DIMCLRD
 70
     0
  9
$DIMCLRE
 70
     0
  9
$DIMCLRT
 70
     0
  9
$DIMTFAC
 40
1.0
  9
$DIMGAP
 40
1.524
  9
$DIMJUST
 70
     0
  9
$DIMSD1
 70
     0
  9
$DIMSD2
 70
     0
  9
$DIMTOLJ
 70
     0
  9
$DIMTZIN
 70
     1
  9
$DIMALTZ
 70
     0
  9
$DIMALTTZ
 70
     0
  9
$DIMUPT
 70
     0
  9
$DIMDEC
 70
     2
  9
$DIMTDEC
 70
     2
  9
$DIMALTU
 70
     2
  9
$DIMALTTD
 70
     3
  9
$DIMTXSTY
  7
Standard
  9
$DIMAUNIT
 70
     0
  9
$DIMADEC
 70
     0
  9
$DIMALTRND
 40
0.0
  9
$DIMAZIN
 70
     0
  9
$DIMDSEP
 70
    44
  9
$DIMATFIT
 70
     3
  9
$DIMFRAC
 70
     0
  9
$DIMLDRBLK
  1

  9
$DIMLUNIT
 70
     2
  9
$DIMLWD
 70
    -2
  9
$DIMLWE
 70
    -2
  9
$DIMTMOVE
 70
     0
  9
$LUNITS
 70
     2
  9
$LUPREC
 70
     1
  9
$AXISMODE
 70
     0
  9
$AXISUNIT
 10
0.0
 20
0.0
  9
$SKETCHINC
 40
1.0
  9
$FILLETRAD
 40
0.0
  9
$AUNITS
 70
     0
  9
$AUPREC
 70
     0
  9
$MENU
  1
.
  9
$ELEVATION
 40
0.0
  9
$PELEVATION
 40
0.0
  9
$THICKNESS
 40
0.0
  9
$LIMCHECK
 70
     0
  9
$CHAMFERA
 40
0.0
  9
$CHAMFERB
 40
0.0
  9
$CHAMFERC
 40
0.0
  9
$CHAMFERD
 40
0.0
  9
$SKPOLY
 70
     0
  9
$TDCREATE
 40
2460691.402754450
  9
$TDUCREATE
 40
2460691.654754450
  9
$TDUPDATE
 40
2460691.402755300
  9
$TDUUPDATE
 40
2460691.654755300
  9
$TDINDWG
 40
0.000000010
  9
$TDUSRTIMER
 40
0.000000010
  9
$USRTIMER
 70
     1
  9
$ANGBASE
 50
0.0
  9
$ANGDIR
 70
     0
  9
$PDMODE
 70
     0
  9
$PDSIZE
 40
-1.0
  9
$PLINEWID
 40
0.0
  9
$SPLFRAME
 70
     0
  9
$SPLINETYPE
 70
     6
  9
$SPLINESEGS
 70
     8
  9
$HANDSEED
  5
25E
  9
$SURFTAB1
 70
     6
  9
$SURFTAB2
 70
     6
  9
$SURFTYPE
 70
     6
  9
$SURFU
 70
     6
  9
$SURFV
 70
     6
  9
$UCSBASE
  2

  9
$UCSORG
 10
0.0
 20
0.0
 30
0.0
  9
$UCSXDIR
 10
1.0
 20
0.0
 30
0.0
  9
$UCSYDIR
 10
0.0
 20
1.0
 30
0.0
  9
$UCSORTHOREF
  2

  9
$UCSORTHOVIEW
 70
     0
  9
$UCSORGTOP
 10
0.0
 20
0.0
 30
0.0
  9
$UCSORGBOTTOM
 10
0.0
 20
0.0
 30
0.0
  9
$UCSORGLEFT
 10
0.0
 20
0.0
 30
0.0
  9
$UCSORGRIGHT
 10
0.0
 20
0.0
 30
0.0
  9
$UCSORGFRONT
 10
0.0
 20
0.0
 30
0.0
  9
$UCSORGBACK
 10
0.0
 20
0.0
 30
0.0
  9
$PUCSBASE
  2

  9
$PUCSORG
 10
0.0
 20
0.0
 30
0.0
  9
$PUCSXDIR
 10
1.0
 20
0.0
 30
0.0
  9
$PUCSYDIR
 10
0.0
 20
1.0
 30
0.0
  9
$PUCSORTHOREF
  2

  9
$PUCSORTHOVIEW
 70
     0
  9
$PUCSORGTOP
 10
0.0
 20
0.0
 30
0.0
  9
$PUCSORGBOTTOM
 10
0.0
 20
0.0
 30
0.0
  9
$PUCSORGLEFT
 10
0.0
 20
0.0
 30
0.0
  9
$PUCSORGRIGHT
 10
0.0
 20
0.0
 30
0.0
  9
$PUCSORGFRONT
 10
0.0
 20
0.0
 30
0.0
  9
$PUCSORGBACK
 10
0.0
 20
0.0
 30
0.0
  9
$USERI1
 70
     0
  9
$USERI2
 70
     0
  9
$USERI3
 70
     0
  9
$USERI4
 70
     0
  9
$USERI5
 70
     0
  9
$USERR1
 40
0.0
  9
$USERR2
 40
0.0
  9
$USERR3
 40
0.0
  9
$USERR4
 40
0.0
  9
$USERR5
 40
0.0
  9
$WORLDVIEW
 70
     1
  9
$SHADEDGE
 70
     3
  9
$SHADEDIF
 70
    70
  9
$TILEMODE
 70
     1
  9
$MAXACTVP
 70
    64
  9
$PINSBASE
 10
0.0
 20
0.0
 30
0.0
  9
$PLIMCHECK
 70
     0
  9
$PEXTMIN
 10
1E+20
 20
1E+20
 30
1E+20
  9
$PEXTMAX
 10
-1E+20
 20
-1E+20
 30
-1E+20
  9
$PLIMMIN
 10
0.0
 20
0.0
  9
$PLIMMAX
 10
420.0
 20
297.0
  9
$UNITMODE
 70
     0
  9
$VISRETAIN
 70
     1
  9
$PLINEGEN
 70
     0
  9
$PSLTSCALE
 70
     1
  9
$TREEDEPTH
 70
  3020
  9
$CMLSTYLE
  2
Standard
  9
$CMLJUST
 70
     0
  9
$CMLSCALE
 40
20.0
  9
$PROXYGRAPHICS
 70
     1
  9
$MEASUREMENT
 70
     1
  9
$CELWEIGHT
370
    -1
  9
$ENDCAPS
280
     0
  9
$JOINSTYLE
280
     0
  9
$LWDISPLAY
290
     1
  9
$INSUNITS
 70
     4
  9
$HYPERLINKBASE
  1

  9
$STYLESHEET
  1

  9
$XEDIT
290
     1
  9
$CEPSNTYPE
380
     0
  9
$PSTYLEMODE
290
     1
  9
$FINGERPRINTGUID
  2
{3a1b417d-fbed-4ee0-9c5f-5438ce41e7fb}
  9
$VERSIONGUID
  2
{FAEB1C32-E019-11D5-929B-00C0DF256EC4}
  9
$EXTNAMES
290
     1
  9
$PSVPSCALE
 40
0.0
  9
$OLESTARTUP
290
     0
  0
ENDSEC
  0
SECTION
  2
CLASSES
  0
CLASS
  1
ACDBDICTIONARYWDFLT
  2
AcDbDictionaryWithDefault
  3
ObjectDBX Classes
 90
        0
280
     0
281
     0
  0
CLASS
  1
VISUALSTYLE
  2
AcDbVisualStyle
  3
ObjectDBX Classes
 90
     4095
280
     0
281
     0
  0
CLASS
  1
MATERIAL
  2
AcDbMaterial
  3
ObjectDBX Classes
 90
     1153
280
     0
281
     0
  0
CLASS
  1
SCALE
  2
AcDbScale
  3
ObjectDBX Classes
 90
     1153
280
     0
281
     0
  0
CLASS
  1
TABLESTYLE
  2
AcDbTableStyle
  3
ObjectDBX Classes
 90
     4095
280
     0
281
     0
  0
CLASS
  1
MLEADERSTYLE
  2
AcDbMLeaderStyle
  3
ACDB_MLEADERSTYLE_CLASS
 90
     4095
280
     0
281
     0
  0
CLASS
  1
SUN
  2
AcDbSun
  3
SCENEOE
 90
     1153
280
     0
281
     0
  0
CLASS
  1
ACDBPLACEHOLDER
  2
AcDbPlaceHolder
  3
ObjectDBX Classes
 90
        0
280
     0
281
     0
  0
CLASS
  1
LAYOUT
  2
AcDbLayout
  3
ObjectDBX Classes
 90
        0
280
     0
281
     0
  0
ENDSEC
  0
SECTION
  2
TABLES
  0
TABLE
  2
VPORT
  5
8
330
0
100
AcDbSymbolTable
 70
     1
  0
VPORT
  5
29
330
8
100
AcDbSymbolTableRecord
100
AcDbViewportTableRecord
  2
*Active
 70
     0
 10
0.0
 20
0.0
 11
1.0
 21
1.0
 12
139.7
 22
107.95
 13
0.0
 23
0.0
 14
10.0
 24
10.0
 15
10.0
 25
10.0
 16
0.0
 26
0.0
 36
1.0
 17
0.0
 27
0.0
 37
0.0
 40
215.9
 41
1.294117647058824
 42
50.0
 43
0.0
 44
0.0
 50
0.0
 51
0.0
 71
     0
 72
  2000
 73
     1
 74
     3
 75
     0
 76
     0
 77
     0
 78
     0
281
     0
 65
     1
110
0.0
120
0.0
130
0.0
111
1.0
121
0.0
131
0.0
112
0.0
122
1.0
132
0.0
 79
     0
146
0.0
  0
ENDTAB
  0
TABLE
  2
LTYPE
  5
5
330
0
100
AcDbSymbolTable
 70
     8
  0
LTYPE
  5
14
330
5
100
AcDbSymbolTableRecord
100
AcDbLinetypeTableRecord
  2
ByBlock
 70
     0
  3

 72
    65
 73
     0
 40
0.0
  0
LTYPE
  5
15
330
5
100
AcDbSymbolTableRecord
100
AcDbLinetypeTableRecord
  2
ByLayer
 70
     0
  3

 72
    65
 73
     0
 40
0.0
  0
LTYPE
  5
16
330
5
100
AcDbSymbolTableRecord
100
AcDbLinetypeTableRecord
  2
Continuous
 70
     0
  3
Solid line
 72
    65
 73
     0
 40
0.0
  0
LTYPE
  5
5E
330
5
100
AcDbSymbolTableRecord
100
AcDbLinetypeTableRecord
  2
SLD-Solid
 70
     0
  3
SolidWorks Line Style
 72
    65
 73
     0
 40
0.0
  0
LTYPE
  5
5F
330
5
100
AcDbSymbolTableRecord
100
AcDbLinetypeTableRecord
  2
SLD-Dashed
 70
     0
  3
SolidWorks Line Style
 72
    65
 73
     2
 40
1.905
 49
1.27
 74
     0
 49
-0.635
 74
     0
  0
LTYPE
  5
60
330
5
100
AcDbSymbolTableRecord
100
AcDbLinetypeTableRecord
  2
SLD-Phantom
 70
     0
  3
SolidWorks Line Style
 72
    65
 73
     6
 40
12.7
 49
6.35
 74
     0
 49
-1.27
 74
     0
 49
1.27
 74
     0
 49
-1.27
 74
     0
 49
1.27
 74
     0
 49
-1.27
 74
     0
  0
LTYPE
  5
61
330
5
100
AcDbSymbolTableRecord
100
AcDbLinetypeTableRecord
  2
SLD-Chain
 70
     0
  3
SolidWorks Line Style
 72
    65
 73
     4
 40
10.16
 49
6.35
 74
     0
 49
-1.27
 74
     0
 49
1.27
 74
     0
 49
-1.27
 74
     0
  0
LTYPE
  5
62
330
5
100
AcDbSymbolTableRecord
100
AcDbLinetypeTableRecord
  2
SLD-Center
 70
     0
  3
SolidWorks Line Style
 72
    65
 73
     4
 40
19.05
 49
15.24
 74
     0
 49
-1.27
 74
     0
 49
1.27
 74
     0
 49
-1.27
 74
     0
  0
LTYPE
  5
63
330
5
100
AcDbSymbolTableRecord
100
AcDbLinetypeTableRecord
  2
SLD-Stitch
 70
     0
  3
SolidWorks Line Style
 72
    65
 73
     2
 40
0.635
 49
0.0
 74
     0
 49
-0.635
 74
     0
  0
LTYPE
  5
64
330
5
100
AcDbSymbolTableRecord
100
AcDbLinetypeTableRecord
  2
SLD-Thin-Thick-Chain
 70
     0
  3
SolidWorks Line Style
 72
    65
 73
     4
 40
10.16
 49
6.35
 74
     0
 49
-1.27
 74
     0
 49
1.27
 74
     0
 49
-1.27
 74
     0
  0
ENDTAB
  0
TABLE
  2
LAYER
  5
2
330
0
100
AcDbSymbolTable
 70
     7
  0
LAYER
  5
10
330
2
100
AcDbSymbolTableRecord
100
AcDbLayerTableRecord
  2
0
 70
     0
 62
     7
  6
Continuous
370
    -3
390
F
  0
LAYER
  5
65
330
2
100
AcDbSymbolTableRecord
100
AcDbLayerTableRecord
  2
TEXT
 70
     0
 62
   140
  6
SLD-Solid
370
    25
390
F
  0
LAYER
  5
66
330
2
100
AcDbSymbolTableRecord
100
AcDbLayerTableRecord
  2
DIMENSIONS
 70
     0
 62
   140
  6
SLD-Solid
370
    25
390
F
  0
LAYER
  5
67
330
2
100
AcDbSymbolTableRecord
100
AcDbLayerTableRecord
  2
HATCH
 70
     0
 62
     6
  6
SLD-Solid
370
    -3
390
F
  0
LAYER
  5
68
330
2
100
AcDbSymbolTableRecord
100
AcDbLayerTableRecord
  2
HIDDEN
 70
     0
 62
   102
  6
SLD-Dashed
370
    -3
390
F
  0
LAYER
  5
69
330
2
100
AcDbSymbolTableRecord
100
AcDbLayerTableRecord
  2
CENTER
 70
     0
 62
    40
  6
SLD-Center
370
    -3
390
F
  0
LAYER
  5
6A
330
2
100
AcDbSymbolTableRecord
100
AcDbLayerTableRecord
  2
SLD-DEFPOINTS
 70
     0
 62
     7
  6
Continuous
370
    -1
390
F
  0
ENDTAB
  0
TABLE
  2
STYLE
  5
3
330
0
100
AcDbSymbolTable
 70
     3
  0
STYLE
  5
11
330
3
100
AcDbSymbolTableRecord
100
AcDbTextStyleTableRecord
  2
Standard
 70
     0
 40
0.0
 41
1.0
 50
0.0
 71
     0
 42
2.822222222222222
  3
txt
  4

  0
STYLE
  5
94
330
3
100
AcDbSymbolTableRecord
100
AcDbTextStyleTableRecord
  2
SLDTEXTSTYLE0
 70
     0
 40
0.0
 41
0.7
 50
0.0
 71
     0
 42
2.822222222222222
  3
TXT
  4

  0
STYLE
  5
9F
330
3
100
AcDbSymbolTableRecord
100
AcDbTextStyleTableRecord
  2
SLDTEXTSTYLE1
 70
     0
 40
0.0
 41
0.65
 50
0.0
 71
     0
 42
2.822222222222222
  3
TXT
  4

  0
ENDTAB
  0
TABLE
  2
VIEW
  5
6
330
0
100
AcDbSymbolTable
 70
     0
  0
ENDTAB
  0
TABLE
  2
UCS
  5
7
330
0
100
AcDbSymbolTable
 70
     0
  0
ENDTAB
  0
TABLE
  2
APPID
  5
9
330
0
100
AcDbSymbolTable
 70
     1
  0
APPID
  5
12
330
9
100
AcDbSymbolTableRecord
100
AcDbRegAppTableRecord
  2
ACAD
 70
     0
  0
ENDTAB
  0
TABLE
  2
DIMSTYLE
  5
A
330
0
100
AcDbSymbolTable
 70
     3
100
AcDbDimStyleTable
 71
     0
  0
DIMSTYLE
105
27
330
A
100
AcDbSymbolTableRecord
100
AcDbDimStyleTableRecord
  2
ISO-25
 70
     0
 41
2.5
 42
0.625
 43
3.75
 44
1.25
 73
     0
 74
     0
 77
     1
 78
     8
140
2.5
141
2.5
143
0.03937007874016
144
1.0
146
1.0
147
0.625
171
     3
172
     1
176
     0
177
     0
178
     0
271
     2
272
     2
273
     2
274
     3
277
     2
278
    44
283
     0
284
     8
289
     3
340
11
371
    -2
372
    -2
341
0
342
0
343
0
344
0
  0
DIMSTYLE
105
13E
102
{ACAD_REACTORS
330
13D
330
234
330
248
102
}
330
A
100
AcDbSymbolTableRecord
100
AcDbDimStyleTableRecord
  2
SLDDIMSTYLE0
 70
     0
 41
3.302
 42
0.0625
 43
0.38
 45
1E-09
 73
     1
 74
     1
 78
     4
 79
     1
140
2.1580078125
141
0.09
143
0.03937007874015748
144
1.0
146
1.0
147
0.539501953125
148
1E-09
170
     1
171
     2
173
     1
176
     0
177
     0
178
     0
271
     2
272
     2
273
     2
274
     2
276
     2
277
     2
278
    46
283
     1
284
    12
289
     3
340
94
371
    -2
372
    -2
341
0
342
0
343
0
344
0
  0
DIMSTYLE
105
153
102
{ACAD_REACTORS
330
152
102
}
330
A
100
AcDbSymbolTableRecord
100
AcDbDimStyleTableRecord
  2
SLDDIMSTYLE1
 70
     0
 41
3.302
 42
0.0625
 43
0.38
 45
1E-09
 73
     1
 74
     1
 78
    12
 79
     3
140
2.1580078125
141
0.09
143
0.03937007874015748
144
1.0
146
1.0
147
0.539501953125
148
1E-09
170
     1
171
     2
172
     1
173
     1
176
     0
177
     0
178
     0
271
     2
272
     2
273
     2
274
     2
276
     2
277
     2
278
    46
283
     1
284
    12
340
94
371
    -2
372
    -2
341
0
342
0
343
0
344
0
  0
ENDTAB
  0
TABLE
  2
BLOCK_RECORD
  5
1
330
0
100
AcDbSymbolTable
 70
     7
  0
BLOCK_RECORD
  5
1F
330
1
100
AcDbSymbolTableRecord
100
AcDbBlockTableRecord
  2
*Model_Space
340
22
310

  0
BLOCK_RECORD
  5
1B
330
1
100
AcDbSymbolTableRecord
100
AcDbBlockTableRecord
  2
*Paper_Space
340
1E
310

  0
BLOCK_RECORD
  5
23
330
1
100
AcDbSymbolTableRecord
100
AcDbBlockTableRecord
  2
*Paper_Space0
340
26
310

  0
BLOCK_RECORD
  5
6B
330
1
100
AcDbSymbolTableRecord
100
AcDbBlockTableRecord
  2
Block11
340
0
310

102
{BLKREFS
331
79
102
}
  0
BLOCK_RECORD
  5
76
330
1
100
AcDbSymbolTableRecord
100
AcDbBlockTableRecord
  2
Block12
340
0
310

102
{BLKREFS
331
93
102
}
  0
BLOCK_RECORD
  5
13F
330
1
100
AcDbSymbolTableRecord
100
AcDbBlockTableRecord
  2
_D
340
0
310

  0
BLOCK_RECORD
  5
154
330
1
100
AcDbSymbolTableRecord
100
AcDbBlockTableRecord
  2
_D_1
340
0
310

  0
BLOCK_RECORD
  5
235
330
1
100
AcDbSymbolTableRecord
100
AcDbBlockTableRecord
  2
_D_2
340
0
310

  0
BLOCK_RECORD
  5
249
330
1
100
AcDbSymbolTableRecord
100
AcDbBlockTableRecord
  2
_D_3
340
0
310

  0
ENDTAB
  0
ENDSEC
  0
SECTION
  2
BLOCKS
  0
BLOCK
  5
1C
330
1B
100
AcDbEntity
 67
     1
  8
0
100
AcDbBlockBegin
  2
*Paper_Space
 70
     0
 10
0.0
 20
0.0
 30
0.0
  3
*Paper_Space
  1

  0
ENDBLK
  5
1D
330
1B
100
AcDbEntity
 67
     1
  8
0
100
AcDbBlockEnd
  0
BLOCK
  5
20
330
1F
100
AcDbEntity
  8
0
100
AcDbBlockBegin
  2
*Model_Space
 70
     0
 10
0.0
 20
0.0
 30
0.0
  3
*Model_Space
  1

  0
ENDBLK
  5
21
330
1F
100
AcDbEntity
  8
0
100
AcDbBlockEnd
  0
BLOCK
  5
24
330
23
100
AcDbEntity
  8
0
100
AcDbBlockBegin
  2
*Paper_Space0
 70
     0
 10
0.0
 20
0.0
 30
0.0
  3
*Paper_Space0
  1

  0
ENDBLK
  5
25
330
23
100
AcDbEntity
  8
0
100
AcDbBlockEnd
  0
BLOCK
  5
6C
330
6B
100
AcDbEntity
  8
0
100
AcDbBlockBegin
  2
Block11
 70
     0
 10
0.0
 20
0.0
 30
0.0
  3
Block11
  1

  0
CIRCLE
  5
6E
330
6B
100
AcDbEntity
  8
0
  6
SLD-Solid
370
    18
 62
     7
100
AcDbCircle
 10
2.588397110770853
 20
2.881721276410065
 30
0.0
 40
1.285653254559609
  0
CIRCLE
  5
6F
330
6B
100
AcDbEntity
  8
0
  6
SLD-Solid
370
    18
 62
     7
100
AcDbCircle
 10
2.588397110770853
 20
2.881721276410065
 30
0.0
 40
2.15010286937989
  0
LINE
  5
70
330
6B
100
AcDbEntity
  8
0
  6
SLD-Solid
370
    18
 62
     7
100
AcDbLine
 10
2.588397110770853
 20
5.310668102986499
 30
0.0
 11
2.588397110770853
 21
0.0
 31
0.0
  0
LINE
  5
71
330
6B
100
AcDbEntity
  8
0
  6
SLD-Solid
370
    18
 62
     7
100
AcDbLine
 10
1.734723475976807E-15
 20
2.881721276410065
 30
0.0
 11
10.87374002986212
 21
2.881721276410065
 31
0.0
  0
LINE
  5
72
330
6B
100
AcDbEntity
  8
0
  6
SLD-Solid
370
    18
 62
     7
100
AcDbLine
 10
5.479586157470715
 20
1.596068021850458
 30
0.0
 11
5.479586157470715
 21
4.167374530969679
 31
0.0
  0
LINE
  5
73
330
6B
100
AcDbEntity
  8
0
  6
SLD-Solid
370
    18
 62
     7
100
AcDbLine
 10
5.479586157470715
 20
4.167374530969679
 30
0.0
 11
10.17501543499277
 21
5.031824145789954
 31
0.0
  0
LINE
  5
74
330
6B
100
AcDbEntity
  8
0
  6
SLD-Solid
370
    18
 62
     7
100
AcDbLine
 10
10.17501543499277
 20
5.031824145789954
 30
0.0
 11
10.17501543499277
 21
0.7316184070301768
 31
0.0
  0
LINE
  5
75
330
6B
100
AcDbEntity
  8
0
  6
SLD-Solid
370
    18
 62
     7
100
AcDbLine
 10
5.479586157470715
 20
1.596068021850458
 30
0.0
 11
10.17501543499277
 21
0.7316184070301768
 31
0.0
  0
ENDBLK
  5
6D
330
6B
100
AcDbEntity
  8
0
100
AcDbBlockEnd
  0
BLOCK
  5
77
330
76
100
AcDbEntity
  8
0
100
AcDbBlockBegin
  2
Block12
 70
     0
 10
0.0
 20
0.0
 30
0.0
  3
Block12
  1

  0
INSERT
  5
79
330
76
100
AcDbEntity
  8
SLD-DEFPOINTS
100
AcDbBlockReference
  2
Block11
 10
0.0
 20
0.0
 30
0.0
  0
ENDBLK
  5
78
330
76
100
AcDbEntity
  8
0
100
AcDbBlockEnd
  0
BLOCK
  5
140
330
13F
100
AcDbEntity
  8
0
100
AcDbBlockBegin
  2
_D
 70
     0
 10
0.0
 20
0.0
 30
0.0
  3
_D
  1

  0
SOLID
  5
142
330
13F
100
AcDbEntity
  8
DIMENSIONS
100
AcDbTrace
 38
0.0
 10
85.93571674876848
 20
64.04878232758618
 11
82.63371674876848
 21
64.55678232758618
 12
82.63371674876848
 22
63.54078232758618
 13
82.63371674876848
 23
63.54078232758618
  0
SOLID
  5
143
330
13F
100
AcDbEntity
  8
DIMENSIONS
100
AcDbTrace
 38
0.0
 10
60.93571674876849
 20
64.04878232758618
 11
64.23771674876849
 21
63.54078232758618
 12
64.23771674876849
 22
64.55678232758618
 13
64.23771674876849
 23
64.55678232758618
  0
LINE
  5
144
330
13F
100
AcDbEntity
  8
DIMENSIONS
100
AcDbLine
 10
70.04855538547936
 20
64.04878209475554
 30
0.0
 11
69.32389107827994
 21
64.04878209475554
 31
0.0
  0
LINE
  5
145
330
13F
100
AcDbEntity
  8
DIMENSIONS
100
AcDbLine
 10
69.32389107827994
 20
64.04878209475554
 30
0.0
 11
69.32389107827994
 21
60.61899812091268
 31
0.0
  0
LINE
  5
146
330
13F
100
AcDbEntity
  8
DIMENSIONS
100
AcDbLine
 10
69.32389107827994
 20
60.61899812091268
 30
0.0
 11
70.04855538547936
 21
60.61899812091268
 31
0.0
  0
LINE
  5
147
330
13F
100
AcDbEntity
  8
DIMENSIONS
100
AcDbLine
 10
76.46127196789685
 20
64.04878209475554
 30
0.0
 11
77.18593627509627
 21
64.04878209475554
 31
0.0
  0
LINE
  5
148
330
13F
100
AcDbEntity
  8
DIMENSIONS
100
AcDbLine
 10
77.18593627509627
 20
64.04878209475554
 30
0.0
 11
77.18593627509627
 21
60.61899812091268
 31
0.0
  0
LINE
  5
149
330
13F
100
AcDbEntity
  8
DIMENSIONS
100
AcDbLine
 10
77.18593627509627
 20
60.61899812091268
 30
0.0
 11
76.46127196789685
 21
60.61899812091268
 31
0.0
  0
LINE
  5
14A
330
13F
100
AcDbEntity
  8
DIMENSIONS
100
AcDbLine
 10
85.93571674876848
 20
76.78662098001752
 30
0.0
 11
85.93571674876848
 21
60.87378232758618
 31
0.0
  0
LINE
  5
14B
330
13F
100
AcDbEntity
  8
DIMENSIONS
100
AcDbLine
 10
60.93571674876849
 20
76.78662098001752
 30
0.0
 11
60.93571674876849
 21
60.87378232758618
 31
0.0
  0
LINE
  5
14C
330
13F
100
AcDbEntity
  8
DIMENSIONS
100
AcDbLine
 10
85.93571674876848
 20
64.04878232758618
 30
0.0
 11
79.38517493584732
 21
64.04878232758618
 31
0.0
  0
LINE
  5
14D
330
13F
100
AcDbEntity
  8
DIMENSIONS
100
AcDbLine
 10
60.93571674876849
 20
64.04878232758618
 30
0.0
 11
67.12465265035954
 21
64.04878232758618
 31
0.0
  0
MTEXT
  5
14E
330
13F
100
AcDbEntity
  8
DIMENSIONS
100
AcDbMText
 10
68.53357089817179
 20
67.26041865918
 30
0.0
210
0.0
220
0.0
230
1.0
 11
1.0
 21
0.0
 31
0.0
 40
2.116666666666666
 41
0.0
 71
     1
 72
     1
  1

  7
SLDTEXTSTYLE0
 73
     1
 44
1.0
  0
MTEXT
  5
14F
330
13F
100
AcDbEntity
  8
DIMENSIONS
100
AcDbMText
 10
70.04855561831
 20
67.26041842634936
 30
0.0
210
0.0
220
0.0
230
1.0
 11
1.0
 21
0.0
 31
0.0
 40
2.116666666666666
 41
0.0
 71
     1
 72
     1
  1
25.0
  7
SLDTEXTSTYLE0
 73
     1
 44
1.0
  0
MTEXT
  5
150
330
13F
100
AcDbEntity
  8
DIMENSIONS
100
AcDbMText
 10
70.04855538547936
 20
63.34752483676334
 30
0.0
210
0.0
220
0.0
230
1.0
 11
1.0
 21
0.0
 31
0.0
 40
2.116666666666666
 41
0.0
 71
     1
 72
     1
  1
0.98
  7
SLDTEXTSTYLE0
 73
     1
 44
1.0
  0
MTEXT
  5
151
330
13F
100
AcDbEntity
  8
DIMENSIONS
100
AcDbMText
 10
78.83664259820831
 20
67.26041865918
 30
0.0
210
0.0
220
0.0
230
1.0
 11
1.0
 21
0.0
 31
0.0
 40
2.116666666666666
 41
0.0
 71
     1
 72
     1
  1

  7
SLDTEXTSTYLE0
 73
     1
 44
1.0
  0
ENDBLK
  5
141
330
13F
100
AcDbEntity
  8
0
100
AcDbBlockEnd
  0
BLOCK
  5
155
330
154
100
AcDbEntity
  8
0
100
AcDbBlockBegin
  2
_D_1
 70
     0
 10
0.0
 20
0.0
 30
0.0
  3
_D_1
  1

  0
SOLID
  5
157
330
154
100
AcDbEntity
  8
DIMENSIONS
100
AcDbTrace
 38
0.0
 10
61.91071674876849
 20
126.4597025862069
 11
58.60871674876849
 21
126.9677025862069
 12
58.60871674876849
 22
125.9517025862069
 13
58.60871674876849
 23
125.9517025862069
  0
SOLID
  5
158
330
154
100
AcDbEntity
  8
DIMENSIONS
100
AcDbTrace
 38
0.0
 10
84.96071674876848
 20
126.4597025862069
 11
88.26271674876847
 21
125.9517025862069
 12
88.26271674876847
 22
126.9677025862069
 13
88.26271674876847
 23
126.9677025862069
  0
LINE
  5
159
330
154
100
AcDbEntity
  8
DIMENSIONS
100
AcDbLine
 10
70.52316314410007
 20
126.4597023533762
 30
0.0
 11
69.79849883690065
 21
126.4597023533762
 31
0.0
  0
LINE
  5
15A
330
154
100
AcDbEntity
  8
DIMENSIONS
100
AcDbLine
 10
69.79849883690065
 20
126.4597023533762
 30
0.0
 11
69.79849883690065
 21
123.0299183795334
 31
0.0
  0
LINE
  5
15B
330
154
100
AcDbEntity
  8
DIMENSIONS
100
AcDbLine
 10
69.79849883690065
 20
123.0299183795334
 30
0.0
 11
70.52316314410007
 21
123.0299183795334
 31
0.0
  0
LINE
  5
15C
330
154
100
AcDbEntity
  8
DIMENSIONS
100
AcDbLine
 10
76.93587972651756
 20
126.4597023533762
 30
0.0
 11
77.66054403371697
 21
126.4597023533762
 31
0.0
  0
LINE
  5
15D
330
154
100
AcDbEntity
  8
DIMENSIONS
100
AcDbLine
 10
77.66054403371697
 20
126.4597023533762
 30
0.0
 11
77.66054403371697
 21
123.0299183795334
 31
0.0
  0
LINE
  5
15E
330
154
100
AcDbEntity
  8
DIMENSIONS
100
AcDbLine
 10
77.66054403371697
 20
123.0299183795334
 30
0.0
 11
76.93587972651756
 21
123.0299183795334
 31
0.0
  0
LINE
  5
15F
330
154
100
AcDbEntity
  8
DIMENSIONS
100
AcDbLine
 10
61.91071674876849
 20
112.8026209800175
 30
0.0
 11
61.91071674876849
 21
129.6347025862069
 31
0.0
  0
LINE
  5
160
330
154
100
AcDbEntity
  8
DIMENSIONS
100
AcDbLine
 10
84.96071674876848
 20
108.7737299446025
 30
0.0
 11
84.96071674876848
 21
129.6347025862069
 31
0.0
  0
LINE
  5
161
330
154
100
AcDbEntity
  8
DIMENSIONS
100
AcDbLine
 10
61.91071674876849
 20
126.4597025862069
 30
0.0
 11
55.56071674876848
 21
126.4597025862069
 31
0.0
  0
LINE
  5
162
330
154
100
AcDbEntity
  8
DIMENSIONS
100
AcDbLine
 10
84.96071674876848
 20
126.4597025862069
 30
0.0
 11
91.31071674876848
 21
126.4597025862069
 31
0.0
  0
MTEXT
  5
163
330
154
100
AcDbEntity
  8
DIMENSIONS
100
AcDbMText
 10
69.0081786567925
 20
129.6713389178007
 30
0.0
210
0.0
220
0.0
230
1.0
 11
1.0
 21
0.0
 31
0.0
 40
2.116666666666666
 41
0.0
 71
     1
 72
     1
  1

  7
SLDTEXTSTYLE0
 73
     1
 44
1.0
  0
MTEXT
  5
164
330
154
100
AcDbEntity
  8
DIMENSIONS
100
AcDbMText
 10
70.52316337693071
 20
129.67133868497
 30
0.0
210
0.0
220
0.0
230
1.0
 11
1.0
 21
0.0
 31
0.0
 40
2.116666666666666
 41
0.0
 71
     1
 72
     1
  1
23.1
  7
SLDTEXTSTYLE0
 73
     1
 44
1.0
  0
MTEXT
  5
165
330
154
100
AcDbEntity
  8
DIMENSIONS
100
AcDbMText
 10
70.52316314410007
 20
125.758445095384
 30
0.0
210
0.0
220
0.0
230
1.0
 11
1.0
 21
0.0
 31
0.0
 40
2.116666666666666
 41
0.0
 71
     1
 72
     1
  1
0.91
  7
SLDTEXTSTYLE0
 73
     1
 44
1.0
  0
MTEXT
  5
166
330
154
100
AcDbEntity
  8
DIMENSIONS
100
AcDbMText
 10
79.31125035682902
 20
129.6713389178007
 30
0.0
210
0.0
220
0.0
230
1.0
 11
1.0
 21
0.0
 31
0.0
 40
2.116666666666666
 41
0.0
 71
     1
 72
     1
  1

  7
SLDTEXTSTYLE0
 73
     1
 44
1.0
  0
ENDBLK
  5
156
330
154
100
AcDbEntity
  8
0
100
AcDbBlockEnd
  0
BLOCK
  5
236
330
235
100
AcDbEntity
  8
0
100
AcDbBlockBegin
  2
_D_2
 70
     0
 10
0.0
 20
0.0
 30
0.0
  3
_D_2
  1

  0
SOLID
  5
238
330
235
100
AcDbEntity
  8
DIMENSIONS
100
AcDbTrace
 38
0.0
 10
143.235291849255
 20
129.5201315057028
 11
146.537291849255
 21
129.0121315057028
 12
146.537291849255
 22
130.0281315057028
 13
146.537291849255
 23
130.0281315057028
  0
SOLID
  5
239
330
235
100
AcDbEntity
  8
DIMENSIONS
100
AcDbTrace
 38
0.0
 10
191.2352918492547
 20
129.5201315057028
 11
187.9332918492547
 21
130.0281315057028
 12
187.9332918492547
 22
129.0121315057028
 13
187.9332918492547
 23
129.0121315057028
  0
LINE
  5
23A
330
235
100
AcDbEntity
  8
DIMENSIONS
100
AcDbLine
 10
162.5970683165138
 20
129.5201312728722
 30
0.0
 11
161.8724040093144
 21
129.5201312728722
 31
0.0
  0
LINE
  5
23B
330
235
100
AcDbEntity
  8
DIMENSIONS
100
AcDbLine
 10
161.8724040093144
 20
129.5201312728722
 30
0.0
 11
161.8724040093144
 21
126.0903472990293
 31
0.0
  0
LINE
  5
23C
330
235
100
AcDbEntity
  8
DIMENSIONS
100
AcDbLine
 10
161.8724040093144
 20
126.0903472990293
 30
0.0
 11
162.5970683165138
 21
126.0903472990293
 31
0.0
  0
LINE
  5
23D
330
235
100
AcDbEntity
  8
DIMENSIONS
100
AcDbLine
 10
169.0097848989313
 20
129.5201312728722
 30
0.0
 11
169.7344492061307
 21
129.5201312728722
 31
0.0
  0
LINE
  5
23E
330
235
100
AcDbEntity
  8
DIMENSIONS
100
AcDbLine
 10
169.7344492061307
 20
129.5201312728722
 30
0.0
 11
169.7344492061307
 21
126.0903472990293
 31
0.0
  0
LINE
  5
23F
330
235
100
AcDbEntity
  8
DIMENSIONS
100
AcDbLine
 10
169.7344492061307
 20
126.0903472990293
 30
0.0
 11
169.0097848989313
 21
126.0903472990293
 31
0.0
  0
LINE
  5
240
330
235
100
AcDbEntity
  8
DIMENSIONS
100
AcDbLine
 10
143.235291849255
 20
111.3266209800169
 30
0.0
 11
143.235291849255
 21
132.6951315057028
 31
0.0
  0
LINE
  5
241
330
235
100
AcDbEntity
  8
DIMENSIONS
100
AcDbLine
 10
191.2352918492547
 20
111.3266209800168
 30
0.0
 11
191.2352918492547
 21
132.6951315057028
 31
0.0
  0
LINE
  5
242
330
235
100
AcDbEntity
  8
DIMENSIONS
100
AcDbLine
 10
143.235291849255
 20
129.5201315057028
 30
0.0
 11
159.673165581394
 21
129.5201315057028
 31
0.0
  0
LINE
  5
243
330
235
100
AcDbEntity
  8
DIMENSIONS
100
AcDbLine
 10
191.2352918492547
 20
129.5201315057028
 30
0.0
 11
171.9336878668818
 21
129.5201315057028
 31
0.0
  0
MTEXT
  5
244
330
235
100
AcDbEntity
  8
DIMENSIONS
100
AcDbMText
 10
161.0820838292062
 20
132.7317678372966
 30
0.0
210
0.0
220
0.0
230
1.0
 11
1.0
 21
0.0
 31
0.0
 40
2.116666666666666
 41
0.0
 71
     1
 72
     1
  1

  7
SLDTEXTSTYLE0
 73
     1
 44
1.0
  0
MTEXT
  5
245
330
235
100
AcDbEntity
  8
DIMENSIONS
100
AcDbMText
 10
162.5970685493444
 20
132.731767604466
 30
0.0
210
0.0
220
0.0
230
1.0
 11
1.0
 21
0.0
 31
0.0
 40
2.116666666666666
 41
0.0
 71
     1
 72
     1
  1
48.0
  7
SLDTEXTSTYLE0
 73
     1
 44
1.0
  0
MTEXT
  5
246
330
235
100
AcDbEntity
  8
DIMENSIONS
100
AcDbMText
 10
162.5970683165138
 20
128.81887401488
 30
0.0
210
0.0
220
0.0
230
1.0
 11
1.0
 21
0.0
 31
0.0
 40
2.116666666666666
 41
0.0
 71
     1
 72
     1
  1
1.89
  7
SLDTEXTSTYLE0
 73
     1
 44
1.0
  0
MTEXT
  5
247
330
235
100
AcDbEntity
  8
DIMENSIONS
100
AcDbMText
 10
171.3851555292428
 20
132.7317678372966
 30
0.0
210
0.0
220
0.0
230
1.0
 11
1.0
 21
0.0
 31
0.0
 40
2.116666666666666
 41
0.0
 71
     1
 72
     1
  1

  7
SLDTEXTSTYLE0
 73
     1
 44
1.0
  0
ENDBLK
  5
237
330
235
100
AcDbEntity
  8
0
100
AcDbBlockEnd
  0
BLOCK
  5
24A
330
249
100
AcDbEntity
  8
0
100
AcDbBlockBegin
  2
_D_3
 70
     0
 10
0.0
 20
0.0
 30
0.0
  3
_D_3
  1

  0
SOLID
  5
24C
330
249
100
AcDbEntity
  8
DIMENSIONS
100
AcDbTrace
 38
0.0
 10
205.6704784482758
 20
113.0566209800175
 11
205.1624784482758
 21
109.7546209800175
 12
206.1784784482759
 22
109.7546209800175
 13
206.1784784482759
 23
109.7546209800175
  0
SOLID
  5
24D
330
249
100
AcDbEntity
  8
DIMENSIONS
100
AcDbTrace
 38
0.0
 10
205.6704784482758
 20
78.0566209800175
 11
206.1784784482759
 21
81.35862098001749
 12
205.1624784482758
 22
81.35862098001749
 13
205.1624784482758
 23
81.35862098001749
  0
LINE
  5
24E
330
249
100
AcDbEntity
  8
DIMENSIONS
100
AcDbLine
 10
202.4641200406518
 20
95.84750192234176
 30
0.0
 11
201.7394557334524
 21
95.84750192234176
 31
0.0
  0
LINE
  5
24F
330
249
100
AcDbEntity
  8
DIMENSIONS
100
AcDbLine
 10
201.7394557334524
 20
95.84750192234176
 30
0.0
 11
201.7394557334524
 21
92.4177179484989
 31
0.0
  0
LINE
  5
250
330
249
100
AcDbEntity
  8
DIMENSIONS
100
AcDbLine
 10
201.7394557334524
 20
92.4177179484989
 30
0.0
 11
202.4641200406518
 21
92.4177179484989
 31
0.0
  0
LINE
  5
251
330
249
100
AcDbEntity
  8
DIMENSIONS
100
AcDbLine
 10
208.8768366230693
 20
95.84750192234176
 30
0.0
 11
209.6015009302687
 21
95.84750192234176
 31
0.0
  0
LINE
  5
252
330
249
100
AcDbEntity
  8
DIMENSIONS
100
AcDbLine
 10
209.6015009302687
 20
95.84750192234176
 30
0.0
 11
209.6015009302687
 21
92.4177179484989
 31
0.0
  0
LINE
  5
253
330
249
100
AcDbEntity
  8
DIMENSIONS
100
AcDbLine
 10
209.6015009302687
 20
92.4177179484989
 30
0.0
 11
208.8768366230693
 21
92.4177179484989
 31
0.0
  0
LINE
  5
254
330
249
100
AcDbEntity
  8
DIMENSIONS
100
AcDbLine
 10
182.805291849255
 20
113.0566209800175
 30
0.0
 11
190.4732918492547
 21
113.0566209800175
 31
0.0
  0
LINE
  5
255
330
249
100
AcDbEntity
  8
DIMENSIONS
100
AcDbLine
 10
191.9972918492547
 20
113.0566209800175
 30
0.0
 11
208.8454784482759
 21
113.0566209800175
 31
0.0
  0
LINE
  5
256
330
249
100
AcDbEntity
  8
DIMENSIONS
100
AcDbLine
 10
186.205291849255
 20
78.0566209800175
 30
0.0
 11
208.8454784482759
 21
78.0566209800175
 31
0.0
  0
LINE
  5
257
330
249
100
AcDbEntity
  8
DIMENSIONS
100
AcDbLine
 10
205.6704784482758
 20
113.0566209800175
 30
0.0
 11
205.6704784482758
 21
99.76039574475843
 31
0.0
  0
LINE
  5
258
330
249
100
AcDbEntity
  8
DIMENSIONS
100
AcDbLine
 10
205.6704784482758
 20
78.0566209800175
 30
0.0
 11
205.6704784482758
 21
91.93460856558639
 31
0.0
  0
MTEXT
  5
259
330
249
100
AcDbEntity
  8
DIMENSIONS
100
AcDbMText
 10
200.9491355533442
 20
99.05913848676623
 30
0.0
210
0.0
220
0.0
230
1.0
 11
1.0
 21
0.0
 31
0.0
 40
2.116666666666666
 41
0.0
 71
     1
 72
     1
  1

  7
SLDTEXTSTYLE0
 73
     1
 44
1.0
  0
MTEXT
  5
25A
330
249
100
AcDbEntity
  8
DIMENSIONS
100
AcDbMText
 10
202.4641202734825
 20
99.05913825393559
 30
0.0
210
0.0
220
0.0
230
1.0
 11
1.0
 21
0.0
 31
0.0
 40
2.116666666666666
 41
0.0
 71
     1
 72
     1
  1
35.0
  7
SLDTEXTSTYLE0
 73
     1
 44
1.0
  0
MTEXT
  5
25B
330
249
100
AcDbEntity
  8
DIMENSIONS
100
AcDbMText
 10
202.4641200406518
 20
95.14624466434957
 30
0.0
210
0.0
220
0.0
230
1.0
 11
1.0
 21
0.0
 31
0.0
 40
2.116666666666666
 41
0.0
 71
     1
 72
     1
  1
1.38
  7
SLDTEXTSTYLE0
 73
     1
 44
1.0
  0
MTEXT
  5
25C
330
249
100
AcDbEntity
  8
DIMENSIONS
100
AcDbMText
 10
211.2522072533808
 20
99.05913848676623
 30
0.0
210
0.0
220
0.0
230
1.0
 11
1.0
 21
0.0
 31
0.0
 40
2.116666666666666
 41
0.0
 71
     1
 72
     1
  1

  7
SLDTEXTSTYLE0
 73
     1
 44
1.0
  0
ENDBLK
  5
24B
330
249
100
AcDbEntity
  8
0
100
AcDbBlockEnd
  0
ENDSEC
  0
SECTION
  2
ENTITIES
  0
LINE
  5
7A
330
1F
100
AcDbEntity
  8
TEXT
100
AcDbLine
 10
155.7588954246279
 20
22.12610769635146
 30
0.0
 11
155.7588954246279
 21
13.96999999999996
 31
0.0
  0
LINE
  5
7B
330
1F
100
AcDbEntity
  8
TEXT
100
AcDbLine
 10
6.349999999999975
 20
209.55
 30
0.0
 11
273.05
 21
209.55
 31
0.0
  0
LINE
  5
7C
330
1F
100
AcDbEntity
  8
TEXT
100
AcDbLine
 10
6.349999999999975
 20
209.55
 30
0.0
 11
6.35
 21
6.35
 31
0.0
  0
LINE
  5
7D
330
1F
100
AcDbEntity
  8
TEXT
100
AcDbLine
 10
135.89
 20
201.93
 30
0.0
 11
143.51
 21
201.93
 31
0.0
  0
LINE
  5
7E
330
1F
100
AcDbEntity
  8
TEXT
100
AcDbLine
 10
273.05
 20
209.55
 30
0.0
 11
273.05
 21
6.35
 31
0.0
  0
LINE
  5
7F
330
1F
100
AcDbEntity
  8
TEXT
100
AcDbLine
 10
135.89
 20
201.93
 30
0.0
 11
135.89
 21
209.55
 31
0.0
  0
LINE
  5
80
330
1F
100
AcDbEntity
  8
TEXT
100
AcDbLine
 10
239.5753773966487
 20
22.12610769635148
 30
0.0
 11
239.5753773966487
 21
13.96999999999996
 31
0.0
  0
LINE
  5
81
330
1F
100
AcDbEntity
  8
TEXT
100
AcDbLine
 10
143.51
 20
201.93
 30
0.0
 11
143.51
 21
209.55
 31
0.0
  0
LINE
  5
82
330
1F
100
AcDbEntity
  8
TEXT
100
AcDbLine
 10
273.05
 20
6.35
 30
0.0
 11
273.05
 21
16.51
 31
0.0
  0
LINE
  5
83
330
1F
100
AcDbEntity
  8
TEXT
100
AcDbLine
 10
27.93999999999998
 20
201.93
 30
0.0
 11
35.55999999999997
 21
201.93
 31
0.0
  0
LINE
  5
84
330
1F
100
AcDbEntity
  8
TEXT
100
AcDbLine
 10
27.93999999999998
 20
201.93
 30
0.0
 11
27.93999999999998
 21
209.55
 31
0.0
  0
LINE
  5
85
330
1F
100
AcDbEntity
  8
TEXT
100
AcDbLine
 10
35.55999999999997
 20
201.93
 30
0.0
 11
35.55999999999997
 21
209.55
 31
0.0
  0
LINE
  5
86
330
1F
100
AcDbEntity
  8
TEXT
100
AcDbLine
 10
273.0499999999998
 20
13.96999999999996
 30
0.0
 11
6.350000000000001
 21
13.96999999999996
 31
0.0
  0
LINE
  5
87
330
1F
100
AcDbEntity
  8
TEXT
100
AcDbLine
 10
6.350000000000023
 20
6.349999999999967
 30
0.0
 11
273.05
 21
6.35
 31
0.0
  0
LINE
  5
88
330
1F
100
AcDbEntity
  8
TEXT
100
AcDbLine
 10
163.7801772782915
 20
13.96999999999996
 30
0.0
 11
163.7801772782915
 21
6.350000000000006
 31
0.0
  0
LINE
  5
89
330
1F
100
AcDbEntity
  8
TEXT
100
AcDbLine
 10
31.74999999999989
 20
13.96999999999996
 30
0.0
 11
31.74999999999988
 21
6.350000000000001
 31
0.0
  0
LINE
  5
8A
330
1F
100
AcDbEntity
  8
TEXT
100
AcDbLine
 10
273.05
 20
22.12610769635148
 30
0.0
 11
6.349999999999998
 21
22.12610769635145
 31
0.0
  0
LINE
  5
8B
330
1F
100
AcDbEntity
  8
TEXT
100
AcDbLine
 10
120.6464777075071
 20
13.96999999999996
 30
0.0
 11
120.6464777075071
 21
6.349999999999967
 31
0.0
  0
LINE
  5
8C
330
1F
100
AcDbEntity
  8
TEXT
100
AcDbLine
 10
243.84
 20
201.93
 30
0.0
 11
251.4599999999999
 21
201.93
 31
0.0
  0
LINE
  5
8D
330
1F
100
AcDbEntity
  8
TEXT
100
AcDbLine
 10
243.84
 20
201.93
 30
0.0
 11
243.84
 21
209.55
 31
0.0
  0
LINE
  5
8E
330
1F
100
AcDbEntity
  8
TEXT
100
AcDbLine
 10
203.0243045414288
 20
13.96999999999996
 30
0.0
 11
203.0243045414288
 21
6.349999999999967
 31
0.0
  0
LINE
  5
8F
330
1F
100
AcDbEntity
  8
TEXT
100
AcDbLine
 10
216.8120975084431
 20
13.96999999999996
 30
0.0
 11
216.8120975084431
 21
6.349999999999967
 31
0.0
  0
LINE
  5
90
330
1F
100
AcDbEntity
  8
TEXT
100
AcDbLine
 10
251.3487490474672
 20
13.96999999999996
 30
0.0
 11
251.3487490474672
 21
6.350000000000001
 31
0.0
  0
LINE
  5
91
330
1F
100
AcDbEntity
  8
TEXT
100
AcDbLine
 10
50.2116278935219
 20
13.96999999999996
 30
0.0
 11
50.2116278935219
 21
6.349999999999967
 31
0.0
  0
LINE
  5
92
330
1F
100
AcDbEntity
  8
TEXT
100
AcDbLine
 10
251.4599999999999
 20
201.93
 30
0.0
 11
251.4599999999999
 21
209.55
 31
0.0
  0
INSERT
  5
93
330
1F
100
AcDbEntity
  8
SLD-DEFPOINTS
100
AcDbBlockReference
  2
Block12
 10
6.837938529047218
 20
7.553855307597702
 30
0.0
  0
MTEXT
  5
95
330
1F
100
AcDbEntity
  8
TEXT
100
AcDbMText
 10
191.4270222243117
 20
36.1999170239387
 30
0.0
210
0.0
220
0.0
230
1.0
 11
1.0
 21
0.0
 31
0.0
 40
2.116666666666666
 41
0.0
 71
     1
 72
     1
  1
FRONT MOUNT, (1) N.O./(1) N.C. CONTACT(s), 10A ^J@600 VAC/2.5A @ 600 VDC, SCREW TERMINAL. FOR ^JUSE WITH HMC-9 TO HMC-150 CONTACTORS.
  7
SLDTEXTSTYLE0
 73
     1
 44
1.0
  0
MTEXT
  5
96
330
1F
100
AcDbEntity
  8
TEXT
100
AcDbMText
 10
222.6128085688059
 20
9.502975229041416
 30
0.0
210
0.0
220
0.0
230
1.0
 11
1.0
 21
0.0
 31
0.0
 40
2.116666666666666
 41
0.0
 71
     1
 72
     1
  1
1/15/2025
  7
SLDTEXTSTYLE0
 73
     1
 44
1.0
  0
MTEXT
  5
97
330
1F
100
AcDbEntity
  8
TEXT
100
AcDbMText
 10
7.965734247263295
 20
20.01076001082048
 30
0.0
210
0.0
220
0.0
230
1.0
 11
1.0
 21
0.0
 31
0.0
 40
3.704166666666666
 41
0.0
 71
     1
 72
     1
  1
IRONHORSE FIELD INSTALLABLE AUX CONTACT
  7
SLDTEXTSTYLE0
 73
     1
 44
1.0
  0
MTEXT
  5
98
330
1F
100
AcDbEntity
  8
TEXT
100
AcDbMText
 10
205.2992306017321
 20
13.36038727192009
 30
0.0
210
0.0
220
0.0
230
1.0
 11
1.0
 21
0.0
 31
0.0
 40
2.116666666666666
 41
0.0
 71
     1
 72
     1
  1
mm^J[inch]
  7
SLDTEXTSTYLE0
 73
     1
 44
1.0
  0
MTEXT
  5
99
330
1F
100
AcDbEntity
  8
TEXT
100
AcDbMText
 10
167.6079130460384
 20
13.33108358363098
 30
0.0
210
0.0
220
0.0
230
1.0
 11
1.0
 21
0.0
 31
0.0
 40
2.116666666666666
 41
0.0
 71
     1
 72
     1
  1
UNLESS OTHERWISE ^JSPECIFIED UNITS ARE:
  7
SLDTEXTSTYLE0
 73
     1
 44
1.0
  0
MTEXT
  5
9A
330
1F
100
AcDbEntity
  8
TEXT
100
AcDbMText
 10
234.5521314854726
 20
13.36399387215797
 30
0.0
210
0.0
220
0.0
230
1.0
 11
1.0
 21
0.0
 31
0.0
 40
2.116666666666666
 41
0.0
 71
     2
 72
     1
  1
LATEST VERSION
  7
SLDTEXTSTYLE0
 73
     1
 44
1.0
  0
MTEXT
  5
9B
330
1F
100
AcDbEntity
  8
TEXT
100
AcDbMText
 10
55.11928449008624
 20
13.33047194245268
 30
0.0
210
0.0
220
0.0
230
1.0
 11
1.0
 21
0.0
 31
0.0
 40
2.116666666666666
 41
0.0
 71
     1
 72
     1
  1
PART DIMENSIONS MAY DIFFER SLIGHTLY ^JDUE TO MANUFACTURER'S VARIANCES
  7
SLDTEXTSTYLE0
 73
     1
 44
1.0
  0
MTEXT
  5
9C
330
1F
100
AcDbEntity
  8
TEXT
100
AcDbMText
 10
35.61541879841093
 20
13.36746516625304
 30
0.0
210
0.0
220
0.0
230
1.0
 11
1.0
 21
0.0
 31
0.0
 40
2.116666666666666
 41
0.0
 71
     1
 72
     1
  1
NOT TO^JSCALE
  7
SLDTEXTSTYLE0
 73
     1
 44
1.0
  0
MTEXT
  5
9D
330
1F
100
AcDbEntity
  8
TEXT
100
AcDbMText
 10
19.495723701004
 20
13.36746493342237
 30
0.0
210
0.0
220
0.0
230
1.0
 11
1.0
 21
0.0
 31
0.0
 40
2.116666666666666
 41
0.0
 71
     1
 72
     1
  1
3rd^JANGLE
  7
SLDTEXTSTYLE0
 73
     1
 44
1.0
  0
MTEXT
  5
9E
330
1F
100
AcDbEntity
  8
TEXT
100
AcDbMText
 10
159.2077220703785
 20
20.01076001082046
 30
0.0
210
0.0
220
0.0
230
1.0
 11
1.0
 21
0.0
 31
0.0
 40
3.704166666666666
 41
0.0
 71
     1
 72
     1
  1
HMX1-AUX11-F
  7
SLDTEXTSTYLE0
 73
     1
 44
1.0
  0
MTEXT
  5
A0
330
1F
100
AcDbEntity
  8
TEXT
100
AcDbMText
 10
252.441285741197
 20
12.48347137596979
 30
0.0
210
0.0
220
0.0
230
1.0
 11
1.0
 21
0.0
 31
0.0
 40
2.116666666666666
 41
0.0
 71
     1
 72
     1
  1
SHEET 1 OF 1
  7
SLDTEXTSTYLE1
 73
     1
 44
1.0
  0
MTEXT
  5
A1
330
1F
100
AcDbEntity
  8
TEXT
100
AcDbMText
 10
127.6043345225531
 20
13.54558024304619
 30
0.0
210
0.0
220
0.0
230
1.0
 11
1.0
 21
0.0
 31
0.0
 40
2.116666666666666
 41
0.0
 71
     1
 72
     1
  1
METRIC UNITS USED ^JFOR PART DESIGN
  7
SLDTEXTSTYLE0
 73
     1
 44
1.0
  0
MTEXT
  5
A2
330
1F
100
AcDbEntity
  8
TEXT
100
AcDbMText
 10
244.6438982161733
 20
16.92446770099173
 30
0.0
210
0.0
220
0.0
230
1.0
 11
1.0
 21
0.0
 31
0.0
 40
2.116666666666666
 41
0.0
 71
     1
 72
     1
  1
1-800-633-0405
  7
SLDTEXTSTYLE0
 73
     1
 44
1.0
  0
MTEXT
  5
A3
330
1F
100
AcDbEntity
  8
TEXT
100
AcDbMText
 10
240.5771543282123
 20
20.90249532011309
 30
0.0
210
0.0
220
0.0
230
1.0
 11
1.0
 21
0.0
 31
0.0
 40
2.116666666666666
 41
0.0
 71
     1
 72
     1
  1
AutomationDirect.com
  7
SLDTEXTSTYLE0
 73
     1
 44
1.0
  0
LINE
  5
A4
330
1F
100
AcDbEntity
  8
0
100
AcDbLine
 10
81.43571674876848
 20
99.2566209800175
 30
0.0
 11
81.43571674876848
 21
101.6566209799056
 31
0.0
  0
LINE
  5
A5
330
1F
100
AcDbEntity
  8
0
100
AcDbLine
 10
75.43571674876848
 20
101.6566209799056
 30
0.0
 11
75.43571674876848
 21
99.2566209800175
 31
0.0
  0
LINE
  5
A6
330
1F
100
AcDbEntity
  8
0
100
AcDbLine
 10
76.88571674876849
 20
99.2566209800175
 30
0.0
 11
76.88571674876849
 21
96.7566209800175
 31
0.0
  0
LINE
  5
A7
330
1F
100
AcDbEntity
  8
0
100
AcDbLine
 10
79.9857167487685
 20
96.7566209800175
 30
0.0
 11
79.9857167487685
 21
99.2566209800175
 31
0.0
  0
LINE
  5
A8
330
1F
100
AcDbEntity
  8
0
100
AcDbLine
 10
65.4357167487685
 20
101.6566209799056
 30
0.0
 11
65.4357167487685
 21
99.2566209800175
 31
0.0
  0
LINE
  5
A9
330
1F
100
AcDbEntity
  8
0
100
AcDbLine
 10
71.43571674876848
 20
99.2566209800175
 30
0.0
 11
71.43571674876848
 21
101.6566209799056
 31
0.0
  0
LINE
  5
AA
330
1F
100
AcDbEntity
  8
0
100
AcDbLine
 10
66.88571674876849
 20
99.2566209800175
 30
0.0
 11
66.88571674876849
 21
96.7566209800175
 31
0.0
  0
LINE
  5
AB
330
1F
100
AcDbEntity
  8
0
100
AcDbLine
 10
69.9857167487685
 20
96.7566209800175
 30
0.0
 11
69.9857167487685
 21
99.2566209800175
 31
0.0
  0
LINE
  5
AC
330
1F
100
AcDbEntity
  8
0
100
AcDbLine
 10
79.03571674876848
 20
101.6566209799056
 30
0.0
 11
79.03571674876848
 21
100.4566209800175
 31
0.0
  0
LINE
  5
AD
330
1F
100
AcDbEntity
  8
0
100
AcDbLine
 10
79.03571674876848
 20
101.6566209799056
 30
0.0
 11
81.43571674876863
 21
101.6566209799056
 31
0.0
  0
LINE
  5
AE
330
1F
100
AcDbEntity
  8
0
100
AcDbLine
 10
78.4357167487685
 20
99.2566209800175
 30
0.0
 11
81.43571674876848
 21
99.2566209800175
 31
0.0
  0
LINE
  5
AF
330
1F
100
AcDbEntity
  8
0
100
AcDbLine
 10
78.4357167487685
 20
100.4566209800175
 30
0.0
 11
78.4357167487685
 21
99.2566209800175
 31
0.0
  0
LINE
  5
B0
330
1F
100
AcDbEntity
  8
0
100
AcDbLine
 10
79.03571674876848
 20
100.4566209800175
 30
0.0
 11
78.4357167487685
 21
100.4566209800175
 31
0.0
  0
LINE
  5
B1
330
1F
100
AcDbEntity
  8
0
100
AcDbLine
 10
75.43571674876848
 20
99.2566209800175
 30
0.0
 11
78.4357167487685
 21
99.2566209800175
 31
0.0
  0
LINE
  5
B2
330
1F
100
AcDbEntity
  8
0
100
AcDbLine
 10
75.43571674876834
 20
101.6566209799056
 30
0.0
 11
77.83571674876849
 21
101.6566209799056
 31
0.0
  0
LINE
  5
B3
330
1F
100
AcDbEntity
  8
0
100
AcDbLine
 10
77.83571674876849
 20
100.4566209800175
 30
0.0
 11
77.83571674876849
 21
101.6566209799056
 31
0.0
  0
LINE
  5
B4
330
1F
100
AcDbEntity
  8
0
100
AcDbLine
 10
78.4357167487685
 20
100.4566209800175
 30
0.0
 11
77.83571674876849
 21
100.4566209800175
 31
0.0
  0
LINE
  5
B5
330
1F
100
AcDbEntity
  8
0
100
AcDbLine
 10
78.4357167487685
 20
99.2566209800175
 30
0.0
 11
78.4357167487685
 21
96.7566209800175
 31
0.0
  0
LINE
  5
B6
330
1F
100
AcDbEntity
  8
0
100
AcDbLine
 10
68.43571674876848
 20
99.2566209800175
 30
0.0
 11
65.4357167487685
 21
99.2566209800175
 31
0.0
  0
LINE
  5
B7
330
1F
100
AcDbEntity
  8
0
100
AcDbLine
 10
67.83571674876849
 20
101.6566209799056
 30
0.0
 11
65.43571674876836
 21
101.6566209799056
 31
0.0
  0
LINE
  5
B8
330
1F
100
AcDbEntity
  8
0
100
AcDbLine
 10
67.83571674876849
 20
101.6566209799056
 30
0.0
 11
67.83571674876849
 21
100.4566209800175
 31
0.0
  0
LINE
  5
B9
330
1F
100
AcDbEntity
  8
0
100
AcDbLine
 10
67.83571674876849
 20
100.4566209800175
 30
0.0
 11
68.43571674876848
 21
100.4566209800175
 31
0.0
  0
LINE
  5
BA
330
1F
100
AcDbEntity
  8
0
100
AcDbLine
 10
68.43571674876848
 20
100.4566209800175
 30
0.0
 11
68.43571674876848
 21
99.2566209800175
 31
0.0
  0
LINE
  5
BB
330
1F
100
AcDbEntity
  8
0
100
AcDbLine
 10
69.03571674876849
 20
100.4566209800175
 30
0.0
 11
69.03571674876849
 21
101.6566209799056
 31
0.0
  0
LINE
  5
BC
330
1F
100
AcDbEntity
  8
0
100
AcDbLine
 10
71.43571674876864
 20
101.6566209799056
 30
0.0
 11
69.03571674876849
 21
101.6566209799056
 31
0.0
  0
LINE
  5
BD
330
1F
100
AcDbEntity
  8
0
100
AcDbLine
 10
71.43571674876848
 20
99.2566209800175
 30
0.0
 11
68.43571674876848
 21
99.2566209800175
 31
0.0
  0
LINE
  5
BE
330
1F
100
AcDbEntity
  8
0
100
AcDbLine
 10
68.43571674876848
 20
100.4566209800175
 30
0.0
 11
69.03571674876849
 21
100.4566209800175
 31
0.0
  0
LINE
  5
BF
330
1F
100
AcDbEntity
  8
0
100
AcDbLine
 10
68.43571674876848
 20
99.2566209800175
 30
0.0
 11
68.43571674876848
 21
96.7566209800175
 31
0.0
  0
ARC
  5
C0
330
1F
100
AcDbEntity
  8
0
100
AcDbCircle
 10
64.5241050964168
 20
113.0191209800175
 30
0.0
 40
0.4463392767839215
100
AcDbArc
 50
101.4217536589613
 51
188.049466975533
  0
LINE
  5
C1
330
1F
100
AcDbEntity
  8
0
100
AcDbLine
 10
70.43571674876848
 20
113.4566209800175
 30
0.0
 11
64.4357167487685
 21
113.4566209800175
 31
0.0
  0
LINE
  5
C2
330
1F
100
AcDbEntity
  8
0
100
AcDbLine
 10
63.93571674876849
 20
112.7979814176338
 30
0.0
 11
63.93571674876849
 21
112.9566209800175
 31
0.0
  0
SPLINE
  5
C3
330
1F
100
AcDbEntity
  8
0
100
AcDbSpline
210
0.0
220
0.0
230
1.0
 70
     8
 71
     3
 72
     8
 73
     4
 74
     0
 42
1E-08
 43
1E-08
 40
0.0
 40
0.0
 40
0.0
 40
0.0
 40
1.0
 40
1.0
 40
1.0
 40
1.0
 10
64.08216335817521
 20
112.9566209800175
 30
0.0
 10
63.98960329696359
 20
112.9566209800175
 30
0.0
 10
63.93571674876849
 20
112.9566209800175
 30
0.0
 10
63.93571674876849
 20
112.9566209800175
 30
0.0
  0
ARC
  5
C4
330
1F
100
AcDbEntity
  8
0
100
AcDbCircle
 10
70.43571674876848
 20
112.9566209800175
 30
0.0
 40
0.5000000000000241
100
AcDbArc
 50
45.0000000000023
 51
90.0
  0
SPLINE
  5
C5
330
1F
100
AcDbEntity
  8
0
100
AcDbSpline
210
0.0
220
0.0
230
1.0
 70
     8
 71
     3
 72
    10
 73
     6
 74
     0
 42
1E-08
 43
1E-08
 40
0.0
 40
0.0
 40
0.0
 40
0.0
 40
0.3362669206310193
 40
0.6725338412619372
 40
1.0
 40
1.0
 40
1.0
 40
1.0
 10
70.78927013936176
 20
113.3101743706108
 30
0.0
 10
70.81101858850836
 20
113.2857023023226
 30
0.0
 10
70.85451548680152
 20
113.2367581657463
 30
0.0
 10
70.90096842173114
 20
113.1499931438661
 30
0.0
 10
70.91730482583949
 20
113.0874686871717
 30
0.0
 10
70.9253647217031
 20
113.0566209800175
 30
0.0
  0
SPLINE
  5
C6
330
1F
100
AcDbEntity
  8
0
100
AcDbSpline
210
0.0
220
0.0
230
1.0
 70
     8
 71
     3
 72
    10
 73
     6
 74
     0
 42
1E-08
 43
1E-08
 40
0.0
 40
0.0
 40
0.0
 40
0.0
 40
0.5
 40
0.5
 40
1.0
 40
1.0
 40
1.0
 40
1.0
 10
63.93571674876849
 20
112.9566209800175
 30
0.0
 10
63.93571674876849
 20
113.0875206739171
 30
0.0
 10
63.98960329696359
 20
113.2176143093992
 30
0.0
 10
64.17472341938685
 20
113.4027344318224
 30
0.0
 10
64.30481705486892
 20
113.4566209800175
 30
0.0
 10
64.4357167487685
 20
113.4566209800175
 30
0.0
  0
LINE
  5
C7
330
1F
100
AcDbEntity
  8
0
100
AcDbLine
 10
74.41071674876849
 20
101.8566209800175
 30
0.0
 11
82.46071674876849
 21
101.8566209800175
 31
0.0
  0
LINE
  5
C8
330
1F
100
AcDbEntity
  8
0
100
AcDbLine
 10
74.41071674876849
 20
102.4566209800175
 30
0.0
 11
82.46071674876849
 21
102.4566209800175
 31
0.0
  0
LINE
  5
C9
330
1F
100
AcDbEntity
  8
0
100
AcDbLine
 10
64.34962657102702
 20
113.0566209800175
 30
0.0
 11
64.34962657102702
 21
110.0566209800169
 31
0.0
  0
LINE
  5
CA
330
1F
100
AcDbEntity
  8
0
100
AcDbLine
 10
64.34962657102702
 20
113.0566209800175
 30
0.0
 11
65.18725557461333
 21
113.0566209800175
 31
0.0
  0
SPLINE
  5
CB
330
1F
100
AcDbEntity
  8
0
100
AcDbSpline
210
0.0
220
0.0
230
1.0
 70
     8
 71
     3
 72
    14
 73
    10
 74
     0
 42
1E-08
 43
1E-08
 40
0.0
 40
0.0
 40
0.0
 40
0.0
 40
0.2499999999999998
 40
0.2499999999999998
 40
0.4999999999999997
 40
0.4999999999999997
 40
0.7499999999999998
 40
0.7499999999999998
 40
1.0
 40
1.0
 40
1.0
 40
1.0
 10
65.18725557461333
 20
113.0566209800175
 30
0.0
 10
65.19885796163562
 20
112.9400542673283
 30
0.0
 10
65.27890785478984
 20
112.8153000756928
 30
0.0
 10
65.6080853112767
 20
112.5751519840242
 30
0.0
 10
65.85809366104026
 20
112.4604624154548
 30
0.0
 10
66.48840889779916
 20
112.2714282956741
 30
0.0
 10
66.86675548523914
 20
112.1976716463242
 30
0.0
 10
67.65299520110818
 20
112.1033015618993
 30
0.0
 10
68.05863917054452
 20
112.0823941758934
 30
0.0
 10
68.43571674876948
 20
112.0823941758934
 30
0.0
  0
SPLINE
  5
CC
330
1F
100
AcDbEntity
  8
0
100
AcDbSpline
210
0.0
220
0.0
230
1.0
 70
     8
 71
     3
 72
    14
 73
    10
 74
     0
 42
1E-08
 43
1E-08
 40
0.0
 40
0.0
 40
0.0
 40
0.0
 40
0.2499999999999998
 40
0.2499999999999998
 40
0.4999999999999996
 40
0.4999999999999996
 40
0.7499999999999993
 40
0.7499999999999993
 40
1.0
 40
1.0
 40
1.0
 40
1.0
 10
68.43571674876948
 20
112.0823941758934
 30
0.0
 10
68.81279432699445
 20
112.0823941758934
 30
0.0
 10
69.2184382964308
 20
112.1033015618993
 30
0.0
 10
70.00467801229983
 20
112.1976716463242
 30
0.0
 10
70.38302459973981
 20
112.2714282956741
 30
0.0
 10
71.01333983649873
 20
112.4604624154548
 30
0.0
 10
71.26334818626229
 20
112.5751519840242
 30
0.0
 10
71.59252564274915
 20
112.8153000756927
 30
0.0
 10
71.67257553590335
 20
112.9400542673283
 30
0.0
 10
71.68417792292566
 20
113.0566209800175
 30
0.0
  0
LINE
  5
CD
330
1F
100
AcDbEntity
  8
0
100
AcDbLine
 10
71.68417792292566
 20
113.0566209800175
 30
0.0
 11
75.18725557460932
 21
113.0566209800175
 31
0.0
  0
SPLINE
  5
CE
330
1F
100
AcDbEntity
  8
0
100
AcDbSpline
210
0.0
220
0.0
230
1.0
 70
     8
 71
     3
 72
    14
 73
    10
 74
     0
 42
1E-08
 43
1E-08
 40
0.0
 40
0.0
 40
0.0
 40
0.0
 40
0.2500000000000007
 40
0.2500000000000007
 40
0.5000000000000006
 40
0.5000000000000006
 40
0.7500000000000003
 40
0.7500000000000003
 40
1.0
 40
1.0
 40
1.0
 40
1.0
 10
75.18725557460932
 20
113.0566209800175
 30
0.0
 10
75.19885796163163
 20
112.9400542673283
 30
0.0
 10
75.27890785478583
 20
112.8153000756928
 30
0.0
 10
75.60808531127269
 20
112.5751519840242
 30
0.0
 10
75.85809366103625
 20
112.4604624154548
 30
0.0
 10
76.48840889779517
 20
112.2714282956741
 30
0.0
 10
76.86675548523515
 20
112.1976716463242
 30
0.0
 10
77.65299520110418
 20
112.1033015618993
 30
0.0
 10
78.05863917054053
 20
112.0823941758934
 30
0.0
 10
78.43571674876549
 20
112.0823941758934
 30
0.0
  0
SPLINE
  5
CF
330
1F
100
AcDbEntity
  8
0
100
AcDbSpline
210
0.0
220
0.0
230
1.0
 70
     8
 71
     3
 72
    14
 73
    10
 74
     0
 42
1E-08
 43
1E-08
 40
0.0
 40
0.0
 40
0.0
 40
0.0
 40
0.2500000000000002
 40
0.2500000000000002
 40
0.5000000000000004
 40
0.5000000000000004
 40
0.7500000000000007
 40
0.7500000000000007
 40
1.0
 40
1.0
 40
1.0
 40
1.0
 10
78.43571674876549
 20
112.0823941758934
 30
0.0
 10
78.81279432699046
 20
112.0823941758934
 30
0.0
 10
79.2184382964268
 20
112.1033015618993
 30
0.0
 10
80.00467801229583
 20
112.1976716463242
 30
0.0
 10
80.38302459973582
 20
112.2714282956741
 30
0.0
 10
81.01333983649472
 20
112.4604624154548
 30
0.0
 10
81.26334818625827
 20
112.5751519840242
 30
0.0
 10
81.59252564274513
 20
112.8153000756927
 30
0.0
 10
81.67257553589936
 20
112.9400542673283
 30
0.0
 10
81.68417792292165
 20
113.0566209800175
 30
0.0
  0
LINE
  5
D0
330
1F
100
AcDbEntity
  8
0
100
AcDbLine
 10
81.68417792292165
 20
113.0566209800175
 30
0.0
 11
83.43671674876849
 21
113.0566209800175
 31
0.0
  0
LINE
  5
D1
330
1F
100
AcDbEntity
  8
0
100
AcDbLine
 10
83.43671674876849
 20
110.0566209800169
 30
0.0
 11
83.43671674876849
 21
113.0566209800175
 31
0.0
  0
LINE
  5
D2
330
1F
100
AcDbEntity
  8
0
100
AcDbLine
 10
64.34962657102702
 20
110.0566209800169
 30
0.0
 11
83.43671674876849
 21
110.0566209800169
 31
0.0
  0
LINE
  5
D3
330
1F
100
AcDbEntity
  8
0
100
AcDbLine
 10
83.43571674876848
 20
90.2566209800175
 30
0.0
 11
85.93571674876848
 21
90.2566209800175
 31
0.0
  0
LINE
  5
D4
330
1F
100
AcDbEntity
  8
0
100
AcDbLine
 10
85.93571674876848
 20
90.2566209800175
 30
0.0
 11
85.93571674876848
 21
85.05662098001751
 31
0.0
  0
LINE
  5
D5
330
1F
100
AcDbEntity
  8
0
100
AcDbLine
 10
83.43571674876848
 20
85.05662098001751
 30
0.0
 11
85.93571674876848
 21
85.05662098001751
 31
0.0
  0
LINE
  5
D6
330
1F
100
AcDbEntity
  8
0
100
AcDbLine
 10
83.43571674876848
 20
85.05662098001751
 30
0.0
 11
83.43571674876848
 21
90.2566209800175
 31
0.0
  0
LINE
  5
D7
330
1F
100
AcDbEntity
  8
0
100
AcDbLine
 10
83.43671674876849
 20
113.0566209800175
 30
0.0
 11
84.96071674876848
 21
110.6177111577588
 31
0.0
  0
LINE
  5
D8
330
1F
100
AcDbEntity
  8
0
100
AcDbLine
 10
84.96071674876848
 20
107.5037299446025
 30
0.0
 11
83.43671674876849
 21
110.0566209800169
 31
0.0
  0
LINE
  5
D9
330
1F
100
AcDbEntity
  8
0
100
AcDbLine
 10
84.96071674876848
 20
110.6177111577588
 30
0.0
 11
84.96071674876848
 21
107.5037299446025
 31
0.0
  0
LINE
  5
DA
330
1F
100
AcDbEntity
  8
0
100
AcDbLine
 10
72.46071674876849
 20
102.4566209800175
 30
0.0
 11
64.41071674876848
 21
102.4566209800175
 31
0.0
  0
LINE
  5
DB
330
1F
100
AcDbEntity
  8
0
100
AcDbLine
 10
72.46071674876849
 20
101.8566209800175
 30
0.0
 11
64.41071674876848
 21
101.8566209800175
 31
0.0
  0
LINE
  5
DC
330
1F
100
AcDbEntity
  8
0
100
AcDbLine
 10
60.93571674876849
 20
90.2566209800175
 30
0.0
 11
60.93571674876849
 21
85.05662098001751
 31
0.0
  0
LINE
  5
DD
330
1F
100
AcDbEntity
  8
0
100
AcDbLine
 10
60.93571674876849
 20
90.2566209800175
 30
0.0
 11
63.43571674876849
 21
90.2566209800175
 31
0.0
  0
LINE
  5
DE
330
1F
100
AcDbEntity
  8
0
100
AcDbLine
 10
60.93571674876849
 20
85.05662098001751
 30
0.0
 11
63.43571674876849
 21
85.05662098001751
 31
0.0
  0
LINE
  5
DF
330
1F
100
AcDbEntity
  8
0
100
AcDbLine
 10
63.43571674876849
 20
85.05662098001751
 30
0.0
 11
63.43571674876849
 21
90.2566209800175
 31
0.0
  0
LINE
  5
E0
330
1F
100
AcDbEntity
  8
0
100
AcDbLine
 10
72.46071674876849
 20
90.2566209800175
 30
0.0
 11
74.41071674876849
 21
90.2566209800175
 31
0.0
  0
LINE
  5
E1
330
1F
100
AcDbEntity
  8
0
100
AcDbLine
 10
72.46071674876849
 20
85.05662098001751
 30
0.0
 11
74.41071674876849
 21
85.05662098001751
 31
0.0
  0
LINE
  5
E2
330
1F
100
AcDbEntity
  8
0
100
AcDbLine
 10
72.46071674876849
 20
90.2566209800175
 30
0.0
 11
72.46071674876849
 21
85.05662098001751
 31
0.0
  0
LINE
  5
E3
330
1F
100
AcDbEntity
  8
0
100
AcDbLine
 10
74.41071674876849
 20
85.05662098001751
 30
0.0
 11
74.41071674876849
 21
90.2566209800175
 31
0.0
  0
LINE
  5
E4
330
1F
100
AcDbEntity
  8
0
100
AcDbLine
 10
61.91071674876849
 20
108.4613976132223
 30
0.0
 11
61.91071674876849
 21
111.5326209800175
 31
0.0
  0
LINE
  5
E5
330
1F
100
AcDbEntity
  8
0
100
AcDbLine
 10
61.91071674876849
 20
111.5326209800175
 30
0.0
 11
64.34962657102702
 21
113.0566209800175
 31
0.0
  0
LINE
  5
E6
330
1F
100
AcDbEntity
  8
0
100
AcDbLine
 10
64.34962657102702
 20
110.0566209800169
 30
0.0
 11
61.91071674876849
 21
108.4613976132223
 31
0.0
  0
LINE
  5
E7
330
1F
100
AcDbEntity
  8
0
100
AcDbLine
 10
61.91071674876849
 20
97.05662098001751
 30
0.0
 11
61.91071674876849
 21
108.4613976132223
 31
0.0
  0
LINE
  5
E8
330
1F
100
AcDbEntity
  8
0
100
AcDbLine
 10
85.93571674876848
 20
93.0566209800175
 30
0.0
 11
85.93571674876848
 21
90.2566209800175
 31
0.0
  0
LINE
  5
E9
330
1F
100
AcDbEntity
  8
0
100
AcDbLine
 10
83.0847167487685
 20
94.2566209800175
 30
0.0
 11
83.43571674876848
 21
92.8166209800175
 31
0.0
  0
LINE
  5
EA
330
1F
100
AcDbEntity
  8
0
100
AcDbLine
 10
60.93571674876849
 20
93.0566209800175
 30
0.0
 11
60.93571674876849
 21
90.2566209800175
 31
0.0
  0
LINE
  5
EB
330
1F
100
AcDbEntity
  8
0
100
AcDbLine
 10
72.46071674876849
 20
102.4566209800175
 30
0.0
 11
72.46071674876849
 21
90.2566209800175
 31
0.0
  0
LINE
  5
EC
330
1F
100
AcDbEntity
  8
0
100
AcDbLine
 10
64.41071674876848
 20
94.2566209800175
 30
0.0
 11
63.78671674876848
 21
94.2566209800175
 31
0.0
  0
LINE
  5
ED
330
1F
100
AcDbEntity
  8
0
100
AcDbLine
 10
60.93571674876849
 20
93.0566209800175
 30
0.0
 11
61.91071674876849
 21
97.05662098001751
 31
0.0
  0
LINE
  5
EE
330
1F
100
AcDbEntity
  8
0
100
AcDbLine
 10
64.41071674876848
 20
102.4566209800175
 30
0.0
 11
64.41071674876848
 21
94.2566209800175
 31
0.0
  0
LINE
  5
EF
330
1F
100
AcDbEntity
  8
0
100
AcDbLine
 10
63.78671674876848
 20
94.2566209800175
 30
0.0
 11
63.43571674876849
 21
92.8166209800175
 31
0.0
  0
LINE
  5
F0
330
1F
100
AcDbEntity
  8
0
100
AcDbLine
 10
63.43571674876849
 20
92.8166209800175
 30
0.0
 11
63.43571674876849
 21
90.2566209800175
 31
0.0
  0
LINE
  5
F1
330
1F
100
AcDbEntity
  8
0
100
AcDbLine
 10
84.96071674876848
 20
97.05662098001751
 30
0.0
 11
85.93571674876848
 21
93.0566209800175
 31
0.0
  0
LINE
  5
F2
330
1F
100
AcDbEntity
  8
0
100
AcDbLine
 10
84.96071674876848
 20
107.5037299446025
 30
0.0
 11
84.96071674876848
 21
97.05662098001751
 31
0.0
  0
LINE
  5
F3
330
1F
100
AcDbEntity
  8
0
100
AcDbLine
 10
74.41071674876849
 20
102.4566209800175
 30
0.0
 11
74.41071674876849
 21
90.2566209800175
 31
0.0
  0
LINE
  5
F4
330
1F
100
AcDbEntity
  8
0
100
AcDbLine
 10
82.46071674876849
 20
102.4566209800175
 30
0.0
 11
82.46071674876849
 21
94.2566209800175
 31
0.0
  0
LINE
  5
F5
330
1F
100
AcDbEntity
  8
0
100
AcDbLine
 10
82.46071674876849
 20
94.2566209800175
 30
0.0
 11
83.0847167487685
 21
94.2566209800175
 31
0.0
  0
LINE
  5
F6
330
1F
100
AcDbEntity
  8
0
100
AcDbLine
 10
83.43571674876848
 20
92.8166209800175
 30
0.0
 11
83.43571674876848
 21
90.2566209800175
 31
0.0
  0
LINE
  5
F7
330
1F
100
AcDbEntity
  8
0
100
AcDbLine
 10
71.43571674876848
 20
80.55662098001751
 30
0.0
 11
71.43571674876848
 21
79.0566209800175
 31
0.0
  0
LINE
  5
F8
330
1F
100
AcDbEntity
  8
0
100
AcDbLine
 10
71.43571674876848
 20
80.55662098001751
 30
0.0
 11
75.43571674876848
 21
80.55662098001751
 31
0.0
  0
LINE
  5
F9
330
1F
100
AcDbEntity
  8
0
100
AcDbLine
 10
75.43571674876848
 20
80.55662098001751
 30
0.0
 11
75.43571674876848
 21
79.0566209800175
 31
0.0
  0
LINE
  5
FA
330
1F
100
AcDbEntity
  8
0
100
AcDbLine
 10
71.43571674876848
 20
79.0566209800175
 30
0.0
 11
75.43571674876848
 21
79.0566209800175
 31
0.0
  0
LINE
  5
FB
330
1F
100
AcDbEntity
  8
0
100
AcDbLine
 10
74.41071674876849
 20
95.7566209800175
 30
0.0
 11
82.46071674876849
 21
95.7566209800175
 31
0.0
  0
LINE
  5
FC
330
1F
100
AcDbEntity
  8
0
100
AcDbLine
 10
74.41071674876849
 20
96.7566209800175
 30
0.0
 11
82.46071674876849
 21
96.7566209800175
 31
0.0
  0
LINE
  5
FD
330
1F
100
AcDbEntity
  8
0
100
AcDbLine
 10
72.46071674876849
 20
95.7566209800175
 30
0.0
 11
64.41071674876848
 21
95.7566209800175
 31
0.0
  0
LINE
  5
FE
330
1F
100
AcDbEntity
  8
0
100
AcDbLine
 10
72.46071674876849
 20
96.7566209800175
 30
0.0
 11
64.41071674876848
 21
96.7566209800175
 31
0.0
  0
LINE
  5
FF
330
1F
100
AcDbEntity
  8
0
100
AcDbLine
 10
83.43571674876848
 20
78.0566209800175
 30
0.0
 11
85.93571674876848
 21
78.0566209800175
 31
0.0
  0
LINE
  5
100
330
1F
100
AcDbEntity
  8
0
100
AcDbLine
 10
83.43571674876848
 20
85.05662098001751
 30
0.0
 11
83.43571674876848
 21
78.0566209800175
 31
0.0
  0
LINE
  5
101
330
1F
100
AcDbEntity
  8
0
100
AcDbLine
 10
85.93571674876848
 20
85.05662098001751
 30
0.0
 11
85.93571674876848
 21
78.0566209800175
 31
0.0
  0
LINE
  5
102
330
1F
100
AcDbEntity
  8
0
100
AcDbLine
 10
65.4357167487685
 20
94.2566209800175
 30
0.0
 11
65.4357167487685
 21
95.7566209800175
 31
0.0
  0
LINE
  5
103
330
1F
100
AcDbEntity
  8
0
100
AcDbLine
 10
71.43571674876848
 20
94.2566209800175
 30
0.0
 11
65.4357167487685
 21
94.2566209800175
 31
0.0
  0
LINE
  5
104
330
1F
100
AcDbEntity
  8
0
100
AcDbLine
 10
71.43571674876848
 20
95.7566209800175
 30
0.0
 11
71.43571674876848
 21
94.2566209800175
 31
0.0
  0
LINE
  5
105
330
1F
100
AcDbEntity
  8
0
100
AcDbLine
 10
63.43571674876849
 20
85.05662098001751
 30
0.0
 11
72.46071674876849
 21
85.05662098001751
 31
0.0
  0
LINE
  5
106
330
1F
100
AcDbEntity
  8
0
100
AcDbLine
 10
63.43571674876849
 20
78.0566209800175
 30
0.0
 11
63.43571674876849
 21
85.05662098001751
 31
0.0
  0
LINE
  5
107
330
1F
100
AcDbEntity
  8
0
100
AcDbLine
 10
60.93571674876849
 20
78.0566209800175
 30
0.0
 11
63.43571674876849
 21
78.0566209800175
 31
0.0
  0
LINE
  5
108
330
1F
100
AcDbEntity
  8
0
100
AcDbLine
 10
60.93571674876849
 20
85.05662098001751
 30
0.0
 11
60.93571674876849
 21
78.0566209800175
 31
0.0
  0
LINE
  5
109
330
1F
100
AcDbEntity
  8
0
100
AcDbLine
 10
83.43571674876848
 20
85.05662098001751
 30
0.0
 11
74.41071674876849
 21
85.05662098001751
 31
0.0
  0
LINE
  5
10A
330
1F
100
AcDbEntity
  8
0
100
AcDbLine
 10
81.43571674876848
 20
95.7566209800175
 30
0.0
 11
81.43571674876848
 21
94.2566209800175
 31
0.0
  0
LINE
  5
10B
330
1F
100
AcDbEntity
  8
0
100
AcDbLine
 10
75.43571674876848
 20
94.2566209800175
 30
0.0
 11
75.43571674876848
 21
95.7566209800175
 31
0.0
  0
LINE
  5
10C
330
1F
100
AcDbEntity
  8
0
100
AcDbLine
 10
81.43571674876848
 20
94.2566209800175
 30
0.0
 11
75.43571674876848
 21
94.2566209800175
 31
0.0
  0
LINE
  5
10D
330
1F
100
AcDbEntity
  8
0
100
AcDbLine
 10
68.43571674876948
 20
113.0566209800175
 30
0.0
 11
65.18725557461333
 21
113.0566209800175
 31
0.0
  0
LINE
  5
10E
330
1F
100
AcDbEntity
  8
0
100
AcDbLine
 10
71.68417792292566
 20
113.0566209800175
 30
0.0
 11
68.43571674876948
 21
113.0566209800175
 31
0.0
  0
LINE
  5
10F
330
1F
100
AcDbEntity
  8
0
100
AcDbLine
 10
81.68417792292165
 20
113.0566209800175
 30
0.0
 11
78.43571674876549
 21
113.0566209800175
 31
0.0
  0
LINE
  5
110
330
1F
100
AcDbEntity
  8
0
100
AcDbLine
 10
78.43571674876549
 20
113.0566209800175
 30
0.0
 11
75.18725557460932
 21
113.0566209800175
 31
0.0
  0
LINE
  5
111
330
1F
100
AcDbEntity
  8
0
100
AcDbLine
 10
73.93571674876848
 20
78.0566209800175
 30
0.0
 11
73.93571674876848
 21
79.0566209800175
 31
0.0
  0
LINE
  5
112
330
1F
100
AcDbEntity
  8
0
100
AcDbLine
 10
73.93571674876848
 20
78.0566209800175
 30
0.0
 11
72.93571674876848
 21
78.0566209800175
 31
0.0
  0
LINE
  5
113
330
1F
100
AcDbEntity
  8
0
100
AcDbLine
 10
72.93571674876848
 20
78.0566209800175
 30
0.0
 11
72.93571674876848
 21
79.0566209800175
 31
0.0
  0
LINE
  5
114
330
1F
100
AcDbEntity
  8
0
100
AcDbLine
 10
72.93571674876848
 20
80.55662098001751
 30
0.0
 11
72.93571674876848
 21
85.05662098001751
 31
0.0
  0
LINE
  5
115
330
1F
100
AcDbEntity
  8
0
100
AcDbLine
 10
73.93571674876848
 20
80.55662098001751
 30
0.0
 11
73.93571674876848
 21
85.05662098001751
 31
0.0
  0
LINE
  5
116
330
1F
100
AcDbEntity
  8
0
100
AcDbLine
 10
82.68516139882229
 20
80.3566209800175
 30
0.0
 11
82.68516139882229
 21
85.05662098001751
 31
0.0
  0
LINE
  5
117
330
1F
100
AcDbEntity
  8
0
100
AcDbLine
 10
82.38571674876768
 20
80.3566209800175
 30
0.0
 11
82.38571674876768
 21
85.05662098001751
 31
0.0
  0
LINE
  5
118
330
1F
100
AcDbEntity
  8
0
100
AcDbLine
 10
64.4857167487685
 20
80.3566209800175
 30
0.0
 11
64.4857167487685
 21
85.05662098001751
 31
0.0
  0
LINE
  5
119
330
1F
100
AcDbEntity
  8
0
100
AcDbLine
 10
64.18627209871373
 20
85.05662098001751
 30
0.0
 11
64.18627209871373
 21
80.3566209800175
 31
0.0
  0
LINE
  5
11A
330
1F
100
AcDbEntity
  8
0
100
AcDbLine
 10
71.43571674876848
 20
77.5566209800175
 30
0.0
 11
75.43571674876848
 21
77.5566209800175
 31
0.0
  0
LINE
  5
11B
330
1F
100
AcDbEntity
  8
0
100
AcDbLine
 10
71.43571674876848
 20
79.0566209800175
 30
0.0
 11
71.43571674876848
 21
77.5566209800175
 31
0.0
  0
LINE
  5
11C
330
1F
100
AcDbEntity
  8
0
100
AcDbLine
 10
75.43571674876848
 20
79.0566209800175
 30
0.0
 11
75.43571674876848
 21
77.5566209800175
 31
0.0
  0
LINE
  5
11D
330
1F
100
AcDbEntity
  8
0
100
AcDbLine
 10
80.38571674876849
 20
80.3566209800175
 30
0.0
 11
80.38571674876849
 21
78.0566209800175
 31
0.0
  0
LINE
  5
11E
330
1F
100
AcDbEntity
  8
0
100
AcDbLine
 10
82.68516139882229
 20
80.3566209800175
 30
0.0
 11
80.38571674876849
 21
80.3566209800175
 31
0.0
  0
LINE
  5
11F
330
1F
100
AcDbEntity
  8
0
100
AcDbLine
 10
80.38571674876849
 20
78.0566209800175
 30
0.0
 11
83.43571674876848
 21
78.0566209800175
 31
0.0
  0
LINE
  5
120
330
1F
100
AcDbEntity
  8
0
100
AcDbLine
 10
66.4857167487685
 20
80.3566209800175
 30
0.0
 11
64.18627209871373
 21
80.3566209800175
 31
0.0
  0
LINE
  5
121
330
1F
100
AcDbEntity
  8
0
100
AcDbLine
 10
66.4857167487685
 20
80.3566209800175
 30
0.0
 11
66.4857167487685
 21
78.0566209800175
 31
0.0
  0
LINE
  5
122
330
1F
100
AcDbEntity
  8
0
100
AcDbLine
 10
63.43571674876849
 20
78.0566209800175
 30
0.0
 11
66.4857167487685
 21
78.0566209800175
 31
0.0
  0
LINE
  5
123
330
1F
100
AcDbEntity
  8
0
100
AcDbLine
 10
71.43571674876848
 20
83.05662098001751
 30
0.0
 11
71.43571674876848
 21
80.55662098001751
 31
0.0
  0
LINE
  5
124
330
1F
100
AcDbEntity
  8
0
100
AcDbLine
 10
75.43571674876848
 20
83.05662098001751
 30
0.0
 11
75.43571674876848
 21
80.55662098001751
 31
0.0
  0
LINE
  5
125
330
1F
100
AcDbEntity
  8
0
100
AcDbLine
 10
71.43571674876848
 20
85.05662098001751
 30
0.0
 11
71.43571674876848
 21
83.05662098001751
 31
0.0
  0
LINE
  5
126
330
1F
100
AcDbEntity
  8
0
100
AcDbLine
 10
75.43571674876848
 20
85.05662098001751
 30
0.0
 11
75.43571674876848
 21
83.05662098001751
 31
0.0
  0
LINE
  5
127
330
1F
100
AcDbEntity
  8
0
100
AcDbLine
 10
76.88571674876849
 20
80.35662098001751
 30
0.0
 11
75.43571674876848
 21
80.35662098001751
 31
0.0
  0
LINE
  5
128
330
1F
100
AcDbEntity
  8
0
100
AcDbLine
 10
76.88571674876849
 20
80.35662098001751
 30
0.0
 11
76.88571674876849
 21
79.4566209800175
 31
0.0
  0
LINE
  5
129
330
1F
100
AcDbEntity
  8
0
100
AcDbLine
 10
75.43571674876848
 20
79.4566209800175
 30
0.0
 11
76.88571674876849
 21
79.4566209800175
 31
0.0
  0
LINE
  5
12A
330
1F
100
AcDbEntity
  8
0
100
AcDbLine
 10
76.88571674876849
 20
79.2066209800175
 30
0.0
 11
76.88571674876849
 21
79.4566209800175
 31
0.0
  0
LINE
  5
12B
330
1F
100
AcDbEntity
  8
0
100
AcDbLine
 10
76.88571674876849
 20
79.2066209800175
 30
0.0
 11
75.43571674876848
 21
79.2066209800175
 31
0.0
  0
LINE
  5
12C
330
1F
100
AcDbEntity
  8
0
100
AcDbLine
 10
69.9857167487685
 20
79.2066209800175
 30
0.0
 11
71.43571674876848
 21
79.2066209800175
 31
0.0
  0
LINE
  5
12D
330
1F
100
AcDbEntity
  8
0
100
AcDbLine
 10
76.88571674876849
 20
79.2066209800175
 30
0.0
 11
76.88571674876849
 21
78.0566209800175
 31
0.0
  0
LINE
  5
12E
330
1F
100
AcDbEntity
  8
0
100
AcDbLine
 10
76.88571674876849
 20
78.0566209800175
 30
0.0
 11
75.43571674876848
 21
78.0566209800175
 31
0.0
  0
LINE
  5
12F
330
1F
100
AcDbEntity
  8
0
100
AcDbLine
 10
71.43571674876848
 20
78.0566209800175
 30
0.0
 11
69.9857167487685
 21
78.0566209800175
 31
0.0
  0
LINE
  5
130
330
1F
100
AcDbEntity
  8
0
100
AcDbLine
 10
69.9857167487685
 20
78.0566209800175
 30
0.0
 11
69.9857167487685
 21
79.2066209800175
 31
0.0
  0
LINE
  5
131
330
1F
100
AcDbEntity
  8
0
100
AcDbLine
 10
69.9857167487685
 20
79.4566209800175
 30
0.0
 11
71.43571674876848
 21
79.45662098001749
 31
0.0
  0
LINE
  5
132
330
1F
100
AcDbEntity
  8
0
100
AcDbLine
 10
69.9857167487685
 20
80.3566209800175
 30
0.0
 11
71.43571674876848
 21
80.3566209800175
 31
0.0
  0
LINE
  5
133
330
1F
100
AcDbEntity
  8
0
100
AcDbLine
 10
69.9857167487685
 20
80.3566209800175
 30
0.0
 11
69.9857167487685
 21
79.4566209800175
 31
0.0
  0
LINE
  5
134
330
1F
100
AcDbEntity
  8
0
100
AcDbLine
 10
69.9857167487685
 20
79.2066209800175
 30
0.0
 11
69.9857167487685
 21
79.4566209800175
 31
0.0
  0
SPLINE
  5
135
330
1F
100
AcDbEntity
  8
0
100
AcDbSpline
210
0.0
220
0.0
230
1.0
 70
     8
 71
     3
 72
    11
 73
     7
 74
     0
 42
1E-08
 43
1E-08
 40
0.0
 40
0.0
 40
0.0
 40
0.0
 40
0.2875732566877064
 40
0.5751465133754131
 40
0.8627197700631213
 40
1.0
 40
1.0
 40
1.0
 40
1.0
 10
64.4357167487685
 20
113.4566209800175
 30
0.0
 10
64.4357167487685
 20
113.4491502466163
 30
0.0
 10
64.4357167487685
 20
113.4342087798138
 30
0.0
 10
64.4357167487685
 20
113.3179083783664
 30
0.0
 10
64.4357167487685
 20
113.1835484111791
 30
0.0
 10
64.4357167487685
 20
113.0876182790974
 30
0.0
 10
64.4357167487685
 20
113.0566209800175
 30
0.0
  0
LINE
  5
136
330
1F
100
AcDbEntity
  8
0
100
AcDbLine
 10
64.1895931181229
 20
112.9566209800175
 30
0.0
 11
64.08216335817522
 21
112.9566209800175
 31
0.0
  0
SPLINE
  5
137
330
1F
100
AcDbEntity
  8
0
100
AcDbSpline
210
0.0
220
0.0
230
1.0
 70
     8
 71
     3
 72
    11
 73
     7
 74
     0
 42
1E-08
 43
1E-08
 40
0.0
 40
0.0
 40
0.0
 40
0.0
 40
0.1372802299368984
 40
0.4248534866245955
 40
0.7124267433122985
 40
1.0
 40
1.0
 40
1.0
 40
1.0
 10
70.43571674876848
 20
113.0566209800175
 30
0.0
 10
70.43571674876848
 20
113.0876182790974
 30
0.0
 10
70.43571674876848
 20
113.1835484111791
 30
0.0
 10
70.43571674876848
 20
113.3179083783664
 30
0.0
 10
70.43571674876848
 20
113.4342087798137
 30
0.0
 10
70.43571674876848
 20
113.4491502466163
 30
0.0
 10
70.43571674876848
 20
113.4566209800175
 30
0.0
  0
LINE
  5
138
330
1F
100
AcDbEntity
  8
0
100
AcDbLine
 10
70.78927013936176
 20
113.3101743706108
 30
0.0
 11
70.53571674876849
 21
113.0566209800175
 31
0.0
  0
LINE
  5
139
330
1F
100
AcDbEntity
  8
0
100
AcDbLine
 10
68.43571674876948
 20
112.0823941758934
 30
0.0
 11
68.43571674876948
 21
113.0566209800175
 31
0.0
  0
LINE
  5
13A
330
1F
100
AcDbEntity
  8
0
100
AcDbLine
 10
78.43571674876549
 20
112.0823941758934
 30
0.0
 11
78.43571674876549
 21
113.0566209800175
 31
0.0
  0
LINE
  5
13B
330
1F
100
AcDbEntity
  8
0
100
AcDbLine
 10
71.43571674876848
 20
83.05662098001751
 30
0.0
 11
72.93571674876848
 21
83.05662098001751
 31
0.0
  0
LINE
  5
13C
330
1F
100
AcDbEntity
  8
0
100
AcDbLine
 10
73.93571674876848
 20
83.05662098001751
 30
0.0
 11
75.43571674876848
 21
83.05662098001751
 31
0.0
  0
DIMENSION
  5
13D
330
1F
100
AcDbEntity
  8
DIMENSIONS
100
AcDbDimension
  2
_D
 10
60.93571674876849
 20
64.04878232758618
 30
0.0
 11
73.25491379310344
 21
64.04878232758618
 31
0.0
 70
   160
  1
<>
 71
     2
 42
-1.0
  3
SLDDIMSTYLE0
100
AcDbAlignedDimension
 13
85.93571674876848
 23
78.0566209800175
 33
0.0
 14
60.93571674876849
 24
78.0566209800175
 34
0.0
 52
0.0
100
AcDbRotatedDimension
  0
DIMENSION
  5
152
330
1F
100
AcDbEntity
  8
DIMENSIONS
100
AcDbDimension
  2
_D_1
 10
84.96071674876848
 20
126.4597025862069
 30
0.0
 11
73.72952155172415
 21
126.4597025862069
 31
0.0
 70
   160
  1
<>
 71
     2
 42
-1.0
  3
SLDDIMSTYLE1
100
AcDbAlignedDimension
 13
61.91071674876849
 23
111.5326209800175
 33
0.0
 14
84.96071674876848
 24
107.5037299446025
 34
0.0
 52
0.0
100
AcDbRotatedDimension
  0
ARC
  5
167
330
1F
100
AcDbEntity
  8
0
100
AcDbCircle
 10
235.927773111725
 20
182.9970135316371
 30
0.0
 40
0.5000000000000284
100
AcDbArc
 50
0.0
 51
59.99462412261166
  0
LINE
  5
168
330
1F
100
AcDbEntity
  8
0
100
AcDbLine
 10
236.4277731117251
 20
182.5509033570457
 30
0.0
 11
236.4277731117251
 21
182.9970135316371
 31
0.0
  0
LINE
  5
169
330
1F
100
AcDbEntity
  8
0
100
AcDbLine
 10
236.1777527948841
 20
183.4300379628274
 30
0.0
 11
231.9351121077648
 21
185.8792622982955
 31
0.0
  0
ARC
  5
16A
330
1F
100
AcDbEntity
  8
0
100
AcDbCircle
 10
230.41234021847
 20
184.7114705664648
 30
0.0
 40
0.5000000000000657
100
AcDbArc
 50
120.0626590779004
 51
180.0178551942171
  0
LINE
  5
16B
330
1F
100
AcDbEntity
  8
0
100
AcDbLine
 10
229.91234021847
 20
184.7114705664648
 30
0.0
 11
229.91234021847
 21
184.1837195806911
 31
0.0
  0
LINE
  5
16C
330
1F
100
AcDbEntity
  8
0
100
AcDbLine
 10
231.4351527414467
 20
185.8792622982955
 30
0.0
 11
230.162360535311
 21
185.1444949976551
 31
0.0
  0
ARC
  5
16D
330
1F
100
AcDbEntity
  8
0
100
AcDbCircle
 10
231.6851324246058
 20
185.4462378671052
 30
0.0
 40
0.4999999999999789
100
AcDbArc
 50
59.86052169966207
 51
119.9973117336512
  0
SPLINE
  5
16E
330
1F
100
AcDbEntity
  8
0
100
AcDbSpline
210
0.0
220
0.0
230
1.0
 70
     8
 71
     3
 72
    10
 73
     6
 74
     0
 42
1E-08
 43
1E-08
 40
0.0
 40
0.0
 40
0.0
 40
0.0
 40
0.5
 40
0.5
 40
1.0
 40
1.0
 40
1.0
 40
1.0
 10
235.0085342961825
 20
182.058144203041
 30
0.0
 10
234.9159742349709
 20
182.0047104170736
 30
0.0
 10
234.7858805994888
 20
181.9736023749539
 30
0.0
 10
234.5240812116897
 20
181.9736023749539
 30
0.0
 10
234.3939875762076
 20
182.0047104170736
 30
0.0
 10
234.301427514996
 20
182.058144203041
 30
0.0
  0
LWPOLYLINE
  5
16F
330
1F
100
AcDbEntity
  8
0
100
AcDbPolyline
 90
        9
 70
   128
 43
0.0
 10
234.9049809055893
 20
182.4066150755753
 10
234.8312023808693
 20
182.3640227383501
 10
234.7506517636805
 20
182.3175191870244
 10
234.6664245690681
 20
182.2688915269959
 10
234.5817576008859
 20
182.2200084919689
 10
234.4999045632393
 20
182.1727486295655
 10
234.4240110224614
 20
182.1289281097943
 10
234.3569935247627
 20
182.0902309306552
 10
234.301427514996
 20
182.0581442030409
  0
SPLINE
  5
170
330
1F
100
AcDbEntity
  8
0
100
AcDbSpline
210
0.0
220
0.0
230
1.0
 70
     8
 71
     3
 72
     8
 73
     4
 74
     0
 42
1E-08
 43
1E-08
 40
0.0
 40
0.0
 40
0.0
 40
0.0
 40
1.0
 40
1.0
 40
1.0
 40
1.0
 10
234.9049809055893
 20
182.4066150755752
 30
0.0
 10
234.970430752539
 20
182.2932526156433
 30
0.0
 10
235.0085342961825
 20
182.1650291453733
 30
0.0
 10
235.0085342961825
 20
182.0581442030409
 30
0.0
  0
SPLINE
  5
171
330
1F
100
AcDbEntity
  8
0
100
AcDbSpline
210
0.0
220
0.0
230
1.0
 70
     8
 71
     3
 72
    10
 73
     6
 74
     0
 42
1E-08
 43
1E-08
 40
0.0
 40
0.0
 40
0.0
 40
0.0
 40
0.5
 40
0.5
 40
1.0
 40
1.0
 40
1.0
 40
1.0
 10
234.301427514996
 20
182.0581442030409
 30
0.0
 10
234.301427514996
 20
182.1650291453733
 30
0.0
 10
234.3395310586395
 20
182.2932526156433
 30
0.0
 10
234.470430752539
 20
182.5199775355072
 30
0.0
 10
234.5624208443776
 20
182.6170828509721
 30
0.0
 10
234.6549809055893
 20
182.6705166369395
 30
0.0
  0
ARC
  5
172
330
1F
100
AcDbEntity
  8
0
100
AcDbCircle
 10
234.2732276831026
 20
182.0585069094032
 30
0.0
 40
0.7213122967744208
100
AcDbArc
 50
28.85560887920798
 51
58.04532835050011
  0
LINE
  5
173
330
1F
100
AcDbEntity
  8
0
100
AcDbLine
 10
234.301427514996
 20
182.0581442030409
 30
0.0
 11
230.0587868278767
 21
184.5073685385091
 31
0.0
  0
SPLINE
  5
174
330
1F
100
AcDbEntity
  8
0
100
AcDbSpline
210
0.0
220
0.0
230
1.0
 70
     8
 71
     3
 72
    10
 73
     6
 74
     0
 42
1E-08
 43
1E-08
 40
0.0
 40
0.0
 40
0.0
 40
0.0
 40
0.5
 40
0.5
 40
1.0
 40
1.0
 40
1.0
 40
1.0
 10
230.41234021847
 20
185.1197409724076
 30
0.0
 10
230.3197801572584
 20
185.0663071864403
 30
0.0
 10
230.2277900654198
 20
184.9692018709753
 30
0.0
 10
230.0968903715202
 20
184.7424769511114
 30
0.0
 10
230.0587868278767
 20
184.6142534808414
 30
0.0
 10
230.0587868278767
 20
184.5073685385091
 30
0.0
  0
LINE
  5
175
330
1F
100
AcDbEntity
  8
0
100
AcDbLine
 10
234.6549809055893
 20
182.6705166369395
 30
0.0
 11
230.41234021847
 21
185.1197409724076
 31
0.0
  0
LINE
  5
176
330
1F
100
AcDbEntity
  8
0
100
AcDbLine
 10
235.9277731117251
 20
183.4052839375799
 30
0.0
 11
234.6549809055893
 21
182.6705166369395
 31
0.0
  0
SPLINE
  5
177
330
1F
100
AcDbEntity
  8
0
100
AcDbSpline
210
0.0
220
0.0
230
1.0
 70
     8
 71
     3
 72
    10
 73
     6
 74
     0
 42
1E-08
 43
1E-08
 40
0.0
 40
0.0
 40
0.0
 40
0.0
 40
0.5
 40
0.5
 40
1.0
 40
1.0
 40
1.0
 40
1.0
 10
236.2813265023183
 20
182.7929115036814
 30
0.0
 10
236.2813265023183
 20
182.8997964460137
 30
0.0
 10
236.2432229586748
 20
183.0280199162838
 30
0.0
 10
236.1123232647753
 20
183.2547448361476
 30
0.0
 10
236.0203331729367
 20
183.3518501516126
 30
0.0
 10
235.9277731117251
 20
183.4052839375799
 30
0.0
  0
LINE
  5
178
330
1F
100
AcDbEntity
  8
0
100
AcDbLine
 10
236.2813265023183
 20
182.7929115036814
 30
0.0
 11
235.0085342961825
 21
182.0581442030409
 31
0.0
  0
LINE
  5
179
330
1F
100
AcDbEntity
  8
0
100
AcDbLine
 10
231.6851324246058
 20
185.8545082730481
 30
0.0
 11
230.41234021847
 21
185.1197409724076
 31
0.0
  0
LINE
  5
17A
330
1F
100
AcDbEntity
  8
0
100
AcDbLine
 10
231.6851324246058
 20
185.8545082730481
 30
0.0
 11
235.9277731117251
 21
183.4052839375799
 31
0.0
  0
ARC
  5
17B
330
1F
100
AcDbEntity
  8
0
100
AcDbCircle
 10
236.0742299084141
 20
183.2008522684478
 30
0.0
 40
0.2514794238910853
100
AcDbArc
 50
65.68604783855662
 51
125.6181726599213
  0
ARC
  5
17C
330
1F
100
AcDbEntity
  8
0
100
AcDbCircle
 10
235.9044418621852
 20
183.0586274745967
 30
0.0
 40
0.461136649126656
100
AcDbArc
 50
324.8149143563979
 51
53.64875655120195
  0
ARC
  5
17D
330
1F
100
AcDbEntity
  8
0
100
AcDbCircle
 10
230.1625687497152
 20
184.7364237549143
 30
0.0
 40
0.2514696392468821
100
AcDbArc
 50
185.6947992511923
 51
245.6253417064172
  0
ARC
  5
17E
330
1F
100
AcDbEntity
  8
0
100
AcDbCircle
 10
230.3706825806544
 20
184.6604533518819
 30
0.0
 40
0.4611729362794303
100
AcDbArc
 50
84.81742213451594
 51
173.6486598634393
  0
ARC
  5
17F
330
1F
100
AcDbEntity
  8
0
100
AcDbCircle
 10
231.5386756279171
 20
185.6500766039157
 30
0.0
 40
0.2514794238914476
100
AcDbArc
 50
54.38182734013905
 51
114.3139521614929
  0
LINE
  5
180
330
1F
100
AcDbEntity
  8
0
100
AcDbLine
 10
227.5139095223863
 20
165.1577032540717
 30
0.0
 11
234.3728452998958
 21
171.5669050320695
 31
0.0
  0
LINE
  5
181
330
1F
100
AcDbEntity
  8
0
100
AcDbLine
 10
234.3728452998958
 20
171.5669050320695
 30
0.0
 11
235.7110726413834
 21
169.1037718634861
 31
0.0
  0
LINE
  5
182
330
1F
100
AcDbEntity
  8
0
100
AcDbLine
 10
235.7110726413834
 20
169.1037718634861
 30
0.0
 11
228.5915402569146
 21
162.4510605541496
 31
0.0
  0
LINE
  5
183
330
1F
100
AcDbEntity
  8
0
100
AcDbLine
 10
228.5915402569146
 20
162.4510605541496
 30
0.0
 11
227.5139095223863
 21
165.1577032540717
 31
0.0
  0
LINE
  5
184
330
1F
100
AcDbEntity
  8
0
100
AcDbLine
 10
220.8762344020957
 20
179.3583326581694
 30
0.0
 11
214.0172986245861
 21
172.9491308801715
 31
0.0
  0
LINE
  5
185
330
1F
100
AcDbEntity
  8
0
100
AcDbLine
 10
220.8762344020957
 20
179.3583326581694
 30
0.0
 11
221.4685275506501
 21
179.0164091015565
 31
0.0
  0
SPLINE
  5
186
330
1F
100
AcDbEntity
  8
0
100
AcDbSpline
210
0.0
220
0.0
230
1.0
 70
     8
 71
     3
 72
    14
 73
    10
 74
     0
 42
1E-08
 43
1E-08
 40
0.0
 40
0.0
 40
0.0
 40
0.0
 40
0.2499999999999998
 40
0.2499999999999998
 40
0.4999999999999997
 40
0.4999999999999997
 40
0.7499999999999998
 40
0.7499999999999998
 40
1.0
 40
1.0
 40
1.0
 40
1.0
 10
221.4685275506501
 20
179.0164091015565
 30
0.0
 10
221.2102238118147
 20
178.7626397660414
 30
0.0
 10
220.9816006379631
 20
178.463438146033
 30
0.0
 10
220.6653108037102
 20
177.8160140478124
 30
0.0
 10
220.579877274792
 20
177.4689367631629
 30
0.0
 10
220.593386490545
 20
176.8077869214818
 30
0.0
 10
220.6922872211444
 20
176.4957705605646
 30
0.0
 10
221.0324832064105
 20
175.9732120153328
 30
0.0
 10
221.2715160019832
 20
175.7629599498989
 30
0.0
 10
221.5381501145795
 20
175.6090353530743
 30
0.0
  0
SPLINE
  5
187
330
1F
100
AcDbEntity
  8
0
100
AcDbSpline
210
0.0
220
0.0
230
1.0
 70
     8
 71
     3
 72
    14
 73
    10
 74
     0
 42
1E-08
 43
1E-08
 40
0.0
 40
0.0
 40
0.0
 40
0.0
 40
0.2499999999999998
 40
0.2499999999999998
 40
0.4999999999999996
 40
0.4999999999999996
 40
0.7499999999999993
 40
0.7499999999999993
 40
1.0
 40
1.0
 40
1.0
 40
1.0
 10
221.5381501145795
 20
175.6090353530743
 30
0.0
 10
221.8047842271758
 20
175.4551107562496
 30
0.0
 10
222.1394186346749
 20
175.3341917945237
 30
0.0
 10
222.911133518867
 20
175.2148578578828
 30
0.0
 10
223.3472956635028
 20
175.2179889957336
 30
0.0
 10
224.2251868041447
 20
175.3645443651193
 30
0.0
 10
224.664185532005
 20
175.5075128049984
 30
0.0
 10
225.4460025896491
 20
175.886193757514
 30
0.0
 10
225.7878334080659
 20
176.1200419954007
 30
0.0
 10
226.0625453999842
 20
176.3643390480343
 30
0.0
  0
LINE
  5
188
330
1F
100
AcDbEntity
  8
0
100
AcDbLine
 10
226.0625453999842
 20
176.3643390480343
 30
0.0
 11
228.5395953625127
 21
174.9343685424446
 31
0.0
  0
SPLINE
  5
189
330
1F
100
AcDbEntity
  8
0
100
AcDbSpline
210
0.0
220
0.0
230
1.0
 70
     8
 71
     3
 72
    14
 73
    10
 74
     0
 42
1E-08
 43
1E-08
 40
0.0
 40
0.0
 40
0.0
 40
0.0
 40
0.2500000000000007
 40
0.2500000000000007
 40
0.5000000000000006
 40
0.5000000000000006
 40
0.7500000000000003
 40
0.7500000000000003
 40
1.0
 40
1.0
 40
1.0
 40
1.0
 10
228.5395953625127
 20
174.9343685424446
 30
0.0
 10
228.2812916236774
 20
174.6805992069295
 30
0.0
 10
228.0526684498257
 20
174.3813975869211
 30
0.0
 10
227.7363786155728
 20
173.7339734887005
 30
0.0
 10
227.6509450866546
 20
173.386896204051
 30
0.0
 10
227.6644543024076
 20
172.7257463623699
 30
0.0
 10
227.763355033007
 20
172.4137300014526
 30
0.0
 10
228.1035510182732
 20
171.8911714562209
 30
0.0
 10
228.3425838138458
 20
171.680919390787
 30
0.0
 10
228.6092179264421
 20
171.5269947939623
 30
0.0
  0
SPLINE
  5
18A
330
1F
100
AcDbEntity
  8
0
100
AcDbSpline
210
0.0
220
0.0
230
1.0
 70
     8
 71
     3
 72
    14
 73
    10
 74
     0
 42
1E-08
 43
1E-08
 40
0.0
 40
0.0
 40
0.0
 40
0.0
 40
0.2500000000000002
 40
0.2500000000000002
 40
0.5000000000000004
 40
0.5000000000000004
 40
0.7500000000000007
 40
0.7500000000000007
 40
1.0
 40
1.0
 40
1.0
 40
1.0
 10
228.6092179264421
 20
171.5269947939623
 30
0.0
 10
228.8758520390384
 20
171.3730701971377
 30
0.0
 10
229.2104864465375
 20
171.2521512354117
 30
0.0
 10
229.9822013307296
 20
171.1328172987708
 30
0.0
 10
230.4183634753655
 20
171.1359484366216
 30
0.0
 10
231.2962546160073
 20
171.2825038060074
 30
0.0
 10
231.7352533438677
 20
171.4254722458865
 30
0.0
 10
232.5170704015117
 20
171.804153198402
 30
0.0
 10
232.8589012199286
 20
172.0380014362888
 30
0.0
 10
233.1336132118468
 20
172.2822984889224
 30
0.0
  0
LINE
  5
18B
330
1F
100
AcDbEntity
  8
0
100
AcDbLine
 10
233.1336132118468
 20
172.2822984889224
 30
0.0
 11
234.3728452998958
 21
171.5669050320695
 31
0.0
  0
LINE
  5
18C
330
1F
100
AcDbEntity
  8
0
100
AcDbLine
 10
214.0172986245861
 20
172.9491308801715
 30
0.0
 11
227.5139095223863
 21
165.1577032540717
 31
0.0
  0
LINE
  5
18D
330
1F
100
AcDbEntity
  8
0
100
AcDbLine
 10
228.5915402569146
 20
153.9205697183485
 30
0.0
 11
229.2809693685714
 21
150.2564075162919
 31
0.0
  0
LINE
  5
18E
330
1F
100
AcDbEntity
  8
0
100
AcDbLine
 10
229.2809693685714
 20
150.2564075162919
 30
0.0
 11
229.2809693685714
 21
147.9700932430118
 31
0.0
  0
LINE
  5
18F
330
1F
100
AcDbEntity
  8
0
100
AcDbLine
 10
227.5132024156051
 20
148.9906033827902
 30
0.0
 11
229.2809693685714
 21
147.9700932430118
 31
0.0
  0
LINE
  5
190
330
1F
100
AcDbEntity
  8
0
100
AcDbLine
 10
227.5132024156051
 20
151.0809478612177
 30
0.0
 11
227.5132024156051
 21
148.9906033827902
 31
0.0
  0
LINE
  5
191
330
1F
100
AcDbEntity
  8
0
100
AcDbLine
 10
227.2650079354086
 20
152.4000462539581
 30
0.0
 11
227.5132024156051
 21
151.0809478612177
 31
0.0
  0
LINE
  5
192
330
1F
100
AcDbEntity
  8
0
100
AcDbLine
 10
226.8237733039482
 20
152.6547655848468
 30
0.0
 11
227.2650079354086
 21
152.4000462539581
 31
0.0
  0
LINE
  5
193
330
1F
100
AcDbEntity
  8
0
100
AcDbLine
 10
226.8237733039482
 20
159.3504002423099
 30
0.0
 11
226.8237733039482
 21
152.6547655848468
 31
0.0
  0
LINE
  5
194
330
1F
100
AcDbEntity
  8
0
100
AcDbLine
 10
221.1315637153965
 20
162.6364428923963
 30
0.0
 11
226.8237733039482
 21
159.3504002423099
 31
0.0
  0
LINE
  5
195
330
1F
100
AcDbEntity
  8
0
100
AcDbLine
 10
221.1315637153965
 20
162.6364428923963
 30
0.0
 11
221.1315637153965
 21
152.6746449873902
 31
0.0
  0
LINE
  5
196
330
1F
100
AcDbEntity
  8
0
100
AcDbLine
 10
219.7527054920827
 20
153.4706428964174
 30
0.0
 11
221.1315637153965
 21
152.6746449873902
 31
0.0
  0
LINE
  5
197
330
1F
100
AcDbEntity
  8
0
100
AcDbLine
 10
219.7527054920827
 20
163.4324408014235
 30
0.0
 11
219.7527054920827
 21
153.4706428964174
 31
0.0
  0
LINE
  5
198
330
1F
100
AcDbEntity
  8
0
100
AcDbLine
 10
219.7527054920827
 20
163.4324408014235
 30
0.0
 11
214.060495903531
 21
166.7184834515099
 31
0.0
  0
LINE
  5
199
330
1F
100
AcDbEntity
  8
0
100
AcDbLine
 10
214.060495903531
 20
166.7184834515099
 30
0.0
 11
214.060495903531
 21
160.0228487940468
 31
0.0
  0
LINE
  5
19A
330
1F
100
AcDbEntity
  8
0
100
AcDbLine
 10
214.060495903531
 20
160.0228487940468
 30
0.0
 11
213.6192612720706
 21
160.2775681249354
 31
0.0
  0
LINE
  5
19B
330
1F
100
AcDbEntity
  8
0
100
AcDbLine
 10
213.6192612720706
 20
160.2775681249354
 30
0.0
 11
213.3710667918741
 21
159.2450289794448
 31
0.0
  0
LINE
  5
19C
330
1F
100
AcDbEntity
  8
0
100
AcDbLine
 10
213.3710667918741
 20
159.2450289794448
 30
0.0
 11
213.3710667918741
 21
157.1546845010173
 31
0.0
  0
LINE
  5
19D
330
1F
100
AcDbEntity
  8
0
100
AcDbLine
 10
211.6032998389078
 20
158.1751946407957
 30
0.0
 11
213.3710667918741
 21
157.1546845010173
 31
0.0
  0
LINE
  5
19E
330
1F
100
AcDbEntity
  8
0
100
AcDbLine
 10
211.6032998389078
 20
160.4615089140758
 30
0.0
 11
211.6032998389078
 21
158.1751946407957
 31
0.0
  0
LINE
  5
19F
330
1F
100
AcDbEntity
  8
0
100
AcDbLine
 10
211.6032998389078
 20
160.4615089140758
 30
0.0
 11
212.2927289505647
 21
163.3296732071052
 31
0.0
  0
LINE
  5
1A0
330
1F
100
AcDbEntity
  8
0
100
AcDbLine
 10
212.2927289505647
 20
163.3296732071052
 30
0.0
 11
212.2927289505647
 21
172.642138778558
 31
0.0
  0
LINE
  5
1A1
330
1F
100
AcDbEntity
  8
0
100
AcDbLine
 10
214.0172986245861
 20
172.9491308801715
 30
0.0
 11
212.2927289505647
 21
172.642138778558
 31
0.0
  0
LINE
  5
1A2
330
1F
100
AcDbEntity
  8
0
100
AcDbLine
 10
228.5915402569146
 20
162.4510605541496
 30
0.0
 11
228.5915402569146
 21
153.9205697183485
 31
0.0
  0
LINE
  5
1A3
330
1F
100
AcDbEntity
  8
0
100
AcDbLine
 10
262.5326657538689
 20
173.5143644020935
 30
0.0
 11
228.5915402569146
 21
153.9205697183485
 31
0.0
  0
LINE
  5
1A4
330
1F
100
AcDbEntity
  8
0
100
AcDbLine
 10
255.4131333694
 20
180.4775294245332
 30
0.0
 11
235.7110726413834
 21
169.1037718634861
 31
0.0
  0
LINE
  5
1A5
330
1F
100
AcDbEntity
  8
0
100
AcDbLine
 10
262.5326657538689
 20
182.0448552378946
 30
0.0
 11
255.4131333694
 21
180.4775294245332
 31
0.0
  0
LINE
  5
1A6
330
1F
100
AcDbEntity
  8
0
100
AcDbLine
 10
262.5326657538689
 20
182.0448552378946
 30
0.0
 11
262.5326657538689
 21
173.5143644020935
 31
0.0
  0
LINE
  5
1A7
330
1F
100
AcDbEntity
  8
0
100
AcDbLine
 10
234.3728452998958
 20
171.5669050320695
 30
0.0
 11
254.5960992418311
 21
183.2415410311343
 31
0.0
  0
LINE
  5
1A8
330
1F
100
AcDbEntity
  8
0
100
AcDbLine
 10
254.5960992418311
 20
183.2415410311343
 30
0.0
 11
255.4131333694
 21
180.4775294245332
 31
0.0
  0
LWPOLYLINE
  5
1A9
330
1F
100
AcDbEntity
  8
0
100
AcDbPolyline
 90
       14
 70
   128
 43
0.0
 10
233.1336132118468
 20
172.2822984889224
 10
233.4076998937473
 20
172.4505935152611
 10
233.643884510385
 20
172.6370569100832
 10
233.8385868591069
 20
172.8388621694855
 10
233.988855545892
 20
173.0529502300313
 10
234.0924127240342
 20
173.2760758395394
 10
234.1476886228634
 20
173.5048567502138
 10
234.1538453431021
 20
173.7358249884203
 10
234.1107895581552
 20
173.9654794239375
 10
234.0191739287999
 20
174.1903388418116
 10
233.8803872098328
 20
174.4069947123263
 10
233.6965331986414
 20
174.6121628591731
 10
233.4703988448077
 20
174.8027332426124
 10
233.2054120041547
 20
174.9758171029865
  0
LINE
  5
1AA
330
1F
100
AcDbEntity
  8
0
100
AcDbLine
 10
241.099488344031
 20
191.0329686572341
 30
0.0
 11
241.6917814925868
 21
190.6910451006204
 31
0.0
  0
LWPOLYLINE
  5
1AB
330
1F
100
AcDbEntity
  8
0
100
AcDbPolyline
 90
       14
 70
   128
 43
0.0
 10
241.6917814925868
 20
190.6910451006204
 10
241.4176948106862
 20
190.5227500742816
 10
241.1815101940486
 20
190.3362866794595
 10
240.9868078453267
 20
190.1344814200572
 10
240.8365391585416
 20
189.9203933595114
 10
240.7329819803994
 20
189.6972677500033
 10
240.6777060815702
 20
189.4684868393289
 10
240.6715493613314
 20
189.2375186011224
 10
240.7146051462784
 20
189.0078641656052
 10
240.8062207756337
 20
188.7830047477311
 10
240.9450074946007
 20
188.5663488772165
 10
241.1288615057921
 20
188.3611807303697
 10
241.3549958596259
 20
188.1706103469303
 10
241.6199827002789
 20
187.9975264865562
  0
ARC
  5
1AC
330
1F
100
AcDbEntity
  8
0
100
AcDbCircle
 10
243.9140600331184
 20
192.3894102851964
 30
0.0
 40
4.954940373990975
100
AcDbArc
 50
242.4199214475362
 51
298.5980204481205
  0
LINE
  5
1AD
330
1F
100
AcDbEntity
  8
0
100
AcDbLine
 10
246.2857993419209
 20
188.0389750470981
 30
0.0
 11
248.7628493044494
 21
186.6090045415085
 31
0.0
  0
LWPOLYLINE
  5
1AE
330
1F
100
AcDbEntity
  8
0
100
AcDbPolyline
 90
       14
 70
   128
 43
0.0
 10
248.7628493044494
 20
186.6090045415085
 10
248.4887626225489
 20
186.4407095151697
 10
248.2525780059112
 20
186.2542461203476
 10
248.0578756571893
 20
186.0524408609453
 10
247.9076069704042
 20
185.8383528003995
 10
247.804049792262
 20
185.6152271908914
 10
247.7487738934328
 20
185.386446280217
 10
247.7426171731941
 20
185.1554780420105
 10
247.785672958141
 20
184.9258236064933
 10
247.8772885874963
 20
184.7009641886192
 10
248.0160753064634
 20
184.4843083181045
 10
248.1999293176548
 20
184.2791401712578
 10
248.4260636714885
 20
184.0885697878184
 10
248.6910505121415
 20
183.9154859274443
  0
ARC
  5
1AF
330
1F
100
AcDbEntity
  8
0
100
AcDbCircle
 10
250.985127844981
 20
188.3073697260844
 30
0.0
 40
4.954940373990948
100
AcDbArc
 50
242.4199214475358
 51
298.5980204481205
  0
LINE
  5
1B0
330
1F
100
AcDbEntity
  8
0
100
AcDbLine
 10
253.3568671537835
 20
183.9569344879862
 30
0.0
 11
254.5960992418311
 21
183.2415410311343
 31
0.0
  0
ARC
  5
1B1
330
1F
100
AcDbEntity
  8
0
100
AcDbCircle
 10
230.9113346713152
 20
170.5839333043464
 30
0.0
 40
4.95494037399096
100
AcDbArc
 50
62.41992144753543
 51
118.59802044812
  0
LWPOLYLINE
  5
1B2
330
1F
100
AcDbEntity
  8
0
100
AcDbPolyline
 90
       14
 70
   128
 43
0.0
 10
226.0625453999842
 20
176.3643390480343
 10
226.3366320818847
 20
176.532634074373
 10
226.5728166985224
 20
176.7190974691951
 10
226.7675190472443
 20
176.9209027285974
 10
226.9177877340294
 20
177.1349907891432
 10
227.0213449121716
 20
177.3581163986513
 10
227.0766208110007
 20
177.5868973093257
 10
227.0827775312395
 20
177.8178655475322
 10
227.0397217462926
 20
178.0475199830494
 10
226.9481061169373
 20
178.2723794009235
 10
226.8093193979702
 20
178.4890352714382
 10
226.6254653867788
 20
178.694203418285
 10
226.399331032945
 20
178.8847738017243
 10
226.134344192292
 20
179.0578576620984
  0
ARC
  5
1B3
330
1F
100
AcDbEntity
  8
0
100
AcDbCircle
 10
223.8402668594526
 20
174.6659738634583
 30
0.0
 40
4.954940373990916
100
AcDbArc
 50
62.41992144753571
 51
118.5980204481212
  0
LINE
  5
1B4
330
1F
100
AcDbEntity
  8
0
100
AcDbLine
 10
229.5736478106902
 20
184.3792425458791
 30
0.0
 11
220.8762344020957
 21
179.3583326581694
 31
0.0
  0
LINE
  5
1B5
330
1F
100
AcDbEntity
  8
0
100
AcDbLine
 10
234.5842702274706
 20
181.4866717947714
 30
0.0
 11
229.5736478106902
 21
184.3792425458791
 31
0.0
  0
LINE
  5
1B6
330
1F
100
AcDbEntity
  8
0
100
AcDbLine
 10
237.4126973522168
 20
183.1194880184168
 30
0.0
 11
234.5842702274706
 21
181.4866717947714
 31
0.0
  0
LINE
  5
1B7
330
1F
100
AcDbEntity
  8
0
100
AcDbLine
 10
232.4020749354364
 20
186.0120587695245
 30
0.0
 11
237.4126973522168
 21
183.1194880184168
 31
0.0
  0
LINE
  5
1B8
330
1F
100
AcDbEntity
  8
0
100
AcDbLine
 10
241.099488344031
 20
191.0329686572341
 30
0.0
 11
232.4020749354364
 21
186.0120587695245
 31
0.0
  0
LINE
  5
1B9
330
1F
100
AcDbEntity
  8
0
100
AcDbLine
 10
221.5558277841084
 20
162.3914408388117
 30
0.0
 11
226.8237733039482
 21
159.3503206222721
 31
0.0
  0
LINE
  5
1BA
330
1F
100
AcDbEntity
  8
0
100
AcDbLine
 10
221.5558277841084
 20
162.3914408388117
 30
0.0
 11
221.1315637153965
 21
162.6364428923963
 31
0.0
  0
LINE
  5
1BB
330
1F
100
AcDbEntity
  8
0
100
AcDbLine
 10
262.5326657538689
 20
173.5143644020935
 30
0.0
 11
263.2220948655258
 21
169.8502022000369
 31
0.0
  0
LINE
  5
1BC
330
1F
100
AcDbEntity
  8
0
100
AcDbLine
 10
263.2220948655258
 20
169.8502022000369
 30
0.0
 11
229.2809693685714
 21
150.2564075162919
 31
0.0
  0
LINE
  5
1BD
330
1F
100
AcDbEntity
  8
0
100
AcDbLine
 10
225.2327830462785
 20
159.5332029770477
 30
0.0
 11
225.2327830462785
 21
160.2687797480727
 31
0.0
  0
LINE
  5
1BE
330
1F
100
AcDbEntity
  8
0
100
AcDbLine
 10
225.5863364368718
 20
151.0003183178258
 30
0.0
 11
225.5863364368718
 21
159.329100949092
 31
0.0
  0
LINE
  5
1BF
330
1F
100
AcDbEntity
  8
0
100
AcDbLine
 10
225.5863364368718
 20
151.0003183178258
 30
0.0
 11
221.1315637153965
 21
152.6746449873902
 31
0.0
  0
LINE
  5
1C0
330
1F
100
AcDbEntity
  8
0
100
AcDbLine
 10
229.2809693685714
 20
147.9700932430118
 30
0.0
 11
233.7357420900467
 21
146.2957665734475
 31
0.0
  0
LINE
  5
1C1
330
1F
100
AcDbEntity
  8
0
100
AcDbLine
 10
263.2220948655258
 20
167.5638879267568
 30
0.0
 11
263.2220948655258
 21
169.8502022000369
 31
0.0
  0
LINE
  5
1C2
330
1F
100
AcDbEntity
  8
0
100
AcDbLine
 10
258.7673221440505
 20
160.7461901527094
 30
0.0
 11
263.2220948655258
 21
167.5638879267568
 31
0.0
  0
LINE
  5
1C3
330
1F
100
AcDbEntity
  8
0
100
AcDbLine
 10
258.7673221440505
 20
155.0304044695091
 30
0.0
 11
258.7673221440505
 21
160.7461901527094
 31
0.0
  0
LINE
  5
1C4
330
1F
100
AcDbEntity
  8
0
100
AcDbLine
 10
233.7357420900467
 20
140.5799808902472
 30
0.0
 11
258.7673221440505
 21
155.0304044695091
 31
0.0
  0
LINE
  5
1C5
330
1F
100
AcDbEntity
  8
0
100
AcDbLine
 10
233.7357420900467
 20
146.2957665734475
 30
0.0
 11
233.7357420900467
 21
140.5799808902472
 31
0.0
  0
LINE
  5
1C6
330
1F
100
AcDbEntity
  8
0
100
AcDbLine
 10
212.2927289505647
 20
172.642138778558
 30
0.0
 11
219.3145035609747
 21
179.2035021995873
 31
0.0
  0
LINE
  5
1C7
330
1F
100
AcDbEntity
  8
0
100
AcDbLine
 10
219.3145035609747
 20
179.2035021995873
 30
0.0
 11
220.8762344020957
 21
179.3583326581694
 31
0.0
  0
LINE
  5
1C8
330
1F
100
AcDbEntity
  8
0
100
AcDbLine
 10
219.7527054920827
 20
163.4323611813857
 30
0.0
 11
214.484759972243
 21
166.4734813979252
 31
0.0
  0
LINE
  5
1C9
330
1F
100
AcDbEntity
  8
0
100
AcDbLine
 10
214.484759972243
 20
166.4734813979252
 30
0.0
 11
214.060495903531
 21
166.7184834515099
 31
0.0
  0
LINE
  5
1CA
330
1F
100
AcDbEntity
  8
0
100
AcDbLine
 10
225.2327830462785
 20
159.5332029770477
 30
0.0
 11
226.8237733039482
 21
158.6147438512471
 31
0.0
  0
LINE
  5
1CB
330
1F
100
AcDbEntity
  8
0
100
AcDbLine
 10
226.311120887588
 20
158.0940846298656
 30
0.0
 11
226.311120887588
 21
158.9106917917829
 31
0.0
  0
LINE
  5
1CC
330
1F
100
AcDbEntity
  8
0
100
AcDbLine
 10
226.8237733039482
 20
157.7981366893299
 30
0.0
 11
226.311120887588
 21
158.0940846298656
 31
0.0
  0
LINE
  5
1CD
330
1F
100
AcDbEntity
  8
0
100
AcDbLine
 10
227.5132024156051
 20
149.8879622654674
 30
0.0
 11
225.5863364368718
 21
151.0003183178258
 31
0.0
  0
LINE
  5
1CE
330
1F
100
AcDbEntity
  8
0
100
AcDbLine
 10
218.161715234413
 20
163.6152435361612
 30
0.0
 11
218.161715234413
 21
164.3508203071862
 31
0.0
  0
LINE
  5
1CF
330
1F
100
AcDbEntity
  8
0
100
AcDbLine
 10
218.5152686250063
 20
162.5945343462883
 30
0.0
 11
218.5152686250063
 21
163.4111415082055
 31
0.0
  0
LINE
  5
1D0
330
1F
100
AcDbEntity
  8
0
100
AcDbLine
 10
218.5152686250063
 20
162.5945343462883
 30
0.0
 11
214.060495903531
 21
160.0228487940468
 31
0.0
  0
LINE
  5
1D1
330
1F
100
AcDbEntity
  8
0
100
AcDbLine
 10
226.311120887588
 20
158.0940846298656
 30
0.0
 11
226.8237733039482
 21
158.3900325704013
 31
0.0
  0
LINE
  5
1D2
330
1F
100
AcDbEntity
  8
0
100
AcDbLine
 10
229.5736478106902
 20
184.3792425458791
 30
0.0
 11
228.9274159779782
 21
184.2859988198423
 31
0.0
  0
LINE
  5
1D3
330
1F
100
AcDbEntity
  8
0
100
AcDbLine
 10
239.212079837109
 20
190.6901284840844
 30
0.0
 11
241.099488344031
 21
191.0329686572341
 31
0.0
  0
LINE
  5
1D4
330
1F
100
AcDbEntity
  8
0
100
AcDbLine
 10
231.8191332949148
 20
185.9279470810055
 30
0.0
 11
232.4020749354364
 21
186.0120587695245
 31
0.0
  0
LINE
  5
1D5
330
1F
100
AcDbEntity
  8
0
100
AcDbLine
 10
228.9274159779782
 20
184.2859988198423
 30
0.0
 11
229.9379207534527
 21
184.8693508097274
 31
0.0
  0
LINE
  5
1D6
330
1F
100
AcDbEntity
  8
0
100
AcDbLine
 10
219.3145035609747
 20
179.2035021995873
 30
0.0
 11
239.212079837109
 21
190.6901284840844
 31
0.0
  0
LINE
  5
1D7
330
1F
100
AcDbEntity
  8
0
100
AcDbLine
 10
231.9679751370803
 20
141.6004910300256
 30
0.0
 11
233.7357420900467
 21
140.5799808902472
 31
0.0
  0
LINE
  5
1D8
330
1F
100
AcDbEntity
  8
0
100
AcDbLine
 10
231.9679751370803
 20
146.9601819185127
 30
0.0
 11
231.9679751370803
 21
141.6004910300256
 31
0.0
  0
LINE
  5
1D9
330
1F
100
AcDbEntity
  8
0
100
AcDbLine
 10
219.7527054920827
 20
162.6967844103607
 30
0.0
 11
218.161715234413
 21
163.6152435361612
 31
0.0
  0
LINE
  5
1DA
330
1F
100
AcDbEntity
  8
0
100
AcDbLine
 10
217.8258395133494
 20
161.8167145316864
 30
0.0
 11
217.8258395133494
 21
155.4803578314529
 31
0.0
  0
LINE
  5
1DB
330
1F
100
AcDbEntity
  8
0
100
AcDbLine
 10
217.9318484327025
 20
162.2577330382887
 30
0.0
 11
217.8258395133494
 21
161.8167145316864
 31
0.0
  0
LINE
  5
1DC
330
1F
100
AcDbEntity
  8
0
100
AcDbLine
 10
219.2400530757225
 20
162.1761251889791
 30
0.0
 11
219.2400530757225
 21
162.9927323508964
 31
0.0
  0
LINE
  5
1DD
330
1F
100
AcDbEntity
  8
0
100
AcDbLine
 10
219.7527054920827
 20
161.8801772484434
 30
0.0
 11
219.2400530757225
 21
162.1761251889791
 31
0.0
  0
LINE
  5
1DE
330
1F
100
AcDbEntity
  8
0
100
AcDbLine
 10
217.8258395133494
 20
155.4803578314529
 30
0.0
 11
219.7527054920827
 21
154.3680017790945
 31
0.0
  0
LINE
  5
1DF
330
1F
100
AcDbEntity
  8
0
100
AcDbLine
 10
254.5960992418311
 20
183.2415410311343
 30
0.0
 11
261.4550350193404
 21
184.7514979378165
 31
0.0
  0
LINE
  5
1E0
330
1F
100
AcDbEntity
  8
0
100
AcDbLine
 10
261.4550350193404
 20
184.7514979378165
 30
0.0
 11
262.5326657538689
 21
182.0448552378946
 31
0.0
  0
SPLINE
  5
1E1
330
1F
100
AcDbEntity
  8
0
100
AcDbSpline
210
0.0
220
0.0
230
1.0
 70
     8
 71
     3
 72
    14
 73
    10
 74
     0
 42
1E-08
 43
1E-08
 40
0.0
 40
0.0
 40
0.0
 40
0.0
 40
0.2500000000000005
 40
0.2500000000000005
 40
0.5000000000000001
 40
0.5000000000000001
 40
0.75
 40
0.75
 40
1.0
 40
1.0
 40
1.0
 40
1.0
 10
253.3568671537835
 20
183.9569344879862
 30
0.0
 10
253.6151708926189
 20
184.020340867065
 30
0.0
 10
253.8437940664705
 20
184.115808709225
 30
0.0
 10
254.1600839007234
 20
184.3710513719579
 30
0.0
 10
254.2455174296416
 20
184.5308312297383
 30
0.0
 10
254.2320082138886
 20
184.8832729241398
 30
0.0
 10
254.1331074832892
 20
185.0748386563729
 30
0.0
 10
253.792911498023
 20
185.4432831508964
 30
0.0
 10
253.5538787024504
 20
185.6193917484431
 30
0.0
 10
253.2872445898541
 20
185.7733163452677
 30
0.0
  0
LINE
  5
1E2
330
1F
100
AcDbEntity
  8
0
100
AcDbLine
 10
219.2400530757225
 20
162.1761251889791
 30
0.0
 11
219.7527054920827
 21
162.4720731295149
 31
0.0
  0
SPLINE
  5
1E3
330
1F
100
AcDbEntity
  8
0
100
AcDbSpline
210
0.0
220
0.0
230
1.0
 70
     8
 71
     3
 72
    14
 73
    10
 74
     0
 42
1E-08
 43
1E-08
 40
0.0
 40
0.0
 40
0.0
 40
0.0
 40
0.2499999999999998
 40
0.2499999999999998
 40
0.4999999999999996
 40
0.4999999999999996
 40
0.7499999999999993
 40
0.7499999999999993
 40
1.0
 40
1.0
 40
1.0
 40
1.0
 10
253.2872445898541
 20
185.7733163452677
 30
0.0
 10
253.0206104772578
 20
185.9272409420924
 30
0.0
 10
252.6859760697587
 20
186.0823033717055
 30
0.0
 10
251.9142611855666
 20
186.3557513590546
 30
0.0
 10
251.4780990409307
 20
186.473070849888
 30
0.0
 10
250.6002079002889
 20
186.635223627782
 30
0.0
 10
250.1612091724285
 20
186.6795526147719
 30
0.0
 10
249.3793921147845
 20
186.6930530977441
 30
0.0
 10
249.0375612963676
 20
186.6629386377057
 30
0.0
 10
248.7628493044494
 20
186.6090045415085
 30
0.0
  0
SPLINE
  5
1E4
330
1F
100
AcDbEntity
  8
0
100
AcDbSpline
210
0.0
220
0.0
230
1.0
 70
     8
 71
     3
 72
    14
 73
    10
 74
     0
 42
1E-08
 43
1E-08
 40
0.0
 40
0.0
 40
0.0
 40
0.0
 40
0.2500000000000007
 40
0.2500000000000007
 40
0.5000000000000004
 40
0.5000000000000004
 40
0.7500000000000002
 40
0.7500000000000002
 40
1.0
 40
1.0
 40
1.0
 40
1.0
 10
246.2857993419209
 20
188.0389750470981
 30
0.0
 10
246.5441030807562
 20
188.102381426177
 30
0.0
 10
246.7727262546078
 20
188.1978492683369
 30
0.0
 10
247.0890160888607
 20
188.4530919310698
 30
0.0
 10
247.1744496177789
 20
188.6128717888503
 30
0.0
 10
247.1609404020259
 20
188.9653134832517
 30
0.0
 10
247.0620396714266
 20
189.1568792154848
 30
0.0
 10
246.7218436861604
 20
189.5253237100084
 30
0.0
 10
246.4828108905877
 20
189.701432307555
 30
0.0
 10
246.2161767779914
 20
189.8553569043796
 30
0.0
  0
SPLINE
  5
1E5
330
1F
100
AcDbEntity
  8
0
100
AcDbSpline
210
0.0
220
0.0
230
1.0
 70
     8
 71
     3
 72
    14
 73
    10
 74
     0
 42
1E-08
 43
1E-08
 40
0.0
 40
0.0
 40
0.0
 40
0.0
 40
0.2499999999999998
 40
0.2499999999999998
 40
0.4999999999999996
 40
0.4999999999999996
 40
0.7499999999999993
 40
0.7499999999999993
 40
1.0
 40
1.0
 40
1.0
 40
1.0
 10
246.2161767779914
 20
189.8553569043796
 30
0.0
 10
245.9495426653952
 20
190.0092815012043
 30
0.0
 10
245.6149082578961
 20
190.1643439308175
 30
0.0
 10
244.8431933737039
 20
190.4377919181666
 30
0.0
 10
244.4070312290681
 20
190.5551114089999
 30
0.0
 10
243.5291400884262
 20
190.7172641868939
 30
0.0
 10
243.0901413605659
 20
190.7615931738839
 30
0.0
 10
242.3083243029218
 20
190.775093656856
 30
0.0
 10
241.966493484505
 20
190.7449791968177
 30
0.0
 10
241.6917814925868
 20
190.6910451006204
 30
0.0
  0
LINE
  5
1E6
330
1F
100
AcDbEntity
  8
0
100
AcDbLine
 10
247.9584241215403
 20
192.5429255639163
 30
0.0
 11
241.099488344031
 21
191.0329686572341
 31
0.0
  0
LINE
  5
1E7
330
1F
100
AcDbEntity
  8
0
100
AcDbLine
 10
247.9584241215403
 20
192.5429255639163
 30
0.0
 11
261.4550350193404
 21
184.7514979378165
 31
0.0
  0
LINE
  5
1E8
330
1F
100
AcDbEntity
  8
0
100
AcDbLine
 10
213.3710667918741
 20
159.2450289794448
 30
0.0
 11
217.8258395133494
 21
161.8167145316864
 31
0.0
  0
LINE
  5
1E9
330
1F
100
AcDbEntity
  8
0
100
AcDbLine
 10
230.6244722528259
 20
146.9478978124328
 30
0.0
 11
230.8698537000317
 21
147.3729109449807
 31
0.0
  0
LINE
  5
1EA
330
1F
100
AcDbEntity
  8
0
100
AcDbLine
 10
229.9173654716394
 20
146.5396937565215
 30
0.0
 11
230.6244722528259
 21
146.9478978124328
 31
0.0
  0
LINE
  5
1EB
330
1F
100
AcDbEntity
  8
0
100
AcDbLine
 10
229.9173654716394
 20
147.7309037187883
 30
0.0
 11
229.9173654716394
 21
146.5396937565215
 31
0.0
  0
LINE
  5
1EC
330
1F
100
AcDbEntity
  8
0
100
AcDbLine
 10
223.9776685096724
 20
144.3355909046947
 30
0.0
 11
229.8821121683363
 21
147.7441536755428
 31
0.0
  0
LINE
  5
1ED
330
1F
100
AcDbEntity
  8
0
100
AcDbLine
 10
223.9776685096724
 20
145.5604021225234
 30
0.0
 11
223.9776685096724
 21
144.3355909046947
 31
0.0
  0
LINE
  5
1EE
330
1F
100
AcDbEntity
  8
0
100
AcDbLine
 10
228.7163988041888
 20
148.2960128924352
 30
0.0
 11
223.9776685096724
 21
145.5604021225234
 31
0.0
  0
LINE
  5
1EF
330
1F
100
AcDbEntity
  8
0
100
AcDbLine
 10
217.8258395133494
 20
155.4803578314529
 30
0.0
 11
213.3710667918741
 21
157.1546845010173
 31
0.0
  0
LINE
  5
1F0
330
1F
100
AcDbEntity
  8
0
100
AcDbLine
 10
221.1492413849262
 20
145.9684071283401
 30
0.0
 11
223.9776685096724
 21
144.3355909046947
 31
0.0
  0
LINE
  5
1F1
330
1F
100
AcDbEntity
  8
0
100
AcDbLine
 10
221.1492413849262
 20
147.1932183461688
 30
0.0
 11
223.9776685096724
 21
145.5604021225234
 31
0.0
  0
LINE
  5
1F2
330
1F
100
AcDbEntity
  8
0
100
AcDbLine
 10
221.1492413849262
 20
147.1932183461688
 30
0.0
 11
221.1492413849262
 21
145.9684071283401
 31
0.0
  0
LINE
  5
1F3
330
1F
100
AcDbEntity
  8
0
100
AcDbLine
 10
227.2303597031305
 20
148.6627529474496
 30
0.0
 11
226.5232529219439
 21
149.070957003361
 31
0.0
  0
LINE
  5
1F4
330
1F
100
AcDbEntity
  8
0
100
AcDbLine
 10
227.6557386324089
 20
148.9083189763022
 30
0.0
 11
227.2303597031305
 21
148.6627529474496
 31
0.0
  0
LINE
  5
1F5
330
1F
100
AcDbEntity
  8
0
100
AcDbLine
 10
226.5232529219439
 20
150.2955691710951
 30
0.0
 11
221.1492413849262
 21
147.1932183461688
 31
0.0
  0
LINE
  5
1F6
330
1F
100
AcDbEntity
  8
0
100
AcDbLine
 10
226.5232529219439
 20
149.070957003361
 30
0.0
 11
226.5232529219439
 21
150.4594479437433
 31
0.0
  0
LINE
  5
1F7
330
1F
100
AcDbEntity
  8
0
100
AcDbLine
 10
227.2303597031305
 20
148.6627529474496
 30
0.0
 11
227.2303597031305
 21
150.0512438878319
 31
0.0
  0
LINE
  5
1F8
330
1F
100
AcDbEntity
  8
0
100
AcDbLine
 10
221.5735054536381
 20
152.5085411511239
 30
0.0
 11
221.5735054536381
 21
151.9280536445829
 31
0.0
  0
LINE
  5
1F9
330
1F
100
AcDbEntity
  8
0
100
AcDbLine
 10
217.8258395133494
 20
149.7645721482527
 30
0.0
 11
221.5735054536381
 21
151.9280536445829
 31
0.0
  0
LINE
  5
1FA
330
1F
100
AcDbEntity
  8
0
100
AcDbLine
 10
217.8258395133494
 20
149.7645721482527
 30
0.0
 11
217.8258395133494
 21
155.4803578314529
 31
0.0
  0
LINE
  5
1FB
330
1F
100
AcDbEntity
  8
0
100
AcDbLine
 10
228.856532898741
 20
147.1520993654358
 30
0.0
 11
229.9173654716394
 21
146.5396937565215
 31
0.0
  0
LINE
  5
1FC
330
1F
100
AcDbEntity
  8
0
100
AcDbLine
 10
216.058072560383
 20
150.7850822880311
 30
0.0
 11
217.8258395133494
 21
149.7645721482527
 31
0.0
  0
LINE
  5
1FD
330
1F
100
AcDbEntity
  8
0
100
AcDbLine
 10
216.058072560383
 20
156.1447731765182
 30
0.0
 11
216.058072560383
 21
150.7850822880311
 31
0.0
  0
LINE
  5
1FE
330
1F
100
AcDbEntity
  8
0
100
AcDbLine
 10
223.7301811362571
 20
151.6979544301443
 30
0.0
 11
223.7301811362571
 21
150.6830312740532
 31
0.0
  0
LINE
  5
1FF
330
1F
100
AcDbEntity
  8
0
100
AcDbLine
 10
221.5735054536381
 20
151.9280536445829
 30
0.0
 11
223.7301811362571
 21
150.6830312740532
 31
0.0
  0
LINE
  5
200
330
1F
100
AcDbEntity
  8
0
100
AcDbLine
 10
246.233854447519
 20
192.2359334623028
 30
0.0
 11
247.9584241215403
 21
192.5429255639163
 31
0.0
  0
LINE
  5
201
330
1F
100
AcDbEntity
  8
0
100
AcDbLine
 10
239.212079837109
 20
190.6901284840844
 30
0.0
 11
246.233854447519
 21
192.2359334623028
 31
0.0
  0
LINE
  5
202
330
1F
100
AcDbEntity
  8
0
100
AcDbLine
 10
224.7950042582746
 20
151.2977405779386
 30
0.0
 11
223.7301811362571
 21
150.6830312740532
 31
0.0
  0
LINE
  5
203
330
1F
100
AcDbEntity
  8
0
100
AcDbLine
 10
235.0085342961825
 20
182.0581442030409
 30
0.0
 11
235.0085342961825
 21
181.7315942283182
 31
0.0
  0
LINE
  5
204
330
1F
100
AcDbEntity
  8
0
100
AcDbLine
 10
234.301427514996
 20
181.6499534171359
 30
0.0
 11
234.301427514996
 21
182.0581442030409
 31
0.0
  0
LINE
  5
205
330
1F
100
AcDbEntity
  8
0
100
AcDbLine
 10
230.0587868278767
 20
184.5073685385091
 30
0.0
 11
230.0587868278767
 21
184.099177752604
 31
0.0
  0
LINE
  5
206
330
1F
100
AcDbEntity
  8
0
100
AcDbLine
 10
236.2813265023183
 20
182.4663615289586
 30
0.0
 11
236.2813265023183
 21
182.7929115036814
 31
0.0
  0
SPLINE
  5
207
330
1F
100
AcDbEntity
  8
0
100
AcDbSpline
210
0.0
220
0.0
230
1.0
 70
     8
 71
     3
 72
     8
 73
     4
 74
     0
 42
1E-08
 43
1E-08
 40
0.0
 40
0.0
 40
0.0
 40
0.0
 40
1.0
 40
1.0
 40
1.0
 40
1.0
 10
236.4277731117251
 20
182.9970135316371
 30
0.0
 10
236.4277731117251
 20
182.9214467468331
 30
0.0
 10
236.3738865635299
 20
182.8463452896488
 30
0.0
 10
236.2813265023183
 20
182.7929115036814
 30
0.0
  0
SPLINE
  5
208
330
1F
100
AcDbEntity
  8
0
100
AcDbSpline
210
0.0
220
0.0
230
1.0
 70
     8
 71
     3
 72
     8
 73
     4
 74
     0
 42
1E-08
 43
1E-08
 40
0.0
 40
0.0
 40
0.0
 40
0.0
 40
1.0
 40
1.0
 40
1.0
 40
1.0
 10
231.9351128805943
 20
185.8792618521478
 30
0.0
 10
231.8696644323593
 20
185.917044904245
 30
0.0
 10
231.7776832730421
 20
185.9079367405935
 30
0.0
 10
231.6851324246058
 20
185.8545082730481
 30
0.0
  0
SPLINE
  5
209
330
1F
100
AcDbEntity
  8
0
100
AcDbSpline
210
0.0
220
0.0
230
1.0
 70
     8
 71
     3
 72
    10
 73
     6
 74
     0
 42
1E-08
 43
1E-08
 40
0.0
 40
0.0
 40
0.0
 40
0.0
 40
0.003494018320265561
 40
0.5017470091601298
 40
1.0
 40
1.0
 40
1.0
 40
1.0
 10
230.1618027723155
 20
185.1438647002153
 30
0.0
 10
230.1619816152165
 20
185.1440713407187
 30
0.0
 10
230.1876637618001
 20
185.1737452705707
 30
0.0
 10
230.2765558324701
 20
185.1772117631117
 30
0.0
 10
230.36707875647
 20
185.1388979026423
 30
0.0
 10
230.41234021847
 20
185.1197409724076
 30
0.0
  0
LINE
  5
20A
330
1F
100
AcDbEntity
  8
0
100
AcDbLine
 10
233.2054120041547
 20
172.3224907395627
 30
0.0
 11
233.2054120041547
 21
174.9758171029865
 31
0.0
  0
LINE
  5
20B
330
1F
100
AcDbEntity
  8
0
100
AcDbLine
 10
226.1343441922921
 20
176.4045312986746
 30
0.0
 11
226.134344192292
 21
179.0578576620984
 31
0.0
  0
LINE
  5
20C
330
1F
100
AcDbEntity
  8
0
100
AcDbLine
 10
253.2872445898541
 20
183.9154859274443
 30
0.0
 11
253.2872445898541
 21
185.7733163452677
 31
0.0
  0
LINE
  5
20D
330
1F
100
AcDbEntity
  8
0
100
AcDbLine
 10
246.2161767779915
 20
187.9975264865562
 30
0.0
 11
246.2161767779914
 21
189.8553569043796
 31
0.0
  0
LINE
  5
20E
330
1F
100
AcDbEntity
  8
0
100
AcDbLine
 10
166.335291849255
 20
113.4566209800175
 30
0.0
 11
166.335291849255
 21
113.3101743706108
 31
0.0
  0
LINE
  5
20F
330
1F
100
AcDbEntity
  8
0
100
AcDbLine
 10
168.1352918492551
 20
113.4566209800175
 30
0.0
 11
166.335291849255
 21
113.4566209800175
 31
0.0
  0
SPLINE
  5
210
330
1F
100
AcDbEntity
  8
0
100
AcDbSpline
210
0.0
220
0.0
230
1.0
 70
     8
 71
     3
 72
    10
 73
     6
 74
     0
 42
1E-08
 43
1E-08
 40
0.0
 40
0.0
 40
0.0
 40
0.0
 40
0.3362669206309985
 40
0.6725338412619367
 40
1.0
 40
1.0
 40
1.0
 40
1.0
 10
168.4888452398483
 20
113.3101743706108
 30
0.0
 10
168.5105936889949
 20
113.2857023023226
 30
0.0
 10
168.5540905872881
 20
113.2367581657463
 30
0.0
 10
168.6005435222177
 20
113.1499931438661
 30
0.0
 10
168.6168799263261
 20
113.0874686871717
 30
0.0
 10
168.6249398221897
 20
113.0566209800175
 30
0.0
  0
ARC
  5
211
330
1F
100
AcDbEntity
  8
0
100
AcDbCircle
 10
168.1352918492551
 20
112.9566209800175
 30
0.0
 40
0.500000000000004
100
AcDbArc
 50
45.0000000000046
 51
90.0
  0
SPLINE
  5
212
330
1F
100
AcDbEntity
  8
0
100
AcDbSpline
210
0.0
220
0.0
230
1.0
 70
     8
 71
     3
 72
    11
 73
     7
 74
     0
 42
1E-08
 43
1E-08
 40
0.0
 40
0.0
 40
0.0
 40
0.0
 40
0.1372802299368894
 40
0.4248534866245895
 40
0.7124267433122955
 40
0.9999999999999999
 40
0.9999999999999999
 40
0.9999999999999999
 40
0.9999999999999999
 10
165.855183085993
 20
113.0566209800175
 30
0.0
 10
165.859602812361
 20
113.0876182790974
 30
0.0
 10
165.8732809374503
 20
113.1835484111791
 30
0.0
 10
165.9750723802228
 20
113.3179083783664
 30
0.0
 10
166.1383341422393
 20
113.4342087798137
 30
0.0
 10
166.2696392802498
 20
113.4491502466163
 30
0.0
 10
166.335291849255
 20
113.4566209800175
 30
0.0
  0
LINE
  5
213
330
1F
100
AcDbEntity
  8
0
100
AcDbLine
 10
191.235291849255
 20
97.05662098001751
 30
0.0
 11
143.2352918492551
 21
97.05662098001751
 31
0.0
  0
LINE
  5
214
330
1F
100
AcDbEntity
  8
0
100
AcDbLine
 10
191.235291849255
 20
97.05662098001751
 30
0.0
 11
191.235291849255
 21
93.0566209800175
 31
0.0
  0
LINE
  5
215
330
1F
100
AcDbEntity
  8
0
100
AcDbLine
 10
191.235291849255
 20
93.0566209800175
 30
0.0
 11
143.2352918492551
 21
93.0566209800175
 31
0.0
  0
LINE
  5
216
330
1F
100
AcDbEntity
  8
0
100
AcDbLine
 10
143.2352918492551
 20
97.05662098001751
 30
0.0
 11
143.2352918492551
 21
93.0566209800175
 31
0.0
  0
LINE
  5
217
330
1F
100
AcDbEntity
  8
0
100
AcDbLine
 10
143.2352918492551
 20
90.2566209800175
 30
0.0
 11
149.5352918492551
 21
85.05662098001751
 31
0.0
  0
LINE
  5
218
330
1F
100
AcDbEntity
  8
0
100
AcDbLine
 10
143.2352918492551
 20
93.0566209800175
 30
0.0
 11
143.2352918492551
 21
90.2566209800175
 31
0.0
  0
LINE
  5
219
330
1F
100
AcDbEntity
  8
0
100
AcDbLine
 10
184.9352918492551
 20
78.0566209800175
 30
0.0
 11
184.9352918492551
 21
85.05662098001751
 31
0.0
  0
LINE
  5
21A
330
1F
100
AcDbEntity
  8
0
100
AcDbLine
 10
149.5352918492551
 20
78.0566209800175
 30
0.0
 11
184.9352918492551
 21
78.0566209800175
 31
0.0
  0
LINE
  5
21B
330
1F
100
AcDbEntity
  8
0
100
AcDbLine
 10
149.5352918492551
 20
85.05662098001751
 30
0.0
 11
149.5352918492551
 21
78.0566209800175
 31
0.0
  0
LINE
  5
21C
330
1F
100
AcDbEntity
  8
0
100
AcDbLine
 10
184.9352918492551
 20
85.05662098001751
 30
0.0
 11
191.235291849255
 21
90.2566209800175
 31
0.0
  0
LINE
  5
21D
330
1F
100
AcDbEntity
  8
0
100
AcDbLine
 10
191.235291849255
 20
90.2566209800175
 30
0.0
 11
191.235291849255
 21
93.0566209800175
 31
0.0
  0
LINE
  5
21E
330
1F
100
AcDbEntity
  8
0
100
AcDbLine
 10
191.235291849255
 20
107.5037299446024
 30
0.0
 11
181.1667525933848
 21
110.6177111577587
 31
0.0
  0
LINE
  5
21F
330
1F
100
AcDbEntity
  8
0
100
AcDbLine
 10
181.5352918492551
 20
113.0566209800175
 30
0.0
 11
181.1667525933848
 21
110.6177111577587
 31
0.0
  0
LINE
  5
220
330
1F
100
AcDbEntity
  8
0
100
AcDbLine
 10
181.5352918492551
 20
113.0566209800175
 30
0.0
 11
191.2352918492548
 21
110.0566209800168
 31
0.0
  0
LINE
  5
221
330
1F
100
AcDbEntity
  8
0
100
AcDbLine
 10
191.2352918492548
 20
110.0566209800168
 30
0.0
 11
191.235291849255
 21
107.5037299446024
 31
0.0
  0
LINE
  5
222
330
1F
100
AcDbEntity
  8
0
100
AcDbLine
 10
153.3038311051254
 20
110.6177111577588
 30
0.0
 11
143.2352918492551
 21
107.5037299446025
 31
0.0
  0
LINE
  5
223
330
1F
100
AcDbEntity
  8
0
100
AcDbLine
 10
181.1667525933848
 20
110.6177111577587
 30
0.0
 11
153.3038311051254
 21
110.6177111577588
 31
0.0
  0
LINE
  5
224
330
1F
100
AcDbEntity
  8
0
100
AcDbLine
 10
143.2352918492551
 20
107.5037299446025
 30
0.0
 11
143.2352918492551
 21
97.05662098001751
 31
0.0
  0
LINE
  5
225
330
1F
100
AcDbEntity
  8
0
100
AcDbLine
 10
191.235291849255
 20
107.5037299446024
 30
0.0
 11
191.235291849255
 21
97.05662098001751
 31
0.0
  0
LINE
  5
226
330
1F
100
AcDbEntity
  8
0
100
AcDbLine
 10
152.9352918492551
 20
113.0566209800175
 30
0.0
 11
181.5352918492551
 21
113.0566209800175
 31
0.0
  0
LINE
  5
227
330
1F
100
AcDbEntity
  8
0
100
AcDbLine
 10
152.9352918492551
 20
113.0566209800175
 30
0.0
 11
153.3038311051254
 21
110.6177111577588
 31
0.0
  0
LINE
  5
228
330
1F
100
AcDbEntity
  8
0
100
AcDbLine
 10
143.2352918492551
 20
110.0566209800169
 30
0.0
 11
152.9352918492551
 21
113.0566209800175
 31
0.0
  0
LINE
  5
229
330
1F
100
AcDbEntity
  8
0
100
AcDbLine
 10
143.2352918492551
 20
107.5037299446025
 30
0.0
 11
143.2352918492551
 21
110.0566209800169
 31
0.0
  0
LINE
  5
22A
330
1F
100
AcDbEntity
  8
0
100
AcDbLine
 10
155.6352918492551
 20
77.5566209800175
 30
0.0
 11
156.1352918492551
 21
78.0566209800175
 31
0.0
  0
LINE
  5
22B
330
1F
100
AcDbEntity
  8
0
100
AcDbLine
 10
154.6352918492551
 20
77.5566209800175
 30
0.0
 11
155.6352918492551
 21
77.5566209800175
 31
0.0
  0
LINE
  5
22C
330
1F
100
AcDbEntity
  8
0
100
AcDbLine
 10
154.6352918492551
 20
78.0566209800175
 30
0.0
 11
154.6352918492551
 21
77.5566209800175
 31
0.0
  0
LINE
  5
22D
330
1F
100
AcDbEntity
  8
0
100
AcDbLine
 10
146.2352918492551
 20
79.0566209800175
 30
0.0
 11
149.535291849255
 21
79.0566209800175
 31
0.0
  0
LINE
  5
22E
330
1F
100
AcDbEntity
  8
0
100
AcDbLine
 10
146.2352918492551
 20
80.55662098001751
 30
0.0
 11
146.2352918492551
 21
79.0566209800175
 31
0.0
  0
LINE
  5
22F
330
1F
100
AcDbEntity
  8
0
100
AcDbLine
 10
149.535291849255
 20
80.55662098001751
 30
0.0
 11
146.2352918492551
 21
80.55662098001751
 31
0.0
  0
ARC
  5
230
330
1F
100
AcDbEntity
  8
0
100
AcDbCircle
 10
166.285496585132
 20
112.8240294568593
 30
0.0
 40
0.4886884953582808
100
AcDbArc
 50
84.15165528849394
 51
151.5787463631074
  0
SPLINE
  5
231
330
1F
100
AcDbEntity
  8
0
100
AcDbSpline
210
0.0
220
0.0
230
1.0
 70
     8
 71
     3
 72
    10
 73
     6
 74
     0
 42
1E-08
 43
1E-08
 40
0.0
 40
0.0
 40
0.0
 40
0.0
 40
0.3362669206310193
 40
0.6725338412619372
 40
1.0
 40
1.0
 40
1.0
 40
1.0
 10
166.335291849255
 20
113.3101743706108
 30
0.0
 10
166.335291849255
 20
113.2857023023226
 30
0.0
 10
166.335291849255
 20
113.2367581657463
 30
0.0
 10
166.335291849255
 20
113.1499931438661
 30
0.0
 10
166.335291849255
 20
113.0874686871717
 30
0.0
 10
166.335291849255
 20
113.0566209800175
 30
0.0
  0
SPLINE
  5
232
330
1F
100
AcDbEntity
  8
0
100
AcDbSpline
210
0.0
220
0.0
230
1.0
 70
     8
 71
     3
 72
    11
 73
     7
 74
     0
 42
1E-08
 43
1E-08
 40
0.0
 40
0.0
 40
0.0
 40
0.0
 40
0.1372802299368891
 40
0.4248534866245975
 40
0.7124267433122978
 40
1.0
 40
1.0
 40
1.0
 40
1.0
 10
168.1352918492551
 20
113.0566209800175
 30
0.0
 10
168.1352918492551
 20
113.0876182790974
 30
0.0
 10
168.1352918492551
 20
113.1835484111791
 30
0.0
 10
168.1352918492551
 20
113.3179083783664
 30
0.0
 10
168.1352918492551
 20
113.4342087798137
 30
0.0
 10
168.1352918492551
 20
113.4491502466163
 30
0.0
 10
168.1352918492551
 20
113.4566209800175
 30
0.0
  0
LINE
  5
233
330
1F
100
AcDbEntity
  8
0
100
AcDbLine
 10
168.4888452398483
 20
113.3101743706108
 30
0.0
 11
168.2352918492551
 21
113.0566209800175
 31
0.0
  0
DIMENSION
  5
234
330
1F
100
AcDbEntity
  8
DIMENSIONS
100
AcDbDimension
  2
_D_2
 10
191.2352918492547
 20
129.5201315057028
 30
0.0
 11
165.8034267241379
 21
129.5201315057028
 31
0.0
 70
   160
  1
<>
 71
     2
 42
-1.0
  3
SLDDIMSTYLE0
100
AcDbAlignedDimension
 13
143.235291849255
 23
110.0566209800169
 33
0.0
 14
191.2352918492547
 24
110.0566209800168
 34
0.0
 52
0.0
100
AcDbRotatedDimension
  0
DIMENSION
  5
248
330
1F
100
AcDbEntity
  8
DIMENSIONS
100
AcDbDimension
  2
_D_3
 10
205.6704784482759
 20
78.0566209800175
 30
0.0
 11
205.6704784482759
 21
95.84750215517241
 31
0.0
 70
   160
  1
<>
 71
     2
 42
-1.0
  3
SLDDIMSTYLE0
100
AcDbAlignedDimension
 13
181.535291849255
 23
113.0566209800175
 33
0.0
 14
184.935291849255
 24
78.0566209800175
 34
0.0
 52
0.0
 50
90.0000000000002
100
AcDbRotatedDimension
  0
ENDSEC
  0
SECTION
  2
OBJECTS
  0
DICTIONARY
  5
C
330
0
100
AcDbDictionary
281
     1
  3
ACAD_GROUP
350
D
  3
ACAD_PLOTSTYLENAME
350
E
  3
ACAD_MLINESTYLE
350
17
  3
ACAD_PLOTSETTINGS
350
19
  3
ACAD_LAYOUT
350
1A
  3
ACAD_SCALELIST
350
47
  3
DWGPROPS
350
25D
  0
DICTIONARY
  5
D
102
{ACAD_REACTORS
330
C
102
}
330
C
100
AcDbDictionary
281
     1
  0
ACDBDICTIONARYWDFLT
  5
E
102
{ACAD_REACTORS
330
C
102
}
330
C
100
AcDbDictionary
281
     1
  3
Normal
350
F
100
AcDbDictionaryWithDefault
340
F
  0
ACDBPLACEHOLDER
  5
F
102
{ACAD_REACTORS
330
E
102
}
330
E
  0
DICTIONARY
  5
17
102
{ACAD_REACTORS
330
C
102
}
330
C
100
AcDbDictionary
281
     1
  3
Standard
350
18
  0
MLINESTYLE
  5
18
102
{ACAD_REACTORS
330
17
102
}
330
17
100
AcDbMlineStyle
  2
Standard
 70
     0
  3

 62
   256
 51
90.0
 52
90.0
 71
     2
 49
0.5
 62
   256
  6
BYLAYER
 49
-0.5
 62
   256
  6
BYLAYER
  0
DICTIONARY
  5
19
102
{ACAD_REACTORS
330
C
102
}
330
C
100
AcDbDictionary
281
     1
  0
DICTIONARY
  5
1A
102
{ACAD_REACTORS
330
C
102
}
330
C
100
AcDbDictionary
281
     1
  3
Layout1
350
1E
  3
Model
350
22
  3
Layout2
350
26
  0
LAYOUT
  5
1E
102
{ACAD_REACTORS
330
1A
102
}
330
1A
100
AcDbPlotSettings
  1

  2
none_device
  4

  6

 40
0.0
 41
0.0
 42
0.0
 43
0.0
 44
0.0
 45
0.0
 46
0.0
 47
0.0
 48
0.0
 49
0.0
140
0.0
141
0.0
  6

142
1.0
143
1.0
 70
   688
 72
     1
 73
     0
 74
     5
  7

 75
    16
147
1.0
148
0.0
149
0.0
100
AcDbLayout
  1
Layout1
 70
     1
 71
     1
 10
0.0
 20
0.0
 11
420.0
 21
297.0
 12
0.0
 22
0.0
 32
0.0
 14
1E+20
 24
1E+20
 34
1E+20
 15
-1E+20
 25
-1E+20
 35
-1E+20
146
0.0
 13
0.0
 23
0.0
 33
0.0
 16
1.0
 26
0.0
 36
0.0
 17
0.0
 27
1.0
 37
0.0
 76
     0
330
1B
  0
LAYOUT
  5
22
102
{ACAD_REACTORS
330
1A
102
}
330
1A
100
AcDbPlotSettings
  1

  2
none_device
  4
Letter_(8.50_x_11.00_Inches)
  6

 40
6.35
 41
6.35
 42
6.35000508
 43
6.35000508
 44
215.9
 45
279.4
 46
0.0
 47
0.0
 48
0.0
 49
0.0
140
0.0
141
0.0
  6

142
1.0
143
1.0
 70
  1712
 72
     1
 73
     0
 74
     0
  7

 75
     0
147
1.0
148
0.0
149
0.0
100
AcDbLayout
  1
Model
 70
     1
 71
     0
 10
0.0
 20
0.0
 11
279.4
 21
215.9
 12
0.0
 22
0.0
 32
0.0
 14
0.0
 24
0.0
 34
0.0
 15
279.4
 25
215.9
 35
0.0
146
0.0
 13
0.0
 23
0.0
 33
0.0
 16
1.0
 26
0.0
 36
0.0
 17
0.0
 27
1.0
 37
0.0
 76
     0
330
1F
  0
LAYOUT
  5
26
102
{ACAD_REACTORS
330
1A
102
}
330
1A
100
AcDbPlotSettings
  1

  2
none_device
  4

  6

 40
0.0
 41
0.0
 42
0.0
 43
0.0
 44
0.0
 45
0.0
 46
0.0
 47
0.0
 48
0.0
 49
0.0
140
0.0
141
0.0
  6

142
1.0
143
1.0
 70
   688
 72
     1
 73
     0
 74
     5
  7

 75
    16
147
1.0
148
0.0
149
0.0
100
AcDbLayout
  1
Layout2
 70
     1
 71
     2
 10
0.0
 20
0.0
 11
0.0
 21
0.0
 12
0.0
 22
0.0
 32
0.0
 14
0.0
 24
0.0
 34
0.0
 15
0.0
 25
0.0
 35
0.0
146
0.0
 13
0.0
 23
0.0
 33
0.0
 16
1.0
 26
0.0
 36
0.0
 17
0.0
 27
1.0
 37
0.0
 76
     0
330
23
  0
DICTIONARY
  5
47
102
{ACAD_REACTORS
330
C
102
}
330
C
100
AcDbDictionary
281
     1
  3
A0
350
48
  3
A1
350
49
  3
A2
350
4A
  3
A3
350
4B
  3
A4
350
4C
  3
A5
350
4D
  3
A6
350
4E
  3
A7
350
4F
  3
A8
350
50
  3
A9
350
51
  3
B0
350
52
  3
B1
350
53
  3
B2
350
54
  3
B3
350
55
  3
B4
350
56
  3
B5
350
57
  3
B6
350
58
  0
SCALE
  5
48
102
{ACAD_REACTORS
330
47
102
}
330
47
100
AcDbScale
 70
     0
300
1:1
140
1.0
141
1.0
290
     1
  0
SCALE
  5
49
102
{ACAD_REACTORS
330
47
102
}
330
47
100
AcDbScale
 70
     0
300
1:2
140
1.0
141
2.0
290
     0
  0
SCALE
  5
4A
102
{ACAD_REACTORS
330
47
102
}
330
47
100
AcDbScale
 70
     0
300
1:4
140
1.0
141
4.0
290
     0
  0
SCALE
  5
4B
102
{ACAD_REACTORS
330
47
102
}
330
47
100
AcDbScale
 70
     0
300
1:5
140
1.0
141
5.0
290
     0
  0
SCALE
  5
4C
102
{ACAD_REACTORS
330
47
102
}
330
47
100
AcDbScale
 70
     0
300
1:8
140
1.0
141
8.0
290
     0
  0
SCALE
  5
4D
102
{ACAD_REACTORS
330
47
102
}
330
47
100
AcDbScale
 70
     0
300
1:10
140
1.0
141
10.0
290
     0
  0
SCALE
  5
4E
102
{ACAD_REACTORS
330
47
102
}
330
47
100
AcDbScale
 70
     0
300
1:16
140
1.0
141
16.0
290
     0
  0
SCALE
  5
4F
102
{ACAD_REACTORS
330
47
102
}
330
47
100
AcDbScale
 70
     0
300
1:20
140
1.0
141
20.0
290
     0
  0
SCALE
  5
50
102
{ACAD_REACTORS
330
47
102
}
330
47
100
AcDbScale
 70
     0
300
1:30
140
1.0
141
30.0
290
     0
  0
SCALE
  5
51
102
{ACAD_REACTORS
330
47
102
}
330
47
100
AcDbScale
 70
     0
300
1:40
140
1.0
141
40.0
290
     0
  0
SCALE
  5
52
102
{ACAD_REACTORS
330
47
102
}
330
47
100
AcDbScale
 70
     0
300
1:50
140
1.0
141
50.0
290
     0
  0
SCALE
  5
53
102
{ACAD_REACTORS
330
47
102
}
330
47
100
AcDbScale
 70
     0
300
1:100
140
1.0
141
100.0
290
     0
  0
SCALE
  5
54
102
{ACAD_REACTORS
330
47
102
}
330
47
100
AcDbScale
 70
     0
300
2:1
140
2.0
141
1.0
290
     0
  0
SCALE
  5
55
102
{ACAD_REACTORS
330
47
102
}
330
47
100
AcDbScale
 70
     0
300
4:1
140
4.0
141
1.0
290
     0
  0
SCALE
  5
56
102
{ACAD_REACTORS
330
47
102
}
330
47
100
AcDbScale
 70
     0
300
8:1
140
8.0
141
1.0
290
     0
  0
SCALE
  5
57
102
{ACAD_REACTORS
330
47
102
}
330
47
100
AcDbScale
 70
     0
300
10:1
140
10.0
141
1.0
290
     0
  0
SCALE
  5
58
102
{ACAD_REACTORS
330
47
102
}
330
47
100
AcDbScale
 70
     0
300
100:1
140
100.0
141
1.0
290
     0
  0
SUN
  5
5D
330
29
100
AcDbSun
 90
        1
290
     0
 63
     7
 40
1.0
291
     1
 91
  2455826
 92
 54000000
292
     0
 70
     2
 71
   256
280
     1
1001
ACAD
1000
AcDbSavedByObjectVersion
1070
     0
  0
XRECORD
  5
25D
102
{ACAD_REACTORS
330
C
102
}
330
C
100
AcDbXrecord
280
     1
  1
DWGPROPS COOKIE
  2

  3

  4

  6

  7

  8
wastin
  9

300
=
301
=
302
=
303
=
304
=
305
=
306
=
307
=
308
=
309
=
 40
0.0
 41
2460691.757817651
 42
2460691.757818634
  1

 90
        0
  0
ENDSEC
  0
SECTION
  2
THUMBNAILIMAGE
 90
     1943
310
93070000020103010000500000000253010000300700000000000000000000000000000000000000000000000000000000000000000000000000000000000000000000000000000000000000000000000000000000000000000000000000000000000000000000280000000700000061000000010008000000000008030000
310
080009000A000B00000100000000000000000000000080000080000000808000800000008000800080800000C0C0C000C0DCC000F0CAA6000020400000206000002080000020A0000020C0000020E00000400000004020000040400000406000004080000040A0000040C0000040E000006000000060200000604000006060
310
00006080000060A0000060C0000060E00000800000008020000080400000806000008080000080A0000080C0000080E00000A0000000A0200000A0400000A0600000A0800000A0A00000A0C00000A0E00000C0000000C0200000C0400000C0600000C0800000C0A00000C0C00000C0E00000E0000000E0200000E0400000E0
310
600000E0800000E0A00000E0C00000E0E00040000000400020004000400040006000400080004000A0004000C0004000E00040200000402020004020400040206000402080004020A0004020C0004020E00040400000404020004040400040406000404080004040A0004040C0004040E00040600000406020004060400040
310
606000406080004060A0004060C0004060E00040800000408020004080400040806000408080004080A0004080C0004080E00040A0000040A0200040A0400040A0600040A0800040A0A00040A0C00040A0E00040C0000040C0200040C0400040C0600040C0800040C0A00040C0C00040C0E00040E0000040E0200040E04000
310
40E0600040E0800040E0A00040E0C00040E0E00080000000800020008000400080006000800080008000A0008000C0008000E00080200000802020008020400080206000802080008020A0008020C0008020E00080400000804020008040400080406000804080008040A0008040C0008040E0008060000080602000806040
310
0080606000806080008060A0008060C0008060E00080800000808020008080400080806000808080008080A0008080C0008080E00080A0000080A0200080A0400080A0600080A0800080A0A00080A0C00080A0E00080C0000080C0200080C0400080C0600080C0800080C0A00080C0C00080C0E00080E0000080E0200080E0
310
400080E0600080E0800080E0A00080E0C00080E0E000C0000000C0002000C0004000C0006000C0008000C000A000C000C000C000E000C0200000C0202000C0204000C0206000C0208000C020A000C020C000C020E000C0400000C0402000C0404000C0406000C0408000C040A000C040C000C040E000C0600000C0602000C0
310
604000C0606000C0608000C060A000C060C000C060E000C0800000C0802000C0804000C0806000C0808000C080A000C080C000C080E000C0A00000C0A02000C0A04000C0A06000C0A08000C0A0A000C0A0C000C0A0E000C0C00000C0C02000C0C04000C0C06000C0C08000C0C0A000F0FBFF00A4A0A000808080000000FF00
310
00FF000000FFFF00FF000000FF00FF00FFFF0000FFFFFF00FFFFFFFFFFFFFF00FFFFFFFFFFFFFF00FFFFFFFFFFFFFF00FFFFFFFFFFFFFF00FFFFFFFFFFFFFF00FFFFFFFFFFFFFF00FFFFFFFFFFFFFF00FFFFFFFFFFFFFF00FFFFFFFFFFFFFF00FFFFFFFFFFFFFF00FFFFFFFFFFFFFF00FFFFFFFFFFFFFF00FFFFFFFFFFFFFF
310
00FFFFFFFFFFFFFF00FFFFFFFFFFFFFF00FFFFFFFFFFFFFF00FFFFFFFFFFFFFF00FFFFFFFFFFFFFF00FFFFFFFFFFFFFF00FFFFFFFFFFFFFF00FFFFFFFFFFFFFF00FFFFFFFFFFFFFF00FFFFFFFFFFFFFF00FFFFFFFFFFFFFF00FFFFFFFFFFFFFF00FFFFFFFFFFFFFF00FFFFFFFFFFFFFF00FFFFFFFFFFFFFF00FFFFFFFFFFFF
310
FF00FFFFFFFFFFFFFF00FFFFFFFFFFFFFF00FFFFFFFFFFFFFF00FFFFFFFFFFFFFF00FFFFFFFFFFFFFF00FFFFFFFFFFFFFF00FFFFFFFFFFFFFF00FFFFFFFFFFFFFF00FFFFFFFFFFFFFF00FFFFFFFFFFFFFF00FFFFFFFFFFFFFF00FFFFFFFFFFFFFF00FFFFFFFFFFFFFF00FFFFFFFFFFFFFF00FFFFFFFFFFFFFF00FFFFFFFFFF
310
FFFF00FFFFFFFFFFFFFF00FFFFFFFFFFFFFF00FFFFFFFFFFFFFF00FFFFFFFFFFFFFF00FFFFFFFFFFFFFF00FFFFFFFFFFFFFF00FFFFFFFFFFFFFF00FFFFFFFFFFFFFF00FFFFFFFFFFFFFF00FFFFFFFFFFFFFF00FFFFFFFFFFFFFF00FFFFFFFFFFFFFF00FFFFFFFFFFFFFF00FFFFFFFFFFFFFF00FFFFFFFFFFFFFF00FFFFFFFF
310
FFFFFF00FFFFFFFFFFFFFF00FFFFFFFFFFFFFF00FFFFFFFFFFFFFF00FFFFFFFFFFFFFF00FFFFFFFFFFFFFF00FFFFFFFFFFFFFF00FFFFFFFFFFFFFF00FFFFFFFFFFFFFF00FFFFFFFFFFFFFF00FFFFFFFFFFFFFF00FFFFFFFFFFFFFF00FFFFFFFFFFFFFF00FFFFFFFFFFFFFF00FFFFFFFFFFFFFF00FFFFFFFFFFFFFF00FFFFFF
310
FFFFFFFF00FFFFFFFFFFFFFF00FFFFFFFFFFFFFF00FFFFFFFFFFFFFF00FFFFFFFFFFFFFF00FFFFFFFFFFFFFF00FFFFFFFFFFFFFF00FFFFFFFFFFFFFF00FFFFFFFFFFFFFF00FFFFFFFFFFFFFF00FFFFFFFFFFFFFF00FFFFFFFFFFFFFF00FFFFFFFFFFFFFF00FFFFFFFFFFFFFF00FFFFFFFFFFFFFF00FFFFFFFFFFFFFF00FFFF
310
FFFFFFFFFF00FFFFFFFFFFFFFF00FFFFFFFFFFFFFF00FFFFFFFFFFFFFF00FFFFFFFFFFFFFF00
  0
ENDSEC
  0
EOF
