ISO-10303-21;
HEADER;
FILE_DESCRIPTION (( 'STEP AP214' ),
    '1' );
FILE_NAME ('14070532.step',
    '2016-05-09T12:17:20',
    ( '' ),
    ( '' ),
    'SwSTEP 2.0',
    'SolidWorks 2015',
    '' );
FILE_SCHEMA (( 'AUTOMOTIVE_DESIGN' ));
ENDSEC;

DATA;
#1 = CARTESIAN_POINT ( 'NONE',  ( 155.0000000000000000, 5.835000000000000000, 0.0000000000000000000 ) ) ;
#2 = DIRECTION ( 'NONE',  ( 0.0000000000000000000, 1.000000000000000000, 0.0000000000000000000 ) ) ;
#3 = DIRECTION ( 'NONE',  ( 0.0000000000000000000, 0.0000000000000000000, 1.000000000000000000 ) ) ;
#4 = PLANE ( 'NONE',  #314 ) ;
#5 = EDGE_LOOP ( 'NONE', ( #138, #55 ) ) ;
#6 = DIRECTION ( 'NONE',  ( 0.0000000000000000000, 1.000000000000000000, 0.0000000000000000000 ) ) ;
#7 = ORIENTED_EDGE ( 'NONE', *, *, #334, .F. ) ;
#8 = DIRECTION ( 'NONE',  ( -0.0000000000000000000, -1.000000000000000000, -0.0000000000000000000 ) ) ;
#9 = PRODUCT_DEFINITION ( 'UNKNOWN', '', #298, #146 ) ;
#10 = DIRECTION ( 'NONE',  ( -0.0000000000000000000, -1.000000000000000000, -0.0000000000000000000 ) ) ;
#11 = DIRECTION ( 'NONE',  ( -0.0000000000000000000, -1.000000000000000000, -0.0000000000000000000 ) ) ;
#12 = CARTESIAN_POINT ( 'NONE',  ( 155.0000000000000000, 5.835000000000000000, 0.8350000000000047400 ) ) ;
#13 = CARTESIAN_POINT ( 'NONE',  ( 155.0000000000000000, 5.835000000000000000, 0.8350000000000047400 ) ) ;
#14 = CARTESIAN_POINT ( 'NONE',  ( 155.0000000000000000, -5.835000000000000000, 0.0000000000000000000 ) ) ;
#15 = ORIENTED_EDGE ( 'NONE', *, *, #339, .F. ) ;
#16 = UNCERTAINTY_MEASURE_WITH_UNIT (LENGTH_MEASURE( 1.000000000000000100E-005 ), #86, 'distance_accuracy_value', 'NONE');
#17 = DIRECTION ( 'NONE',  ( 0.0000000000000000000, -1.734723475976807100E-016, 1.000000000000000000 ) ) ;
#18 = CARTESIAN_POINT ( 'NONE',  ( 155.0000000000000000, 5.835000000000000000, -0.8350000000000047400 ) ) ;
#19 = CARTESIAN_POINT ( 'NONE',  ( 160.0000000000000000, -2.499999999999999600, -2.499999999999999600 ) ) ;
#20 = CARTESIAN_POINT ( 'NONE',  ( 160.0000000000000000, 2.500000000000000000, -2.499999999999999600 ) ) ;
#21 = CARTESIAN_POINT ( 'NONE',  ( 160.0000000000000000, -2.499999999999999600, -2.499999999999999600 ) ) ;
#22 = MANIFOLD_SOLID_BREP ( 'Boss-Extrude2', #161 ) ;
#23 = DIRECTION ( 'NONE',  ( -0.0000000000000000000, -1.000000000000000000, -0.0000000000000000000 ) ) ;
#24 = DIRECTION ( 'NONE',  ( -1.000000000000000000, -0.0000000000000000000, -0.0000000000000000000 ) ) ;
#25 = CARTESIAN_POINT ( 'NONE',  ( 160.0000000000000000, 2.500000000000000000, -2.499999999999999600 ) ) ;
#26 = DIRECTION ( 'NONE',  ( -0.0000000000000000000, -1.000000000000000000, -0.0000000000000000000 ) ) ;
#27 = DIRECTION ( 'NONE',  ( 0.0000000000000000000, 0.0000000000000000000, -1.000000000000000000 ) ) ;
#28 = CARTESIAN_POINT ( 'NONE',  ( 155.0000000000000000, -5.835000000000000000, 0.0000000000000000000 ) ) ;
#29 = PLANE ( 'NONE',  #321 ) ;
#30 = CARTESIAN_POINT ( 'NONE',  ( 155.0000000000000000, 5.835000000000000000, 0.0000000000000000000 ) ) ;
#31 = DIRECTION ( 'NONE',  ( 0.0000000000000000000, 1.000000000000000000, 0.0000000000000000000 ) ) ;
#32 = CARTESIAN_POINT ( 'NONE',  ( 155.0000000000000000, 5.835000000000000000, 0.0000000000000000000 ) ) ;
#33 = DIRECTION ( 'NONE',  ( 0.0000000000000000000, 0.0000000000000000000, 1.000000000000000000 ) ) ;
#34 = CARTESIAN_POINT ( 'NONE',  ( 160.0000000000000000, 0.0000000000000000000, 0.0000000000000000000 ) ) ;
#35 = ORIENTED_EDGE ( 'NONE', *, *, #342, .F. ) ;
#36 = CARTESIAN_POINT ( 'NONE',  ( 155.0000000000000000, 5.835000000000000000, 0.0000000000000000000 ) ) ;
#37 = CARTESIAN_POINT ( 'NONE',  ( 160.0000000000000000, -2.500000000000000400, 2.500000000000000400 ) ) ;
#38 = CARTESIAN_POINT ( 'NONE',  ( 155.0000000000000000, -5.835000000000000000, 0.0000000000000000000 ) ) ;
#39 = PLANE ( 'NONE',  #308 ) ;
#40 = DIRECTION ( 'NONE',  ( 0.0000000000000000000, 0.0000000000000000000, -1.000000000000000000 ) ) ;
#41 = ORIENTED_EDGE ( 'NONE', *, *, #330, .F. ) ;
#42 = ORIENTED_EDGE ( 'NONE', *, *, #330, .T. ) ;
#43 = ORIENTED_EDGE ( 'NONE', *, *, #352, .F. ) ;
#44 = PLANE ( 'NONE',  #302 ) ;
#45 = SURFACE_STYLE_USAGE ( .BOTH. , #81 ) ;
#46 = CIRCLE ( 'NONE', #294, 0.8350000000000047400 ) ;
#47 = VECTOR ( 'NONE', #307, 1000.000000000000000 ) ;
#48 = FACE_BOUND ( 'NONE', #66, .T. ) ;
#49 = FACE_OUTER_BOUND ( 'NONE', #5, .T. ) ;
#50 = FACE_OUTER_BOUND ( 'NONE', #167, .T. ) ;
#51 = FACE_OUTER_BOUND ( 'NONE', #87, .T. ) ;
#52 = CARTESIAN_POINT ( 'NONE',  ( 160.0000000000000000, -2.500000000000000400, 2.500000000000000400 ) ) ;
#53 = VECTOR ( 'NONE', #180, 1000.000000000000000 ) ;
#54 = LINE ( 'NONE', #237, #53 ) ;
#55 = ORIENTED_EDGE ( 'NONE', *, *, #177, .T. ) ;
#56 = CIRCLE ( 'NONE', #324, 0.8350000000000047400 ) ;
#57 = ORIENTED_EDGE ( 'NONE', *, *, #325, .T. ) ;
#58 = FACE_OUTER_BOUND ( 'NONE', #149, .T. ) ;
#59 = EDGE_LOOP ( 'NONE', ( #192, #41, #122, #171 ) ) ;
#60 = ORIENTED_EDGE ( 'NONE', *, *, #341, .T. ) ;
#61 = FACE_OUTER_BOUND ( 'NONE', #213, .T. ) ;
#62 = CYLINDRICAL_SURFACE ( 'NONE', #309, 0.8350000000000047400 ) ;
#63 = LINE ( 'NONE', #358, #83 ) ;
#64 = EDGE_LOOP ( 'NONE', ( #136, #131, #133, #132 ) ) ;
#65 = CYLINDRICAL_SURFACE ( 'NONE', #310, 0.8350000000000047400 ) ;
#66 = EDGE_LOOP ( 'NONE', ( #107, #226 ) ) ;
#67 = ORIENTED_EDGE ( 'NONE', *, *, #352, .T. ) ;
#68 = DIRECTION ( 'NONE',  ( 1.000000000000000000, 0.0000000000000000000, -0.0000000000000000000 ) ) ;
#69 = VERTEX_POINT ( 'NONE', #79 ) ;
#70 = FACE_BOUND ( 'NONE', #182, .T. ) ;
#71 = CYLINDRICAL_SURFACE ( 'NONE', #311, 0.8350000000000047400 ) ;
#72 = FACE_OUTER_BOUND ( 'NONE', #208, .T. ) ;
#73 = CARTESIAN_POINT ( 'NONE',  ( 160.0000000000000000, 2.499999999999999600, 2.500000000000000400 ) ) ;
#74 = FACE_OUTER_BOUND ( 'NONE', #235, .T. ) ;
#75 = CYLINDRICAL_SURFACE ( 'NONE', #315, 0.8350000000000047400 ) ;
#76 = FACE_OUTER_BOUND ( 'NONE', #59, .T. ) ;
#77 = PLANE ( 'NONE',  #304 ) ;
#78 = UNCERTAINTY_MEASURE_WITH_UNIT (LENGTH_MEASURE( 1.000000000000000100E-005 ), #231, 'distance_accuracy_value', 'NONE');
#79 = CARTESIAN_POINT ( 'NONE',  ( 160.0000000000000000, 2.500000000000000000, -2.499999999999999600 ) ) ;
#80 = CARTESIAN_POINT ( 'NONE',  ( 160.0000000000000000, -2.499999999999999600, -2.499999999999999600 ) ) ;
#81 = SURFACE_SIDE_STYLE ('',( #103 ) ) ;
#82 = DIRECTION ( 'NONE',  ( 0.0000000000000000000, -0.0000000000000000000, 1.000000000000000000 ) ) ;
#83 = VECTOR ( 'NONE', #353, 1000.000000000000000 ) ;
#84 = DIRECTION ( 'NONE',  ( 1.000000000000000000, 0.0000000000000000000, -0.0000000000000000000 ) ) ;
#85 = CARTESIAN_POINT ( 'NONE',  ( -160.0000000000000000, 0.0000000000000000000, 0.0000000000000000000 ) ) ;
#86 =( LENGTH_UNIT ( ) NAMED_UNIT ( * ) SI_UNIT ( .MILLI., .METRE. ) );
#87 = EDGE_LOOP ( 'NONE', ( #7, #35, #134, #135 ) ) ;
#88 = CIRCLE ( 'NONE', #301, 0.8350000000000047400 ) ;
#89 = LINE ( 'NONE', #360, #121 ) ;
#90 = FACE_OUTER_BOUND ( 'NONE', #64, .T. ) ;
#91 = DIRECTION ( 'NONE',  ( 0.0000000000000000000, 1.734723475976807100E-016, -1.000000000000000000 ) ) ;
#92 = FACE_OUTER_BOUND ( 'NONE', #117, .T. ) ;
#93 = VECTOR ( 'NONE', #356, 1000.000000000000000 ) ;
#94 = LINE ( 'NONE', #355, #93 ) ;
#95 = FACE_OUTER_BOUND ( 'NONE', #268, .T. ) ;
#96 = ORIENTED_EDGE ( 'NONE', *, *, #361, .F. ) ;
#97 = DIRECTION ( 'NONE',  ( 0.0000000000000000000, 0.0000000000000000000, -1.000000000000000000 ) ) ;
#98 = FILL_AREA_STYLE ('',( #186 ) ) ;
#99 = CARTESIAN_POINT ( 'NONE',  ( 155.0000000000000000, 5.835000000000000000, -0.8350000000000047400 ) ) ;
#100 = DIRECTION ( 'NONE',  ( 0.0000000000000000000, 0.0000000000000000000, 1.000000000000000000 ) ) ;
#101 = PRESENTATION_STYLE_ASSIGNMENT (( #45 ) ) ;
#102 = DIRECTION ( 'NONE',  ( 0.0000000000000000000, 1.000000000000000000, 0.0000000000000000000 ) ) ;
#103 = SURFACE_STYLE_FILL_AREA ( #98 ) ;
#104 = ORIENTED_EDGE ( 'NONE', *, *, #338, .T. ) ;
#105 = DIRECTION ( 'NONE',  ( 0.0000000000000000000, 0.0000000000000000000, 1.000000000000000000 ) ) ;
#106 = ORIENTED_EDGE ( 'NONE', *, *, #319, .F. ) ;
#107 = ORIENTED_EDGE ( 'NONE', *, *, #343, .F. ) ;
#108 = VERTEX_POINT ( 'NONE', #147 ) ;
#109 = ORIENTED_EDGE ( 'NONE', *, *, #337, .T. ) ;
#110 = ORIENTED_EDGE ( 'NONE', *, *, #177, .F. ) ;
#111 = CARTESIAN_POINT ( 'NONE',  ( 155.0000000000000000, -2.499999999999998700, 0.8350000000000047400 ) ) ;
#112 = ORIENTED_EDGE ( 'NONE', *, *, #335, .T. ) ;
#113 = ORIENTED_EDGE ( 'NONE', *, *, #338, .F. ) ;
#114 = ORIENTED_EDGE ( 'NONE', *, *, #336, .T. ) ;
#115 = CARTESIAN_POINT ( 'NONE',  ( -160.0000000000000000, 2.500000000000000000, -2.499999999999999600 ) ) ;
#116 = ORIENTED_EDGE ( 'NONE', *, *, #347, .F. ) ;
#117 = EDGE_LOOP ( 'NONE', ( #96, #126, #128, #189 ) ) ;
#118 = ORIENTED_EDGE ( 'NONE', *, *, #334, .T. ) ;
#119 = VERTEX_POINT ( 'NONE', #115 ) ;
#120 = FACE_OUTER_BOUND ( 'NONE', #255, .T. ) ;
#121 = VECTOR ( 'NONE', #6, 1000.000000000000000 ) ;
#122 = ORIENTED_EDGE ( 'NONE', *, *, #325, .F. ) ;
#123 = ORIENTED_EDGE ( 'NONE', *, *, #357, .T. ) ;
#124 = ORIENTED_EDGE ( 'NONE', *, *, #322, .F. ) ;
#125 = ORIENTED_EDGE ( 'NONE', *, *, #342, .T. ) ;
#126 = ORIENTED_EDGE ( 'NONE', *, *, #357, .F. ) ;
#127 = VERTEX_POINT ( 'NONE', #148 ) ;
#128 = ORIENTED_EDGE ( 'NONE', *, *, #292, .T. ) ;
#129 = PLANE ( 'NONE',  #305 ) ;
#130 = ORIENTED_EDGE ( 'NONE', *, *, #329, .T. ) ;
#131 = ORIENTED_EDGE ( 'NONE', *, *, #322, .T. ) ;
#132 = ORIENTED_EDGE ( 'NONE', *, *, #341, .F. ) ;
#133 = ORIENTED_EDGE ( 'NONE', *, *, #361, .T. ) ;
#134 = ORIENTED_EDGE ( 'NONE', *, *, #333, .T. ) ;
#135 = ORIENTED_EDGE ( 'NONE', *, *, #327, .T. ) ;
#136 = ORIENTED_EDGE ( 'NONE', *, *, #194, .F. ) ;
#137 = DIRECTION ( 'NONE',  ( -0.0000000000000000000, -1.000000000000000000, -0.0000000000000000000 ) ) ;
#138 = ORIENTED_EDGE ( 'NONE', *, *, #319, .T. ) ;
#139 = ORIENTED_EDGE ( 'NONE', *, *, #292, .F. ) ;
#140 = ORIENTED_EDGE ( 'NONE', *, *, #329, .F. ) ;
#141 = CIRCLE ( 'NONE', #303, 0.8350000000000047400 ) ;
#142 = SHAPE_DEFINITION_REPRESENTATION ( #210, #202 ) ;
#143 = VECTOR ( 'NONE', #244, 1000.000000000000000 ) ;
#144 = CIRCLE ( 'NONE', #296, 0.8350000000000047400 ) ;
#145 = VECTOR ( 'NONE', #323, 1000.000000000000000 ) ;
#146 = PRODUCT_DEFINITION_CONTEXT ( 'detailed design', #320, 'design' ) ;
#147 = CARTESIAN_POINT ( 'NONE',  ( 155.0000000000000000, 5.835000000000000000, 0.8350000000000047400 ) ) ;
#148 = CARTESIAN_POINT ( 'NONE',  ( 160.0000000000000000, -2.499999999999999600, -2.499999999999999600 ) ) ;
#149 = EDGE_LOOP ( 'NONE', ( #116, #118, #112, #190 ) ) ;
#150 = CARTESIAN_POINT ( 'NONE',  ( -160.0000000000000000, -2.499999999999999600, -2.499999999999999600 ) ) ;
#151 = COLOUR_RGB ( '',0.7921568627450980000, 0.8196078431372548800, 0.9333333333333333500 ) ;
#152 = SURFACE_STYLE_FILL_AREA ( #313 ) ;
#153 =( NAMED_UNIT ( * ) PLANE_ANGLE_UNIT ( ) SI_UNIT ( $, .RADIAN. ) );
#154 = VECTOR ( 'NONE', #230, 1000.000000000000000 ) ;
#155 = AXIS2_PLACEMENT_3D ( 'NONE', #216, #236, #240 ) ;
#156 = DIRECTION ( 'NONE',  ( 1.000000000000000000, 0.0000000000000000000, -0.0000000000000000000 ) ) ;
#157 = CARTESIAN_POINT ( 'NONE',  ( 155.0000000000000000, 5.835000000000000000, 0.0000000000000000000 ) ) ;
#158 = COLOUR_RGB ( '',0.7921568627450980000, 0.8196078431372548800, 0.9333333333333333500 ) ;
#159 = VECTOR ( 'NONE', #228, 1000.000000000000000 ) ;
#160 = LINE ( 'NONE', #317, #349 ) ;
#161 = CLOSED_SHELL ( 'NONE', ( #256, #252, #273, #247, #279, #259, #248, #282, #260, #249, #251, #250 ) ) ;
#162 = DIRECTION ( 'NONE',  ( 0.0000000000000000000, 1.000000000000000000, 0.0000000000000000000 ) ) ;
#163 = CIRCLE ( 'NONE', #295, 0.8350000000000047400 ) ;
#164 = CARTESIAN_POINT ( 'NONE',  ( -160.0000000000000000, -2.500000000000000400, 2.500000000000000400 ) ) ;
#165 = LINE ( 'NONE', #272, #143 ) ;
#166 = LINE ( 'NONE', #239, #47 ) ;
#167 = EDGE_LOOP ( 'NONE', ( #57, #67, #139, #140 ) ) ;
#168 = PLANE ( 'NONE',  #306 ) ;
#169 = CARTESIAN_POINT ( 'NONE',  ( -160.0000000000000000, 2.499999999999999600, 2.500000000000000400 ) ) ;
#170 = VECTOR ( 'NONE', #10, 1000.000000000000000 ) ;
#171 = ORIENTED_EDGE ( 'NONE', *, *, #339, .T. ) ;
#172 = DIRECTION ( 'NONE',  ( 0.0000000000000000000, -1.000000000000000000, -1.734723475976807100E-016 ) ) ;
#173 = LINE ( 'NONE', #340, #170 ) ;
#174 = PRESENTATION_STYLE_ASSIGNMENT (( #258 ) ) ;
#175 = ORIENTED_EDGE ( 'NONE', *, *, #327, .F. ) ;
#176 = UNCERTAINTY_MEASURE_WITH_UNIT (LENGTH_MEASURE( 1.000000000000000100E-005 ), #254, 'distance_accuracy_value', 'NONE');
#177 = EDGE_CURVE ( 'NONE', #108, #246, #56, .T. ) ;
#178 = VERTEX_POINT ( 'NONE', #164 ) ;
#179 = PRODUCT_RELATED_PRODUCT_CATEGORY ( 'part', '', ( #209 ) ) ;
#180 = DIRECTION ( 'NONE',  ( 0.0000000000000000000, 1.000000000000000000, 0.0000000000000000000 ) ) ;
#181 =( GEOMETRIC_REPRESENTATION_CONTEXT ( 3 ) GLOBAL_UNCERTAINTY_ASSIGNED_CONTEXT ( ( #176 ) ) GLOBAL_UNIT_ASSIGNED_CONTEXT ( ( #254, #278, #233 ) ) REPRESENTATION_CONTEXT ( 'NONE', 'WORKASPACE' ) );
#182 = EDGE_LOOP ( 'NONE', ( #125, #187 ) ) ;
#183 = CARTESIAN_POINT ( 'NONE',  ( 155.0000000000000000, -2.499999999999998700, -0.8350000000000047400 ) ) ;
#184 = LINE ( 'NONE', #19, #206 ) ;
#185 = VERTEX_POINT ( 'NONE', #183 ) ;
#186 = FILL_AREA_STYLE_COLOUR ( '', #151 ) ;
#187 = ORIENTED_EDGE ( 'NONE', *, *, #347, .T. ) ;
#188 = MECHANICAL_DESIGN_GEOMETRIC_PRESENTATION_REPRESENTATION (  '', ( #193 ), #181 ) ;
#189 = ORIENTED_EDGE ( 'NONE', *, *, #346, .T. ) ;
#190 = ORIENTED_EDGE ( 'NONE', *, *, #333, .F. ) ;
#191 = PRESENTATION_LAYER_ASSIGNMENT (  '', '', ( #193 ) ) ;
#192 = ORIENTED_EDGE ( 'NONE', *, *, #194, .T. ) ;
#193 = STYLED_ITEM ( 'NONE', ( #174 ), #202 ) ;
#194 = EDGE_CURVE ( 'NONE', #275, #119, #54, .T. ) ;
#195 = VECTOR ( 'NONE', #23, 1000.000000000000000 ) ;
#196 = LINE ( 'NONE', #345, #145 ) ;
#197 = LINE ( 'NONE', #12, #195 ) ;
#198 = VECTOR ( 'NONE', #11, 1000.000000000000000 ) ;
#199 = CIRCLE ( 'NONE', #297, 0.8350000000000047400 ) ;
#200 = VECTOR ( 'NONE', #26, 1000.000000000000000 ) ;
#201 =( NAMED_UNIT ( * ) SI_UNIT ( $, .STERADIAN. ) SOLID_ANGLE_UNIT ( ) );
#202 = ADVANCED_BREP_SHAPE_REPRESENTATION ( '14070532', ( #22, #155 ), #293 ) ;
#203 = LINE ( 'NONE', #13, #198 ) ;
#204 = VECTOR ( 'NONE', #24, 1000.000000000000000 ) ;
#205 = CIRCLE ( 'NONE', #299, 0.8350000000000047400 ) ;
#206 = VECTOR ( 'NONE', #17, 1000.000000000000000 ) ;
#207 = DIRECTION ( 'NONE',  ( -0.0000000000000000000, -1.000000000000000000, -0.0000000000000000000 ) ) ;
#208 = EDGE_LOOP ( 'NONE', ( #110, #114, #109, #113 ) ) ;
#209 = PRODUCT ( '14070532', '14070532', '', ( #238 ) ) ;
#210 = PRODUCT_DEFINITION_SHAPE ( 'NONE', 'NONE',  #9 ) ;
#211 = VERTEX_POINT ( 'NONE', #270 ) ;
#212 = DIRECTION ( 'NONE',  ( 0.0000000000000000000, -8.673617379884035500E-017, 1.000000000000000000 ) ) ;
#213 = EDGE_LOOP ( 'NONE', ( #60, #215, #43, #42 ) ) ;
#214 = CARTESIAN_POINT ( 'NONE',  ( 155.0000000000000000, 2.500000000000000000, 0.8350000000000047400 ) ) ;
#215 = ORIENTED_EDGE ( 'NONE', *, *, #346, .F. ) ;
#216 = CARTESIAN_POINT ( 'NONE',  ( 0.0000000000000000000, 0.0000000000000000000, 0.0000000000000000000 ) ) ;
#217 = VERTEX_POINT ( 'NONE', #37 ) ;
#218 = CARTESIAN_POINT ( 'NONE',  ( 155.0000000000000000, -2.499999999999998700, 0.0000000000000000000 ) ) ;
#219 = DIRECTION ( 'NONE',  ( 0.0000000000000000000, 1.000000000000000000, 0.0000000000000000000 ) ) ;
#220 = DIRECTION ( 'NONE',  ( -0.0000000000000000000, 1.000000000000000000, 1.734723475976807100E-016 ) ) ;
#221 = LINE ( 'NONE', #20, #204 ) ;
#222 = DIRECTION ( 'NONE',  ( 0.0000000000000000000, 0.0000000000000000000, -1.000000000000000000 ) ) ;
#223 = VERTEX_POINT ( 'NONE', #362 ) ;
#224 = VERTEX_POINT ( 'NONE', #169 ) ;
#225 = LINE ( 'NONE', #18, #200 ) ;
#226 = ORIENTED_EDGE ( 'NONE', *, *, #337, .F. ) ;
#227 = CARTESIAN_POINT ( 'NONE',  ( 160.0000000000000000, -2.500000000000000400, 2.500000000000000400 ) ) ;
#228 = DIRECTION ( 'NONE',  ( -1.000000000000000000, -0.0000000000000000000, -0.0000000000000000000 ) ) ;
#229 = CARTESIAN_POINT ( 'NONE',  ( -160.0000000000000000, -2.500000000000000400, 2.500000000000000400 ) ) ;
#230 = DIRECTION ( 'NONE',  ( 0.0000000000000000000, 1.000000000000000000, 0.0000000000000000000 ) ) ;
#231 =( LENGTH_UNIT ( ) NAMED_UNIT ( * ) SI_UNIT ( .MILLI., .METRE. ) );
#232 = DIRECTION ( 'NONE',  ( -0.0000000000000000000, 0.0000000000000000000, -1.000000000000000000 ) ) ;
#233 =( NAMED_UNIT ( * ) SI_UNIT ( $, .STERADIAN. ) SOLID_ANGLE_UNIT ( ) );
#234 = CARTESIAN_POINT ( 'NONE',  ( 155.0000000000000000, -2.499999999999998700, 0.0000000000000000000 ) ) ;
#235 = EDGE_LOOP ( 'NONE', ( #175, #344 ) ) ;
#236 = DIRECTION ( 'NONE',  ( 0.0000000000000000000, 0.0000000000000000000, 1.000000000000000000 ) ) ;
#237 = CARTESIAN_POINT ( 'NONE',  ( -160.0000000000000000, -2.499999999999999600, -2.499999999999999600 ) ) ;
#238 = PRODUCT_CONTEXT ( 'NONE', #285, 'mechanical' ) ;
#239 = CARTESIAN_POINT ( 'NONE',  ( 160.0000000000000000, 2.499999999999999600, 2.500000000000000400 ) ) ;
#240 = DIRECTION ( 'NONE',  ( 1.000000000000000000, 0.0000000000000000000, 0.0000000000000000000 ) ) ;
#241 = DIRECTION ( 'NONE',  ( 0.0000000000000000000, 0.0000000000000000000, -1.000000000000000000 ) ) ;
#242 = DIRECTION ( 'NONE',  ( -0.0000000000000000000, 1.000000000000000000, 8.673617379884035500E-017 ) ) ;
#243 = APPLICATION_PROTOCOL_DEFINITION ( 'draft international standard', 'automotive_design', 1998, #320 ) ;
#244 = DIRECTION ( 'NONE',  ( 0.0000000000000000000, -8.673617379884035500E-017, 1.000000000000000000 ) ) ;
#245 = CARTESIAN_POINT ( 'NONE',  ( 155.0000000000000000, 5.835000000000000000, 0.0000000000000000000 ) ) ;
#246 = VERTEX_POINT ( 'NONE', #99 ) ;
#247 = ADVANCED_FACE ( 'NONE', ( #48, #61 ), #29, .F. ) ;
#248 = ADVANCED_FACE ( 'NONE', ( #50 ), #291, .T. ) ;
#249 = ADVANCED_FACE ( 'NONE', ( #51 ), #75, .T. ) ;
#250 = ADVANCED_FACE ( 'NONE', ( #49 ), #4, .T. ) ;
#251 = ADVANCED_FACE ( 'NONE', ( #120 ), #71, .T. ) ;
#252 = ADVANCED_FACE ( 'NONE', ( #58 ), #65, .T. ) ;
#253 = ORIENTED_EDGE ( 'NONE', *, *, #343, .T. ) ;
#254 =( LENGTH_UNIT ( ) NAMED_UNIT ( * ) SI_UNIT ( .MILLI., .METRE. ) );
#255 = EDGE_LOOP ( 'NONE', ( #267, #106, #104, #253 ) ) ;
#256 = ADVANCED_FACE ( 'NONE', ( #72 ), #62, .T. ) ;
#257 = DIRECTION ( 'NONE',  ( 0.0000000000000000000, 8.673617379884035500E-017, -1.000000000000000000 ) ) ;
#259 = ADVANCED_FACE ( 'NONE', ( #70, #95 ), #39, .T. ) ;
#258 = SURFACE_STYLE_USAGE ( .BOTH. , #286 ) ;
#260 = ADVANCED_FACE ( 'NONE', ( #74 ), #168, .F. ) ;
#261 = APPLICATION_PROTOCOL_DEFINITION ( 'draft international standard', 'automotive_design', 1998, #285 ) ;
#262 =( NAMED_UNIT ( * ) PLANE_ANGLE_UNIT ( ) SI_UNIT ( $, .RADIAN. ) );
#263 = VERTEX_POINT ( 'NONE', #111 ) ;
#264 =( NAMED_UNIT ( * ) SI_UNIT ( $, .STERADIAN. ) SOLID_ANGLE_UNIT ( ) );
#265 = CARTESIAN_POINT ( 'NONE',  ( 155.0000000000000000, 5.835000000000000000, 0.0000000000000000000 ) ) ;
#266 = DIRECTION ( 'NONE',  ( 0.0000000000000000000, 1.000000000000000000, 0.0000000000000000000 ) ) ;
#267 = ORIENTED_EDGE ( 'NONE', *, *, #336, .F. ) ;
#268 = EDGE_LOOP ( 'NONE', ( #124, #15, #130, #123 ) ) ;
#269 = DIRECTION ( 'NONE',  ( 0.0000000000000000000, -0.0000000000000000000, 1.000000000000000000 ) ) ;
#270 = CARTESIAN_POINT ( 'NONE',  ( 155.0000000000000000, 2.500000000000000000, -0.8350000000000047400 ) ) ;
#271 = DIRECTION ( 'NONE',  ( 0.0000000000000000000, 0.0000000000000000000, -1.000000000000000000 ) ) ;
#272 = CARTESIAN_POINT ( 'NONE',  ( -160.0000000000000000, 2.500000000000000000, -2.499999999999999600 ) ) ;
#273 = ADVANCED_FACE ( 'NONE', ( #76 ), #129, .F. ) ;
#274 = CARTESIAN_POINT ( 'NONE',  ( 155.0000000000000000, 2.500000000000000000, 0.0000000000000000000 ) ) ;
#275 = VERTEX_POINT ( 'NONE', #150 ) ;
#276 = CARTESIAN_POINT ( 'NONE',  ( 155.0000000000000000, 2.500000000000000000, 0.0000000000000000000 ) ) ;
#277 = DIRECTION ( 'NONE',  ( -0.0000000000000000000, 1.000000000000000000, 8.673617379884035500E-017 ) ) ;
#278 =( NAMED_UNIT ( * ) PLANE_ANGLE_UNIT ( ) SI_UNIT ( $, .RADIAN. ) );
#279 = ADVANCED_FACE ( 'NONE', ( #92 ), #77, .T. ) ;
#280 = DIRECTION ( 'NONE',  ( -0.0000000000000000000, 1.000000000000000000, 1.734723475976807100E-016 ) ) ;
#281 = VERTEX_POINT ( 'NONE', #73 ) ;
#282 = ADVANCED_FACE ( 'NONE', ( #90 ), #44, .F. ) ;
#283 = LINE ( 'NONE', #227, #159 ) ;
#284 = DIRECTION ( 'NONE',  ( 0.0000000000000000000, 0.0000000000000000000, 1.000000000000000000 ) ) ;
#285 = APPLICATION_CONTEXT ( 'automotive_design' ) ;
#286 = SURFACE_SIDE_STYLE ('',( #152 ) ) ;
#287 = FILL_AREA_STYLE_COLOUR ( '', #158 ) ;
#288 = DIRECTION ( 'NONE',  ( -0.0000000000000000000, -1.000000000000000000, -0.0000000000000000000 ) ) ;
#289 = DIRECTION ( 'NONE',  ( 0.0000000000000000000, 0.0000000000000000000, 1.000000000000000000 ) ) ;
#290 = LINE ( 'NONE', #229, #154 ) ;
#291 = PLANE ( 'NONE',  #318 ) ;
#292 = EDGE_CURVE ( 'NONE', #217, #281, #94, .T. ) ;
#293 =( GEOMETRIC_REPRESENTATION_CONTEXT ( 3 ) GLOBAL_UNCERTAINTY_ASSIGNED_CONTEXT ( ( #78 ) ) GLOBAL_UNIT_ASSIGNED_CONTEXT ( ( #231, #262, #264 ) ) REPRESENTATION_CONTEXT ( 'NONE', 'WORKASPACE' ) );
#294 = AXIS2_PLACEMENT_3D ( 'NONE', #218, #220, #222 ) ;
#295 = AXIS2_PLACEMENT_3D ( 'NONE', #274, #242, #241 ) ;
#296 = AXIS2_PLACEMENT_3D ( 'NONE', #234, #280, #271 ) ;
#297 = AXIS2_PLACEMENT_3D ( 'NONE', #276, #277, #312 ) ;
#298 = PRODUCT_DEFINITION_FORMATION_WITH_SPECIFIED_SOURCE ( 'ANY', '', #209, .NOT_KNOWN. ) ;
#299 = AXIS2_PLACEMENT_3D ( 'NONE', #28, #266, #284 ) ;
#300 = DIRECTION ( 'NONE',  ( 0.0000000000000000000, -1.000000000000000000, -8.673617379884035500E-017 ) ) ;
#301 = AXIS2_PLACEMENT_3D ( 'NONE', #14, #31, #33 ) ;
#302 = AXIS2_PLACEMENT_3D ( 'NONE', #85, #350, #351 ) ;
#303 = AXIS2_PLACEMENT_3D ( 'NONE', #1, #2, #3 ) ;
#304 = AXIS2_PLACEMENT_3D ( 'NONE', #52, #289, #68 ) ;
#305 = AXIS2_PLACEMENT_3D ( 'NONE', #80, #105, #156 ) ;
#306 = AXIS2_PLACEMENT_3D ( 'NONE', #38, #102, #82 ) ;
#307 = DIRECTION ( 'NONE',  ( -1.000000000000000000, -0.0000000000000000000, -0.0000000000000000000 ) ) ;
#308 = AXIS2_PLACEMENT_3D ( 'NONE', #21, #172, #91 ) ;
#309 = AXIS2_PLACEMENT_3D ( 'NONE', #32, #207, #27 ) ;
#310 = AXIS2_PLACEMENT_3D ( 'NONE', #265, #137, #97 ) ;
#311 = AXIS2_PLACEMENT_3D ( 'NONE', #30, #288, #40 ) ;
#312 = DIRECTION ( 'NONE',  ( 0.0000000000000000000, 0.0000000000000000000, -1.000000000000000000 ) ) ;
#313 = FILL_AREA_STYLE ('',( #287 ) ) ;
#314 = AXIS2_PLACEMENT_3D ( 'NONE', #245, #162, #269 ) ;
#315 = AXIS2_PLACEMENT_3D ( 'NONE', #36, #8, #348 ) ;
#316 = VERTEX_POINT ( 'NONE', #354 ) ;
#317 = CARTESIAN_POINT ( 'NONE',  ( 160.0000000000000000, 2.500000000000000000, -2.499999999999999600 ) ) ;
#318 = AXIS2_PLACEMENT_3D ( 'NONE', #34, #84, #232 ) ;
#319 = EDGE_CURVE ( 'NONE', #246, #108, #141, .T. ) ;
#320 = APPLICATION_CONTEXT ( 'automotive_design' ) ;
#321 = AXIS2_PLACEMENT_3D ( 'NONE', #25, #300, #257 ) ;
#322 = EDGE_CURVE ( 'NONE', #275, #178, #63, .T. ) ;
#323 = DIRECTION ( 'NONE',  ( -1.000000000000000000, -0.0000000000000000000, -0.0000000000000000000 ) ) ;
#324 = AXIS2_PLACEMENT_3D ( 'NONE', #157, #219, #100 ) ;
#325 = EDGE_CURVE ( 'NONE', #127, #69, #89, .T. ) ;
#326 =( GEOMETRIC_REPRESENTATION_CONTEXT ( 3 ) GLOBAL_UNCERTAINTY_ASSIGNED_CONTEXT ( ( #16 ) ) GLOBAL_UNIT_ASSIGNED_CONTEXT ( ( #86, #153, #201 ) ) REPRESENTATION_CONTEXT ( 'NONE', 'WORKASPACE' ) );
#327 = EDGE_CURVE ( 'NONE', #223, #316, #88, .T. ) ;
#328 = MECHANICAL_DESIGN_GEOMETRIC_PRESENTATION_REPRESENTATION (  '', ( #332 ), #326 ) ;
#329 = EDGE_CURVE ( 'NONE', #127, #217, #184, .T. ) ;
#330 = EDGE_CURVE ( 'NONE', #69, #119, #221, .T. ) ;
#331 = PRESENTATION_LAYER_ASSIGNMENT (  '', '', ( #332 ) ) ;
#332 = STYLED_ITEM ( 'NONE', ( #101 ), #22 ) ;
#333 = EDGE_CURVE ( 'NONE', #185, #223, #225, .T. ) ;
#334 = EDGE_CURVE ( 'NONE', #263, #316, #203, .T. ) ;
#335 = EDGE_CURVE ( 'NONE', #316, #223, #205, .T. ) ;
#336 = EDGE_CURVE ( 'NONE', #108, #359, #197, .T. ) ;
#337 = EDGE_CURVE ( 'NONE', #359, #211, #199, .T. ) ;
#338 = EDGE_CURVE ( 'NONE', #246, #211, #173, .T. ) ;
#339 = EDGE_CURVE ( 'NONE', #127, #275, #196, .T. ) ;
#340 = CARTESIAN_POINT ( 'NONE',  ( 155.0000000000000000, 5.835000000000000000, -0.8350000000000047400 ) ) ;
#341 = EDGE_CURVE ( 'NONE', #119, #224, #165, .T. ) ;
#342 = EDGE_CURVE ( 'NONE', #185, #263, #144, .T. ) ;
#343 = EDGE_CURVE ( 'NONE', #211, #359, #163, .T. ) ;
#344 = ORIENTED_EDGE ( 'NONE', *, *, #335, .F. ) ;
#345 = CARTESIAN_POINT ( 'NONE',  ( 160.0000000000000000, -2.499999999999999600, -2.499999999999999600 ) ) ;
#346 = EDGE_CURVE ( 'NONE', #281, #224, #166, .T. ) ;
#347 = EDGE_CURVE ( 'NONE', #263, #185, #46, .T. ) ;
#348 = DIRECTION ( 'NONE',  ( 0.0000000000000000000, 0.0000000000000000000, -1.000000000000000000 ) ) ;
#349 = VECTOR ( 'NONE', #212, 1000.000000000000000 ) ;
#350 = DIRECTION ( 'NONE',  ( 1.000000000000000000, 0.0000000000000000000, -0.0000000000000000000 ) ) ;
#351 = DIRECTION ( 'NONE',  ( -0.0000000000000000000, 0.0000000000000000000, -1.000000000000000000 ) ) ;
#352 = EDGE_CURVE ( 'NONE', #69, #281, #160, .T. ) ;
#353 = DIRECTION ( 'NONE',  ( 0.0000000000000000000, -1.734723475976807100E-016, 1.000000000000000000 ) ) ;
#354 = CARTESIAN_POINT ( 'NONE',  ( 155.0000000000000000, -5.835000000000000000, 0.8350000000000047400 ) ) ;
#355 = CARTESIAN_POINT ( 'NONE',  ( 160.0000000000000000, -2.500000000000000400, 2.500000000000000400 ) ) ;
#356 = DIRECTION ( 'NONE',  ( 0.0000000000000000000, 1.000000000000000000, 0.0000000000000000000 ) ) ;
#357 = EDGE_CURVE ( 'NONE', #217, #178, #283, .T. ) ;
#358 = CARTESIAN_POINT ( 'NONE',  ( -160.0000000000000000, -2.499999999999999600, -2.499999999999999600 ) ) ;
#359 = VERTEX_POINT ( 'NONE', #214 ) ;
#360 = CARTESIAN_POINT ( 'NONE',  ( 160.0000000000000000, -2.499999999999999600, -2.499999999999999600 ) ) ;
#361 = EDGE_CURVE ( 'NONE', #178, #224, #290, .T. ) ;
#362 = CARTESIAN_POINT ( 'NONE',  ( 155.0000000000000000, -5.835000000000000000, -0.8350000000000047400 ) ) ;
ENDSEC;
END-ISO-10303-21;
